<?xml version="1.0" encoding="UTF-8" standalone="no"?><svg xmlns="http://www.w3.org/2000/svg" xmlns:xlink="http://www.w3.org/1999/xlink" contentScriptType="application/ecmascript" contentStyleType="text/css" height="673px" preserveAspectRatio="none" style="width:755px;height:673px;background:#FFFFFF;" version="1.1" viewBox="0 0 755 673" width="755px" zoomAndPan="magnify"><defs><filter height="300%" id="fwljzy9knan8w" width="300%" x="-1" y="-1"><feGaussianBlur result="blurOut" stdDeviation="2.0"/><feColorMatrix in="blurOut" result="blurOut2" type="matrix" values="0 0 0 0 0 0 0 0 0 0 0 0 0 0 0 0 0 0 .4 0"/><feOffset dx="4.0" dy="4.0" in="blurOut2" result="blurOut3"/><feBlend in="SourceGraphic" in2="blurOut3" mode="normal"/></filter></defs><g><text fill="#000000" font-family="sans-serif" font-size="18" lengthAdjust="spacing" textLength="190" x="276" y="17.4023">设计模式-原型模式模式</text><!--MD5=[7447ff1ee4491d74d651cd6a266502b3]
cluster shapePackage--><rect fill="#FFFFFF" filter="url(#fwljzy9knan8w)" height="501.5" style="stroke:#000000;stroke-width:1.5;" width="386" x="357" y="160.1992"/><text fill="#000000" font-family="sans-serif" font-size="14" font-weight="bold" lengthAdjust="spacing" textLength="100" x="500" y="175.7344">shapePackage</text><!--MD5=[f62eaa6c4d43571d0e4c76098fe1b59f]
class Cloneable--><rect codeLine="5" fill="#FEFECE" filter="url(#fwljzy9knan8w)" height="48" id="Cloneable" style="stroke:#A80036;stroke-width:1.5;" width="89" x="510.5" y="203.1992"/><ellipse cx="525.5" cy="219.1992" fill="#B4A7E5" rx="11" ry="11" style="stroke:#A80036;stroke-width:1.0;"/><path d="M521.9277,215.4644 L521.9277,213.3062 L529.3071,213.3062 L529.3071,215.4644 L526.8418,215.4644 L526.8418,223.541 L529.3071,223.541 L529.3071,225.6992 L521.9277,225.6992 L521.9277,223.541 L524.3931,223.541 L524.3931,215.4644 Z " fill="#000000"/><text fill="#000000" font-family="sans-serif" font-size="12" font-style="italic" lengthAdjust="spacing" textLength="57" x="539.5" y="223.7344">Cloneable</text><line style="stroke:#A80036;stroke-width:1.5;" x1="511.5" x2="598.5" y1="235.1992" y2="235.1992"/><line style="stroke:#A80036;stroke-width:1.5;" x1="511.5" x2="598.5" y1="243.1992" y2="243.1992"/><!--MD5=[426e75666daf533f17226ff4c87e20fd]
class Shape--><rect codeLine="7" fill="#FEFECE" filter="url(#fwljzy9knan8w)" height="138.6855" id="Shape" style="stroke:#A80036;stroke-width:1.5;" width="136" x="487" y="347.6992"/><ellipse cx="533.25" cy="363.6992" fill="#A9DCDF" rx="11" ry="11" style="stroke:#A80036;stroke-width:1.0;"/><path d="M533.3633,359.2974 L532.2095,364.3691 L534.5254,364.3691 Z M531.8691,357.0562 L534.8657,357.0562 L538.2109,369.4492 L535.7622,369.4492 L534.9985,366.3862 L531.7197,366.3862 L530.9727,369.4492 L528.5239,369.4492 Z " fill="#000000"/><text fill="#000000" font-family="sans-serif" font-size="12" font-style="italic" lengthAdjust="spacing" textLength="35" x="553.75" y="368.2344">Shape</text><line style="stroke:#A80036;stroke-width:1.5;" x1="488" x2="622" y1="379.6992" y2="379.6992"/><rect fill="none" height="6" style="stroke:#C82930;stroke-width:1.0;" width="6" x="495" y="387.6992"/><text fill="#000000" font-family="sans-serif" font-size="11" lengthAdjust="spacing" textLength="48" x="507" y="394.334">String id;</text><polygon fill="none" points="498,398.6543,502,402.6543,498,406.6543,494,402.6543" style="stroke:#B38D22;stroke-width:1.0;"/><text fill="#000000" font-family="sans-serif" font-size="11" lengthAdjust="spacing" textLength="61" x="507" y="407.2891">String type;</text><line style="stroke:#A80036;stroke-width:1.5;" x1="488" x2="622" y1="413.6094" y2="413.6094"/><polygon fill="#4177AF" points="498,420.6094,494,426.6094,502,426.6094" style="stroke:#1963A0;stroke-width:1.0;"/><text fill="#000000" font-family="sans-serif" font-size="11" lengthAdjust="spacing" textLength="110" x="507" y="428.2441">abstract void draw();</text><ellipse cx="498" cy="437.5645" fill="#84BE84" rx="3" ry="3" style="stroke:#038048;stroke-width:1.0;"/><text fill="#000000" font-family="sans-serif" font-size="11" lengthAdjust="spacing" textLength="86" x="507" y="441.1992">String getType()</text><ellipse cx="498" cy="450.5195" fill="#84BE84" rx="3" ry="3" style="stroke:#038048;stroke-width:1.0;"/><text fill="#000000" font-family="sans-serif" font-size="11" lengthAdjust="spacing" textLength="70" x="507" y="454.1543">String getId()</text><ellipse cx="498" cy="463.4746" fill="#84BE84" rx="3" ry="3" style="stroke:#038048;stroke-width:1.0;"/><text fill="#000000" font-family="sans-serif" font-size="11" lengthAdjust="spacing" textLength="105" x="507" y="467.1094">void setId(String id)</text><ellipse cx="498" cy="476.4297" fill="#84BE84" rx="3" ry="3" style="stroke:#038048;stroke-width:1.0;"/><text fill="#000000" font-family="sans-serif" font-size="11" lengthAdjust="spacing" textLength="75" x="507" y="480.0645">Object clone()</text><!--MD5=[b5313cd49da22b0744b541f414f8445e]
class Rectangle--><rect codeLine="19" fill="#FEFECE" filter="url(#fwljzy9knan8w)" height="73.9102" id="Rectangle" style="stroke:#A80036;stroke-width:1.5;" width="88" x="389" y="563.6992"/><ellipse cx="404" cy="579.6992" fill="#ADD1B2" rx="11" ry="11" style="stroke:#A80036;stroke-width:1.0;"/><path d="M406.4731,585.8423 Q405.8921,586.1411 405.2529,586.2905 Q404.6138,586.4399 403.9082,586.4399 Q401.4014,586.4399 400.0815,584.7881 Q398.7617,583.1362 398.7617,580.0151 Q398.7617,576.8857 400.0815,575.2339 Q401.4014,573.582 403.9082,573.582 Q404.6138,573.582 405.2612,573.7314 Q405.9087,573.8809 406.4731,574.1797 L406.4731,576.9023 Q405.8423,576.3213 405.2488,576.0515 Q404.6553,575.7817 404.0244,575.7817 Q402.6797,575.7817 401.9949,576.8484 Q401.3101,577.915 401.3101,580.0151 Q401.3101,582.1069 401.9949,583.1736 Q402.6797,584.2402 404.0244,584.2402 Q404.6553,584.2402 405.2488,583.9705 Q405.8423,583.7007 406.4731,583.1196 Z " fill="#000000"/><text fill="#000000" font-family="sans-serif" font-size="12" lengthAdjust="spacing" textLength="56" x="418" y="584.2344">Rectangle</text><line style="stroke:#A80036;stroke-width:1.5;" x1="390" x2="476" y1="595.6992" y2="595.6992"/><line style="stroke:#A80036;stroke-width:1.5;" x1="390" x2="476" y1="603.6992" y2="603.6992"/><ellipse cx="400" cy="614.6992" fill="#84BE84" rx="3" ry="3" style="stroke:#038048;stroke-width:1.0;"/><text fill="#000000" font-family="sans-serif" font-size="11" lengthAdjust="spacing" textLength="60" x="409" y="618.334">Rectangle()</text><ellipse cx="400" cy="627.6543" fill="#84BE84" rx="3" ry="3" style="stroke:#038048;stroke-width:1.0;"/><text fill="#000000" font-family="sans-serif" font-size="11" lengthAdjust="spacing" textLength="60" x="409" y="631.2891">void draw()</text><!--MD5=[5655ee3e2a0d028d03fe20f829576392]
class Square--><rect codeLine="23" fill="#FEFECE" filter="url(#fwljzy9knan8w)" height="73.9102" id="Square" style="stroke:#A80036;stroke-width:1.5;" width="86" x="512" y="563.6992"/><ellipse cx="533.3" cy="579.6992" fill="#ADD1B2" rx="11" ry="11" style="stroke:#A80036;stroke-width:1.0;"/><path d="M535.7731,585.8423 Q535.1921,586.1411 534.5529,586.2905 Q533.9138,586.4399 533.2082,586.4399 Q530.7014,586.4399 529.3815,584.7881 Q528.0617,583.1362 528.0617,580.0151 Q528.0617,576.8857 529.3815,575.2339 Q530.7014,573.582 533.2082,573.582 Q533.9138,573.582 534.5612,573.7314 Q535.2087,573.8809 535.7731,574.1797 L535.7731,576.9023 Q535.1423,576.3213 534.5488,576.0515 Q533.9553,575.7817 533.3244,575.7817 Q531.9797,575.7817 531.2949,576.8484 Q530.6101,577.915 530.6101,580.0151 Q530.6101,582.1069 531.2949,583.1736 Q531.9797,584.2402 533.3244,584.2402 Q533.9553,584.2402 534.5488,583.9705 Q535.1423,583.7007 535.7731,583.1196 Z " fill="#000000"/><text fill="#000000" font-family="sans-serif" font-size="12" lengthAdjust="spacing" textLength="40" x="548.7" y="584.2344">Square</text><line style="stroke:#A80036;stroke-width:1.5;" x1="513" x2="597" y1="595.6992" y2="595.6992"/><line style="stroke:#A80036;stroke-width:1.5;" x1="513" x2="597" y1="603.6992" y2="603.6992"/><ellipse cx="523" cy="614.6992" fill="#84BE84" rx="3" ry="3" style="stroke:#038048;stroke-width:1.0;"/><text fill="#000000" font-family="sans-serif" font-size="11" lengthAdjust="spacing" textLength="45" x="532" y="618.334">Square()</text><ellipse cx="523" cy="627.6543" fill="#84BE84" rx="3" ry="3" style="stroke:#038048;stroke-width:1.0;"/><text fill="#000000" font-family="sans-serif" font-size="11" lengthAdjust="spacing" textLength="60" x="532" y="631.2891">void draw()</text><!--MD5=[a7f9118cae7621dd25d25149752faef0]
class Circle--><rect codeLine="27" fill="#FEFECE" filter="url(#fwljzy9knan8w)" height="73.9102" id="Circle" style="stroke:#A80036;stroke-width:1.5;" width="86" x="633" y="563.6992"/><ellipse cx="657.9" cy="579.6992" fill="#ADD1B2" rx="11" ry="11" style="stroke:#A80036;stroke-width:1.0;"/><path d="M660.3731,585.8423 Q659.7921,586.1411 659.1529,586.2905 Q658.5138,586.4399 657.8082,586.4399 Q655.3014,586.4399 653.9815,584.7881 Q652.6617,583.1362 652.6617,580.0151 Q652.6617,576.8857 653.9815,575.2339 Q655.3014,573.582 657.8082,573.582 Q658.5138,573.582 659.1612,573.7314 Q659.8087,573.8809 660.3731,574.1797 L660.3731,576.9023 Q659.7423,576.3213 659.1488,576.0515 Q658.5553,575.7817 657.9244,575.7817 Q656.5797,575.7817 655.8949,576.8484 Q655.2101,577.915 655.2101,580.0151 Q655.2101,582.1069 655.8949,583.1736 Q656.5797,584.2402 657.9244,584.2402 Q658.5553,584.2402 659.1488,583.9705 Q659.7423,583.7007 660.3731,583.1196 Z " fill="#000000"/><text fill="#000000" font-family="sans-serif" font-size="12" lengthAdjust="spacing" textLength="32" x="674.1" y="584.2344">Circle</text><line style="stroke:#A80036;stroke-width:1.5;" x1="634" x2="718" y1="595.6992" y2="595.6992"/><line style="stroke:#A80036;stroke-width:1.5;" x1="634" x2="718" y1="603.6992" y2="603.6992"/><ellipse cx="644" cy="614.6992" fill="#84BE84" rx="3" ry="3" style="stroke:#038048;stroke-width:1.0;"/><text fill="#000000" font-family="sans-serif" font-size="11" lengthAdjust="spacing" textLength="39" x="653" y="618.334">Circle()</text><ellipse cx="644" cy="627.6543" fill="#84BE84" rx="3" ry="3" style="stroke:#038048;stroke-width:1.0;"/><text fill="#000000" font-family="sans-serif" font-size="11" lengthAdjust="spacing" textLength="60" x="653" y="631.2891">void draw()</text><!--MD5=[744ddbf6aada586de52f807c72b41525]
class ShapeCache--><rect codeLine="37" fill="#FEFECE" filter="url(#fwljzy9knan8w)" height="86.8652" id="ShapeCache" style="stroke:#A80036;stroke-width:1.5;" width="224" x="7" y="183.6992"/><ellipse cx="79.75" cy="199.6992" fill="#ADD1B2" rx="11" ry="11" style="stroke:#A80036;stroke-width:1.0;"/><path d="M82.2231,205.8423 Q81.6421,206.1411 81.0029,206.2905 Q80.3638,206.4399 79.6582,206.4399 Q77.1514,206.4399 75.8315,204.7881 Q74.5117,203.1362 74.5117,200.0151 Q74.5117,196.8857 75.8315,195.2339 Q77.1514,193.582 79.6582,193.582 Q80.3638,193.582 81.0112,193.7314 Q81.6587,193.8809 82.2231,194.1797 L82.2231,196.9023 Q81.5923,196.3213 80.9988,196.0515 Q80.4053,195.7817 79.7744,195.7817 Q78.4297,195.7817 77.7449,196.8484 Q77.0601,197.915 77.0601,200.0151 Q77.0601,202.1069 77.7449,203.1736 Q78.4297,204.2402 79.7744,204.2402 Q80.4053,204.2402 80.9988,203.9705 Q81.5923,203.7007 82.2231,203.1196 Z " fill="#000000"/><text fill="#000000" font-family="sans-serif" font-size="12" lengthAdjust="spacing" textLength="70" x="100.25" y="204.2344">ShapeCache</text><line style="stroke:#A80036;stroke-width:1.5;" x1="8" x2="230" y1="215.6992" y2="215.6992"/><rect fill="none" height="6" style="stroke:#C82930;stroke-width:1.0;" width="6" x="15" y="223.6992"/><text fill="#000000" font-family="sans-serif" font-size="11" lengthAdjust="spacing" text-decoration="underline" textLength="198" x="27" y="230.334">Hashtable&lt;String, Shape&gt; shapeMap</text><line style="stroke:#A80036;stroke-width:1.5;" x1="8" x2="230" y1="236.6543" y2="236.6543"/><ellipse cx="18" cy="247.6543" fill="#84BE84" rx="3" ry="3" style="stroke:#038048;stroke-width:1.0;"/><text fill="#000000" font-family="sans-serif" font-size="11" lengthAdjust="spacing" text-decoration="underline" textLength="169" x="27" y="251.2891">Shape getShape(String shapeId)</text><ellipse cx="18" cy="260.6094" fill="#84BE84" rx="3" ry="3" style="stroke:#038048;stroke-width:1.0;"/><text fill="#000000" font-family="sans-serif" font-size="11" lengthAdjust="spacing" text-decoration="underline" textLength="90" x="27" y="264.2441">void loadCache()</text><!--MD5=[78b6d9eda7a26ee331713272fdd2ca3f]
class PrototypePatternDemo--><rect codeLine="43" fill="#FEFECE" filter="url(#fwljzy9knan8w)" height="60.9551" id="PrototypePatternDemo" style="stroke:#A80036;stroke-width:1.5;" width="162" x="38" y="28.1992"/><ellipse cx="53" cy="44.1992" fill="#ADD1B2" rx="11" ry="11" style="stroke:#A80036;stroke-width:1.0;"/><path d="M55.4731,50.3423 Q54.8921,50.6411 54.2529,50.7905 Q53.6138,50.9399 52.9082,50.9399 Q50.4014,50.9399 49.0815,49.2881 Q47.7617,47.6362 47.7617,44.5151 Q47.7617,41.3857 49.0815,39.7339 Q50.4014,38.082 52.9082,38.082 Q53.6138,38.082 54.2612,38.2314 Q54.9087,38.3809 55.4731,38.6797 L55.4731,41.4023 Q54.8423,40.8213 54.2488,40.5515 Q53.6553,40.2817 53.0244,40.2817 Q51.6797,40.2817 50.9949,41.3484 Q50.3101,42.415 50.3101,44.5151 Q50.3101,46.6069 50.9949,47.6736 Q51.6797,48.7402 53.0244,48.7402 Q53.6553,48.7402 54.2488,48.4705 Q54.8423,48.2007 55.4731,47.6196 Z " fill="#000000"/><text fill="#000000" font-family="sans-serif" font-size="12" lengthAdjust="spacing" textLength="130" x="67" y="48.7344">PrototypePatternDemo</text><line style="stroke:#A80036;stroke-width:1.5;" x1="39" x2="199" y1="60.1992" y2="60.1992"/><line style="stroke:#A80036;stroke-width:1.5;" x1="39" x2="199" y1="68.1992" y2="68.1992"/><ellipse cx="49" cy="79.1992" fill="#84BE84" rx="3" ry="3" style="stroke:#038048;stroke-width:1.0;"/><text fill="#000000" font-family="sans-serif" font-size="11" lengthAdjust="spacing" textLength="60" x="58" y="82.834">void main()</text><!--MD5=[489ddb9b0b8de29833d67a7fe4c9a86f]
reverse link Cloneable to Shape--><path codeLine="17" d="M555,271.2892 C555,293.8792 555,322.0892 555,347.5992 " fill="none" id="Cloneable-backto-Shape" style="stroke:#A80036;stroke-width:1.0;stroke-dasharray:7.0,7.0;"/><polygon fill="none" points="548,271.2492,555,251.2492,562,271.2492,548,271.2492" style="stroke:#A80036;stroke-width:1.0;"/><text fill="#000000" font-family="sans-serif" font-size="13" lengthAdjust="spacing" textLength="74" x="556" y="314.2676">implements</text><!--MD5=[793668fe740f4b06a80dd095381d024c]
reverse link Shape to Rectangle--><path codeLine="32" d="M497.6,503.5892 C483.4,524.7192 468.93,546.2492 457.3,563.5492 " fill="none" id="Shape-backto-Rectangle" style="stroke:#A80036;stroke-width:1.0;"/><polygon fill="none" points="491.91,499.5092,508.88,486.8192,503.53,507.3192,491.91,499.5092" style="stroke:#A80036;stroke-width:1.0;"/><text fill="#000000" font-family="sans-serif" font-size="13" lengthAdjust="spacing" textLength="50" x="487" y="530.2676">extends</text><!--MD5=[d4ca5a4026589bf67f913f07d54add2c]
reverse link Shape to Square--><path codeLine="33" d="M555,507.0492 C555,527.0592 555,547.1892 555,563.5492 " fill="none" id="Shape-backto-Square" style="stroke:#A80036;stroke-width:1.0;"/><polygon fill="none" points="548,506.8192,555,486.8192,562,506.8192,548,506.8192" style="stroke:#A80036;stroke-width:1.0;"/><text fill="#000000" font-family="sans-serif" font-size="13" lengthAdjust="spacing" textLength="50" x="556" y="530.2676">extends</text><!--MD5=[d637a7d0c5b779627461b5a6979d5756]
reverse link Shape to Circle--><path codeLine="34" d="M611.93,503.5892 C626.02,524.7192 640.36,546.2492 651.9,563.5492 " fill="none" id="Shape-backto-Circle" style="stroke:#A80036;stroke-width:1.0;"/><polygon fill="none" points="606.01,507.3392,600.74,486.8192,617.66,499.5792,606.01,507.3392" style="stroke:#A80036;stroke-width:1.0;"/><text fill="#000000" font-family="sans-serif" font-size="13" lengthAdjust="spacing" textLength="50" x="630" y="530.2676">extends</text><!--MD5=[356e366882cdacf153956cb563dc0eea]
link ShapeCache to shapePackage--><path codeLine="47" d="M231.2,227.1992 C262.12,227.1992 293.9575,227.1992 318.815,227.1992 C331.2438,227.1992 341.9275,227.1992 349.8791,227.1992 C351.867,227.1992 353.6841,227.1992 355.315,227.1992 C355.7228,227.1992 356.1189,227.1992 356.5031,227.1992 C356.5991,227.1992 356.6944,227.1992 356.789,227.1992 " fill="none" id="ShapeCache-to-shapePackage" style="stroke:#A80036;stroke-width:1.0;stroke-dasharray:7.0,7.0;"/><polygon fill="#A80036" points="356.789,227.1992,347.789,223.1992,351.789,227.1992,347.789,231.1992,356.789,227.1992" style="stroke:#A80036;stroke-width:1.0;"/><text fill="#000000" font-family="sans-serif" font-size="13" lengthAdjust="spacing" textLength="97" x="249.32" y="220.7676">依赖-使用 use a</text><!--MD5=[72fcce7db4525ba61d4e26c4d3579987]
link PrototypePatternDemo to ShapeCache--><path codeLine="48" d="M119,89.4692 C119,114.1192 119,149.6292 119,178.2892 " fill="none" id="PrototypePatternDemo-to-ShapeCache" style="stroke:#A80036;stroke-width:1.0;stroke-dasharray:7.0,7.0;"/><polygon fill="#A80036" points="119,183.5492,123,174.5492,119,178.5492,115,174.5492,119,183.5492" style="stroke:#A80036;stroke-width:1.0;"/><text fill="#000000" font-family="sans-serif" font-size="13" lengthAdjust="spacing" textLength="97" x="120" y="132.7676">依赖-使用 use a</text><!--MD5=[401ff6eb59ef77afe4ecebfc20d72587]
@startuml
Title 设计模式-原型模式模式

package shapePackage <<Rectangle>> {

    interface Cloneable{}

    abstract class Shape{
    - String id;
    # String type;

    ~ abstract void draw();
    + String getType()
    + String getId()
    + void setId(String id)
    + Object clone() 
    }
    Cloneable <|.. Shape:implements

    class Rectangle{
        + Rectangle()
        + void draw()
    }
    class Square{
        + Square()
        + void draw()
    }
    class Circle{
        + Circle()
        + void draw()
    }

    Shape <|- - Rectangle:extends
    Shape <|- - Square:extends
    Shape <|- - Circle:extends
}

class ShapeCache{
    - {static} Hashtable<String, Shape> shapeMap 
    + {static} Shape getShape(String shapeId)
    + {static} void loadCache()
}

class PrototypePatternDemo{
    + void main()
}

ShapeCache.>shapePackage:依赖-使用 use a
PrototypePatternDemo..>ShapeCache:依赖-使用 use a
@enduml

PlantUML version 1.2021.7(Sun May 23 20:40:07 CST 2021)
(GPL source distribution)
Java Runtime: OpenJDK Runtime Environment
JVM: OpenJDK 64-Bit Server VM
Default Encoding: UTF-8
Language: zh
Country: CN
--></g></svg>