<?xml version="1.0" encoding="UTF-8" standalone="no"?><svg xmlns="http://www.w3.org/2000/svg" xmlns:xlink="http://www.w3.org/1999/xlink" contentScriptType="application/ecmascript" contentStyleType="text/css" height="582px" preserveAspectRatio="none" style="width:551px;height:582px;background:#FFFFFF;" version="1.1" viewBox="0 0 551 582" width="551px" zoomAndPan="magnify"><defs><filter height="300%" id="f9pvrdf2foyxc" width="300%" x="-1" y="-1"><feGaussianBlur result="blurOut" stdDeviation="2.0"/><feColorMatrix in="blurOut" result="blurOut2" type="matrix" values="0 0 0 0 0 0 0 0 0 0 0 0 0 0 0 0 0 0 .4 0"/><feOffset dx="4.0" dy="4.0" in="blurOut2" result="blurOut3"/><feBlend in="SourceGraphic" in2="blurOut3" mode="normal"/></filter></defs><g><text fill="#000000" font-family="sans-serif" font-size="18" lengthAdjust="spacing" textLength="172" x="183.25" y="17.4023">设计模式-空对象模式</text><!--MD5=[e70201e05842b6285473869ed4507ecd]
class AbstractCustomer--><rect codeLine="3" fill="#FEFECE" filter="url(#f9pvrdf2foyxc)" height="86.8652" id="AbstractCustomer" style="stroke:#A80036;stroke-width:1.5;" width="163" x="236" y="317.1992"/><ellipse cx="263.6" cy="333.1992" fill="#A9DCDF" rx="11" ry="11" style="stroke:#A80036;stroke-width:1.0;"/><path d="M263.7133,328.7974 L262.5595,333.8691 L264.8754,333.8691 Z M262.2191,326.5562 L265.2157,326.5562 L268.5609,338.9492 L266.1122,338.9492 L265.3485,335.8862 L262.0697,335.8862 L261.3227,338.9492 L258.8739,338.9492 Z " fill="#000000"/><text fill="#000000" font-family="sans-serif" font-size="12" font-style="italic" lengthAdjust="spacing" textLength="103" x="280.4" y="337.7344">AbstractCustomer</text><line style="stroke:#A80036;stroke-width:1.5;" x1="237" x2="398" y1="349.1992" y2="349.1992"/><polygon fill="none" points="247,356.1992,243,362.1992,251,362.1992" style="stroke:#1963A0;stroke-width:1.0;"/><text fill="#000000" font-family="sans-serif" font-size="11" lengthAdjust="spacing" textLength="67" x="256" y="363.834">String name;</text><line style="stroke:#A80036;stroke-width:1.5;" x1="237" x2="398" y1="370.1543" y2="370.1543"/><ellipse cx="247" cy="381.1543" fill="#84BE84" rx="3" ry="3" style="stroke:#038048;stroke-width:1.0;"/><text fill="#000000" font-family="sans-serif" font-size="11" lengthAdjust="spacing" textLength="124" x="256" y="384.7891">abstract boolean isNil()</text><ellipse cx="247" cy="394.1094" fill="#84BE84" rx="3" ry="3" style="stroke:#038048;stroke-width:1.0;"/><text fill="#000000" font-family="sans-serif" font-size="11" lengthAdjust="spacing" textLength="137" x="256" y="397.7441">abstract String getName()</text><!--MD5=[2321019bc5183937d646d2ece6a3383f]
class NullCustomer--><rect codeLine="8" fill="#FEFECE" filter="url(#f9pvrdf2foyxc)" height="86.8652" id="NullCustomer" style="stroke:#A80036;stroke-width:1.5;" width="116" x="159.5" y="481.1992"/><ellipse cx="177.65" cy="497.1992" fill="#ADD1B2" rx="11" ry="11" style="stroke:#A80036;stroke-width:1.0;"/><path d="M180.1231,503.3423 Q179.5421,503.6411 178.9029,503.7905 Q178.2638,503.9399 177.5582,503.9399 Q175.0514,503.9399 173.7315,502.2881 Q172.4117,500.6362 172.4117,497.5151 Q172.4117,494.3857 173.7315,492.7339 Q175.0514,491.082 177.5582,491.082 Q178.2638,491.082 178.9112,491.2314 Q179.5587,491.3809 180.1231,491.6797 L180.1231,494.4023 Q179.4923,493.8213 178.8988,493.5515 Q178.3053,493.2817 177.6744,493.2817 Q176.3297,493.2817 175.6449,494.3484 Q174.9601,495.415 174.9601,497.5151 Q174.9601,499.6069 175.6449,500.6736 Q176.3297,501.7402 177.6744,501.7402 Q178.3053,501.7402 178.8988,501.4705 Q179.4923,501.2007 180.1231,500.6196 Z " fill="#000000"/><text fill="#000000" font-family="sans-serif" font-size="12" lengthAdjust="spacing" textLength="77" x="192.35" y="501.7344">NullCustomer</text><line style="stroke:#A80036;stroke-width:1.5;" x1="160.5" x2="274.5" y1="513.1992" y2="513.1992"/><polygon fill="none" points="170.5,520.1992,166.5,526.1992,174.5,526.1992" style="stroke:#1963A0;stroke-width:1.0;"/><text fill="#000000" font-family="sans-serif" font-size="11" lengthAdjust="spacing" textLength="67" x="179.5" y="527.834">String name;</text><line style="stroke:#A80036;stroke-width:1.5;" x1="160.5" x2="274.5" y1="534.1543" y2="534.1543"/><ellipse cx="170.5" cy="545.1543" fill="#84BE84" rx="3" ry="3" style="stroke:#038048;stroke-width:1.0;"/><text fill="#000000" font-family="sans-serif" font-size="11" lengthAdjust="spacing" textLength="77" x="179.5" y="548.7891">boolean isNil()</text><ellipse cx="170.5" cy="558.1094" fill="#84BE84" rx="3" ry="3" style="stroke:#038048;stroke-width:1.0;"/><text fill="#000000" font-family="sans-serif" font-size="11" lengthAdjust="spacing" textLength="90" x="179.5" y="561.7441">String getName()</text><!--MD5=[5fd5f31e798e700daaaa49a8b8b1ca0a]
class RealCustomer--><rect codeLine="13" fill="#FEFECE" filter="url(#f9pvrdf2foyxc)" height="86.8652" id="RealCustomer" style="stroke:#A80036;stroke-width:1.5;" width="116" x="342.5" y="481.1992"/><ellipse cx="359.3" cy="497.1992" fill="#ADD1B2" rx="11" ry="11" style="stroke:#A80036;stroke-width:1.0;"/><path d="M361.7731,503.3423 Q361.1921,503.6411 360.5529,503.7905 Q359.9138,503.9399 359.2082,503.9399 Q356.7014,503.9399 355.3815,502.2881 Q354.0617,500.6362 354.0617,497.5151 Q354.0617,494.3857 355.3815,492.7339 Q356.7014,491.082 359.2082,491.082 Q359.9138,491.082 360.5612,491.2314 Q361.2087,491.3809 361.7731,491.6797 L361.7731,494.4023 Q361.1423,493.8213 360.5488,493.5515 Q359.9553,493.2817 359.3244,493.2817 Q357.9797,493.2817 357.2949,494.3484 Q356.6101,495.415 356.6101,497.5151 Q356.6101,499.6069 357.2949,500.6736 Q357.9797,501.7402 359.3244,501.7402 Q359.9553,501.7402 360.5488,501.4705 Q361.1423,501.2007 361.7731,500.6196 Z " fill="#000000"/><text fill="#000000" font-family="sans-serif" font-size="12" lengthAdjust="spacing" textLength="80" x="373.7" y="501.7344">RealCustomer</text><line style="stroke:#A80036;stroke-width:1.5;" x1="343.5" x2="457.5" y1="513.1992" y2="513.1992"/><polygon fill="none" points="353.5,520.1992,349.5,526.1992,357.5,526.1992" style="stroke:#1963A0;stroke-width:1.0;"/><text fill="#000000" font-family="sans-serif" font-size="11" lengthAdjust="spacing" textLength="67" x="362.5" y="527.834">String name;</text><line style="stroke:#A80036;stroke-width:1.5;" x1="343.5" x2="457.5" y1="534.1543" y2="534.1543"/><ellipse cx="353.5" cy="545.1543" fill="#84BE84" rx="3" ry="3" style="stroke:#038048;stroke-width:1.0;"/><text fill="#000000" font-family="sans-serif" font-size="11" lengthAdjust="spacing" textLength="77" x="362.5" y="548.7891">boolean isNil()</text><ellipse cx="353.5" cy="558.1094" fill="#84BE84" rx="3" ry="3" style="stroke:#038048;stroke-width:1.0;"/><text fill="#000000" font-family="sans-serif" font-size="11" lengthAdjust="spacing" textLength="90" x="362.5" y="561.7441">String getName()</text><!--MD5=[258269fb827b243c6f2544a78f7e5aa5]
class CustomerFactory--><rect codeLine="22" fill="#FEFECE" filter="url(#f9pvrdf2foyxc)" height="73.9102" id="CustomerFactory" style="stroke:#A80036;stroke-width:1.5;" width="270" x="188.5" y="166.1992"/><ellipse cx="271.25" cy="182.1992" fill="#ADD1B2" rx="11" ry="11" style="stroke:#A80036;stroke-width:1.0;"/><path d="M273.7231,188.3423 Q273.1421,188.6411 272.5029,188.7905 Q271.8638,188.9399 271.1582,188.9399 Q268.6514,188.9399 267.3315,187.2881 Q266.0117,185.6362 266.0117,182.5151 Q266.0117,179.3857 267.3315,177.7339 Q268.6514,176.082 271.1582,176.082 Q271.8638,176.082 272.5112,176.2314 Q273.1587,176.3809 273.7231,176.6797 L273.7231,179.4023 Q273.0923,178.8213 272.4988,178.5515 Q271.9053,178.2817 271.2744,178.2817 Q269.9297,178.2817 269.2449,179.3484 Q268.5601,180.415 268.5601,182.5151 Q268.5601,184.6069 269.2449,185.6736 Q269.9297,186.7402 271.2744,186.7402 Q271.9053,186.7402 272.4988,186.4705 Q273.0923,186.2007 273.7231,185.6196 Z " fill="#000000"/><text fill="#000000" font-family="sans-serif" font-size="12" lengthAdjust="spacing" textLength="96" x="291.75" y="186.7344">CustomerFactory</text><line style="stroke:#A80036;stroke-width:1.5;" x1="189.5" x2="457.5" y1="198.1992" y2="198.1992"/><ellipse cx="199.5" cy="209.1992" rx="3" ry="3" style="stroke:#038048;stroke-width:1.0;fill:none;"/><text fill="#000000" font-family="sans-serif" font-size="11" lengthAdjust="spacing" text-decoration="underline" textLength="104" x="208.5" y="212.834">final String[] names</text><line style="stroke:#A80036;stroke-width:1.5;" x1="189.5" x2="457.5" y1="219.1543" y2="219.1543"/><ellipse cx="199.5" cy="230.1543" fill="#84BE84" rx="3" ry="3" style="stroke:#038048;stroke-width:1.0;"/><text fill="#000000" font-family="sans-serif" font-size="11" lengthAdjust="spacing" textLength="244" x="208.5" y="233.7891">AbstractCustomer getCustomer(String name)</text><!--MD5=[d9e1e3c8911fddecfbab6c5804b7f486]
class NullPatternDemo--><rect codeLine="32" fill="#FEFECE" filter="url(#f9pvrdf2foyxc)" height="60.9551" id="NullPatternDemo" style="stroke:#A80036;stroke-width:1.5;" width="153" x="7" y="28.1992"/><ellipse cx="32.8" cy="44.1992" fill="#ADD1B2" rx="11" ry="11" style="stroke:#A80036;stroke-width:1.0;"/><path d="M35.2731,50.3423 Q34.6921,50.6411 34.0529,50.7905 Q33.4138,50.9399 32.7082,50.9399 Q30.2014,50.9399 28.8815,49.2881 Q27.5617,47.6362 27.5617,44.5151 Q27.5617,41.3857 28.8815,39.7339 Q30.2014,38.082 32.7082,38.082 Q33.4138,38.082 34.0612,38.2314 Q34.7087,38.3809 35.2731,38.6797 L35.2731,41.4023 Q34.6423,40.8213 34.0488,40.5515 Q33.4553,40.2817 32.8244,40.2817 Q31.4797,40.2817 30.7949,41.3484 Q30.1101,42.415 30.1101,44.5151 Q30.1101,46.6069 30.7949,47.6736 Q31.4797,48.7402 32.8244,48.7402 Q33.4553,48.7402 34.0488,48.4705 Q34.6423,48.2007 35.2731,47.6196 Z " fill="#000000"/><text fill="#000000" font-family="sans-serif" font-size="12" lengthAdjust="spacing" textLength="97" x="49.2" y="48.7344">NullPatternDemo</text><line style="stroke:#A80036;stroke-width:1.5;" x1="8" x2="159" y1="60.1992" y2="60.1992"/><line style="stroke:#A80036;stroke-width:1.5;" x1="8" x2="159" y1="68.1992" y2="68.1992"/><ellipse cx="18" cy="79.1992" fill="#84BE84" rx="3" ry="3" style="stroke:#038048;stroke-width:1.0;"/><text fill="#000000" font-family="sans-serif" font-size="11" lengthAdjust="spacing" text-decoration="underline" textLength="127" x="27" y="82.834">void main(String[] args)</text><!--MD5=[3b6f15347b0395c9427ea5990c7e7602]
reverse link AbstractCustomer to NullCustomer--><path codeLine="19" d="M280.63,421.4292 C268.4,441.2492 255.04,462.8892 243.77,481.1392 " fill="none" id="AbstractCustomer-backto-NullCustomer" style="stroke:#A80036;stroke-width:1.0;"/><polygon fill="none" points="274.76,417.6092,291.23,404.2592,286.68,424.9592,274.76,417.6092" style="stroke:#A80036;stroke-width:1.0;"/><text fill="#000000" font-family="sans-serif" font-size="13" lengthAdjust="spacing" textLength="50" x="270.5" y="447.7676">extends</text><!--MD5=[de6dbd3ad90e4dd1913186824408a2ed]
reverse link AbstractCustomer to RealCustomer--><path codeLine="20" d="M348.57,422.3392 C358.59,441.9092 369.49,463.1692 378.69,481.1392 " fill="none" id="AbstractCustomer-backto-RealCustomer" style="stroke:#A80036;stroke-width:1.0;"/><polygon fill="none" points="342.2,425.2592,339.31,404.2592,354.66,418.8692,342.2,425.2592" style="stroke:#A80036;stroke-width:1.0;"/><text fill="#000000" font-family="sans-serif" font-size="13" lengthAdjust="spacing" textLength="50" x="361.5" y="447.7676">extends</text><!--MD5=[869449110dd7721672158a54d46203f2]
link CustomerFactory to AbstractCustomer--><path codeLine="27" d="M322.11,240.2692 C321.29,261.5392 320.24,288.7092 319.35,311.7692 " fill="none" id="CustomerFactory-to-AbstractCustomer" style="stroke:#A80036;stroke-width:1.0;stroke-dasharray:7.0,7.0;"/><polygon fill="#A80036" points="319.15,316.9292,323.5065,308.0963,319.3498,311.9332,315.5129,307.7765,319.15,316.9292" style="stroke:#A80036;stroke-width:1.0;"/><text fill="#000000" font-family="sans-serif" font-size="13" lengthAdjust="spacing" textLength="97" x="321.5" y="283.7676">依赖-使用 use a</text><!--MD5=[da3eed7680bf1bdd0574c6bce06751ba]
link CustomerFactory to NullCustomer--><path codeLine="28" d="M211.19,240.2092 C175.5,257.5692 140,282.4092 119.5,317.1992 C99.87,350.5092 106.48,367.7892 119.5,404.1992 C129.24,431.4292 148.15,456.9192 166.78,477.2992 " fill="none" id="CustomerFactory-to-NullCustomer" style="stroke:#A80036;stroke-width:1.0;stroke-dasharray:7.0,7.0;"/><polygon fill="#A80036" points="170.26,481.0492,167.0796,471.728,166.8627,477.3807,161.21,477.1637,170.26,481.0492" style="stroke:#A80036;stroke-width:1.0;"/><text fill="#000000" font-family="sans-serif" font-size="13" lengthAdjust="spacing" textLength="97" x="120.5" y="365.7676">依赖-使用 use a</text><!--MD5=[feee885637a84c58994c9419a503cd14]
link CustomerFactory to RealCustomer--><path codeLine="29" d="M400.89,240.2392 C411.57,248.5592 421.06,258.4892 427.5,270.1992 C463,334.7692 440.91,422.5592 421.12,476.0692 " fill="none" id="CustomerFactory-to-RealCustomer" style="stroke:#A80036;stroke-width:1.0;stroke-dasharray:7.0,7.0;"/><polygon fill="#A80036" points="419.34,480.8192,426.2525,473.8037,421.1003,476.1393,418.7647,470.9872,419.34,480.8192" style="stroke:#A80036;stroke-width:1.0;"/><text fill="#000000" font-family="sans-serif" font-size="13" lengthAdjust="spacing" textLength="97" x="446.5" y="365.7676">依赖-使用 use a</text><!--MD5=[c9991b72d883d13498c4c15ec93336b9]
link NullPatternDemo to CustomerFactory--><path codeLine="36" d="M133.23,89.2292 C169.38,110.6892 218.67,139.9592 258.02,163.3192 " fill="none" id="NullPatternDemo-to-CustomerFactory" style="stroke:#A80036;stroke-width:1.0;stroke-dasharray:7.0,7.0;"/><polygon fill="#A80036" points="262.77,166.1392,257.0593,158.115,258.4662,163.5941,252.9871,165.0011,262.77,166.1392" style="stroke:#A80036;stroke-width:1.0;"/><text fill="#000000" font-family="sans-serif" font-size="13" lengthAdjust="spacing" textLength="97" x="211.5" y="132.7676">依赖-使用 use a</text><!--MD5=[14e526efc78f75ffa19ca9886a6cf47a]
link NullPatternDemo to AbstractCustomer--><path codeLine="37" d="M71.82,89.4592 C58.95,127.5192 43.64,194.0092 72.5,240.1992 C74.89,244.0292 161.54,285.7792 231.12,318.8692 " fill="none" id="NullPatternDemo-to-AbstractCustomer" style="stroke:#A80036;stroke-width:1.0;stroke-dasharray:7.0,7.0;"/><polygon fill="#A80036" points="235.67,321.0292,229.2548,313.5563,231.1531,318.8851,225.8242,320.7834,235.67,321.0292" style="stroke:#A80036;stroke-width:1.0;"/><text fill="#000000" font-family="sans-serif" font-size="13" lengthAdjust="spacing" textLength="97" x="73.5" y="208.2676">依赖-使用 use a</text><!--MD5=[252ba062e720f869c3684090023017aa]
@startuml
Title 设计模式-空对象模式

abstract class AbstractCustomer{
    ~ String name;
    + abstract boolean isNil()
    + abstract String getName()
}
 class NullCustomer{
    ~ String name;
    +  boolean isNil()
    +  String getName()
}
 class RealCustomer{
    ~ String name;
    + boolean isNil()
    + String getName()
}

AbstractCustomer <|- - NullCustomer:extends
AbstractCustomer <|- - RealCustomer:extends

class CustomerFactory{
    + {static} final String[] names
    + AbstractCustomer getCustomer(String name)
}

CustomerFactory ..> AbstractCustomer:依赖-使用 use a
CustomerFactory ..> NullCustomer:依赖-使用 use a
CustomerFactory ..> RealCustomer:依赖-使用 use a


class NullPatternDemo{
    + {static} void main(String[] args)
}

 NullPatternDemo ..> CustomerFactory:依赖-使用 use a
 NullPatternDemo ..> AbstractCustomer:依赖-使用 use a


@enduml

PlantUML version 1.2021.7(Sun May 23 20:40:07 CST 2021)
(GPL source distribution)
Java Runtime: OpenJDK Runtime Environment
JVM: OpenJDK 64-Bit Server VM
Default Encoding: UTF-8
Language: zh
Country: CN
--></g></svg>