<?xml version="1.0" encoding="UTF-8" standalone="no"?><svg xmlns="http://www.w3.org/2000/svg" xmlns:xlink="http://www.w3.org/1999/xlink" contentScriptType="application/ecmascript" contentStyleType="text/css" height="694px" preserveAspectRatio="none" style="width:915px;height:694px;background:#FFFFFF;" version="1.1" viewBox="0 0 915 694" width="915px" zoomAndPan="magnify"><defs><filter height="300%" id="f1bnozh1g9tmu1" width="300%" x="-1" y="-1"><feGaussianBlur result="blurOut" stdDeviation="2.0"/><feColorMatrix in="blurOut" result="blurOut2" type="matrix" values="0 0 0 0 0 0 0 0 0 0 0 0 0 0 0 0 0 0 .4 0"/><feOffset dx="4.0" dy="4.0" in="blurOut2" result="blurOut3"/><feBlend in="SourceGraphic" in2="blurOut3" mode="normal"/></filter></defs><g><text fill="#000000" font-family="sans-serif" font-size="18" lengthAdjust="spacing" textLength="172" x="365.25" y="17.4023">设计模式-建造者模式</text><!--MD5=[46a869ae9a533cd0f135276579d5ca7a]
class Meal--><rect codeLine="4" fill="#FEFECE" filter="url(#f1bnozh1g9tmu1)" height="99.8203" id="Meal" style="stroke:#A80036;stroke-width:1.5;" width="152" x="337" y="166.1992"/><ellipse cx="395.25" cy="182.1992" fill="#ADD1B2" rx="11" ry="11" style="stroke:#A80036;stroke-width:1.0;"/><path d="M397.7231,188.3423 Q397.1421,188.6411 396.5029,188.7905 Q395.8638,188.9399 395.1582,188.9399 Q392.6514,188.9399 391.3315,187.2881 Q390.0117,185.6362 390.0117,182.5151 Q390.0117,179.3857 391.3315,177.7339 Q392.6514,176.082 395.1582,176.082 Q395.8638,176.082 396.5112,176.2314 Q397.1587,176.3809 397.7231,176.6797 L397.7231,179.4023 Q397.0923,178.8213 396.4988,178.5515 Q395.9053,178.2817 395.2744,178.2817 Q393.9297,178.2817 393.2449,179.3484 Q392.5601,180.415 392.5601,182.5151 Q392.5601,184.6069 393.2449,185.6736 Q393.9297,186.7402 395.2744,186.7402 Q395.9053,186.7402 396.4988,186.4705 Q397.0923,186.2007 397.7231,185.6196 Z " fill="#000000"/><text fill="#000000" font-family="sans-serif" font-size="12" lengthAdjust="spacing" textLength="27" x="415.75" y="186.7344">Meal</text><line style="stroke:#A80036;stroke-width:1.5;" x1="338" x2="488" y1="198.1992" y2="198.1992"/><rect fill="none" height="6" style="stroke:#C82930;stroke-width:1.0;" width="6" x="345" y="206.1992"/><text fill="#000000" font-family="sans-serif" font-size="11" lengthAdjust="spacing" textLength="81" x="357" y="212.834">ArrayList items</text><line style="stroke:#A80036;stroke-width:1.5;" x1="338" x2="488" y1="219.1543" y2="219.1543"/><ellipse cx="348" cy="230.1543" fill="#84BE84" rx="3" ry="3" style="stroke:#038048;stroke-width:1.0;"/><text fill="#000000" font-family="sans-serif" font-size="11" lengthAdjust="spacing" textLength="126" x="357" y="233.7891">void addItem(Item item)</text><ellipse cx="348" cy="243.1094" fill="#84BE84" rx="3" ry="3" style="stroke:#038048;stroke-width:1.0;"/><text fill="#000000" font-family="sans-serif" font-size="11" lengthAdjust="spacing" textLength="77" x="357" y="246.7441">float getCost()</text><ellipse cx="348" cy="256.0645" fill="#84BE84" rx="3" ry="3" style="stroke:#038048;stroke-width:1.0;"/><text fill="#000000" font-family="sans-serif" font-size="11" lengthAdjust="spacing" textLength="91" x="357" y="259.6992">void showItems()</text><!--MD5=[44a1b4afaef76c16e6c9ec4990ad0c8d]
class Item--><rect codeLine="11" fill="#FEFECE" filter="url(#f1bnozh1g9tmu1)" height="86.8652" id="Item" style="stroke:#A80036;stroke-width:1.5;" width="120" x="353" y="343.1992"/><ellipse cx="396.35" cy="359.1992" fill="#B4A7E5" rx="11" ry="11" style="stroke:#A80036;stroke-width:1.0;"/><path d="M392.7777,355.4644 L392.7777,353.3062 L400.1571,353.3062 L400.1571,355.4644 L397.6918,355.4644 L397.6918,363.541 L400.1571,363.541 L400.1571,365.6992 L392.7777,365.6992 L392.7777,363.541 L395.2431,363.541 L395.2431,355.4644 Z " fill="#000000"/><text fill="#000000" font-family="sans-serif" font-size="12" font-style="italic" lengthAdjust="spacing" textLength="25" x="416.65" y="363.7344">Item</text><line style="stroke:#A80036;stroke-width:1.5;" x1="354" x2="472" y1="375.1992" y2="375.1992"/><line style="stroke:#A80036;stroke-width:1.5;" x1="354" x2="472" y1="383.1992" y2="383.1992"/><ellipse cx="364" cy="394.1992" fill="#84BE84" rx="3" ry="3" style="stroke:#038048;stroke-width:1.0;"/><text fill="#000000" font-family="sans-serif" font-size="11" lengthAdjust="spacing" textLength="72" x="373" y="397.834">string name()</text><ellipse cx="364" cy="407.1543" fill="#84BE84" rx="3" ry="3" style="stroke:#038048;stroke-width:1.0;"/><text fill="#000000" font-family="sans-serif" font-size="11" lengthAdjust="spacing" textLength="94" x="373" y="410.7891">Packing packing()</text><ellipse cx="364" cy="420.1094" fill="#84BE84" rx="3" ry="3" style="stroke:#038048;stroke-width:1.0;"/><text fill="#000000" font-family="sans-serif" font-size="11" lengthAdjust="spacing" textLength="62" x="373" y="423.7441">float price()</text><!--MD5=[1a933d9a4f597a47c9b61c06ed3c043b]
class Burguer--><rect codeLine="17" fill="#FEFECE" filter="url(#f1bnozh1g9tmu1)" height="48" id="Burguer" style="stroke:#A80036;stroke-width:1.5;" width="77" x="196.5" y="507.1992"/><ellipse cx="211.5" cy="523.1992" fill="#A9DCDF" rx="11" ry="11" style="stroke:#A80036;stroke-width:1.0;"/><path d="M211.6133,518.7974 L210.4595,523.8691 L212.7754,523.8691 Z M210.1191,516.5562 L213.1157,516.5562 L216.4609,528.9492 L214.0122,528.9492 L213.2485,525.8862 L209.9697,525.8862 L209.2227,528.9492 L206.7739,528.9492 Z " fill="#000000"/><text fill="#000000" font-family="sans-serif" font-size="12" font-style="italic" lengthAdjust="spacing" textLength="45" x="225.5" y="527.7344">Burguer</text><line style="stroke:#A80036;stroke-width:1.5;" x1="197.5" x2="272.5" y1="539.1992" y2="539.1992"/><line style="stroke:#A80036;stroke-width:1.5;" x1="197.5" x2="272.5" y1="547.1992" y2="547.1992"/><!--MD5=[4f89a4d7ccee25a67c5adb2f97c1f7df]
class ColdDrink--><rect codeLine="20" fill="#FEFECE" filter="url(#f1bnozh1g9tmu1)" height="48" id="ColdDrink" style="stroke:#A80036;stroke-width:1.5;" width="89" x="658.5" y="507.1992"/><ellipse cx="673.5" cy="523.1992" fill="#A9DCDF" rx="11" ry="11" style="stroke:#A80036;stroke-width:1.0;"/><path d="M673.6133,518.7974 L672.4595,523.8691 L674.7754,523.8691 Z M672.1191,516.5562 L675.1157,516.5562 L678.4609,528.9492 L676.0122,528.9492 L675.2485,525.8862 L671.9697,525.8862 L671.2227,528.9492 L668.7739,528.9492 Z " fill="#000000"/><text fill="#000000" font-family="sans-serif" font-size="12" font-style="italic" lengthAdjust="spacing" textLength="57" x="687.5" y="527.7344">ColdDrink</text><line style="stroke:#A80036;stroke-width:1.5;" x1="659.5" x2="746.5" y1="539.1992" y2="539.1992"/><line style="stroke:#A80036;stroke-width:1.5;" x1="659.5" x2="746.5" y1="547.1992" y2="547.1992"/><!--MD5=[7fb4b91161ae03636d8b1f1cd8aec6c3]
class VegBurger--><rect codeLine="26" fill="#FEFECE" filter="url(#f1bnozh1g9tmu1)" height="48" id="VegBurger" style="stroke:#A80036;stroke-width:1.5;" width="92" x="7" y="632.1992"/><ellipse cx="22" cy="648.1992" fill="#ADD1B2" rx="11" ry="11" style="stroke:#A80036;stroke-width:1.0;"/><path d="M24.4731,654.3423 Q23.8921,654.6411 23.2529,654.7905 Q22.6138,654.9399 21.9082,654.9399 Q19.4014,654.9399 18.0815,653.2881 Q16.7617,651.6362 16.7617,648.5151 Q16.7617,645.3857 18.0815,643.7339 Q19.4014,642.082 21.9082,642.082 Q22.6138,642.082 23.2612,642.2314 Q23.9087,642.3809 24.4731,642.6797 L24.4731,645.4023 Q23.8423,644.8213 23.2488,644.5515 Q22.6553,644.2817 22.0244,644.2817 Q20.6797,644.2817 19.9949,645.3484 Q19.3101,646.415 19.3101,648.5151 Q19.3101,650.6069 19.9949,651.6736 Q20.6797,652.7402 22.0244,652.7402 Q22.6553,652.7402 23.2488,652.4705 Q23.8423,652.2007 24.4731,651.6196 Z " fill="#000000"/><text fill="#000000" font-family="sans-serif" font-size="12" lengthAdjust="spacing" textLength="60" x="36" y="652.7344">VegBurger</text><line style="stroke:#A80036;stroke-width:1.5;" x1="8" x2="98" y1="664.1992" y2="664.1992"/><line style="stroke:#A80036;stroke-width:1.5;" x1="8" x2="98" y1="672.1992" y2="672.1992"/><!--MD5=[d59c3ed24937f90fb817c8b0bd53ecd6]
class ChickenBurger--><rect codeLine="29" fill="#FEFECE" filter="url(#f1bnozh1g9tmu1)" height="48" id="ChickenBurger" style="stroke:#A80036;stroke-width:1.5;" width="115" x="134.5" y="632.1992"/><ellipse cx="149.5" cy="648.1992" fill="#ADD1B2" rx="11" ry="11" style="stroke:#A80036;stroke-width:1.0;"/><path d="M151.9731,654.3423 Q151.3921,654.6411 150.7529,654.7905 Q150.1138,654.9399 149.4082,654.9399 Q146.9014,654.9399 145.5815,653.2881 Q144.2617,651.6362 144.2617,648.5151 Q144.2617,645.3857 145.5815,643.7339 Q146.9014,642.082 149.4082,642.082 Q150.1138,642.082 150.7612,642.2314 Q151.4087,642.3809 151.9731,642.6797 L151.9731,645.4023 Q151.3423,644.8213 150.7488,644.5515 Q150.1553,644.2817 149.5244,644.2817 Q148.1797,644.2817 147.4949,645.3484 Q146.8101,646.415 146.8101,648.5151 Q146.8101,650.6069 147.4949,651.6736 Q148.1797,652.7402 149.5244,652.7402 Q150.1553,652.7402 150.7488,652.4705 Q151.3423,652.2007 151.9731,651.6196 Z " fill="#000000"/><text fill="#000000" font-family="sans-serif" font-size="12" lengthAdjust="spacing" textLength="83" x="163.5" y="652.7344">ChickenBurger</text><line style="stroke:#A80036;stroke-width:1.5;" x1="135.5" x2="248.5" y1="664.1992" y2="664.1992"/><line style="stroke:#A80036;stroke-width:1.5;" x1="135.5" x2="248.5" y1="672.1992" y2="672.1992"/><!--MD5=[fbbe651757de5e8fee1fedfe896b55f5]
class Coke--><rect codeLine="34" fill="#FEFECE" filter="url(#f1bnozh1g9tmu1)" height="48" id="Coke" style="stroke:#A80036;stroke-width:1.5;" width="61" x="742.5" y="632.1992"/><ellipse cx="757.5" cy="648.1992" fill="#ADD1B2" rx="11" ry="11" style="stroke:#A80036;stroke-width:1.0;"/><path d="M759.9731,654.3423 Q759.3921,654.6411 758.7529,654.7905 Q758.1138,654.9399 757.4082,654.9399 Q754.9014,654.9399 753.5815,653.2881 Q752.2617,651.6362 752.2617,648.5151 Q752.2617,645.3857 753.5815,643.7339 Q754.9014,642.082 757.4082,642.082 Q758.1138,642.082 758.7612,642.2314 Q759.4087,642.3809 759.9731,642.6797 L759.9731,645.4023 Q759.3423,644.8213 758.7488,644.5515 Q758.1553,644.2817 757.5244,644.2817 Q756.1797,644.2817 755.4949,645.3484 Q754.8101,646.415 754.8101,648.5151 Q754.8101,650.6069 755.4949,651.6736 Q756.1797,652.7402 757.5244,652.7402 Q758.1553,652.7402 758.7488,652.4705 Q759.3423,652.2007 759.9731,651.6196 Z " fill="#000000"/><text fill="#000000" font-family="sans-serif" font-size="12" lengthAdjust="spacing" textLength="29" x="771.5" y="652.7344">Coke</text><line style="stroke:#A80036;stroke-width:1.5;" x1="743.5" x2="802.5" y1="664.1992" y2="664.1992"/><line style="stroke:#A80036;stroke-width:1.5;" x1="743.5" x2="802.5" y1="672.1992" y2="672.1992"/><!--MD5=[a3000d3be9b40ab8a32a10ea9150c96a]
class Pepsi--><rect codeLine="37" fill="#FEFECE" filter="url(#f1bnozh1g9tmu1)" height="48" id="Pepsi" style="stroke:#A80036;stroke-width:1.5;" width="63" x="838.5" y="632.1992"/><ellipse cx="853.5" cy="648.1992" fill="#ADD1B2" rx="11" ry="11" style="stroke:#A80036;stroke-width:1.0;"/><path d="M855.9731,654.3423 Q855.3921,654.6411 854.7529,654.7905 Q854.1138,654.9399 853.4082,654.9399 Q850.9014,654.9399 849.5815,653.2881 Q848.2617,651.6362 848.2617,648.5151 Q848.2617,645.3857 849.5815,643.7339 Q850.9014,642.082 853.4082,642.082 Q854.1138,642.082 854.7612,642.2314 Q855.4087,642.3809 855.9731,642.6797 L855.9731,645.4023 Q855.3423,644.8213 854.7488,644.5515 Q854.1553,644.2817 853.5244,644.2817 Q852.1797,644.2817 851.4949,645.3484 Q850.8101,646.415 850.8101,648.5151 Q850.8101,650.6069 851.4949,651.6736 Q852.1797,652.7402 853.5244,652.7402 Q854.1553,652.7402 854.7488,652.4705 Q855.3423,652.2007 855.9731,651.6196 Z " fill="#000000"/><text fill="#000000" font-family="sans-serif" font-size="12" lengthAdjust="spacing" textLength="31" x="867.5" y="652.7344">Pepsi</text><line style="stroke:#A80036;stroke-width:1.5;" x1="839.5" x2="900.5" y1="664.1992" y2="664.1992"/><line style="stroke:#A80036;stroke-width:1.5;" x1="839.5" x2="900.5" y1="672.1992" y2="672.1992"/><!--MD5=[5d180ed259f12452be32afaeeee0ed3d]
class Packing--><rect codeLine="42" fill="#FEFECE" filter="url(#f1bnozh1g9tmu1)" height="48" id="Packing" style="stroke:#A80036;stroke-width:1.5;" width="76" x="428" y="507.1992"/><ellipse cx="443" cy="523.1992" fill="#B4A7E5" rx="11" ry="11" style="stroke:#A80036;stroke-width:1.0;"/><path d="M439.4277,519.4644 L439.4277,517.3062 L446.8071,517.3062 L446.8071,519.4644 L444.3418,519.4644 L444.3418,527.541 L446.8071,527.541 L446.8071,529.6992 L439.4277,529.6992 L439.4277,527.541 L441.8931,527.541 L441.8931,519.4644 Z " fill="#000000"/><text fill="#000000" font-family="sans-serif" font-size="12" font-style="italic" lengthAdjust="spacing" textLength="44" x="457" y="527.7344">Packing</text><line style="stroke:#A80036;stroke-width:1.5;" x1="429" x2="503" y1="539.1992" y2="539.1992"/><line style="stroke:#A80036;stroke-width:1.5;" x1="429" x2="503" y1="547.1992" y2="547.1992"/><!--MD5=[354495e11b5abab1b1401337b6fa44d1]
class Wrapper--><rect codeLine="44" fill="#FEFECE" filter="url(#f1bnozh1g9tmu1)" height="48" id="Wrapper" style="stroke:#A80036;stroke-width:1.5;" width="82" x="330" y="632.1992"/><ellipse cx="345" cy="648.1992" fill="#ADD1B2" rx="11" ry="11" style="stroke:#A80036;stroke-width:1.0;"/><path d="M347.4731,654.3423 Q346.8921,654.6411 346.2529,654.7905 Q345.6138,654.9399 344.9082,654.9399 Q342.4014,654.9399 341.0815,653.2881 Q339.7617,651.6362 339.7617,648.5151 Q339.7617,645.3857 341.0815,643.7339 Q342.4014,642.082 344.9082,642.082 Q345.6138,642.082 346.2612,642.2314 Q346.9087,642.3809 347.4731,642.6797 L347.4731,645.4023 Q346.8423,644.8213 346.2488,644.5515 Q345.6553,644.2817 345.0244,644.2817 Q343.6797,644.2817 342.9949,645.3484 Q342.3101,646.415 342.3101,648.5151 Q342.3101,650.6069 342.9949,651.6736 Q343.6797,652.7402 345.0244,652.7402 Q345.6553,652.7402 346.2488,652.4705 Q346.8423,652.2007 347.4731,651.6196 Z " fill="#000000"/><text fill="#000000" font-family="sans-serif" font-size="12" lengthAdjust="spacing" textLength="50" x="359" y="652.7344">Wrapper</text><line style="stroke:#A80036;stroke-width:1.5;" x1="331" x2="411" y1="664.1992" y2="664.1992"/><line style="stroke:#A80036;stroke-width:1.5;" x1="331" x2="411" y1="672.1992" y2="672.1992"/><!--MD5=[3465e106eb582bee24e509c05a0d587a]
class Bottle--><rect codeLine="45" fill="#FEFECE" filter="url(#f1bnozh1g9tmu1)" height="48" id="Bottle" style="stroke:#A80036;stroke-width:1.5;" width="64" x="547" y="632.1992"/><ellipse cx="562" cy="648.1992" fill="#ADD1B2" rx="11" ry="11" style="stroke:#A80036;stroke-width:1.0;"/><path d="M564.4731,654.3423 Q563.8921,654.6411 563.2529,654.7905 Q562.6138,654.9399 561.9082,654.9399 Q559.4014,654.9399 558.0815,653.2881 Q556.7617,651.6362 556.7617,648.5151 Q556.7617,645.3857 558.0815,643.7339 Q559.4014,642.082 561.9082,642.082 Q562.6138,642.082 563.2612,642.2314 Q563.9087,642.3809 564.4731,642.6797 L564.4731,645.4023 Q563.8423,644.8213 563.2488,644.5515 Q562.6553,644.2817 562.0244,644.2817 Q560.6797,644.2817 559.9949,645.3484 Q559.3101,646.415 559.3101,648.5151 Q559.3101,650.6069 559.9949,651.6736 Q560.6797,652.7402 562.0244,652.7402 Q562.6553,652.7402 563.2488,652.4705 Q563.8423,652.2007 564.4731,651.6196 Z " fill="#000000"/><text fill="#000000" font-family="sans-serif" font-size="12" lengthAdjust="spacing" textLength="32" x="576" y="652.7344">Bottle</text><line style="stroke:#A80036;stroke-width:1.5;" x1="548" x2="610" y1="664.1992" y2="664.1992"/><line style="stroke:#A80036;stroke-width:1.5;" x1="548" x2="610" y1="672.1992" y2="672.1992"/><!--MD5=[cc9ee9e2dc3b4072c6270f6cbb1b3b8c]
class MealBuilder--><rect codeLine="56" fill="#FEFECE" filter="url(#f1bnozh1g9tmu1)" height="73.9102" id="MealBuilder" style="stroke:#A80036;stroke-width:1.5;" width="169" x="34.5" y="179.1992"/><ellipse cx="81.25" cy="195.1992" fill="#ADD1B2" rx="11" ry="11" style="stroke:#A80036;stroke-width:1.0;"/><path d="M83.7231,201.3423 Q83.1421,201.6411 82.5029,201.7905 Q81.8638,201.9399 81.1582,201.9399 Q78.6514,201.9399 77.3315,200.2881 Q76.0117,198.6362 76.0117,195.5151 Q76.0117,192.3857 77.3315,190.7339 Q78.6514,189.082 81.1582,189.082 Q81.8638,189.082 82.5112,189.2314 Q83.1587,189.3809 83.7231,189.6797 L83.7231,192.4023 Q83.0923,191.8213 82.4988,191.5515 Q81.9053,191.2817 81.2744,191.2817 Q79.9297,191.2817 79.2449,192.3484 Q78.5601,193.415 78.5601,195.5151 Q78.5601,197.6069 79.2449,198.6736 Q79.9297,199.7402 81.2744,199.7402 Q81.9053,199.7402 82.4988,199.4705 Q83.0923,199.2007 83.7231,198.6196 Z " fill="#000000"/><text fill="#000000" font-family="sans-serif" font-size="12" lengthAdjust="spacing" textLength="67" x="101.75" y="199.7344">MealBuilder</text><line style="stroke:#A80036;stroke-width:1.5;" x1="35.5" x2="202.5" y1="211.1992" y2="211.1992"/><line style="stroke:#A80036;stroke-width:1.5;" x1="35.5" x2="202.5" y1="219.1992" y2="219.1992"/><ellipse cx="45.5" cy="230.1992" fill="#84BE84" rx="3" ry="3" style="stroke:#038048;stroke-width:1.0;"/><text fill="#000000" font-family="sans-serif" font-size="11" lengthAdjust="spacing" textLength="121" x="54.5" y="233.834">Meal prepareVegMeal()</text><ellipse cx="45.5" cy="243.1543" fill="#84BE84" rx="3" ry="3" style="stroke:#038048;stroke-width:1.0;"/><text fill="#000000" font-family="sans-serif" font-size="11" lengthAdjust="spacing" textLength="143" x="54.5" y="246.7891">Meal prepareNonVegMeal()</text><!--MD5=[630175aee9d2a761382d026150348179]
class BuilderPatternDemo--><rect codeLine="63" fill="#FEFECE" filter="url(#f1bnozh1g9tmu1)" height="60.9551" id="BuilderPatternDemo" style="stroke:#A80036;stroke-width:1.5;" width="147" x="45.5" y="28.1992"/><ellipse cx="60.5" cy="44.1992" fill="#ADD1B2" rx="11" ry="11" style="stroke:#A80036;stroke-width:1.0;"/><path d="M62.9731,50.3423 Q62.3921,50.6411 61.7529,50.7905 Q61.1138,50.9399 60.4082,50.9399 Q57.9014,50.9399 56.5815,49.2881 Q55.2617,47.6362 55.2617,44.5151 Q55.2617,41.3857 56.5815,39.7339 Q57.9014,38.082 60.4082,38.082 Q61.1138,38.082 61.7612,38.2314 Q62.4087,38.3809 62.9731,38.6797 L62.9731,41.4023 Q62.3423,40.8213 61.7488,40.5515 Q61.1553,40.2817 60.5244,40.2817 Q59.1797,40.2817 58.4949,41.3484 Q57.8101,42.415 57.8101,44.5151 Q57.8101,46.6069 58.4949,47.6736 Q59.1797,48.7402 60.5244,48.7402 Q61.1553,48.7402 61.7488,48.4705 Q62.3423,48.2007 62.9731,47.6196 Z " fill="#000000"/><text fill="#000000" font-family="sans-serif" font-size="12" lengthAdjust="spacing" textLength="115" x="74.5" y="48.7344">BuilderPatternDemo</text><line style="stroke:#A80036;stroke-width:1.5;" x1="46.5" x2="191.5" y1="60.1992" y2="60.1992"/><line style="stroke:#A80036;stroke-width:1.5;" x1="46.5" x2="191.5" y1="68.1992" y2="68.1992"/><ellipse cx="56.5" cy="79.1992" fill="#84BE84" rx="3" ry="3" style="stroke:#038048;stroke-width:1.0;"/><text fill="#000000" font-family="sans-serif" font-size="11" lengthAdjust="spacing" textLength="60" x="65.5" y="82.834">void main()</text><!--MD5=[aca01f7298fd550345d6a14185da7c86]
reverse link Item to Burguer--><path codeLine="23" d="M343.64,443.2292 C315.85,465.4692 285.39,489.8592 263.81,507.1392 " fill="none" id="Item-backto-Burguer" style="stroke:#A80036;stroke-width:1.0;stroke-dasharray:7.0,7.0;"/><polygon fill="none" points="339.61,437.4892,359.59,430.4492,348.36,448.4192,339.61,437.4892" style="stroke:#A80036;stroke-width:1.0;"/><text fill="#000000" font-family="sans-serif" font-size="13" lengthAdjust="spacing" textLength="67" x="320" y="473.7676">implement</text><!--MD5=[175035c48b3e84441a7b463d642f34b6]
reverse link Item to ColdDrink--><path codeLine="24" d="M491.29,426.1692 C544.77,452.4492 613.73,486.3292 658.15,508.1592 " fill="none" id="Item-backto-ColdDrink" style="stroke:#A80036;stroke-width:1.0;stroke-dasharray:7.0,7.0;"/><polygon fill="none" points="487.95,432.3292,473.09,417.2292,494.13,419.7592,487.95,432.3292" style="stroke:#A80036;stroke-width:1.0;"/><text fill="#000000" font-family="sans-serif" font-size="13" lengthAdjust="spacing" textLength="67" x="594" y="473.7676">implement</text><!--MD5=[3ffcf3294e56ce8c721058f97fe5a5ae]
reverse link Burguer to VegBurger--><path codeLine="31" d="M178.56,558.4692 C163.35,566.3592 147.18,575.5192 133,585.1992 C112.58,599.1392 91.61,617.6692 76.27,632.1592 " fill="none" id="Burguer-backto-VegBurger" style="stroke:#A80036;stroke-width:1.0;"/><polygon fill="none" points="175.44,552.1992,196.46,549.5092,181.7,564.7192,175.44,552.1992" style="stroke:#A80036;stroke-width:1.0;"/><text fill="#000000" font-family="sans-serif" font-size="13" lengthAdjust="spacing" textLength="43" x="134" y="598.7676">extend</text><!--MD5=[f3bb1f35caf06829954383a6aec2efe4]
reverse link Burguer to ChickenBurger--><path codeLine="32" d="M196.15,571.1992 C193.28,575.6592 190.81,580.3592 189,585.1992 C183.43,600.1292 184.34,618.1092 186.57,632.1092 " fill="none" id="Burguer-backto-ChickenBurger" style="stroke:#A80036;stroke-width:1.0;"/><polygon fill="none" points="190.75,566.7492,208.59,555.3292,201.76,575.3892,190.75,566.7492" style="stroke:#A80036;stroke-width:1.0;"/><text fill="#000000" font-family="sans-serif" font-size="13" lengthAdjust="spacing" textLength="43" x="190" y="598.7676">extend</text><!--MD5=[db61ef75d2210d7484bbae457a452dd1]
reverse link ColdDrink to Coke--><path codeLine="39" d="M726.94,572.9292 C729.34,577.0692 731.72,581.2092 734,585.1992 C742.9,600.7792 752.73,618.4392 760.3,632.1192 " fill="none" id="ColdDrink-backto-Coke" style="stroke:#A80036;stroke-width:1.0;"/><polygon fill="none" points="720.72,576.1592,716.69,555.3592,732.81,569.1092,720.72,576.1592" style="stroke:#A80036;stroke-width:1.0;"/><text fill="#000000" font-family="sans-serif" font-size="13" lengthAdjust="spacing" textLength="43" x="744" y="598.7676">extend</text><!--MD5=[29a2c6a329e225ae0eaaf319dbfacaff]
reverse link ColdDrink to Pepsi--><path codeLine="40" d="M765.31,564.9492 C775.83,571.2492 786.44,578.1092 796,585.1992 C814.9,599.1992 834.13,617.5492 848.25,631.9492 " fill="none" id="ColdDrink-backto-Pepsi" style="stroke:#A80036;stroke-width:1.0;"/><polygon fill="none" points="761.73,570.9692,747.88,554.9292,768.71,558.8292,761.73,570.9692" style="stroke:#A80036;stroke-width:1.0;"/><text fill="#000000" font-family="sans-serif" font-size="13" lengthAdjust="spacing" textLength="43" x="817" y="598.7676">extend</text><!--MD5=[70a5e4cfe6a428bb4625fe4843a24baa]
reverse link Packing to Wrapper--><path codeLine="48" d="M426.33,569.6592 C421.64,574.7192 417.08,579.9692 413,585.1992 C401.57,599.8292 390.84,617.8192 383.09,631.8992 " fill="none" id="Packing-backto-Wrapper" style="stroke:#A80036;stroke-width:1.0;stroke-dasharray:7.0,7.0;"/><polygon fill="none" points="421.41,564.6892,440.4,555.3092,431.4,574.4892,421.41,564.6892" style="stroke:#A80036;stroke-width:1.0;"/><text fill="#000000" font-family="sans-serif" font-size="13" lengthAdjust="spacing" textLength="67" x="414" y="598.7676">implement</text><!--MD5=[9a66a6504481f248b86ac8c966c61aa8]
reverse link Packing to Bottle--><path codeLine="49" d="M495.55,571.2192 C503.81,581.5392 513.01,592.5092 522,602.1992 C531.47,612.3992 542.55,622.9692 552.4,631.9692 " fill="none" id="Packing-backto-Bottle" style="stroke:#A80036;stroke-width:1.0;stroke-dasharray:7.0,7.0;"/><polygon fill="none" points="489.9,575.3492,483.09,555.2792,500.93,566.7292,489.9,575.3492" style="stroke:#A80036;stroke-width:1.0;"/><text fill="#000000" font-family="sans-serif" font-size="13" lengthAdjust="spacing" textLength="67" x="523" y="598.7676">implement</text><!--MD5=[87ca999e2fedc57c91e125f1794adbb9]
link Burguer to Wrapper--><path codeLine="51" d="M252.31,555.2592 C263.64,569.5792 279.22,587.9192 295,602.1992 C305.62,611.8092 318.05,621.1492 329.75,629.2392 " fill="none" id="Burguer-to-Wrapper" style="stroke:#A80036;stroke-width:1.0;stroke-dasharray:7.0,7.0;"/><polygon fill="#A80036" points="334.02,632.1692,328.8562,623.7826,329.8952,629.3432,324.3346,630.3823,334.02,632.1692" style="stroke:#A80036;stroke-width:1.0;"/><text fill="#000000" font-family="sans-serif" font-size="13" lengthAdjust="spacing" textLength="97" x="296" y="598.7676">依赖-使用 use a</text><!--MD5=[2a45420a65607a4df6e177a852f77abd]
link ColdDrink to Bottle--><path codeLine="52" d="M664.18,555.3192 C651.56,563.8292 637.99,574.1192 627,585.1992 C614.6,597.6992 603.32,613.7792 594.81,627.3792 " fill="none" id="ColdDrink-to-Bottle" style="stroke:#A80036;stroke-width:1.0;stroke-dasharray:7.0,7.0;"/><polygon fill="#A80036" points="592.03,631.8792,600.1618,626.3228,594.6569,627.6249,593.3548,622.1199,592.03,631.8792" style="stroke:#A80036;stroke-width:1.0;"/><text fill="#000000" font-family="sans-serif" font-size="13" lengthAdjust="spacing" textLength="97" x="628" y="598.7676">依赖-使用 use a</text><!--MD5=[1f6fcb315daaabaa7dd00088ea80447e]
link Meal to Item--><path codeLine="54" d="M413,266.3892 C413,288.9692 413,315.6292 413,338.0192 " fill="none" id="Meal-to-Item" style="stroke:#A80036;stroke-width:1.0;stroke-dasharray:7.0,7.0;"/><polygon fill="#A80036" points="413,343.0292,417,334.0292,413,338.0292,409,334.0292,413,343.0292" style="stroke:#A80036;stroke-width:1.0;"/><text fill="#000000" font-family="sans-serif" font-size="13" lengthAdjust="spacing" textLength="97" x="414" y="309.7676">依赖-使用 use a</text><!--MD5=[dea27e126cb2b325c78a1937ad91ba3b]
link MealBuilder to Meal--><path codeLine="61" d="M203.64,216.1992 C243.9,216.1992 291.83,216.1992 331.66,216.1992 " fill="none" id="MealBuilder-to-Meal" style="stroke:#A80036;stroke-width:1.0;stroke-dasharray:7.0,7.0;"/><polygon fill="#A80036" points="336.97,216.1992,327.97,212.1992,331.97,216.1992,327.97,220.1992,336.97,216.1992" style="stroke:#A80036;stroke-width:1.0;"/><text fill="#000000" font-family="sans-serif" font-size="13" lengthAdjust="spacing" textLength="97" x="221.75" y="209.7676">依赖-使用 use a</text><!--MD5=[c2d21ca9abfe30cda13ddd5cea29de29]
link BuilderPatternDemo to MealBuilder--><path codeLine="67" d="M119,89.3092 C119,113.2692 119,147.2792 119,173.9092 " fill="none" id="BuilderPatternDemo-to-MealBuilder" style="stroke:#A80036;stroke-width:1.0;stroke-dasharray:7.0,7.0;"/><polygon fill="#A80036" points="119,179.1392,123,170.1392,119,174.1392,115,170.1392,119,179.1392" style="stroke:#A80036;stroke-width:1.0;"/><text fill="#000000" font-family="sans-serif" font-size="13" lengthAdjust="spacing" textLength="97" x="120" y="132.7676">依赖-使用 use a</text><!--MD5=[67e6d0bf04dcf8b670d4dfe0f717fbd1]
@startuml
Title 设计模式-建造者模式


class Meal{
    - ArrayList items
    + void addItem(Item item)
    + float getCost()
    + void showItems()
}

interface Item{
    + string name()
    + Packing packing()
    + float price()
}

abstract class Burguer  {
}

abstract class ColdDrink{
}

Item<|..Burguer:implement
Item<|..ColdDrink:implement

class VegBurger {
}

class ChickenBurger {
}
Burguer<|- -VegBurger:extend
Burguer<|- -ChickenBurger:extend

class Coke {
}

class Pepsi {
}
ColdDrink<|- -Coke:extend
ColdDrink<|- -Pepsi:extend

interface Packing{}

class Wrapper{}
class Bottle{}


Packing<|..Wrapper:implement
Packing<|..Bottle:implement

Burguer..>Wrapper:依赖-使用 use a
ColdDrink..>Bottle:依赖-使用 use a

Meal..>Item:依赖-使用 use a

class MealBuilder{
    + Meal prepareVegMeal()
    + Meal prepareNonVegMeal()
}

MealBuilder.>Meal:依赖-使用 use a

class BuilderPatternDemo{
    + void main()
}

BuilderPatternDemo..>MealBuilder:依赖-使用 use a


@enduml

PlantUML version 1.2021.7(Sun May 23 20:40:07 CST 2021)
(GPL source distribution)
Java Runtime: OpenJDK Runtime Environment
JVM: OpenJDK 64-Bit Server VM
Default Encoding: UTF-8
Language: zh
Country: CN
--></g></svg>