<?xml version="1.0" encoding="UTF-8" standalone="no"?><svg xmlns="http://www.w3.org/2000/svg" xmlns:xlink="http://www.w3.org/1999/xlink" contentScriptType="application/ecmascript" contentStyleType="text/css" height="344px" preserveAspectRatio="none" style="width:420px;height:344px;background:#FFFFFF;" version="1.1" viewBox="0 0 420 344" width="420px" zoomAndPan="magnify"><defs><filter height="300%" id="f3x4rezen96yc" width="300%" x="-1" y="-1"><feGaussianBlur result="blurOut" stdDeviation="2.0"/><feColorMatrix in="blurOut" result="blurOut2" type="matrix" values="0 0 0 0 0 0 0 0 0 0 0 0 0 0 0 0 0 0 .4 0"/><feOffset dx="4.0" dy="4.0" in="blurOut2" result="blurOut3"/><feBlend in="SourceGraphic" in2="blurOut3" mode="normal"/></filter></defs><g><text fill="#000000" font-family="sans-serif" font-size="18" lengthAdjust="spacing" textLength="154" x="126.5" y="17.4023">设计模式-组合模式</text><!--MD5=[7421f545a0d8420c5bec41e74b387d9c]
class Employee--><rect codeLine="3" fill="#FEFECE" filter="url(#f3x4rezen96yc)" height="164.5957" id="Employee" style="stroke:#A80036;stroke-width:1.5;" width="249" x="7" y="166.1992"/><ellipse cx="99.25" cy="182.1992" fill="#ADD1B2" rx="11" ry="11" style="stroke:#A80036;stroke-width:1.0;"/><path d="M101.7231,188.3423 Q101.1421,188.6411 100.5029,188.7905 Q99.8638,188.9399 99.1582,188.9399 Q96.6514,188.9399 95.3315,187.2881 Q94.0117,185.6362 94.0117,182.5151 Q94.0117,179.3857 95.3315,177.7339 Q96.6514,176.082 99.1582,176.082 Q99.8638,176.082 100.5112,176.2314 Q101.1587,176.3809 101.7231,176.6797 L101.7231,179.4023 Q101.0923,178.8213 100.4988,178.5515 Q99.9053,178.2817 99.2744,178.2817 Q97.9297,178.2817 97.2449,179.3484 Q96.5601,180.415 96.5601,182.5151 Q96.5601,184.6069 97.2449,185.6736 Q97.9297,186.7402 99.2744,186.7402 Q99.9053,186.7402 100.4988,186.4705 Q101.0923,186.2007 101.7231,185.6196 Z " fill="#000000"/><text fill="#000000" font-family="sans-serif" font-size="12" lengthAdjust="spacing" textLength="56" x="119.75" y="186.7344">Employee</text><line style="stroke:#A80036;stroke-width:1.5;" x1="8" x2="255" y1="198.1992" y2="198.1992"/><rect fill="none" height="6" style="stroke:#C82930;stroke-width:1.0;" width="6" x="15" y="206.1992"/><text fill="#000000" font-family="sans-serif" font-size="11" lengthAdjust="spacing" textLength="64" x="27" y="212.834">String name</text><rect fill="none" height="6" style="stroke:#C82930;stroke-width:1.0;" width="6" x="15" y="219.1543"/><text fill="#000000" font-family="sans-serif" font-size="11" lengthAdjust="spacing" textLength="59" x="27" y="225.7891">String dept</text><rect fill="none" height="6" style="stroke:#C82930;stroke-width:1.0;" width="6" x="15" y="232.1094"/><text fill="#000000" font-family="sans-serif" font-size="11" lengthAdjust="spacing" textLength="49" x="27" y="238.7441">int salary</text><rect fill="none" height="6" style="stroke:#C82930;stroke-width:1.0;" width="6" x="15" y="245.0645"/><text fill="#000000" font-family="sans-serif" font-size="11" lengthAdjust="spacing" textLength="162" x="27" y="251.6992">List&lt;Employee&gt; subordinates</text><line style="stroke:#A80036;stroke-width:1.5;" x1="8" x2="255" y1="258.0195" y2="258.0195"/><ellipse cx="18" cy="269.0195" fill="#84BE84" rx="3" ry="3" style="stroke:#038048;stroke-width:1.0;"/><text fill="#000000" font-family="sans-serif" font-size="11" lengthAdjust="spacing" textLength="223" x="27" y="272.6543">Employee(String name,String dept, int sal)</text><ellipse cx="18" cy="281.9746" fill="#84BE84" rx="3" ry="3" style="stroke:#038048;stroke-width:1.0;"/><text fill="#000000" font-family="sans-serif" font-size="11" lengthAdjust="spacing" textLength="114" x="27" y="285.6094">void add(Employee e)</text><ellipse cx="18" cy="294.9297" fill="#84BE84" rx="3" ry="3" style="stroke:#038048;stroke-width:1.0;"/><text fill="#000000" font-family="sans-serif" font-size="11" lengthAdjust="spacing" textLength="134" x="27" y="298.5645">void remove(Employee e)</text><ellipse cx="18" cy="307.8848" fill="#84BE84" rx="3" ry="3" style="stroke:#038048;stroke-width:1.0;"/><text fill="#000000" font-family="sans-serif" font-size="11" lengthAdjust="spacing" textLength="187" x="27" y="311.5195">List&lt;Employee&gt; getSubordinates()</text><ellipse cx="18" cy="320.8398" fill="#84BE84" rx="3" ry="3" style="stroke:#038048;stroke-width:1.0;"/><text fill="#000000" font-family="sans-serif" font-size="11" lengthAdjust="spacing" textLength="86" x="27" y="324.4746">String toString()</text><!--MD5=[6d15c7fa7397e7463adde3e5d87cc249]
class CompositePatternDemo--><rect codeLine="18" fill="#FEFECE" filter="url(#f3x4rezen96yc)" height="60.9551" id="CompositePatternDemo" style="stroke:#A80036;stroke-width:1.5;" width="168" x="47.5" y="28.1992"/><ellipse cx="62.5" cy="44.1992" fill="#ADD1B2" rx="11" ry="11" style="stroke:#A80036;stroke-width:1.0;"/><path d="M64.9731,50.3423 Q64.3921,50.6411 63.7529,50.7905 Q63.1138,50.9399 62.4082,50.9399 Q59.9014,50.9399 58.5815,49.2881 Q57.2617,47.6362 57.2617,44.5151 Q57.2617,41.3857 58.5815,39.7339 Q59.9014,38.082 62.4082,38.082 Q63.1138,38.082 63.7612,38.2314 Q64.4087,38.3809 64.9731,38.6797 L64.9731,41.4023 Q64.3423,40.8213 63.7488,40.5515 Q63.1553,40.2817 62.5244,40.2817 Q61.1797,40.2817 60.4949,41.3484 Q59.8101,42.415 59.8101,44.5151 Q59.8101,46.6069 60.4949,47.6736 Q61.1797,48.7402 62.5244,48.7402 Q63.1553,48.7402 63.7488,48.4705 Q64.3423,48.2007 64.9731,47.6196 Z " fill="#000000"/><text fill="#000000" font-family="sans-serif" font-size="12" lengthAdjust="spacing" textLength="136" x="76.5" y="48.7344">CompositePatternDemo</text><line style="stroke:#A80036;stroke-width:1.5;" x1="48.5" x2="214.5" y1="60.1992" y2="60.1992"/><line style="stroke:#A80036;stroke-width:1.5;" x1="48.5" x2="214.5" y1="68.1992" y2="68.1992"/><ellipse cx="58.5" cy="79.1992" fill="#84BE84" rx="3" ry="3" style="stroke:#038048;stroke-width:1.0;"/><text fill="#000000" font-family="sans-serif" font-size="11" lengthAdjust="spacing" textLength="60" x="67.5" y="82.834">void main()</text><!--MD5=[72363880b570d10855493e1aa24c7e6d]
link Employee to Employee--><path codeLine="15" d="M256.22,227.8292 C276.82,230.7892 291,237.7392 291,248.6992 C291,258.7192 279.15,265.3892 261.38,268.7192 " fill="none" id="Employee-to-Employee" style="stroke:#A80036;stroke-width:1.0;stroke-dasharray:7.0,7.0;"/><polygon fill="#A80036" points="256.22,269.5692,265.7517,272.0486,261.1531,268.7542,264.4476,264.1557,256.22,269.5692" style="stroke:#A80036;stroke-width:1.0;"/><polygon fill="#000000" points="296.7111,253.8037,298.3337,244.4325,292.5156,245.2685,296.7111,253.8037" style="stroke:#000000;stroke-width:1.0;"/><text fill="#000000" font-family="sans-serif" font-size="13" lengthAdjust="spacing" textLength="97" x="310" y="253.7676">依赖-使用 use a</text><!--MD5=[f124f4df7202fa64d47c22d8ad14dab2]
link CompositePatternDemo to Employee--><path codeLine="16" d="M131.5,89.4892 C131.5,108.8992 131.5,135.3092 131.5,160.9992 " fill="none" id="CompositePatternDemo-to-Employee" style="stroke:#A80036;stroke-width:1.0;stroke-dasharray:7.0,7.0;"/><polygon fill="#A80036" points="131.5,166.1192,135.5,157.1192,131.5,161.1192,127.5,157.1192,131.5,166.1192" style="stroke:#A80036;stroke-width:1.0;"/><polygon fill="#000000" points="136.5,132.8545,139.4389,123.8094,133.5611,123.8094,136.5,132.8545" style="stroke:#000000;stroke-width:1.0;"/><text fill="#000000" font-family="sans-serif" font-size="13" lengthAdjust="spacing" textLength="97" x="145.5" y="132.7676">依赖-访问 use a</text><!--MD5=[fac97c2701ef2e33b7e9c9b0f79ed525]
@startuml
Title 设计模式-组合模式

class Employee {
   - String name
   - String dept
   - int salary
   - List<Employee> subordinates
   + Employee(String name,String dept, int sal)
   + void add(Employee e)
   + void remove(Employee e)
   + List<Employee> getSubordinates()
   + String toString()
}

Employee ..> Employee:> 依赖-使用 use a
CompositePatternDemo ..> Employee:> 依赖-访问 use a

class CompositePatternDemo{
    + void main()
}

@enduml

PlantUML version 1.2021.7(Sun May 23 20:40:07 CST 2021)
(GPL source distribution)
Java Runtime: OpenJDK Runtime Environment
JVM: OpenJDK 64-Bit Server VM
Default Encoding: UTF-8
Language: zh
Country: CN
--></g></svg>