<?xml version="1.0" encoding="UTF-8" standalone="no"?><svg xmlns="http://www.w3.org/2000/svg" xmlns:xlink="http://www.w3.org/1999/xlink" contentScriptType="application/ecmascript" contentStyleType="text/css" height="495px" preserveAspectRatio="none" style="width:1651px;height:495px;background:#FFFFFF;" version="1.1" viewBox="0 0 1651 495" width="1651px" zoomAndPan="magnify"><defs><filter height="300%" id="fw12h57uoclx8" width="300%" x="-1" y="-1"><feGaussianBlur result="blurOut" stdDeviation="2.0"/><feColorMatrix in="blurOut" result="blurOut2" type="matrix" values="0 0 0 0 0 0 0 0 0 0 0 0 0 0 0 0 0 0 .4 0"/><feOffset dx="4.0" dy="4.0" in="blurOut2" result="blurOut3"/><feBlend in="SourceGraphic" in2="blurOut3" mode="normal"/></filter></defs><g><text fill="#000000" font-family="sans-serif" font-size="18" lengthAdjust="spacing" textLength="172" x="733" y="17.4023">设计模式-过滤器模式</text><!--MD5=[09ce52be0ee7de43c61b6e2d59bf108b]
class Person--><rect codeLine="3" fill="#FEFECE" filter="url(#fw12h57uoclx8)" height="138.6855" id="Person" style="stroke:#A80036;stroke-width:1.5;" width="319" x="294.5" y="343.1992"/><ellipse cx="430.25" cy="359.1992" fill="#ADD1B2" rx="11" ry="11" style="stroke:#A80036;stroke-width:1.0;"/><path d="M432.7231,365.3423 Q432.1421,365.6411 431.5029,365.7905 Q430.8638,365.9399 430.1582,365.9399 Q427.6514,365.9399 426.3315,364.2881 Q425.0117,362.6362 425.0117,359.5151 Q425.0117,356.3857 426.3315,354.7339 Q427.6514,353.082 430.1582,353.082 Q430.8638,353.082 431.5112,353.2314 Q432.1587,353.3809 432.7231,353.6797 L432.7231,356.4023 Q432.0923,355.8213 431.4988,355.5515 Q430.9053,355.2817 430.2744,355.2817 Q428.9297,355.2817 428.2449,356.3484 Q427.5601,357.415 427.5601,359.5151 Q427.5601,361.6069 428.2449,362.6736 Q428.9297,363.7402 430.2744,363.7402 Q430.9053,363.7402 431.4988,363.4705 Q432.0923,363.2007 432.7231,362.6196 Z " fill="#000000"/><text fill="#000000" font-family="sans-serif" font-size="12" lengthAdjust="spacing" textLength="39" x="450.75" y="363.7344">Person</text><line style="stroke:#A80036;stroke-width:1.5;" x1="295.5" x2="612.5" y1="375.1992" y2="375.1992"/><rect fill="none" height="6" style="stroke:#C82930;stroke-width:1.0;" width="6" x="302.5" y="383.1992"/><text fill="#000000" font-family="sans-serif" font-size="11" lengthAdjust="spacing" textLength="67" x="314.5" y="389.834">String name;</text><rect fill="none" height="6" style="stroke:#C82930;stroke-width:1.0;" width="6" x="302.5" y="396.1543"/><text fill="#000000" font-family="sans-serif" font-size="11" lengthAdjust="spacing" textLength="76" x="314.5" y="402.7891">String gender;</text><rect fill="none" height="6" style="stroke:#C82930;stroke-width:1.0;" width="6" x="302.5" y="409.1094"/><text fill="#000000" font-family="sans-serif" font-size="11" lengthAdjust="spacing" textLength="108" x="314.5" y="415.7441">String maritalStatus;</text><line style="stroke:#A80036;stroke-width:1.5;" x1="295.5" x2="612.5" y1="422.0645" y2="422.0645"/><ellipse cx="305.5" cy="433.0645" fill="#84BE84" rx="3" ry="3" style="stroke:#038048;stroke-width:1.0;"/><text fill="#000000" font-family="sans-serif" font-size="11" lengthAdjust="spacing" textLength="293" x="314.5" y="436.6992">Person(String name,String gender,String maritalStatus)</text><ellipse cx="305.5" cy="446.0195" fill="#84BE84" rx="3" ry="3" style="stroke:#038048;stroke-width:1.0;"/><text fill="#000000" font-family="sans-serif" font-size="11" lengthAdjust="spacing" textLength="90" x="314.5" y="449.6543">String getName()</text><ellipse cx="305.5" cy="458.9746" fill="#84BE84" rx="3" ry="3" style="stroke:#038048;stroke-width:1.0;"/><text fill="#000000" font-family="sans-serif" font-size="11" lengthAdjust="spacing" textLength="99" x="314.5" y="462.6094">String getGender()</text><ellipse cx="305.5" cy="471.9297" fill="#84BE84" rx="3" ry="3" style="stroke:#038048;stroke-width:1.0;"/><text fill="#000000" font-family="sans-serif" font-size="11" lengthAdjust="spacing" textLength="129" x="314.5" y="475.5645">String getMaritalStatus()</text><!--MD5=[b7525ac6a613b54a6bc336cf2bec4879]
class Criteria--><rect codeLine="13" fill="#FEFECE" filter="url(#fw12h57uoclx8)" height="60.9551" id="Criteria" style="stroke:#A80036;stroke-width:1.5;" width="298" x="673" y="28.1992"/><ellipse cx="796.75" cy="44.1992" fill="#B4A7E5" rx="11" ry="11" style="stroke:#A80036;stroke-width:1.0;"/><path d="M793.1777,40.4644 L793.1777,38.3062 L800.5571,38.3062 L800.5571,40.4644 L798.0918,40.4644 L798.0918,48.541 L800.5571,48.541 L800.5571,50.6992 L793.1777,50.6992 L793.1777,48.541 L795.6431,48.541 L795.6431,40.4644 Z " fill="#000000"/><text fill="#000000" font-family="sans-serif" font-size="12" font-style="italic" lengthAdjust="spacing" textLength="42" x="817.25" y="48.7344">Criteria</text><line style="stroke:#A80036;stroke-width:1.5;" x1="674" x2="970" y1="60.1992" y2="60.1992"/><line style="stroke:#A80036;stroke-width:1.5;" x1="674" x2="970" y1="68.1992" y2="68.1992"/><ellipse cx="684" cy="79.1992" fill="#84BE84" rx="3" ry="3" style="stroke:#038048;stroke-width:1.0;"/><text fill="#000000" font-family="sans-serif" font-size="11" lengthAdjust="spacing" textLength="272" x="693" y="82.834">List&lt;Person&gt; meetCriteria(List&lt;Person&gt; persons)</text><!--MD5=[21353408114e617b7d336209261055e3]
class CriteriaMale--><rect codeLine="17" fill="#FEFECE" filter="url(#fw12h57uoclx8)" height="60.9551" id="CriteriaMale" style="stroke:#A80036;stroke-width:1.5;" width="298" x="7" y="185.6992"/><ellipse cx="117.25" cy="201.6992" fill="#ADD1B2" rx="11" ry="11" style="stroke:#A80036;stroke-width:1.0;"/><path d="M119.7231,207.8423 Q119.1421,208.1411 118.5029,208.2905 Q117.8638,208.4399 117.1582,208.4399 Q114.6514,208.4399 113.3315,206.7881 Q112.0117,205.1362 112.0117,202.0151 Q112.0117,198.8857 113.3315,197.2339 Q114.6514,195.582 117.1582,195.582 Q117.8638,195.582 118.5112,195.7314 Q119.1587,195.8809 119.7231,196.1797 L119.7231,198.9023 Q119.0923,198.3213 118.4988,198.0515 Q117.9053,197.7817 117.2744,197.7817 Q115.9297,197.7817 115.2449,198.8484 Q114.5601,199.915 114.5601,202.0151 Q114.5601,204.1069 115.2449,205.1736 Q115.9297,206.2402 117.2744,206.2402 Q117.9053,206.2402 118.4988,205.9705 Q119.0923,205.7007 119.7231,205.1196 Z " fill="#000000"/><text fill="#000000" font-family="sans-serif" font-size="12" lengthAdjust="spacing" textLength="69" x="137.75" y="206.2344">CriteriaMale</text><line style="stroke:#A80036;stroke-width:1.5;" x1="8" x2="304" y1="217.6992" y2="217.6992"/><line style="stroke:#A80036;stroke-width:1.5;" x1="8" x2="304" y1="225.6992" y2="225.6992"/><ellipse cx="18" cy="236.6992" fill="#84BE84" rx="3" ry="3" style="stroke:#038048;stroke-width:1.0;"/><text fill="#000000" font-family="sans-serif" font-size="11" lengthAdjust="spacing" textLength="272" x="27" y="240.334">List&lt;Person&gt; meetCriteria(List&lt;Person&gt; persons)</text><!--MD5=[dc4220c542a459c6e0f452d8ff15bbd7]
class CriteriaFemale--><rect codeLine="20" fill="#FEFECE" filter="url(#fw12h57uoclx8)" height="60.9551" id="CriteriaFemale" style="stroke:#A80036;stroke-width:1.5;" width="298" x="340" y="185.6992"/><ellipse cx="443.25" cy="201.6992" fill="#ADD1B2" rx="11" ry="11" style="stroke:#A80036;stroke-width:1.0;"/><path d="M445.7231,207.8423 Q445.1421,208.1411 444.5029,208.2905 Q443.8638,208.4399 443.1582,208.4399 Q440.6514,208.4399 439.3315,206.7881 Q438.0117,205.1362 438.0117,202.0151 Q438.0117,198.8857 439.3315,197.2339 Q440.6514,195.582 443.1582,195.582 Q443.8638,195.582 444.5112,195.7314 Q445.1587,195.8809 445.7231,196.1797 L445.7231,198.9023 Q445.0923,198.3213 444.4988,198.0515 Q443.9053,197.7817 443.2744,197.7817 Q441.9297,197.7817 441.2449,198.8484 Q440.5601,199.915 440.5601,202.0151 Q440.5601,204.1069 441.2449,205.1736 Q441.9297,206.2402 443.2744,206.2402 Q443.9053,206.2402 444.4988,205.9705 Q445.0923,205.7007 445.7231,205.1196 Z " fill="#000000"/><text fill="#000000" font-family="sans-serif" font-size="12" lengthAdjust="spacing" textLength="83" x="463.75" y="206.2344">CriteriaFemale</text><line style="stroke:#A80036;stroke-width:1.5;" x1="341" x2="637" y1="217.6992" y2="217.6992"/><line style="stroke:#A80036;stroke-width:1.5;" x1="341" x2="637" y1="225.6992" y2="225.6992"/><ellipse cx="351" cy="236.6992" fill="#84BE84" rx="3" ry="3" style="stroke:#038048;stroke-width:1.0;"/><text fill="#000000" font-family="sans-serif" font-size="11" lengthAdjust="spacing" textLength="272" x="360" y="240.334">List&lt;Person&gt; meetCriteria(List&lt;Person&gt; persons)</text><!--MD5=[82fc284a71d3de5073d77c20a83701b6]
class CriteriaSingle--><rect codeLine="23" fill="#FEFECE" filter="url(#fw12h57uoclx8)" height="60.9551" id="CriteriaSingle" style="stroke:#A80036;stroke-width:1.5;" width="298" x="673" y="185.6992"/><ellipse cx="780.25" cy="201.6992" fill="#ADD1B2" rx="11" ry="11" style="stroke:#A80036;stroke-width:1.0;"/><path d="M782.7231,207.8423 Q782.1421,208.1411 781.5029,208.2905 Q780.8638,208.4399 780.1582,208.4399 Q777.6514,208.4399 776.3315,206.7881 Q775.0117,205.1362 775.0117,202.0151 Q775.0117,198.8857 776.3315,197.2339 Q777.6514,195.582 780.1582,195.582 Q780.8638,195.582 781.5112,195.7314 Q782.1587,195.8809 782.7231,196.1797 L782.7231,198.9023 Q782.0923,198.3213 781.4988,198.0515 Q780.9053,197.7817 780.2744,197.7817 Q778.9297,197.7817 778.2449,198.8484 Q777.5601,199.915 777.5601,202.0151 Q777.5601,204.1069 778.2449,205.1736 Q778.9297,206.2402 780.2744,206.2402 Q780.9053,206.2402 781.4988,205.9705 Q782.0923,205.7007 782.7231,205.1196 Z " fill="#000000"/><text fill="#000000" font-family="sans-serif" font-size="12" lengthAdjust="spacing" textLength="75" x="800.75" y="206.2344">CriteriaSingle</text><line style="stroke:#A80036;stroke-width:1.5;" x1="674" x2="970" y1="217.6992" y2="217.6992"/><line style="stroke:#A80036;stroke-width:1.5;" x1="674" x2="970" y1="225.6992" y2="225.6992"/><ellipse cx="684" cy="236.6992" fill="#84BE84" rx="3" ry="3" style="stroke:#038048;stroke-width:1.0;"/><text fill="#000000" font-family="sans-serif" font-size="11" lengthAdjust="spacing" textLength="272" x="693" y="240.334">List&lt;Person&gt; meetCriteria(List&lt;Person&gt; persons)</text><!--MD5=[cb802d55366e26c975669801545efc85]
class AndCriteria--><rect codeLine="26" fill="#FEFECE" filter="url(#fw12h57uoclx8)" height="99.8203" id="AndCriteria" style="stroke:#A80036;stroke-width:1.5;" width="298" x="1006" y="166.1992"/><ellipse cx="1118.25" cy="182.1992" fill="#ADD1B2" rx="11" ry="11" style="stroke:#A80036;stroke-width:1.0;"/><path d="M1120.7231,188.3423 Q1120.1421,188.6411 1119.5029,188.7905 Q1118.8638,188.9399 1118.1582,188.9399 Q1115.6514,188.9399 1114.3315,187.2881 Q1113.0117,185.6362 1113.0117,182.5151 Q1113.0117,179.3857 1114.3315,177.7339 Q1115.6514,176.082 1118.1582,176.082 Q1118.8638,176.082 1119.5112,176.2314 Q1120.1587,176.3809 1120.7231,176.6797 L1120.7231,179.4023 Q1120.0923,178.8213 1119.4988,178.5515 Q1118.9053,178.2817 1118.2744,178.2817 Q1116.9297,178.2817 1116.2449,179.3484 Q1115.5601,180.415 1115.5601,182.5151 Q1115.5601,184.6069 1116.2449,185.6736 Q1116.9297,186.7402 1118.2744,186.7402 Q1118.9053,186.7402 1119.4988,186.4705 Q1120.0923,186.2007 1120.7231,185.6196 Z " fill="#000000"/><text fill="#000000" font-family="sans-serif" font-size="12" lengthAdjust="spacing" textLength="65" x="1138.75" y="186.7344">AndCriteria</text><line style="stroke:#A80036;stroke-width:1.5;" x1="1007" x2="1303" y1="198.1992" y2="198.1992"/><rect fill="none" height="6" style="stroke:#C82930;stroke-width:1.0;" width="6" x="1014" y="206.1992"/><text fill="#000000" font-family="sans-serif" font-size="11" lengthAdjust="spacing" textLength="84" x="1026" y="212.834">Criteria criteria;</text><rect fill="none" height="6" style="stroke:#C82930;stroke-width:1.0;" width="6" x="1014" y="219.1543"/><text fill="#000000" font-family="sans-serif" font-size="11" lengthAdjust="spacing" textLength="115" x="1026" y="225.7891">Criteria otherCriteria;</text><line style="stroke:#A80036;stroke-width:1.5;" x1="1007" x2="1303" y1="232.1094" y2="232.1094"/><ellipse cx="1017" cy="243.1094" fill="#84BE84" rx="3" ry="3" style="stroke:#038048;stroke-width:1.0;"/><text fill="#000000" font-family="sans-serif" font-size="11" lengthAdjust="spacing" textLength="269" x="1026" y="246.7441">AndCriteria(Criteria criteria, Criteria otherCriteria)</text><ellipse cx="1017" cy="256.0645" fill="#84BE84" rx="3" ry="3" style="stroke:#038048;stroke-width:1.0;"/><text fill="#000000" font-family="sans-serif" font-size="11" lengthAdjust="spacing" textLength="272" x="1026" y="259.6992">List&lt;Person&gt; meetCriteria(List&lt;Person&gt; persons)</text><!--MD5=[76b6d570281df2e55528e1abedaf393b]
class OrCriteria--><rect codeLine="32" fill="#FEFECE" filter="url(#fw12h57uoclx8)" height="99.8203" id="OrCriteria" style="stroke:#A80036;stroke-width:1.5;" width="298" x="1339" y="166.1992"/><ellipse cx="1455.75" cy="182.1992" fill="#ADD1B2" rx="11" ry="11" style="stroke:#A80036;stroke-width:1.0;"/><path d="M1458.2231,188.3423 Q1457.6421,188.6411 1457.0029,188.7905 Q1456.3638,188.9399 1455.6582,188.9399 Q1453.1514,188.9399 1451.8315,187.2881 Q1450.5117,185.6362 1450.5117,182.5151 Q1450.5117,179.3857 1451.8315,177.7339 Q1453.1514,176.082 1455.6582,176.082 Q1456.3638,176.082 1457.0112,176.2314 Q1457.6587,176.3809 1458.2231,176.6797 L1458.2231,179.4023 Q1457.5923,178.8213 1456.9988,178.5515 Q1456.4053,178.2817 1455.7744,178.2817 Q1454.4297,178.2817 1453.7449,179.3484 Q1453.0601,180.415 1453.0601,182.5151 Q1453.0601,184.6069 1453.7449,185.6736 Q1454.4297,186.7402 1455.7744,186.7402 Q1456.4053,186.7402 1456.9988,186.4705 Q1457.5923,186.2007 1458.2231,185.6196 Z " fill="#000000"/><text fill="#000000" font-family="sans-serif" font-size="12" lengthAdjust="spacing" textLength="56" x="1476.25" y="186.7344">OrCriteria</text><line style="stroke:#A80036;stroke-width:1.5;" x1="1340" x2="1636" y1="198.1992" y2="198.1992"/><rect fill="none" height="6" style="stroke:#C82930;stroke-width:1.0;" width="6" x="1347" y="206.1992"/><text fill="#000000" font-family="sans-serif" font-size="11" lengthAdjust="spacing" textLength="84" x="1359" y="212.834">Criteria criteria;</text><rect fill="none" height="6" style="stroke:#C82930;stroke-width:1.0;" width="6" x="1347" y="219.1543"/><text fill="#000000" font-family="sans-serif" font-size="11" lengthAdjust="spacing" textLength="115" x="1359" y="225.7891">Criteria otherCriteria;</text><line style="stroke:#A80036;stroke-width:1.5;" x1="1340" x2="1636" y1="232.1094" y2="232.1094"/><ellipse cx="1350" cy="243.1094" fill="#84BE84" rx="3" ry="3" style="stroke:#038048;stroke-width:1.0;"/><text fill="#000000" font-family="sans-serif" font-size="11" lengthAdjust="spacing" textLength="261" x="1359" y="246.7441">OrCriteria(Criteria criteria, Criteria otherCriteria)</text><ellipse cx="1350" cy="256.0645" fill="#84BE84" rx="3" ry="3" style="stroke:#038048;stroke-width:1.0;"/><text fill="#000000" font-family="sans-serif" font-size="11" lengthAdjust="spacing" textLength="272" x="1359" y="259.6992">List&lt;Person&gt; meetCriteria(List&lt;Person&gt; persons)</text><!--MD5=[05e25c9d91c8f4ab0d97ad1e83f8fcad]
class CriteriaPatternDemo--><rect codeLine="46" fill="#FEFECE" filter="url(#fw12h57uoclx8)" height="60.9551" id="CriteriaPatternDemo" style="stroke:#A80036;stroke-width:1.5;" width="149" x="747.5" y="382.1992"/><ellipse cx="762.5" cy="398.1992" fill="#ADD1B2" rx="11" ry="11" style="stroke:#A80036;stroke-width:1.0;"/><path d="M764.9731,404.3423 Q764.3921,404.6411 763.7529,404.7905 Q763.1138,404.9399 762.4082,404.9399 Q759.9014,404.9399 758.5815,403.2881 Q757.2617,401.6362 757.2617,398.5151 Q757.2617,395.3857 758.5815,393.7339 Q759.9014,392.082 762.4082,392.082 Q763.1138,392.082 763.7612,392.2314 Q764.4087,392.3809 764.9731,392.6797 L764.9731,395.4023 Q764.3423,394.8213 763.7488,394.5515 Q763.1553,394.2817 762.5244,394.2817 Q761.1797,394.2817 760.4949,395.3484 Q759.8101,396.415 759.8101,398.5151 Q759.8101,400.6069 760.4949,401.6736 Q761.1797,402.7402 762.5244,402.7402 Q763.1553,402.7402 763.7488,402.4705 Q764.3423,402.2007 764.9731,401.6196 Z " fill="#000000"/><text fill="#000000" font-family="sans-serif" font-size="12" lengthAdjust="spacing" textLength="117" x="776.5" y="402.7344">CriteriaPatternDemo</text><line style="stroke:#A80036;stroke-width:1.5;" x1="748.5" x2="895.5" y1="414.1992" y2="414.1992"/><line style="stroke:#A80036;stroke-width:1.5;" x1="748.5" x2="895.5" y1="422.1992" y2="422.1992"/><ellipse cx="758.5" cy="433.1992" fill="#84BE84" rx="3" ry="3" style="stroke:#038048;stroke-width:1.0;"/><text fill="#000000" font-family="sans-serif" font-size="11" lengthAdjust="spacing" textLength="60" x="767.5" y="436.834">void main()</text><!--MD5=[4d051049167f0072c462efa56c021479]
reverse link Criteria to CriteriaMale--><path codeLine="39" d="M653.1,92.2992 C555.85,111.9092 431.56,138.4092 322,166.1992 C298.99,172.0392 274.37,178.9392 251.33,185.6892 " fill="none" id="Criteria-backto-CriteriaMale" style="stroke:#A80036;stroke-width:1.0;stroke-dasharray:7.0,7.0;"/><polygon fill="none" points="651.82,85.4192,672.8,88.3392,654.57,99.1392,651.82,85.4192" style="stroke:#A80036;stroke-width:1.0;"/><text fill="#000000" font-family="sans-serif" font-size="13" lengthAdjust="spacing" textLength="74" x="515" y="132.7676">implements</text><!--MD5=[263798305aa3da0d31f60c2829db18a2]
reverse link Criteria to CriteriaFemale--><path codeLine="40" d="M740.45,97.7792 C682.42,124.8792 605.58,160.7592 552.18,185.6992 " fill="none" id="Criteria-backto-CriteriaFemale" style="stroke:#A80036;stroke-width:1.0;stroke-dasharray:7.0,7.0;"/><polygon fill="none" points="737.5,91.4292,758.58,89.3092,743.42,104.1192,737.5,91.4292" style="stroke:#A80036;stroke-width:1.0;"/><text fill="#000000" font-family="sans-serif" font-size="13" lengthAdjust="spacing" textLength="74" x="687" y="132.7676">implements</text><!--MD5=[773ea6fbe896e3dd0bb48b23483c46b4]
reverse link Criteria to CriteriaSingle--><path codeLine="41" d="M822,109.4892 C822,134.6092 822,164.2192 822,185.6992 " fill="none" id="Criteria-backto-CriteriaSingle" style="stroke:#A80036;stroke-width:1.0;stroke-dasharray:7.0,7.0;"/><polygon fill="none" points="815,109.3092,822,89.3092,829,109.3092,815,109.3092" style="stroke:#A80036;stroke-width:1.0;"/><text fill="#000000" font-family="sans-serif" font-size="13" lengthAdjust="spacing" textLength="74" x="823" y="132.7676">implements</text><!--MD5=[112615cf7b0998f2969ffcbb837eb4c7]
reverse link Criteria to AndCriteria--><path codeLine="42" d="M903.6,97.7992 C947.69,118.3992 1002.64,144.0492 1049.9,166.1192 " fill="none" id="Criteria-backto-AndCriteria" style="stroke:#A80036;stroke-width:1.0;stroke-dasharray:7.0,7.0;"/><polygon fill="none" points="900.58,104.1192,885.42,89.3092,906.5,91.4292,900.58,104.1192" style="stroke:#A80036;stroke-width:1.0;"/><text fill="#000000" font-family="sans-serif" font-size="13" lengthAdjust="spacing" textLength="74" x="979" y="132.7676">implements</text><!--MD5=[91d45c7e688c057626f1cffaaeda0a1e]
reverse link Criteria to OrCriteria--><path codeLine="43" d="M990.9,92.2992 C1088.15,111.9092 1212.44,138.4092 1322,166.1992 C1327.53,167.5992 1333.16,169.0692 1338.84,170.5792 " fill="none" id="Criteria-backto-OrCriteria" style="stroke:#A80036;stroke-width:1.0;stroke-dasharray:7.0,7.0;"/><polygon fill="none" points="989.43,99.1392,971.2,88.3392,992.18,85.4192,989.43,99.1392" style="stroke:#A80036;stroke-width:1.0;"/><text fill="#000000" font-family="sans-serif" font-size="13" lengthAdjust="spacing" textLength="74" x="1186" y="132.7676">implements</text><!--MD5=[48b913d3401f399b26fe94e3ec2aa7cd]
reverse link CriteriaMale to CriteriaPatternDemo--><path codeLine="50" d="M258.68,248.2592 C279.59,254.3692 301.47,260.6092 322,266.1992 C390.28,284.7792 563.28,322.6692 631,343.1992 C669.77,354.9492 712.25,369.9692 747.29,382.9392 " fill="none" id="CriteriaMale-backto-CriteriaPatternDemo" style="stroke:#A80036;stroke-width:1.0;stroke-dasharray:7.0,7.0;"/><polygon fill="#A80036" points="253.67,246.7892,261.19,253.1492,258.47,248.1892,263.43,245.4692,253.67,246.7892" style="stroke:#A80036;stroke-width:1.0;"/><text fill="#000000" font-family="sans-serif" font-size="13" lengthAdjust="spacing" textLength="97" x="514" y="309.7676">依赖-使用 use a</text><!--MD5=[43de5ecca2510d589ace80831ed43ea8]
reverse link CriteriaFemale to CriteriaPatternDemo--><path codeLine="51" d="M544.05,249.3592 C607.21,286.2392 709.92,346.2392 771.22,382.0392 " fill="none" id="CriteriaFemale-backto-CriteriaPatternDemo" style="stroke:#A80036;stroke-width:1.0;stroke-dasharray:7.0,7.0;"/><polygon fill="#A80036" points="539.58,246.7392,545.3221,254.741,543.8937,249.2674,549.3673,247.8391,539.58,246.7392" style="stroke:#A80036;stroke-width:1.0;"/><text fill="#000000" font-family="sans-serif" font-size="13" lengthAdjust="spacing" textLength="97" x="647" y="309.7676">依赖-使用 use a</text><!--MD5=[ed74cd806f5404b43a3b8e0e2d773dd3]
reverse link CriteriaSingle to CriteriaPatternDemo--><path codeLine="52" d="M822,252.0392 C822,289.0492 822,346.9192 822,381.8792 " fill="none" id="CriteriaSingle-backto-CriteriaPatternDemo" style="stroke:#A80036;stroke-width:1.0;stroke-dasharray:7.0,7.0;"/><polygon fill="#A80036" points="822,246.7392,818,255.7392,822,251.7392,826,255.7392,822,246.7392" style="stroke:#A80036;stroke-width:1.0;"/><text fill="#000000" font-family="sans-serif" font-size="13" lengthAdjust="spacing" textLength="97" x="823" y="309.7676">依赖-使用 use a</text><!--MD5=[b1feb61991a706e4eb04c7d1f20efe54]
reverse link AndCriteria to CriteriaPatternDemo--><path codeLine="53" d="M1066.55,268.8592 C1004.66,305.0092 924.19,352.0092 872.8,382.0292 " fill="none" id="AndCriteria-backto-CriteriaPatternDemo" style="stroke:#A80036;stroke-width:1.0;stroke-dasharray:7.0,7.0;"/><polygon fill="#A80036" points="1070.97,266.2792,1061.1827,267.3791,1066.6563,268.8074,1065.2279,274.281,1070.97,266.2792" style="stroke:#A80036;stroke-width:1.0;"/><text fill="#000000" font-family="sans-serif" font-size="13" lengthAdjust="spacing" textLength="97" x="1019" y="309.7676">依赖-使用 use a</text><!--MD5=[78de4f2b8f5ed747ee44e775b31e2abe]
reverse link OrCriteria to CriteriaPatternDemo--><path codeLine="54" d="M1333.69,262.7692 C1329.75,263.9292 1325.85,265.0692 1322,266.1992 C1171.04,310.4392 994.31,361.7592 896.57,390.0992 " fill="none" id="OrCriteria-backto-CriteriaPatternDemo" style="stroke:#A80036;stroke-width:1.0;stroke-dasharray:7.0,7.0;"/><polygon fill="#A80036" points="1338.69,261.2992,1328.9264,260.006,1333.8939,262.7124,1331.1875,267.6798,1338.69,261.2992" style="stroke:#A80036;stroke-width:1.0;"/><text fill="#000000" font-family="sans-serif" font-size="13" lengthAdjust="spacing" textLength="97" x="1213" y="309.7676">依赖-使用 use a</text><!--MD5=[8541c6fb1aa9b43436b0d5f26b73db4b]
reverse link Person to CriteriaPatternDemo--><path codeLine="55" d="M618.73,412.6992 C663.73,412.6992 710.27,412.6992 747.45,412.6992 " fill="none" id="Person-backto-CriteriaPatternDemo" style="stroke:#A80036;stroke-width:1.0;stroke-dasharray:7.0,7.0;"/><polygon fill="#A80036" points="613.54,412.6992,622.54,416.6992,618.54,412.6992,622.54,408.6992,613.54,412.6992" style="stroke:#A80036;stroke-width:1.0;"/><text fill="#000000" font-family="sans-serif" font-size="13" lengthAdjust="spacing" textLength="97" x="632" y="406.2676">依赖-使用 use a</text><!--MD5=[426b1b6edf162d7e4cea5920aee6ac2b]
@startuml
Title 设计模式-过滤器模式

class Person {
   - String name;
   - String gender;
   - String maritalStatus;
   + Person(String name,String gender,String maritalStatus)
   + String getName()
   + String getGender()
   + String getMaritalStatus()
}

interface Criteria {
   + List<Person> meetCriteria(List<Person> persons)
}

class CriteriaMale{
   + List<Person> meetCriteria(List<Person> persons)
}
class CriteriaFemale{
   + List<Person> meetCriteria(List<Person> persons)
}
class CriteriaSingle{
   + List<Person> meetCriteria(List<Person> persons)
}
class AndCriteria{
   - Criteria criteria;
   - Criteria otherCriteria;
   + AndCriteria(Criteria criteria, Criteria otherCriteria)
   + List<Person> meetCriteria(List<Person> persons)
}
class OrCriteria{
   - Criteria criteria;
   - Criteria otherCriteria;
   + OrCriteria(Criteria criteria, Criteria otherCriteria)
   + List<Person> meetCriteria(List<Person> persons)
}

Criteria <|.. CriteriaMale:implements
Criteria <|.. CriteriaFemale:implements
Criteria <|.. CriteriaSingle:implements
Criteria <|.. AndCriteria:implements
Criteria <|.. OrCriteria:implements


class CriteriaPatternDemo{
    + void main()
}

CriteriaMale <.. CriteriaPatternDemo:依赖-使用 use a
CriteriaFemale <.. CriteriaPatternDemo:依赖-使用 use a
CriteriaSingle <.. CriteriaPatternDemo:依赖-使用 use a
AndCriteria <.. CriteriaPatternDemo:依赖-使用 use a
OrCriteria <.. CriteriaPatternDemo:依赖-使用 use a
Person <. CriteriaPatternDemo:依赖-使用 use a


@enduml

PlantUML version 1.2021.7(Sun May 23 20:40:07 CST 2021)
(GPL source distribution)
Java Runtime: OpenJDK Runtime Environment
JVM: OpenJDK 64-Bit Server VM
Default Encoding: UTF-8
Language: zh
Country: CN
--></g></svg>