<?xml version="1.0" encoding="UTF-8" standalone="no"?><svg xmlns="http://www.w3.org/2000/svg" xmlns:xlink="http://www.w3.org/1999/xlink" contentScriptType="application/ecmascript" contentStyleType="text/css" height="772px" preserveAspectRatio="none" style="width:372px;height:772px;background:#FFFFFF;" version="1.1" viewBox="0 0 372 772" width="372px" zoomAndPan="magnify"><defs><filter height="300%" id="f374uaau0de3d" width="300%" x="-1" y="-1"><feGaussianBlur result="blurOut" stdDeviation="2.0"/><feColorMatrix in="blurOut" result="blurOut2" type="matrix" values="0 0 0 0 0 0 0 0 0 0 0 0 0 0 0 0 0 0 .4 0"/><feOffset dx="4.0" dy="4.0" in="blurOut2" result="blurOut3"/><feBlend in="SourceGraphic" in2="blurOut3" mode="normal"/></filter></defs><g><text fill="#000000" font-family="sans-serif" font-size="18" lengthAdjust="spacing" textLength="190" x="84.5" y="17.4023">设计模式-组合实体模式</text><!--MD5=[f12bb1c0db8b9e04658948b9d5483abc]
class DependentObject1--><rect codeLine="3" fill="#FEFECE" filter="url(#f374uaau0de3d)" height="86.8652" id="DependentObject1" style="stroke:#A80036;stroke-width:1.5;" width="158" x="7" y="671.1992"/><ellipse cx="29.2" cy="687.1992" fill="#ADD1B2" rx="11" ry="11" style="stroke:#A80036;stroke-width:1.0;"/><path d="M31.6731,693.3423 Q31.0921,693.6411 30.4529,693.7905 Q29.8138,693.9399 29.1082,693.9399 Q26.6014,693.9399 25.2815,692.2881 Q23.9617,690.6362 23.9617,687.5151 Q23.9617,684.3857 25.2815,682.7339 Q26.6014,681.082 29.1082,681.082 Q29.8138,681.082 30.4612,681.2314 Q31.1087,681.3809 31.6731,681.6797 L31.6731,684.4023 Q31.0423,683.8213 30.4488,683.5515 Q29.8553,683.2817 29.2244,683.2817 Q27.8797,683.2817 27.1949,684.3484 Q26.5101,685.415 26.5101,687.5151 Q26.5101,689.6069 27.1949,690.6736 Q27.8797,691.7402 29.2244,691.7402 Q29.8553,691.7402 30.4488,691.4705 Q31.0423,691.2007 31.6731,690.6196 Z " fill="#000000"/><text fill="#000000" font-family="sans-serif" font-size="12" lengthAdjust="spacing" textLength="110" x="44.8" y="691.7344">DependentObject1</text><line style="stroke:#A80036;stroke-width:1.5;" x1="8" x2="164" y1="703.1992" y2="703.1992"/><rect fill="none" height="6" style="stroke:#C82930;stroke-width:1.0;" width="6" x="15" y="711.1992"/><text fill="#000000" font-family="sans-serif" font-size="11" lengthAdjust="spacing" textLength="58" x="27" y="717.834">String data</text><line style="stroke:#A80036;stroke-width:1.5;" x1="8" x2="164" y1="724.1543" y2="724.1543"/><ellipse cx="18" cy="735.1543" fill="#84BE84" rx="3" ry="3" style="stroke:#038048;stroke-width:1.0;"/><text fill="#000000" font-family="sans-serif" font-size="11" lengthAdjust="spacing" textLength="132" x="27" y="738.7891">void setData(String data)</text><ellipse cx="18" cy="748.1094" fill="#84BE84" rx="3" ry="3" style="stroke:#038048;stroke-width:1.0;"/><text fill="#000000" font-family="sans-serif" font-size="11" lengthAdjust="spacing" textLength="84" x="27" y="751.7441">String getData()</text><!--MD5=[8713f2df0dd50063e781258a0b9d78f0]
class DependentObject2--><rect codeLine="9" fill="#FEFECE" filter="url(#f374uaau0de3d)" height="86.8652" id="DependentObject2" style="stroke:#A80036;stroke-width:1.5;" width="158" x="200" y="671.1992"/><ellipse cx="222.2" cy="687.1992" fill="#ADD1B2" rx="11" ry="11" style="stroke:#A80036;stroke-width:1.0;"/><path d="M224.6731,693.3423 Q224.0921,693.6411 223.4529,693.7905 Q222.8138,693.9399 222.1082,693.9399 Q219.6014,693.9399 218.2815,692.2881 Q216.9617,690.6362 216.9617,687.5151 Q216.9617,684.3857 218.2815,682.7339 Q219.6014,681.082 222.1082,681.082 Q222.8138,681.082 223.4612,681.2314 Q224.1087,681.3809 224.6731,681.6797 L224.6731,684.4023 Q224.0423,683.8213 223.4488,683.5515 Q222.8553,683.2817 222.2244,683.2817 Q220.8797,683.2817 220.1949,684.3484 Q219.5101,685.415 219.5101,687.5151 Q219.5101,689.6069 220.1949,690.6736 Q220.8797,691.7402 222.2244,691.7402 Q222.8553,691.7402 223.4488,691.4705 Q224.0423,691.2007 224.6731,690.6196 Z " fill="#000000"/><text fill="#000000" font-family="sans-serif" font-size="12" lengthAdjust="spacing" textLength="110" x="237.8" y="691.7344">DependentObject2</text><line style="stroke:#A80036;stroke-width:1.5;" x1="201" x2="357" y1="703.1992" y2="703.1992"/><rect fill="none" height="6" style="stroke:#C82930;stroke-width:1.0;" width="6" x="208" y="711.1992"/><text fill="#000000" font-family="sans-serif" font-size="11" lengthAdjust="spacing" textLength="58" x="220" y="717.834">String data</text><line style="stroke:#A80036;stroke-width:1.5;" x1="201" x2="357" y1="724.1543" y2="724.1543"/><ellipse cx="211" cy="735.1543" fill="#84BE84" rx="3" ry="3" style="stroke:#038048;stroke-width:1.0;"/><text fill="#000000" font-family="sans-serif" font-size="11" lengthAdjust="spacing" textLength="132" x="220" y="738.7891">void setData(String data)</text><ellipse cx="211" cy="748.1094" fill="#84BE84" rx="3" ry="3" style="stroke:#038048;stroke-width:1.0;"/><text fill="#000000" font-family="sans-serif" font-size="11" lengthAdjust="spacing" textLength="84" x="220" y="751.7441">String getData()</text><!--MD5=[051e79c3e8cba081f08ce2423c16f6a4]
class CoarseGrainedObject--><rect codeLine="15" fill="#FEFECE" filter="url(#f374uaau0de3d)" height="99.8203" id="CoarseGrainedObject" style="stroke:#A80036;stroke-width:1.5;" width="236" x="64" y="494.1992"/><ellipse cx="115.75" cy="510.1992" fill="#ADD1B2" rx="11" ry="11" style="stroke:#A80036;stroke-width:1.0;"/><path d="M118.2231,516.3423 Q117.6421,516.6411 117.0029,516.7905 Q116.3638,516.9399 115.6582,516.9399 Q113.1514,516.9399 111.8315,515.2881 Q110.5117,513.6362 110.5117,510.5151 Q110.5117,507.3857 111.8315,505.7339 Q113.1514,504.082 115.6582,504.082 Q116.3638,504.082 117.0112,504.2314 Q117.6587,504.3809 118.2231,504.6797 L118.2231,507.4023 Q117.5923,506.8213 116.9988,506.5515 Q116.4053,506.2817 115.7744,506.2817 Q114.4297,506.2817 113.7449,507.3484 Q113.0601,508.415 113.0601,510.5151 Q113.0601,512.6069 113.7449,513.6736 Q114.4297,514.7402 115.7744,514.7402 Q116.4053,514.7402 116.9988,514.4705 Q117.5923,514.2007 118.2231,513.6196 Z " fill="#000000"/><text fill="#000000" font-family="sans-serif" font-size="12" lengthAdjust="spacing" textLength="124" x="136.25" y="514.7344">CoarseGrainedObject</text><line style="stroke:#A80036;stroke-width:1.5;" x1="65" x2="299" y1="526.1992" y2="526.1992"/><polygon fill="none" points="75,533.1992,71,539.1992,79,539.1992" style="stroke:#1963A0;stroke-width:1.0;"/><text fill="#000000" font-family="sans-serif" font-size="11" lengthAdjust="spacing" textLength="124" x="84" y="540.834">DependentObject1 do1</text><polygon fill="none" points="75,546.1543,71,552.1543,79,552.1543" style="stroke:#1963A0;stroke-width:1.0;"/><text fill="#000000" font-family="sans-serif" font-size="11" lengthAdjust="spacing" textLength="124" x="84" y="553.7891">DependentObject2 do2</text><line style="stroke:#A80036;stroke-width:1.5;" x1="65" x2="299" y1="560.1094" y2="560.1094"/><ellipse cx="75" cy="571.1094" fill="#84BE84" rx="3" ry="3" style="stroke:#038048;stroke-width:1.0;"/><text fill="#000000" font-family="sans-serif" font-size="11" lengthAdjust="spacing" textLength="210" x="84" y="574.7441">void setData(String data1, String data2)</text><ellipse cx="75" cy="584.0645" fill="#84BE84" rx="3" ry="3" style="stroke:#038048;stroke-width:1.0;"/><text fill="#000000" font-family="sans-serif" font-size="11" lengthAdjust="spacing" textLength="92" x="84" y="587.6992">String[] getData()</text><!--MD5=[9b9aa1fd837b4a4cd5a499acc8d4ea8f]
class CompositeEntity--><rect codeLine="22" fill="#FEFECE" filter="url(#f374uaau0de3d)" height="86.8652" id="CompositeEntity" style="stroke:#A80036;stroke-width:1.5;" width="326" x="19" y="330.1992"/><ellipse cx="131.75" cy="346.1992" fill="#ADD1B2" rx="11" ry="11" style="stroke:#A80036;stroke-width:1.0;"/><path d="M134.2231,352.3423 Q133.6421,352.6411 133.0029,352.7905 Q132.3638,352.9399 131.6582,352.9399 Q129.1514,352.9399 127.8315,351.2881 Q126.5117,349.6362 126.5117,346.5151 Q126.5117,343.3857 127.8315,341.7339 Q129.1514,340.082 131.6582,340.082 Q132.3638,340.082 133.0112,340.2314 Q133.6587,340.3809 134.2231,340.6797 L134.2231,343.4023 Q133.5923,342.8213 132.9988,342.5515 Q132.4053,342.2817 131.7744,342.2817 Q130.4297,342.2817 129.7449,343.3484 Q129.0601,344.415 129.0601,346.5151 Q129.0601,348.6069 129.7449,349.6736 Q130.4297,350.7402 131.7744,350.7402 Q132.4053,350.7402 132.9988,350.4705 Q133.5923,350.2007 134.2231,349.6196 Z " fill="#000000"/><text fill="#000000" font-family="sans-serif" font-size="12" lengthAdjust="spacing" textLength="92" x="152.25" y="350.7344">CompositeEntity</text><line style="stroke:#A80036;stroke-width:1.5;" x1="20" x2="344" y1="362.1992" y2="362.1992"/><line style="stroke:#A80036;stroke-width:1.5;" x1="20" x2="344" y1="370.1992" y2="370.1992"/><rect fill="#F24D5C" height="6" style="stroke:#C82930;stroke-width:1.0;" width="6" x="27" y="378.1992"/><text fill="#000000" font-family="sans-serif" font-size="11" lengthAdjust="spacing" textLength="300" x="39" y="384.834">CoarseGrainedObject cgo = new CoarseGrainedObject()</text><ellipse cx="30" cy="394.1543" fill="#84BE84" rx="3" ry="3" style="stroke:#038048;stroke-width:1.0;"/><text fill="#000000" font-family="sans-serif" font-size="11" lengthAdjust="spacing" textLength="210" x="39" y="397.7891">void setData(String data1, String data2)</text><ellipse cx="30" cy="407.1094" fill="#84BE84" rx="3" ry="3" style="stroke:#038048;stroke-width:1.0;"/><text fill="#000000" font-family="sans-serif" font-size="11" lengthAdjust="spacing" textLength="92" x="39" y="410.7441">String[] getData()</text><!--MD5=[ed6624c6556d5e7b1bd23032162d20b7]
class Client--><rect codeLine="28" fill="#FEFECE" filter="url(#f374uaau0de3d)" height="86.8652" id="Client" style="stroke:#A80036;stroke-width:1.5;" width="236" x="64" y="166.1992"/><ellipse cx="161.75" cy="182.1992" fill="#ADD1B2" rx="11" ry="11" style="stroke:#A80036;stroke-width:1.0;"/><path d="M164.2231,188.3423 Q163.6421,188.6411 163.0029,188.7905 Q162.3638,188.9399 161.6582,188.9399 Q159.1514,188.9399 157.8315,187.2881 Q156.5117,185.6362 156.5117,182.5151 Q156.5117,179.3857 157.8315,177.7339 Q159.1514,176.082 161.6582,176.082 Q162.3638,176.082 163.0112,176.2314 Q163.6587,176.3809 164.2231,176.6797 L164.2231,179.4023 Q163.5923,178.8213 162.9988,178.5515 Q162.4053,178.2817 161.7744,178.2817 Q160.4297,178.2817 159.7449,179.3484 Q159.0601,180.415 159.0601,182.5151 Q159.0601,184.6069 159.7449,185.6736 Q160.4297,186.7402 161.7744,186.7402 Q162.4053,186.7402 162.9988,186.4705 Q163.5923,186.2007 164.2231,185.6196 Z " fill="#000000"/><text fill="#000000" font-family="sans-serif" font-size="12" lengthAdjust="spacing" textLength="32" x="182.25" y="186.7344">Client</text><line style="stroke:#A80036;stroke-width:1.5;" x1="65" x2="299" y1="198.1992" y2="198.1992"/><rect fill="none" height="6" style="stroke:#C82930;stroke-width:1.0;" width="6" x="72" y="206.1992"/><text fill="#000000" font-family="sans-serif" font-size="11" lengthAdjust="spacing" textLength="177" x="84" y="212.834">CompositeEntity compositeEntity</text><line style="stroke:#A80036;stroke-width:1.5;" x1="65" x2="299" y1="219.1543" y2="219.1543"/><ellipse cx="75" cy="230.1543" fill="#84BE84" rx="3" ry="3" style="stroke:#038048;stroke-width:1.0;"/><text fill="#000000" font-family="sans-serif" font-size="11" lengthAdjust="spacing" textLength="84" x="84" y="233.7891">void printData()</text><ellipse cx="75" cy="243.1094" fill="#84BE84" rx="3" ry="3" style="stroke:#038048;stroke-width:1.0;"/><text fill="#000000" font-family="sans-serif" font-size="11" lengthAdjust="spacing" textLength="210" x="84" y="246.7441">void setData(String data1, String data2)</text><!--MD5=[ef60816fd09ba40c632174708772b239]
class CompositeEntityPatternDemo--><rect codeLine="34" fill="#FEFECE" filter="url(#f374uaau0de3d)" height="60.9551" id="CompositeEntityPatternDemo" style="stroke:#A80036;stroke-width:1.5;" width="199" x="82.5" y="28.1992"/><ellipse cx="97.5" cy="44.1992" fill="#ADD1B2" rx="11" ry="11" style="stroke:#A80036;stroke-width:1.0;"/><path d="M99.9731,50.3423 Q99.3921,50.6411 98.7529,50.7905 Q98.1138,50.9399 97.4082,50.9399 Q94.9014,50.9399 93.5815,49.2881 Q92.2617,47.6362 92.2617,44.5151 Q92.2617,41.3857 93.5815,39.7339 Q94.9014,38.082 97.4082,38.082 Q98.1138,38.082 98.7612,38.2314 Q99.4087,38.3809 99.9731,38.6797 L99.9731,41.4023 Q99.3423,40.8213 98.7488,40.5515 Q98.1553,40.2817 97.5244,40.2817 Q96.1797,40.2817 95.4949,41.3484 Q94.8101,42.415 94.8101,44.5151 Q94.8101,46.6069 95.4949,47.6736 Q96.1797,48.7402 97.5244,48.7402 Q98.1553,48.7402 98.7488,48.4705 Q99.3423,48.2007 99.9731,47.6196 Z " fill="#000000"/><text fill="#000000" font-family="sans-serif" font-size="12" lengthAdjust="spacing" textLength="167" x="111.5" y="48.7344">CompositeEntityPatternDemo</text><line style="stroke:#A80036;stroke-width:1.5;" x1="83.5" x2="280.5" y1="60.1992" y2="60.1992"/><line style="stroke:#A80036;stroke-width:1.5;" x1="83.5" x2="280.5" y1="68.1992" y2="68.1992"/><ellipse cx="93.5" cy="79.1992" fill="#84BE84" rx="3" ry="3" style="stroke:#038048;stroke-width:1.0;"/><text fill="#000000" font-family="sans-serif" font-size="11" lengthAdjust="spacing" textLength="159" x="102.5" y="82.834">static void main(String[] args)</text><!--MD5=[247ecdbc1a0153a9590b9455c727c487]
link CoarseGrainedObject to DependentObject1--><path codeLine="38" d="M148.0206,604.8106 C148.0206,604.8106 126.64,642.3792 116.87,659.5092 " fill="none" id="CoarseGrainedObject-DependentObject1" style="stroke:#A80036;stroke-width:1.0;"/><polygon fill="#A80036" points="110.31,671.0292,118.2403,665.1888,112.7848,666.6846,111.2889,661.2291,110.31,671.0292" style="stroke:#A80036;stroke-width:1.0;"/><line style="stroke:#A80036;stroke-width:1.0;" x1="112.7848" x2="116.75" y1="666.6846" y2="659.7292"/><polygon fill="#A80036" points="153.97,594.3892,147.5215,597.6168,148.0206,604.8106,154.4691,601.583,153.97,594.3892" style="stroke:#A80036;stroke-width:1.0;"/><text fill="#000000" font-family="sans-serif" font-size="13" lengthAdjust="spacing" textLength="33" x="138" y="637.7676">has a</text><!--MD5=[296a716d35847460ee8eecb10dd9dbea]
link CoarseGrainedObject to DependentObject2--><path codeLine="39" d="M216.3049,604.7902 C216.3049,604.7902 237.94,642.3792 247.8,659.5092 " fill="none" id="CoarseGrainedObject-DependentObject2" style="stroke:#A80036;stroke-width:1.0;"/><polygon fill="#A80036" points="254.43,671.0292,253.4084,661.2335,251.9363,666.6955,246.4743,665.2234,254.43,671.0292" style="stroke:#A80036;stroke-width:1.0;"/><line style="stroke:#A80036;stroke-width:1.0;" x1="251.9363" x2="247.945" y1="666.6955" y2="659.7592"/><polygon fill="#A80036" points="210.32,594.3892,209.8454,601.5847,216.3049,604.7902,216.7794,597.5948,210.32,594.3892" style="stroke:#A80036;stroke-width:1.0;"/><text fill="#000000" font-family="sans-serif" font-size="13" lengthAdjust="spacing" textLength="33" x="237" y="637.7676">has a</text><!--MD5=[c101f7a75e35639c9c42794a8b6dde0a]
link CompositeEntity to CoarseGrainedObject--><path codeLine="40" d="M182,429.2192 C182,429.2192 182,464.4692 182,481.0992 " fill="none" id="CompositeEntity-CoarseGrainedObject" style="stroke:#A80036;stroke-width:1.0;"/><polygon fill="#A80036" points="182,494.1192,186,485.1192,182,489.1192,178,485.1192,182,494.1192" style="stroke:#A80036;stroke-width:1.0;"/><line style="stroke:#A80036;stroke-width:1.0;" x1="182" x2="182" y1="489.1192" y2="481.1192"/><polygon fill="#A80036" points="182,417.2192,178,423.2192,182,429.2192,186,423.2192,182,417.2192" style="stroke:#A80036;stroke-width:1.0;"/><text fill="#000000" font-family="sans-serif" font-size="13" lengthAdjust="spacing" textLength="33" x="183" y="460.7676">has a</text><!--MD5=[f0878a4e5dc2874eb9813c02cb32a83d]
link Client to CompositeEntity--><path codeLine="41" d="M182,265.2592 C182,265.2592 182,300.6092 182,316.8892 " fill="none" id="Client-CompositeEntity" style="stroke:#A80036;stroke-width:1.0;"/><polygon fill="#A80036" points="182,330.1392,186,321.1392,182,325.1392,178,321.1392,182,330.1392" style="stroke:#A80036;stroke-width:1.0;"/><line style="stroke:#A80036;stroke-width:1.0;" x1="182" x2="182" y1="325.1392" y2="317.1392"/><polygon fill="#A80036" points="182,253.2592,178,259.2592,182,265.2592,186,259.2592,182,253.2592" style="stroke:#A80036;stroke-width:1.0;"/><text fill="#000000" font-family="sans-serif" font-size="13" lengthAdjust="spacing" textLength="33" x="183" y="296.7676">has a</text><!--MD5=[5d241e232ff7b4ca839c801e06c5b988]
link CompositeEntityPatternDemo to Client--><path codeLine="42" d="M182,89.4892 C182,109.8592 182,137.3092 182,160.7292 " fill="none" id="CompositeEntityPatternDemo-to-Client" style="stroke:#A80036;stroke-width:1.0;stroke-dasharray:7.0,7.0;"/><polygon fill="#A80036" points="182,165.9692,186,156.9692,182,160.9692,178,156.9692,182,165.9692" style="stroke:#A80036;stroke-width:1.0;"/><text fill="#000000" font-family="sans-serif" font-size="13" lengthAdjust="spacing" textLength="97" x="183" y="132.7676">依赖-使用 use a</text><!--MD5=[44f3d6548f4a64f230198bb1fb4d4cea]
@startuml
Title 设计模式-组合实体模式

class DependentObject1 {
   - String data
   + void setData(String data)
   + String getData()
}

class DependentObject2 {
   - String data
   + void setData(String data)
   + String getData()
}

class CoarseGrainedObject {
   ~ DependentObject1 do1
   ~ DependentObject2 do2
   + void setData(String data1, String data2)
   + String[] getData()
}

class CompositeEntity {
   - CoarseGrainedObject cgo = new CoarseGrainedObject()
   + void setData(String data1, String data2)
   + String[] getData()
}

class Client {
   - CompositeEntity compositeEntity
   + void printData()
   + void setData(String data1, String data2)
}

class CompositeEntityPatternDemo {
   + static void main(String[] args)
}

CoarseGrainedObject *- -> DependentObject1:has a
CoarseGrainedObject *- -> DependentObject2:has a
CompositeEntity *- ->CoarseGrainedObject:has a
Client *- ->CompositeEntity:has a
CompositeEntityPatternDemo ..> Client:依赖-使用 use a


@enduml

PlantUML version 1.2021.7(Sun May 23 20:40:07 CST 2021)
(GPL source distribution)
Java Runtime: OpenJDK Runtime Environment
JVM: OpenJDK 64-Bit Server VM
Default Encoding: UTF-8
Language: zh
Country: CN
--></g></svg>