<?xml version="1.0" encoding="UTF-8" standalone="no"?><svg xmlns="http://www.w3.org/2000/svg" xmlns:xlink="http://www.w3.org/1999/xlink" contentScriptType="application/ecmascript" contentStyleType="text/css" height="855px" preserveAspectRatio="none" style="width:596px;height:855px;background:#FFFFFF;" version="1.1" viewBox="0 0 596 855" width="596px" zoomAndPan="magnify"><defs><filter height="300%" id="f61rkfif750y3" width="300%" x="-1" y="-1"><feGaussianBlur result="blurOut" stdDeviation="2.0"/><feColorMatrix in="blurOut" result="blurOut2" type="matrix" values="0 0 0 0 0 0 0 0 0 0 0 0 0 0 0 0 0 0 .4 0"/><feOffset dx="4.0" dy="4.0" in="blurOut2" result="blurOut3"/><feBlend in="SourceGraphic" in2="blurOut3" mode="normal"/></filter></defs><g><text fill="#000000" font-family="sans-serif" font-size="18" lengthAdjust="spacing" textLength="190" x="196.5" y="17.4023">设计模式-业务代表模式</text><!--MD5=[da0105a1176b6912197e309f77013491]
class BusinessService--><rect codeLine="3" fill="#FEFECE" filter="url(#f61rkfif750y3)" height="60.9551" id="BusinessService" style="stroke:#A80036;stroke-width:1.5;" width="133" x="91" y="658.1992"/><ellipse cx="111.4" cy="674.1992" fill="#B4A7E5" rx="11" ry="11" style="stroke:#A80036;stroke-width:1.0;"/><path d="M107.8277,670.4644 L107.8277,668.3062 L115.2071,668.3062 L115.2071,670.4644 L112.7418,670.4644 L112.7418,678.541 L115.2071,678.541 L115.2071,680.6992 L107.8277,680.6992 L107.8277,678.541 L110.2931,678.541 L110.2931,670.4644 Z " fill="#000000"/><text fill="#000000" font-family="sans-serif" font-size="12" font-style="italic" lengthAdjust="spacing" textLength="89" x="126.6" y="678.7344">BusinessService</text><line style="stroke:#A80036;stroke-width:1.5;" x1="92" x2="223" y1="690.1992" y2="690.1992"/><line style="stroke:#A80036;stroke-width:1.5;" x1="92" x2="223" y1="698.1992" y2="698.1992"/><ellipse cx="102" cy="709.1992" fill="#84BE84" rx="3" ry="3" style="stroke:#038048;stroke-width:1.0;"/><text fill="#000000" font-family="sans-serif" font-size="11" lengthAdjust="spacing" textLength="107" x="111" y="712.834">void doProcessing()</text><!--MD5=[ac5773d9a0c9be57fe53304ed7f4ea43]
class EJBService--><rect codeLine="7" fill="#FEFECE" filter="url(#f61rkfif750y3)" height="60.9551" id="EJBService" style="stroke:#A80036;stroke-width:1.5;" width="133" x="7" y="780.1992"/><ellipse cx="41.35" cy="796.1992" fill="#ADD1B2" rx="11" ry="11" style="stroke:#A80036;stroke-width:1.0;"/><path d="M43.8231,802.3423 Q43.2421,802.6411 42.6029,802.7905 Q41.9638,802.9399 41.2582,802.9399 Q38.7514,802.9399 37.4315,801.2881 Q36.1117,799.6362 36.1117,796.5151 Q36.1117,793.3857 37.4315,791.7339 Q38.7514,790.082 41.2582,790.082 Q41.9638,790.082 42.6112,790.2314 Q43.2587,790.3809 43.8231,790.6797 L43.8231,793.4023 Q43.1923,792.8213 42.5988,792.5515 Q42.0053,792.2817 41.3744,792.2817 Q40.0297,792.2817 39.3449,793.3484 Q38.6601,794.415 38.6601,796.5151 Q38.6601,798.6069 39.3449,799.6736 Q40.0297,800.7402 41.3744,800.7402 Q42.0053,800.7402 42.5988,800.4705 Q43.1923,800.2007 43.8231,799.6196 Z " fill="#000000"/><text fill="#000000" font-family="sans-serif" font-size="12" lengthAdjust="spacing" textLength="58" x="59.65" y="800.7344">EJBService</text><line style="stroke:#A80036;stroke-width:1.5;" x1="8" x2="139" y1="812.1992" y2="812.1992"/><line style="stroke:#A80036;stroke-width:1.5;" x1="8" x2="139" y1="820.1992" y2="820.1992"/><ellipse cx="18" cy="831.1992" fill="#84BE84" rx="3" ry="3" style="stroke:#038048;stroke-width:1.0;"/><text fill="#000000" font-family="sans-serif" font-size="11" lengthAdjust="spacing" textLength="107" x="27" y="834.834">void doProcessing()</text><!--MD5=[7dedac8ad07e5d9afa90d1f170edc3a1]
class JMSService--><rect codeLine="11" fill="#FEFECE" filter="url(#f61rkfif750y3)" height="60.9551" id="JMSService" style="stroke:#A80036;stroke-width:1.5;" width="133" x="175" y="780.1992"/><ellipse cx="208.45" cy="796.1992" fill="#ADD1B2" rx="11" ry="11" style="stroke:#A80036;stroke-width:1.0;"/><path d="M210.9231,802.3423 Q210.3421,802.6411 209.7029,802.7905 Q209.0638,802.9399 208.3582,802.9399 Q205.8514,802.9399 204.5315,801.2881 Q203.2117,799.6362 203.2117,796.5151 Q203.2117,793.3857 204.5315,791.7339 Q205.8514,790.082 208.3582,790.082 Q209.0638,790.082 209.7112,790.2314 Q210.3587,790.3809 210.9231,790.6797 L210.9231,793.4023 Q210.2923,792.8213 209.6988,792.5515 Q209.1053,792.2817 208.4744,792.2817 Q207.1297,792.2817 206.4449,793.3484 Q205.7601,794.415 205.7601,796.5151 Q205.7601,798.6069 206.4449,799.6736 Q207.1297,800.7402 208.4744,800.7402 Q209.1053,800.7402 209.6988,800.4705 Q210.2923,800.2007 210.9231,799.6196 Z " fill="#000000"/><text fill="#000000" font-family="sans-serif" font-size="12" lengthAdjust="spacing" textLength="60" x="226.55" y="800.7344">JMSService</text><line style="stroke:#A80036;stroke-width:1.5;" x1="176" x2="307" y1="812.1992" y2="812.1992"/><line style="stroke:#A80036;stroke-width:1.5;" x1="176" x2="307" y1="820.1992" y2="820.1992"/><ellipse cx="186" cy="831.1992" fill="#84BE84" rx="3" ry="3" style="stroke:#038048;stroke-width:1.0;"/><text fill="#000000" font-family="sans-serif" font-size="11" lengthAdjust="spacing" textLength="107" x="195" y="834.834">void doProcessing()</text><!--MD5=[699f40a1a328ce88e02ee143fe969124]
class BusinessLookUp--><rect codeLine="15" fill="#FEFECE" filter="url(#f61rkfif750y3)" height="60.9551" id="BusinessLookUp" style="stroke:#A80036;stroke-width:1.5;" width="323" x="199" y="520.1992"/><ellipse cx="310.25" cy="536.1992" fill="#ADD1B2" rx="11" ry="11" style="stroke:#A80036;stroke-width:1.0;"/><path d="M312.7231,542.3423 Q312.1421,542.6411 311.5029,542.7905 Q310.8638,542.9399 310.1582,542.9399 Q307.6514,542.9399 306.3315,541.2881 Q305.0117,539.6362 305.0117,536.5151 Q305.0117,533.3857 306.3315,531.7339 Q307.6514,530.082 310.1582,530.082 Q310.8638,530.082 311.5112,530.2314 Q312.1587,530.3809 312.7231,530.6797 L312.7231,533.4023 Q312.0923,532.8213 311.4988,532.5515 Q310.9053,532.2817 310.2744,532.2817 Q308.9297,532.2817 308.2449,533.3484 Q307.5601,534.415 307.5601,536.5151 Q307.5601,538.6069 308.2449,539.6736 Q308.9297,540.7402 310.2744,540.7402 Q310.9053,540.7402 311.4988,540.4705 Q312.0923,540.2007 312.7231,539.6196 Z " fill="#000000"/><text fill="#000000" font-family="sans-serif" font-size="12" lengthAdjust="spacing" textLength="92" x="330.75" y="540.7344">BusinessLookUp</text><line style="stroke:#A80036;stroke-width:1.5;" x1="200" x2="521" y1="552.1992" y2="552.1992"/><line style="stroke:#A80036;stroke-width:1.5;" x1="200" x2="521" y1="560.1992" y2="560.1992"/><ellipse cx="210" cy="571.1992" fill="#84BE84" rx="3" ry="3" style="stroke:#038048;stroke-width:1.0;"/><text fill="#000000" font-family="sans-serif" font-size="11" lengthAdjust="spacing" textLength="297" x="219" y="574.834">BusinessService getBusinessService(String serviceType)</text><!--MD5=[d20dcc72a606cd26923dbed7e8f6e075]
class BusinessDelegate--><rect codeLine="19" fill="#FEFECE" filter="url(#f61rkfif750y3)" height="112.7754" id="BusinessDelegate" style="stroke:#A80036;stroke-width:1.5;" width="239" x="166" y="330.1992"/><ellipse cx="231.25" cy="346.1992" fill="#ADD1B2" rx="11" ry="11" style="stroke:#A80036;stroke-width:1.0;"/><path d="M233.7231,352.3423 Q233.1421,352.6411 232.5029,352.7905 Q231.8638,352.9399 231.1582,352.9399 Q228.6514,352.9399 227.3315,351.2881 Q226.0117,349.6362 226.0117,346.5151 Q226.0117,343.3857 227.3315,341.7339 Q228.6514,340.082 231.1582,340.082 Q231.8638,340.082 232.5112,340.2314 Q233.1587,340.3809 233.7231,340.6797 L233.7231,343.4023 Q233.0923,342.8213 232.4988,342.5515 Q231.9053,342.2817 231.2744,342.2817 Q229.9297,342.2817 229.2449,343.3484 Q228.5601,344.415 228.5601,346.5151 Q228.5601,348.6069 229.2449,349.6736 Q229.9297,350.7402 231.2744,350.7402 Q231.9053,350.7402 232.4988,350.4705 Q233.0923,350.2007 233.7231,349.6196 Z " fill="#000000"/><text fill="#000000" font-family="sans-serif" font-size="12" lengthAdjust="spacing" textLength="100" x="251.75" y="350.7344">BusinessDelegate</text><line style="stroke:#A80036;stroke-width:1.5;" x1="167" x2="404" y1="362.1992" y2="362.1992"/><rect fill="none" height="6" style="stroke:#C82930;stroke-width:1.0;" width="6" x="174" y="370.1992"/><text fill="#000000" font-family="sans-serif" font-size="11" lengthAdjust="spacing" textLength="166" x="186" y="376.834">BusinessLookUp lookupService</text><rect fill="none" height="6" style="stroke:#C82930;stroke-width:1.0;" width="6" x="174" y="383.1543"/><text fill="#000000" font-family="sans-serif" font-size="11" lengthAdjust="spacing" textLength="174" x="186" y="389.7891">BusinessService businessService</text><rect fill="none" height="6" style="stroke:#C82930;stroke-width:1.0;" width="6" x="174" y="396.1094"/><text fill="#000000" font-family="sans-serif" font-size="11" lengthAdjust="spacing" textLength="99" x="186" y="402.7441">String serviceType</text><line style="stroke:#A80036;stroke-width:1.5;" x1="167" x2="404" y1="409.0645" y2="409.0645"/><ellipse cx="177" cy="420.0645" fill="#84BE84" rx="3" ry="3" style="stroke:#038048;stroke-width:1.0;"/><text fill="#000000" font-family="sans-serif" font-size="11" lengthAdjust="spacing" textLength="213" x="186" y="423.6992">void setServiceType(String serviceType)</text><ellipse cx="177" cy="433.0195" fill="#84BE84" rx="3" ry="3" style="stroke:#038048;stroke-width:1.0;"/><text fill="#000000" font-family="sans-serif" font-size="11" lengthAdjust="spacing" textLength="73" x="186" y="436.6543">void doTask()</text><!--MD5=[ed6624c6556d5e7b1bd23032162d20b7]
class Client--><rect codeLine="27" fill="#FEFECE" filter="url(#f61rkfif750y3)" height="86.8652" id="Client" style="stroke:#A80036;stroke-width:1.5;" width="247" x="335" y="166.1992"/><ellipse cx="438.25" cy="182.1992" fill="#ADD1B2" rx="11" ry="11" style="stroke:#A80036;stroke-width:1.0;"/><path d="M440.7231,188.3423 Q440.1421,188.6411 439.5029,188.7905 Q438.8638,188.9399 438.1582,188.9399 Q435.6514,188.9399 434.3315,187.2881 Q433.0117,185.6362 433.0117,182.5151 Q433.0117,179.3857 434.3315,177.7339 Q435.6514,176.082 438.1582,176.082 Q438.8638,176.082 439.5112,176.2314 Q440.1587,176.3809 440.7231,176.6797 L440.7231,179.4023 Q440.0923,178.8213 439.4988,178.5515 Q438.9053,178.2817 438.2744,178.2817 Q436.9297,178.2817 436.2449,179.3484 Q435.5601,180.415 435.5601,182.5151 Q435.5601,184.6069 436.2449,185.6736 Q436.9297,186.7402 438.2744,186.7402 Q438.9053,186.7402 439.4988,186.4705 Q440.0923,186.2007 440.7231,185.6196 Z " fill="#000000"/><text fill="#000000" font-family="sans-serif" font-size="12" lengthAdjust="spacing" textLength="32" x="458.75" y="186.7344">Client</text><line style="stroke:#A80036;stroke-width:1.5;" x1="336" x2="581" y1="198.1992" y2="198.1992"/><text fill="#000000" font-family="sans-serif" font-size="11" lengthAdjust="spacing" textLength="182" x="341" y="212.834">BusinessDelegate businessService</text><line style="stroke:#A80036;stroke-width:1.5;" x1="336" x2="581" y1="219.1543" y2="219.1543"/><ellipse cx="346" cy="230.1543" fill="#84BE84" rx="3" ry="3" style="stroke:#038048;stroke-width:1.0;"/><text fill="#000000" font-family="sans-serif" font-size="11" lengthAdjust="spacing" textLength="221" x="355" y="233.7891">Client(BusinessDelegate businessService)</text><ellipse cx="346" cy="243.1094" fill="#84BE84" rx="3" ry="3" style="stroke:#038048;stroke-width:1.0;"/><text fill="#000000" font-family="sans-serif" font-size="11" lengthAdjust="spacing" textLength="73" x="355" y="246.7441">void doTask()</text><!--MD5=[3ae3acc0c54fe027932319c5ba464cd5]
class BusinessDelegatePatternDemo--><rect codeLine="33" fill="#FEFECE" filter="url(#f61rkfif750y3)" height="60.9551" id="BusinessDelegatePatternDemo" style="stroke:#A80036;stroke-width:1.5;" width="207" x="134" y="28.1992"/><ellipse cx="149" cy="44.1992" fill="#ADD1B2" rx="11" ry="11" style="stroke:#A80036;stroke-width:1.0;"/><path d="M151.4731,50.3423 Q150.8921,50.6411 150.2529,50.7905 Q149.6138,50.9399 148.9082,50.9399 Q146.4014,50.9399 145.0815,49.2881 Q143.7617,47.6362 143.7617,44.5151 Q143.7617,41.3857 145.0815,39.7339 Q146.4014,38.082 148.9082,38.082 Q149.6138,38.082 150.2612,38.2314 Q150.9087,38.3809 151.4731,38.6797 L151.4731,41.4023 Q150.8423,40.8213 150.2488,40.5515 Q149.6553,40.2817 149.0244,40.2817 Q147.6797,40.2817 146.9949,41.3484 Q146.3101,42.415 146.3101,44.5151 Q146.3101,46.6069 146.9949,47.6736 Q147.6797,48.7402 149.0244,48.7402 Q149.6553,48.7402 150.2488,48.4705 Q150.8423,48.2007 151.4731,47.6196 Z " fill="#000000"/><text fill="#000000" font-family="sans-serif" font-size="12" lengthAdjust="spacing" textLength="175" x="163" y="48.7344">BusinessDelegatePatternDemo</text><line style="stroke:#A80036;stroke-width:1.5;" x1="135" x2="340" y1="60.1992" y2="60.1992"/><line style="stroke:#A80036;stroke-width:1.5;" x1="135" x2="340" y1="68.1992" y2="68.1992"/><ellipse cx="145" cy="79.1992" fill="#84BE84" rx="3" ry="3" style="stroke:#038048;stroke-width:1.0;"/><text fill="#000000" font-family="sans-serif" font-size="11" lengthAdjust="spacing" text-decoration="underline" textLength="127" x="154" y="82.834">void main(String[] args)</text><!--MD5=[ab75719d2682983a098aa94f7aa44680]
reverse link BusinessService to EJBService--><path d="M125.13,735.9392 C114.78,750.7192 103.61,766.6792 94.32,779.9592 " fill="none" id="BusinessService-backto-EJBService" style="stroke:#A80036;stroke-width:1.0;stroke-dasharray:7.0,7.0;"/><polygon fill="none" points="119.53,731.7292,136.74,719.3592,131,739.7592,119.53,731.7292" style="stroke:#A80036;stroke-width:1.0;"/><!--MD5=[bf619a1115a6bc0f40a412e03f28cf60]
reverse link BusinessService to JMSService--><path d="M189.87,735.9392 C200.22,750.7192 211.39,766.6792 220.68,779.9592 " fill="none" id="BusinessService-backto-JMSService" style="stroke:#A80036;stroke-width:1.0;stroke-dasharray:7.0,7.0;"/><polygon fill="none" points="184,739.7592,178.26,719.3592,195.47,731.7292,184,739.7592" style="stroke:#A80036;stroke-width:1.0;"/><!--MD5=[484b86100bbe2d1b4ad9ebacd4dcd2f3]
link BusinessLookUp to BusinessService--><path codeLine="37" d="M316.45,581.2092 C283.98,602.9692 239.8,632.5592 206.26,655.0292 " fill="none" id="BusinessLookUp-to-BusinessService" style="stroke:#A80036;stroke-width:1.0;stroke-dasharray:7.0,7.0;"/><polygon fill="#A80036" points="201.81,658.0092,211.5106,656.3066,205.9592,655.2192,207.0466,649.6679,201.81,658.0092" style="stroke:#A80036;stroke-width:1.0;"/><text fill="#000000" font-family="sans-serif" font-size="13" lengthAdjust="spacing" textLength="89" x="271.5" y="624.7676">依赖使用 use a</text><!--MD5=[83d0e4595589de2a96d0fc57ffd87dc4]
link BusinessDelegate to BusinessLookUp--><path codeLine="38" d="M274.4096,455.2492 C274.4096,455.2492 277.37,479.8192 282.5,490.1992 C286.27,497.8092 291.53,504.7192 297.56,510.8992 " fill="none" id="BusinessDelegate-BusinessLookUp" style="stroke:#A80036;stroke-width:1.0;stroke-dasharray:7.0,7.0;"/><polygon fill="#A80036" points="307.56,520.0192,303.5999,511.0016,303.8635,516.6523,298.2128,516.9159,307.56,520.0192" style="stroke:#A80036;stroke-width:1.0;"/><line style="stroke:#A80036;stroke-width:1.0;" x1="303.8635" x2="297.955" y1="516.6523" y2="511.2642"/><polygon fill="#FFFFFF" points="274.37,443.2492,270.3898,449.2624,274.4096,455.2492,278.3898,449.236,274.37,443.2492" style="stroke:#A80036;stroke-width:1.0;"/><text fill="#000000" font-family="sans-serif" font-size="13" lengthAdjust="spacing" textLength="33" x="283.5" y="486.7676">has a</text><!--MD5=[83d0e4595589de2a96d0fc57ffd87dc4]
link BusinessDelegate to BusinessLookUp--><path codeLine="39" d="M311.31,443.4492 C322.34,467.2792 334.87,494.3392 344.52,515.1892 " fill="none" id="BusinessDelegate-to-BusinessLookUp" style="stroke:#A80036;stroke-width:1.0;stroke-dasharray:7.0,7.0;"/><polygon fill="#A80036" points="346.66,519.8092,346.5144,509.9614,344.562,515.2707,339.2528,513.3182,346.66,519.8092" style="stroke:#A80036;stroke-width:1.0;"/><text fill="#000000" font-family="sans-serif" font-size="13" lengthAdjust="spacing" textLength="89" x="332.5" y="486.7676">依赖使用 use a</text><!--MD5=[b6058252e07c0d5f57673df38c880e03]
link BusinessDelegate to BusinessService--><path codeLine="40" d="M196.8141,451.6321 C196.8141,451.6321 157.43,494.6692 146.5,520.1992 C129.36,560.2292 135.97,610.5892 144.45,645.5792 " fill="none" id="BusinessDelegate-BusinessService" style="stroke:#A80036;stroke-width:1.0;stroke-dasharray:7.0,7.0;"/><polygon fill="#A80036" points="147.75,658.1892,149.3338,648.4685,146.4805,653.3531,141.596,650.4997,147.75,658.1892" style="stroke:#A80036;stroke-width:1.0;"/><line style="stroke:#A80036;stroke-width:1.0;" x1="146.4805" x2="144.46" y1="653.3531" y2="645.6142"/><polygon fill="#FFFFFF" points="205.61,443.4692,198.4911,444.6187,196.8141,451.6321,203.933,450.4826,205.61,443.4692" style="stroke:#A80036;stroke-width:1.0;"/><text fill="#000000" font-family="sans-serif" font-size="13" lengthAdjust="spacing" textLength="33" x="147.5" y="555.7676">has a</text><!--MD5=[38d50bd7aab4a0ecca831f9102f4109a]
link Client to BusinessDelegate--><path codeLine="41" d="M407.7543,262.0536 C407.7543,262.0536 368.63,301.6092 349.84,320.6092 " fill="none" id="Client-BusinessDelegate" style="stroke:#A80036;stroke-width:1.0;stroke-dasharray:7.0,7.0;"/><polygon fill="#A80036" points="340.46,330.0992,349.6302,326.5066,343.9735,326.5418,343.9383,320.885,340.46,330.0992" style="stroke:#A80036;stroke-width:1.0;"/><line style="stroke:#A80036;stroke-width:1.0;" x1="343.9735" x2="349.605" y1="326.5418" y2="320.8542"/><polygon fill="#FFFFFF" points="416.18,253.5092,409.119,254.9728,407.7543,262.0536,414.8153,260.59,416.18,253.5092" style="stroke:#A80036;stroke-width:1.0;"/><text fill="#000000" font-family="sans-serif" font-size="13" lengthAdjust="spacing" textLength="33" x="382.5" y="296.7676">has a</text><!--MD5=[c67e258cd38a355ed4e1fe52edf47afd]
link BusinessDelegatePatternDemo to BusinessDelegate--><path codeLine="42" d="M231.03,89.2392 C223.73,127.5192 214.36,196.0992 226.5,253.1992 C231.73,277.7992 241.86,303.3792 252.27,325.4292 " fill="none" id="BusinessDelegatePatternDemo-to-BusinessDelegate" style="stroke:#A80036;stroke-width:1.0;stroke-dasharray:7.0,7.0;"/><polygon fill="#A80036" points="254.5,330.0792,254.2287,320.2341,252.3442,325.5678,247.0105,323.6833,254.5,330.0792" style="stroke:#A80036;stroke-width:1.0;"/><text fill="#000000" font-family="sans-serif" font-size="13" lengthAdjust="spacing" textLength="89" x="227.5" y="214.7676">依赖使用 use a</text><!--MD5=[43511e0738e8f46d55c9ea379e09d8b0]
link BusinessDelegatePatternDemo to Client--><path codeLine="43" d="M281.43,89.3192 C312.76,110.4392 355.47,139.2392 391.09,163.2492 " fill="none" id="BusinessDelegatePatternDemo-to-Client" style="stroke:#A80036;stroke-width:1.0;stroke-dasharray:7.0,7.0;"/><polygon fill="#A80036" points="395.4,166.1592,390.1634,157.8179,391.2508,163.3692,385.6994,164.4566,395.4,166.1592" style="stroke:#A80036;stroke-width:1.0;"/><text fill="#000000" font-family="sans-serif" font-size="13" lengthAdjust="spacing" textLength="89" x="348.5" y="132.7676">依赖使用 use a</text><!--MD5=[0968241764ef05bb733974495e961848]
@startuml
Title 设计模式-业务代表模式

interface BusinessService {
   + void doProcessing()
}

class EJBService implements BusinessService {
   + void doProcessing()
}

class JMSService implements BusinessService {
   + void doProcessing() 
}

class BusinessLookUp {
   + BusinessService getBusinessService(String serviceType)
}

class BusinessDelegate {
   - BusinessLookUp lookupService
   - BusinessService businessService
   - String serviceType
   + void setServiceType(String serviceType)
   + void doTask()
}

class Client {
   BusinessDelegate businessService
   + Client(BusinessDelegate businessService)
   + void doTask()
}

class BusinessDelegatePatternDemo {
   + {static} void main(String[] args) 
}

BusinessLookUp ..> BusinessService:依赖使用 use a
BusinessDelegate o..> BusinessLookUp:has a
BusinessDelegate ..> BusinessLookUp:依赖使用 use a
BusinessDelegate o..> BusinessService:has a
Client o..> BusinessDelegate:has a
BusinessDelegatePatternDemo ..> BusinessDelegate:依赖使用 use a
BusinessDelegatePatternDemo ..> Client:依赖使用 use a

@enduml

PlantUML version 1.2021.7(Sun May 23 20:40:07 CST 2021)
(GPL source distribution)
Java Runtime: OpenJDK Runtime Environment
JVM: OpenJDK 64-Bit Server VM
Default Encoding: UTF-8
Language: zh
Country: CN
--></g></svg>