<?xml version="1.0" encoding="UTF-8" standalone="no"?><svg xmlns="http://www.w3.org/2000/svg" xmlns:xlink="http://www.w3.org/1999/xlink" contentScriptType="application/ecmascript" contentStyleType="text/css" height="521px" preserveAspectRatio="none" style="width:262px;height:521px;background:#FFFFFF;" version="1.1" viewBox="0 0 262 521" width="262px" zoomAndPan="magnify"><defs><filter height="300%" id="fcw45fa6s4uyn" width="300%" x="-1" y="-1"><feGaussianBlur result="blurOut" stdDeviation="2.0"/><feColorMatrix in="blurOut" result="blurOut2" type="matrix" values="0 0 0 0 0 0 0 0 0 0 0 0 0 0 0 0 0 0 .4 0"/><feOffset dx="4.0" dy="4.0" in="blurOut2" result="blurOut3"/><feBlend in="SourceGraphic" in2="blurOut3" mode="normal"/></filter></defs><g><text fill="#000000" font-family="sans-serif" font-size="18" lengthAdjust="spacing" textLength="190" x="29.5" y="17.4023">设计模式-传输对象模式</text><!--MD5=[deb8753fe82779b1f7594059b2f2306d]
class StudentVO--><rect codeLine="3" fill="#FEFECE" filter="url(#fcw45fa6s4uyn)" height="138.6855" id="StudentVO" style="stroke:#A80036;stroke-width:1.5;" width="211" x="23" y="369.1992"/><ellipse cx="94.25" cy="385.1992" fill="#ADD1B2" rx="11" ry="11" style="stroke:#A80036;stroke-width:1.0;"/><path d="M96.7231,391.3423 Q96.1421,391.6411 95.5029,391.7905 Q94.8638,391.9399 94.1582,391.9399 Q91.6514,391.9399 90.3315,390.2881 Q89.0117,388.6362 89.0117,385.5151 Q89.0117,382.3857 90.3315,380.7339 Q91.6514,379.082 94.1582,379.082 Q94.8638,379.082 95.5112,379.2314 Q96.1587,379.3809 96.7231,379.6797 L96.7231,382.4023 Q96.0923,381.8213 95.4988,381.5515 Q94.9053,381.2817 94.2744,381.2817 Q92.9297,381.2817 92.2449,382.3484 Q91.5601,383.415 91.5601,385.5151 Q91.5601,387.6069 92.2449,388.6736 Q92.9297,389.7402 94.2744,389.7402 Q94.9053,389.7402 95.4988,389.4705 Q96.0923,389.2007 96.7231,388.6196 Z " fill="#000000"/><text fill="#000000" font-family="sans-serif" font-size="12" lengthAdjust="spacing" textLength="60" x="114.75" y="389.7344">StudentVO</text><line style="stroke:#A80036;stroke-width:1.5;" x1="24" x2="233" y1="401.1992" y2="401.1992"/><rect fill="none" height="6" style="stroke:#C82930;stroke-width:1.0;" width="6" x="31" y="409.1992"/><text fill="#000000" font-family="sans-serif" font-size="11" lengthAdjust="spacing" textLength="64" x="43" y="415.834">String name</text><rect fill="none" height="6" style="stroke:#C82930;stroke-width:1.0;" width="6" x="31" y="422.1543"/><text fill="#000000" font-family="sans-serif" font-size="11" lengthAdjust="spacing" textLength="50" x="43" y="428.7891">int rollNo</text><line style="stroke:#A80036;stroke-width:1.5;" x1="24" x2="233" y1="435.1094" y2="435.1094"/><polygon fill="#4177AF" points="34,442.1094,30,448.1094,38,448.1094" style="stroke:#1963A0;stroke-width:1.0;"/><text fill="#000000" font-family="sans-serif" font-size="11" lengthAdjust="spacing" textLength="185" x="43" y="449.7441">StudentVO(String name, int rollNo)</text><ellipse cx="34" cy="459.0645" fill="#84BE84" rx="3" ry="3" style="stroke:#038048;stroke-width:1.0;"/><text fill="#000000" font-family="sans-serif" font-size="11" lengthAdjust="spacing" textLength="90" x="43" y="462.6992">String getName()</text><ellipse cx="34" cy="472.0195" fill="#84BE84" rx="3" ry="3" style="stroke:#038048;stroke-width:1.0;"/><text fill="#000000" font-family="sans-serif" font-size="11" lengthAdjust="spacing" textLength="144" x="43" y="475.6543">void setName(String name)</text><ellipse cx="34" cy="484.9746" fill="#84BE84" rx="3" ry="3" style="stroke:#038048;stroke-width:1.0;"/><text fill="#000000" font-family="sans-serif" font-size="11" lengthAdjust="spacing" textLength="77" x="43" y="488.6094">int getRollNo()</text><ellipse cx="34" cy="497.9297" fill="#84BE84" rx="3" ry="3" style="stroke:#038048;stroke-width:1.0;"/><text fill="#000000" font-family="sans-serif" font-size="11" lengthAdjust="spacing" textLength="135" x="43" y="501.5645">void setRollNo(int rollNo)</text><!--MD5=[f94a4d11bf91fbf35577fa753851ac66]
class StudentBO--><rect codeLine="13" fill="#FEFECE" filter="url(#fcw45fa6s4uyn)" height="125.7305" id="StudentBO" style="stroke:#A80036;stroke-width:1.5;" width="239" x="9" y="166.1992"/><ellipse cx="94.75" cy="182.1992" fill="#ADD1B2" rx="11" ry="11" style="stroke:#A80036;stroke-width:1.0;"/><path d="M97.2231,188.3423 Q96.6421,188.6411 96.0029,188.7905 Q95.3638,188.9399 94.6582,188.9399 Q92.1514,188.9399 90.8315,187.2881 Q89.5117,185.6362 89.5117,182.5151 Q89.5117,179.3857 90.8315,177.7339 Q92.1514,176.082 94.6582,176.082 Q95.3638,176.082 96.0112,176.2314 Q96.6587,176.3809 97.2231,176.6797 L97.2231,179.4023 Q96.5923,178.8213 95.9988,178.5515 Q95.4053,178.2817 94.7744,178.2817 Q93.4297,178.2817 92.7449,179.3484 Q92.0601,180.415 92.0601,182.5151 Q92.0601,184.6069 92.7449,185.6736 Q93.4297,186.7402 94.7744,186.7402 Q95.4053,186.7402 95.9988,186.4705 Q96.5923,186.2007 97.2231,185.6196 Z " fill="#000000"/><text fill="#000000" font-family="sans-serif" font-size="12" lengthAdjust="spacing" textLength="59" x="115.25" y="186.7344">StudentBO</text><line style="stroke:#A80036;stroke-width:1.5;" x1="10" x2="247" y1="198.1992" y2="198.1992"/><polygon fill="none" points="20,205.1992,16,211.1992,24,211.1992" style="stroke:#1963A0;stroke-width:1.0;"/><text fill="#000000" font-family="sans-serif" font-size="11" lengthAdjust="spacing" textLength="144" x="29" y="212.834">List&lt;StudentVO&gt; students</text><line style="stroke:#A80036;stroke-width:1.5;" x1="10" x2="247" y1="219.1543" y2="219.1543"/><ellipse cx="20" cy="230.1543" fill="#84BE84" rx="3" ry="3" style="stroke:#038048;stroke-width:1.0;"/><text fill="#000000" font-family="sans-serif" font-size="11" lengthAdjust="spacing" textLength="64" x="29" y="233.7891">StudentBO()</text><ellipse cx="20" cy="243.1094" fill="#84BE84" rx="3" ry="3" style="stroke:#038048;stroke-width:1.0;"/><text fill="#000000" font-family="sans-serif" font-size="11" lengthAdjust="spacing" textLength="208" x="29" y="246.7441">void deleteStudent(StudentVO student)</text><ellipse cx="20" cy="256.0645" fill="#84BE84" rx="3" ry="3" style="stroke:#038048;stroke-width:1.0;"/><text fill="#000000" font-family="sans-serif" font-size="11" lengthAdjust="spacing" textLength="183" x="29" y="259.6992">List&lt;StudentVO&gt; getAllStudents()</text><ellipse cx="20" cy="269.0195" fill="#84BE84" rx="3" ry="3" style="stroke:#038048;stroke-width:1.0;"/><text fill="#000000" font-family="sans-serif" font-size="11" lengthAdjust="spacing" textLength="176" x="29" y="272.6543">StudentVO getStudent(int rollNo)</text><ellipse cx="20" cy="281.9746" fill="#84BE84" rx="3" ry="3" style="stroke:#038048;stroke-width:1.0;"/><text fill="#000000" font-family="sans-serif" font-size="11" lengthAdjust="spacing" textLength="213" x="29" y="285.6094">void updateStudent(StudentVO student)</text><!--MD5=[fa7453ac2ba43eb9b83cfab10c3f908f]
class TransferObjectPatternDemo--><rect codeLine="22" fill="#FEFECE" filter="url(#fcw45fa6s4uyn)" height="60.9551" id="TransferObjectPatternDemo" style="stroke:#A80036;stroke-width:1.5;" width="194" x="31.5" y="28.1992"/><ellipse cx="46.5" cy="44.1992" fill="#ADD1B2" rx="11" ry="11" style="stroke:#A80036;stroke-width:1.0;"/><path d="M48.9731,50.3423 Q48.3921,50.6411 47.7529,50.7905 Q47.1138,50.9399 46.4082,50.9399 Q43.9014,50.9399 42.5815,49.2881 Q41.2617,47.6362 41.2617,44.5151 Q41.2617,41.3857 42.5815,39.7339 Q43.9014,38.082 46.4082,38.082 Q47.1138,38.082 47.7612,38.2314 Q48.4087,38.3809 48.9731,38.6797 L48.9731,41.4023 Q48.3423,40.8213 47.7488,40.5515 Q47.1553,40.2817 46.5244,40.2817 Q45.1797,40.2817 44.4949,41.3484 Q43.8101,42.415 43.8101,44.5151 Q43.8101,46.6069 44.4949,47.6736 Q45.1797,48.7402 46.5244,48.7402 Q47.1553,48.7402 47.7488,48.4705 Q48.3423,48.2007 48.9731,47.6196 Z " fill="#000000"/><text fill="#000000" font-family="sans-serif" font-size="12" lengthAdjust="spacing" textLength="162" x="60.5" y="48.7344">TransferObjectPatternDemo</text><line style="stroke:#A80036;stroke-width:1.5;" x1="32.5" x2="224.5" y1="60.1992" y2="60.1992"/><line style="stroke:#A80036;stroke-width:1.5;" x1="32.5" x2="224.5" y1="68.1992" y2="68.1992"/><ellipse cx="42.5" cy="79.1992" fill="#84BE84" rx="3" ry="3" style="stroke:#038048;stroke-width:1.0;"/><text fill="#000000" font-family="sans-serif" font-size="11" lengthAdjust="spacing" text-decoration="underline" textLength="127" x="51.5" y="82.834">void main(String[] args)</text><!--MD5=[b28ee43f8e6cdb5e6e17797a976cec4e]
link TransferObjectPatternDemo to StudentBO--><path codeLine="27" d="M128.5,89.4392 C128.5,109.1892 128.5,135.9592 128.5,160.7192 " fill="none" id="TransferObjectPatternDemo-to-StudentBO" style="stroke:#A80036;stroke-width:1.0;stroke-dasharray:7.0,7.0;"/><polygon fill="#A80036" points="128.5,165.9692,132.5,156.9692,128.5,160.9692,124.5,156.9692,128.5,165.9692" style="stroke:#A80036;stroke-width:1.0;"/><text fill="#000000" font-family="sans-serif" font-size="13" lengthAdjust="spacing" textLength="89" x="129.5" y="132.7676">依赖使用 use a</text><!--MD5=[4c0a08e1e184d40253e729aaec1132e7]
link StudentBO to StudentVO--><path codeLine="28" d="M93.4793,303.7537 C93.4793,303.7537 89.69,316.4792 88.5,322.1992 C86.16,333.4492 86.6,345.0992 88.75,356.4892 " fill="none" id="StudentBO-StudentVO" style="stroke:#A80036;stroke-width:1.0;"/><polygon fill="#A80036" points="91.84,369.1892,93.5998,359.4989,90.6584,364.3308,85.8264,361.3894,91.84,369.1892" style="stroke:#A80036;stroke-width:1.0;"/><line style="stroke:#A80036;stroke-width:1.0;" x1="90.6584" x2="88.76" y1="364.3308" y2="356.5642"/><polygon fill="#FFFFFF" points="97.42,292.4192,91.6715,296.7729,93.4793,303.7537,99.2278,299.4,97.42,292.4192" style="stroke:#A80036;stroke-width:1.0;"/><text fill="#000000" font-family="sans-serif" font-size="13" lengthAdjust="spacing" textLength="33" x="89.5" y="335.7676">has a</text><!--MD5=[4c0a08e1e184d40253e729aaec1132e7]
link StudentBO to StudentVO--><path codeLine="29" d="M128.5,292.4592 C128.5,314.8792 128.5,340.3892 128.5,363.7092 " fill="none" id="StudentBO-to-StudentVO" style="stroke:#A80036;stroke-width:1.0;stroke-dasharray:7.0,7.0;"/><polygon fill="#A80036" points="128.5,368.9592,132.5,359.9592,128.5,363.9592,124.5,359.9592,128.5,368.9592" style="stroke:#A80036;stroke-width:1.0;"/><text fill="#000000" font-family="sans-serif" font-size="13" lengthAdjust="spacing" textLength="89" x="129.5" y="335.7676">依赖使用 use a</text><!--MD5=[b0f0ab2ab270bd121bfd0207c2ec8356]
@startuml
Title 设计模式-传输对象模式

class StudentVO {
   - String name
   - int rollNo
   ~ StudentVO(String name, int rollNo)
   + String getName()
   + void setName(String name) 
   + int getRollNo()
   + void setRollNo(int rollNo)
}

class StudentBO {
   ~ List<StudentVO> students
   + StudentBO()
   + void deleteStudent(StudentVO student)
   + List<StudentVO> getAllStudents()
   + StudentVO getStudent(int rollNo)
   + void updateStudent(StudentVO student)
}

class TransferObjectPatternDemo {
   + {static} void main(String[] args)
}


TransferObjectPatternDemo ..> StudentBO:依赖使用 use a
StudentBO o- -> StudentVO:has a
StudentBO ..> StudentVO:依赖使用 use a

@enduml

PlantUML version 1.2021.7(Sun May 23 20:40:07 CST 2021)
(GPL source distribution)
Java Runtime: OpenJDK Runtime Environment
JVM: OpenJDK 64-Bit Server VM
Default Encoding: UTF-8
Language: zh
Country: CN
--></g></svg>