<?xml version="1.0" encoding="UTF-8" standalone="no"?><svg xmlns="http://www.w3.org/2000/svg" xmlns:xlink="http://www.w3.org/1999/xlink" contentScriptType="application/ecmascript" contentStyleType="text/css" height="487px" preserveAspectRatio="none" style="width:1084px;height:487px;background:#FFFFFF;" version="1.1" viewBox="0 0 1084 487" width="1084px" zoomAndPan="magnify"><defs><filter height="300%" id="f1o1ra3nqz66tv" width="300%" x="-1" y="-1"><feGaussianBlur result="blurOut" stdDeviation="2.0"/><feColorMatrix in="blurOut" result="blurOut2" type="matrix" values="0 0 0 0 0 0 0 0 0 0 0 0 0 0 0 0 0 0 .4 0"/><feOffset dx="4.0" dy="4.0" in="blurOut2" result="blurOut3"/><feBlend in="SourceGraphic" in2="blurOut3" mode="normal"/></filter></defs><g><text fill="#000000" font-family="sans-serif" font-size="18" lengthAdjust="spacing" textLength="172" x="449.5" y="17.4023">设计模式-解释器模式</text><!--MD5=[e1c6a0566188ad8b4c077d2c9e30987d]
cluster 解释器--><rect fill="#FFFFFF" filter="url(#f1o1ra3nqz66tv)" height="289" style="stroke:#000000;stroke-width:1.5;" width="946" x="126" y="186.1992"/><text fill="#000000" font-family="sans-serif" font-size="14" font-weight="bold" lengthAdjust="spacing" textLength="42" x="578" y="201.7344">解释器</text><!--MD5=[3637e2e3ff64f8c7ec072f5df5e3a1dc]
class Expression--><rect codeLine="4" fill="#FEFECE" filter="url(#f1o1ra3nqz66tv)" height="60.9551" id="Expression" style="stroke:#A80036;stroke-width:1.5;" width="203" x="447.5" y="229.1992"/><ellipse cx="513.25" cy="245.1992" fill="#B4A7E5" rx="11" ry="11" style="stroke:#A80036;stroke-width:1.0;"/><path d="M509.6777,241.4644 L509.6777,239.3062 L517.0571,239.3062 L517.0571,241.4644 L514.5918,241.4644 L514.5918,249.541 L517.0571,249.541 L517.0571,251.6992 L509.6777,251.6992 L509.6777,249.541 L512.1431,249.541 L512.1431,241.4644 Z " fill="#000000"/><text fill="#000000" font-family="sans-serif" font-size="12" font-style="italic" lengthAdjust="spacing" textLength="63" x="533.75" y="249.7344">Expression</text><line style="stroke:#A80036;stroke-width:1.5;" x1="448.5" x2="649.5" y1="261.1992" y2="261.1992"/><line style="stroke:#A80036;stroke-width:1.5;" x1="448.5" x2="649.5" y1="269.1992" y2="269.1992"/><ellipse cx="458.5" cy="280.1992" fill="#84BE84" rx="3" ry="3" style="stroke:#038048;stroke-width:1.0;"/><text fill="#000000" font-family="sans-serif" font-size="11" lengthAdjust="spacing" textLength="177" x="467.5" y="283.834">boolean interpret(String context)</text><!--MD5=[78602e3cc428a36b26b27bd9510830dc]
class TerminalExpression--><rect codeLine="9" fill="#FEFECE" filter="url(#f1o1ra3nqz66tv)" height="86.8652" id="TerminalExpression" style="stroke:#A80036;stroke-width:1.5;" width="203" x="158.5" y="357.6992"/><ellipse cx="199.15" cy="373.6992" fill="#ADD1B2" rx="11" ry="11" style="stroke:#A80036;stroke-width:1.0;"/><path d="M201.6231,379.8423 Q201.0421,380.1411 200.4029,380.2905 Q199.7638,380.4399 199.0582,380.4399 Q196.5514,380.4399 195.2315,378.7881 Q193.9117,377.1362 193.9117,374.0151 Q193.9117,370.8857 195.2315,369.2339 Q196.5514,367.582 199.0582,367.582 Q199.7638,367.582 200.4112,367.7314 Q201.0587,367.8809 201.6231,368.1797 L201.6231,370.9023 Q200.9923,370.3213 200.3988,370.0515 Q199.8053,369.7817 199.1744,369.7817 Q197.8297,369.7817 197.1449,370.8484 Q196.4601,371.915 196.4601,374.0151 Q196.4601,376.1069 197.1449,377.1736 Q197.8297,378.2402 199.1744,378.2402 Q199.8053,378.2402 200.3988,377.9705 Q200.9923,377.7007 201.6231,377.1196 Z " fill="#000000"/><text fill="#000000" font-family="sans-serif" font-size="12" lengthAdjust="spacing" textLength="114" x="218.85" y="378.2344">TerminalExpression</text><line style="stroke:#A80036;stroke-width:1.5;" x1="159.5" x2="360.5" y1="389.6992" y2="389.6992"/><rect fill="none" height="6" style="stroke:#C82930;stroke-width:1.0;" width="6" x="166.5" y="397.6992"/><text fill="#000000" font-family="sans-serif" font-size="11" lengthAdjust="spacing" textLength="61" x="178.5" y="404.334">String data;</text><line style="stroke:#A80036;stroke-width:1.5;" x1="159.5" x2="360.5" y1="410.6543" y2="410.6543"/><ellipse cx="169.5" cy="421.6543" fill="#84BE84" rx="3" ry="3" style="stroke:#038048;stroke-width:1.0;"/><text fill="#000000" font-family="sans-serif" font-size="11" lengthAdjust="spacing" textLength="173" x="178.5" y="425.2891">TerminalExpression(String data)</text><ellipse cx="169.5" cy="434.6094" fill="#84BE84" rx="3" ry="3" style="stroke:#038048;stroke-width:1.0;"/><text fill="#000000" font-family="sans-serif" font-size="11" lengthAdjust="spacing" textLength="177" x="178.5" y="438.2441">boolean interpret(String context)</text><!--MD5=[f02ad69e2dfa06caff79b46eb1126f05]
class OrExpression--><rect codeLine="15" fill="#FEFECE" filter="url(#f1o1ra3nqz66tv)" height="99.8203" id="OrExpression" style="stroke:#A80036;stroke-width:1.5;" width="304" x="397" y="351.1992"/><ellipse cx="506.25" cy="367.1992" fill="#ADD1B2" rx="11" ry="11" style="stroke:#A80036;stroke-width:1.0;"/><path d="M508.7231,373.3423 Q508.1421,373.6411 507.5029,373.7905 Q506.8638,373.9399 506.1582,373.9399 Q503.6514,373.9399 502.3315,372.2881 Q501.0117,370.6362 501.0117,367.5151 Q501.0117,364.3857 502.3315,362.7339 Q503.6514,361.082 506.1582,361.082 Q506.8638,361.082 507.5112,361.2314 Q508.1587,361.3809 508.7231,361.6797 L508.7231,364.4023 Q508.0923,363.8213 507.4988,363.5515 Q506.9053,363.2817 506.2744,363.2817 Q504.9297,363.2817 504.2449,364.3484 Q503.5601,365.415 503.5601,367.5151 Q503.5601,369.6069 504.2449,370.6736 Q504.9297,371.7402 506.2744,371.7402 Q506.9053,371.7402 507.4988,371.4705 Q508.0923,371.2007 508.7231,370.6196 Z " fill="#000000"/><text fill="#000000" font-family="sans-serif" font-size="12" lengthAdjust="spacing" textLength="77" x="526.75" y="371.7344">OrExpression</text><line style="stroke:#A80036;stroke-width:1.5;" x1="398" x2="700" y1="383.1992" y2="383.1992"/><rect fill="none" height="6" style="stroke:#C82930;stroke-width:1.0;" width="6" x="405" y="391.1992"/><text fill="#000000" font-family="sans-serif" font-size="11" lengthAdjust="spacing" textLength="133" x="417" y="397.834">Expression expr1 = null;</text><rect fill="none" height="6" style="stroke:#C82930;stroke-width:1.0;" width="6" x="405" y="404.1543"/><text fill="#000000" font-family="sans-serif" font-size="11" lengthAdjust="spacing" textLength="133" x="417" y="410.7891">Expression expr2 = null;</text><line style="stroke:#A80036;stroke-width:1.5;" x1="398" x2="700" y1="417.1094" y2="417.1094"/><ellipse cx="408" cy="428.1094" fill="#84BE84" rx="3" ry="3" style="stroke:#038048;stroke-width:1.0;"/><text fill="#000000" font-family="sans-serif" font-size="11" lengthAdjust="spacing" textLength="278" x="417" y="431.7441">OrExpression(Expression expr1, Expression expr2)</text><ellipse cx="408" cy="441.0645" fill="#84BE84" rx="3" ry="3" style="stroke:#038048;stroke-width:1.0;"/><text fill="#000000" font-family="sans-serif" font-size="11" lengthAdjust="spacing" textLength="177" x="417" y="444.6992">boolean interpret(String context)</text><!--MD5=[2d542ee2d7cd4a2d9f1d5c9b768f5b83]
class AndExpression--><rect codeLine="22" fill="#FEFECE" filter="url(#f1o1ra3nqz66tv)" height="99.8203" id="AndExpression" style="stroke:#A80036;stroke-width:1.5;" width="312" x="736" y="351.1992"/><ellipse cx="844.75" cy="367.1992" fill="#ADD1B2" rx="11" ry="11" style="stroke:#A80036;stroke-width:1.0;"/><path d="M847.2231,373.3423 Q846.6421,373.6411 846.0029,373.7905 Q845.3638,373.9399 844.6582,373.9399 Q842.1514,373.9399 840.8315,372.2881 Q839.5117,370.6362 839.5117,367.5151 Q839.5117,364.3857 840.8315,362.7339 Q842.1514,361.082 844.6582,361.082 Q845.3638,361.082 846.0112,361.2314 Q846.6587,361.3809 847.2231,361.6797 L847.2231,364.4023 Q846.5923,363.8213 845.9988,363.5515 Q845.4053,363.2817 844.7744,363.2817 Q843.4297,363.2817 842.7449,364.3484 Q842.0601,365.415 842.0601,367.5151 Q842.0601,369.6069 842.7449,370.6736 Q843.4297,371.7402 844.7744,371.7402 Q845.4053,371.7402 845.9988,371.4705 Q846.5923,371.2007 847.2231,370.6196 Z " fill="#000000"/><text fill="#000000" font-family="sans-serif" font-size="12" lengthAdjust="spacing" textLength="86" x="865.25" y="371.7344">AndExpression</text><line style="stroke:#A80036;stroke-width:1.5;" x1="737" x2="1047" y1="383.1992" y2="383.1992"/><rect fill="none" height="6" style="stroke:#C82930;stroke-width:1.0;" width="6" x="744" y="391.1992"/><text fill="#000000" font-family="sans-serif" font-size="11" lengthAdjust="spacing" textLength="133" x="756" y="397.834">Expression expr1 = null;</text><rect fill="none" height="6" style="stroke:#C82930;stroke-width:1.0;" width="6" x="744" y="404.1543"/><text fill="#000000" font-family="sans-serif" font-size="11" lengthAdjust="spacing" textLength="133" x="756" y="410.7891">Expression expr2 = null;</text><line style="stroke:#A80036;stroke-width:1.5;" x1="737" x2="1047" y1="417.1094" y2="417.1094"/><ellipse cx="747" cy="428.1094" fill="#84BE84" rx="3" ry="3" style="stroke:#038048;stroke-width:1.0;"/><text fill="#000000" font-family="sans-serif" font-size="11" lengthAdjust="spacing" textLength="286" x="756" y="431.7441">AndExpression(Expression expr1, Expression expr2)</text><ellipse cx="747" cy="441.0645" fill="#84BE84" rx="3" ry="3" style="stroke:#038048;stroke-width:1.0;"/><text fill="#000000" font-family="sans-serif" font-size="11" lengthAdjust="spacing" textLength="177" x="756" y="444.6992">boolean interpret(String context)</text><!--MD5=[02815b6af29f4d2a55815fffd1967d78]
class InterpreterPatternDemo--><rect codeLine="30" fill="#FEFECE" filter="url(#f1o1ra3nqz66tv)" height="86.8652" id="InterpreterPatternDemo" style="stroke:#A80036;stroke-width:1.5;" width="254" x="7" y="28.1992"/><ellipse cx="61.25" cy="44.1992" fill="#ADD1B2" rx="11" ry="11" style="stroke:#A80036;stroke-width:1.0;"/><path d="M63.7231,50.3423 Q63.1421,50.6411 62.5029,50.7905 Q61.8638,50.9399 61.1582,50.9399 Q58.6514,50.9399 57.3315,49.2881 Q56.0117,47.6362 56.0117,44.5151 Q56.0117,41.3857 57.3315,39.7339 Q58.6514,38.082 61.1582,38.082 Q61.8638,38.082 62.5112,38.2314 Q63.1587,38.3809 63.7231,38.6797 L63.7231,41.4023 Q63.0923,40.8213 62.4988,40.5515 Q61.9053,40.2817 61.2744,40.2817 Q59.9297,40.2817 59.2449,41.3484 Q58.5601,42.415 58.5601,44.5151 Q58.5601,46.6069 59.2449,47.6736 Q59.9297,48.7402 61.2744,48.7402 Q61.9053,48.7402 62.4988,48.4705 Q63.0923,48.2007 63.7231,47.6196 Z " fill="#000000"/><text fill="#000000" font-family="sans-serif" font-size="12" lengthAdjust="spacing" textLength="137" x="81.75" y="48.7344">InterpreterPatternDemo</text><line style="stroke:#A80036;stroke-width:1.5;" x1="8" x2="260" y1="60.1992" y2="60.1992"/><line style="stroke:#A80036;stroke-width:1.5;" x1="8" x2="260" y1="68.1992" y2="68.1992"/><ellipse cx="18" cy="79.1992" fill="#84BE84" rx="3" ry="3" style="stroke:#038048;stroke-width:1.0;"/><text fill="#000000" font-family="sans-serif" font-size="11" lengthAdjust="spacing" text-decoration="underline" textLength="172" x="27" y="82.834">Expression getMaleExpression()</text><ellipse cx="18" cy="92.1543" fill="#84BE84" rx="3" ry="3" style="stroke:#038048;stroke-width:1.0;"/><text fill="#000000" font-family="sans-serif" font-size="11" lengthAdjust="spacing" text-decoration="underline" textLength="228" x="27" y="95.7891">Expression getMarriedWomanExpression()</text><ellipse cx="18" cy="105.1094" fill="#84BE84" rx="3" ry="3" style="stroke:#038048;stroke-width:1.0;"/><text fill="#000000" font-family="sans-serif" font-size="11" lengthAdjust="spacing" text-decoration="underline" textLength="60" x="27" y="108.7441">void main()</text><!--MD5=[e9b88ea4919d04fb5738fac5519a13c3]
reverse link Expression to TerminalExpression--><path d="M469.6,299.0292 C431.93,317.2092 386.79,338.9992 348.07,357.6892 " fill="none" id="Expression-backto-TerminalExpression" style="stroke:#A80036;stroke-width:1.0;stroke-dasharray:7.0,7.0;"/><polygon fill="none" points="466.66,292.6692,487.71,290.2792,472.74,305.2792,466.66,292.6692" style="stroke:#A80036;stroke-width:1.0;"/><!--MD5=[3b3052607187786526816a31bf5c1045]
reverse link Expression to OrExpression--><path d="M549,310.5192 C549,323.7392 549,337.9992 549,351.1692 " fill="none" id="Expression-backto-OrExpression" style="stroke:#A80036;stroke-width:1.0;stroke-dasharray:7.0,7.0;"/><polygon fill="none" points="542,310.2792,549,290.2792,556,310.2792,542,310.2792" style="stroke:#A80036;stroke-width:1.0;"/><!--MD5=[85e65177a55bf5899e9240a1be7292e1]
reverse link Expression to AndExpression--><path d="M640.51,297.9192 C680.69,314.2592 728.42,333.6692 771.45,351.1692 " fill="none" id="Expression-backto-AndExpression" style="stroke:#A80036;stroke-width:1.0;stroke-dasharray:7.0,7.0;"/><polygon fill="none" points="637.63,304.2992,621.74,290.2792,642.91,291.3292,637.63,304.2992" style="stroke:#A80036;stroke-width:1.0;"/><!--MD5=[f2aa98eb0d92c1551cfc107146db78ea]
link InterpreterPatternDemo to 解释器--><path codeLine="36" d="M134,115.3692 C134,128.8842 134,144.428 134,160.1834 C134,168.0612 134,175.9918 134,183.7483 C134,184.2331 134,184.7172 134,185.2005 C134,185.4422 134,185.6837 134,185.925 " fill="none" id="InterpreterPatternDemo-to-解释器" style="stroke:#A80036;stroke-width:1.0;stroke-dasharray:7.0,7.0;"/><polygon fill="#A80036" points="134,185.925,138,176.925,134,180.925,130,176.925,134,185.925" style="stroke:#A80036;stroke-width:1.0;"/><text fill="#000000" font-family="sans-serif" font-size="13" lengthAdjust="spacing" textLength="97" x="135" y="158.7676">依赖-使用 use a</text><!--MD5=[d8474d8b899380356dee76702fc6a733]
@startuml
Title 设计模式-解释器模式

package 解释器 <<rectangle>>{
    interface Expression {
    + boolean interpret(String context)
    }


    class TerminalExpression implements Expression {
    - String data;
    + TerminalExpression(String data)
    + boolean interpret(String context)
    }

    class OrExpression implements Expression {
    - Expression expr1 = null;
    - Expression expr2 = null;
    + OrExpression(Expression expr1, Expression expr2)
    + boolean interpret(String context)
    }

    class AndExpression implements Expression {
    - Expression expr1 = null;
    - Expression expr2 = null;
    + AndExpression(Expression expr1, Expression expr2)
    + boolean interpret(String context)
    }
}

class InterpreterPatternDemo {
   + {static} Expression getMaleExpression()
   + {static} Expression getMarriedWomanExpression()
   + {static} void main()
}

InterpreterPatternDemo ..> 解释器:依赖-使用 use a

@enduml

PlantUML version 1.2021.7(Sun May 23 20:40:07 CST 2021)
(GPL source distribution)
Java Runtime: OpenJDK Runtime Environment
JVM: OpenJDK 64-Bit Server VM
Default Encoding: UTF-8
Language: zh
Country: CN
--></g></svg>