<?xml version="1.0" encoding="UTF-8" standalone="no"?><svg xmlns="http://www.w3.org/2000/svg" xmlns:xlink="http://www.w3.org/1999/xlink" contentScriptType="application/ecmascript" contentStyleType="text/css" height="483px" preserveAspectRatio="none" style="width:597px;height:483px;background:#FFFFFF;" version="1.1" viewBox="0 0 597 483" width="597px" zoomAndPan="magnify"><defs><filter height="300%" id="folyiqpqdd27v" width="300%" x="-1" y="-1"><feGaussianBlur result="blurOut" stdDeviation="2.0"/><feColorMatrix in="blurOut" result="blurOut2" type="matrix" values="0 0 0 0 0 0 0 0 0 0 0 0 0 0 0 0 0 0 .4 0"/><feOffset dx="4.0" dy="4.0" in="blurOut2" result="blurOut3"/><feBlend in="SourceGraphic" in2="blurOut3" mode="normal"/></filter></defs><g><text fill="#000000" font-family="sans-serif" font-size="18" lengthAdjust="spacing" textLength="172" x="206" y="17.4023">设计模式-责任链模式</text><!--MD5=[f90c55708e9aa7c509c86672f010c895]
class AbstractLogger--><rect codeLine="3" fill="#FEFECE" filter="url(#folyiqpqdd27v)" height="164.5957" id="AbstractLogger" style="stroke:#A80036;stroke-width:1.5;" width="288" x="152" y="153.1992"/><ellipse cx="248.25" cy="169.1992" fill="#A9DCDF" rx="11" ry="11" style="stroke:#A80036;stroke-width:1.0;"/><path d="M248.3633,164.7974 L247.2095,169.8691 L249.5254,169.8691 Z M246.8691,162.5562 L249.8657,162.5562 L253.2109,174.9492 L250.7622,174.9492 L249.9985,171.8862 L246.7197,171.8862 L245.9727,174.9492 L243.5239,174.9492 Z " fill="#000000"/><text fill="#000000" font-family="sans-serif" font-size="12" font-style="italic" lengthAdjust="spacing" textLength="87" x="268.75" y="173.7344">AbstractLogger</text><line style="stroke:#A80036;stroke-width:1.5;" x1="153" x2="439" y1="185.1992" y2="185.1992"/><ellipse cx="163" cy="196.1992" rx="3" ry="3" style="stroke:#038048;stroke-width:1.0;fill:none;"/><text fill="#000000" font-family="sans-serif" font-size="11" lengthAdjust="spacing" text-decoration="underline" textLength="68" x="172" y="199.834">int INFO = 1;</text><ellipse cx="163" cy="209.1543" rx="3" ry="3" style="stroke:#038048;stroke-width:1.0;fill:none;"/><text fill="#000000" font-family="sans-serif" font-size="11" lengthAdjust="spacing" text-decoration="underline" textLength="78" x="172" y="212.7891">int DEBUG = 2;</text><ellipse cx="163" cy="222.1094" rx="3" ry="3" style="stroke:#038048;stroke-width:1.0;fill:none;"/><text fill="#000000" font-family="sans-serif" font-size="11" lengthAdjust="spacing" text-decoration="underline" textLength="78" x="172" y="225.7441">int ERROR = 3;</text><polygon fill="none" points="163,230.0645,167,234.0645,163,238.0645,159,234.0645" style="stroke:#B38D22;stroke-width:1.0;"/><text fill="#000000" font-family="sans-serif" font-size="11" lengthAdjust="spacing" textLength="44" x="172" y="238.6992">int level;</text><text fill="#000000" font-family="sans-serif" font-size="11" lengthAdjust="spacing" textLength="122" x="172" y="251.6543">//责任链中的下一个元素</text><polygon fill="none" points="163,255.9746,167,259.9746,163,263.9746,159,259.9746" style="stroke:#B38D22;stroke-width:1.0;"/><text fill="#000000" font-family="sans-serif" font-size="11" lengthAdjust="spacing" textLength="152" x="172" y="264.6094">AbstractLogger nextLogger;</text><line style="stroke:#A80036;stroke-width:1.5;" x1="153" x2="439" y1="270.9297" y2="270.9297"/><ellipse cx="163" cy="281.9297" fill="#84BE84" rx="3" ry="3" style="stroke:#038048;stroke-width:1.0;"/><text fill="#000000" font-family="sans-serif" font-size="11" lengthAdjust="spacing" textLength="262" x="172" y="285.5645">void setNextLogger(AbstractLogger nextLogger)</text><ellipse cx="163" cy="294.8848" fill="#84BE84" rx="3" ry="3" style="stroke:#038048;stroke-width:1.0;"/><text fill="#000000" font-family="sans-serif" font-size="11" lengthAdjust="spacing" textLength="226" x="172" y="298.5195">void logMessage(int level, String message)</text><polygon fill="#FFFF44" points="163,302.8398,167,306.8398,163,310.8398,159,306.8398" style="stroke:#B38D22;stroke-width:1.0;"/><text fill="#000000" font-family="sans-serif" font-size="11" lengthAdjust="spacing" textLength="189" x="172" y="311.4746">abstract void write(String message)</text><!--MD5=[ef6e0fb57396685d3eab884a2ccd12ec]
class ConsoleLogger--><rect codeLine="15" fill="#FEFECE" filter="url(#folyiqpqdd27v)" height="73.9102" id="ConsoleLogger" style="stroke:#A80036;stroke-width:1.5;" width="168" x="9" y="395.1992"/><ellipse cx="47.4" cy="411.1992" fill="#ADD1B2" rx="11" ry="11" style="stroke:#A80036;stroke-width:1.0;"/><path d="M49.8731,417.3423 Q49.2921,417.6411 48.6529,417.7905 Q48.0138,417.9399 47.3082,417.9399 Q44.8014,417.9399 43.4815,416.2881 Q42.1617,414.6362 42.1617,411.5151 Q42.1617,408.3857 43.4815,406.7339 Q44.8014,405.082 47.3082,405.082 Q48.0138,405.082 48.6612,405.2314 Q49.3087,405.3809 49.8731,405.6797 L49.8731,408.4023 Q49.2423,407.8213 48.6488,407.5515 Q48.0553,407.2817 47.4244,407.2817 Q46.0797,407.2817 45.3949,408.3484 Q44.7101,409.415 44.7101,411.5151 Q44.7101,413.6069 45.3949,414.6736 Q46.0797,415.7402 47.4244,415.7402 Q48.0553,415.7402 48.6488,415.4705 Q49.2423,415.2007 49.8731,414.6196 Z " fill="#000000"/><text fill="#000000" font-family="sans-serif" font-size="12" lengthAdjust="spacing" textLength="84" x="66.6" y="415.7344">ConsoleLogger</text><line style="stroke:#A80036;stroke-width:1.5;" x1="10" x2="176" y1="427.1992" y2="427.1992"/><line style="stroke:#A80036;stroke-width:1.5;" x1="10" x2="176" y1="435.1992" y2="435.1992"/><ellipse cx="20" cy="446.1992" fill="#84BE84" rx="3" ry="3" style="stroke:#038048;stroke-width:1.0;"/><text fill="#000000" font-family="sans-serif" font-size="11" lengthAdjust="spacing" textLength="131" x="29" y="449.834">ConsoleLogger(int level)</text><polygon fill="#FFFF44" points="20,454.1543,24,458.1543,20,462.1543,16,458.1543" style="stroke:#B38D22;stroke-width:1.0;"/><text fill="#000000" font-family="sans-serif" font-size="11" lengthAdjust="spacing" textLength="142" x="29" y="462.7891">void write(String message)</text><!--MD5=[a25c365746e248f478f6f6992d6cd34f]
class ErrorLogger--><rect codeLine="20" fill="#FEFECE" filter="url(#folyiqpqdd27v)" height="73.9102" id="ErrorLogger" style="stroke:#A80036;stroke-width:1.5;" width="168" x="212" y="395.1992"/><ellipse cx="257.75" cy="411.1992" fill="#ADD1B2" rx="11" ry="11" style="stroke:#A80036;stroke-width:1.0;"/><path d="M260.2231,417.3423 Q259.6421,417.6411 259.0029,417.7905 Q258.3638,417.9399 257.6582,417.9399 Q255.1514,417.9399 253.8315,416.2881 Q252.5117,414.6362 252.5117,411.5151 Q252.5117,408.3857 253.8315,406.7339 Q255.1514,405.082 257.6582,405.082 Q258.3638,405.082 259.0112,405.2314 Q259.6587,405.3809 260.2231,405.6797 L260.2231,408.4023 Q259.5923,407.8213 258.9988,407.5515 Q258.4053,407.2817 257.7744,407.2817 Q256.4297,407.2817 255.7449,408.3484 Q255.0601,409.415 255.0601,411.5151 Q255.0601,413.6069 255.7449,414.6736 Q256.4297,415.7402 257.7744,415.7402 Q258.4053,415.7402 258.9988,415.4705 Q259.5923,415.2007 260.2231,414.6196 Z " fill="#000000"/><text fill="#000000" font-family="sans-serif" font-size="12" lengthAdjust="spacing" textLength="68" x="278.25" y="415.7344">ErrorLogger</text><line style="stroke:#A80036;stroke-width:1.5;" x1="213" x2="379" y1="427.1992" y2="427.1992"/><line style="stroke:#A80036;stroke-width:1.5;" x1="213" x2="379" y1="435.1992" y2="435.1992"/><ellipse cx="223" cy="446.1992" fill="#84BE84" rx="3" ry="3" style="stroke:#038048;stroke-width:1.0;"/><text fill="#000000" font-family="sans-serif" font-size="11" lengthAdjust="spacing" textLength="115" x="232" y="449.834">ErrorLogger(int level)</text><polygon fill="#FFFF44" points="223,454.1543,227,458.1543,223,462.1543,219,458.1543" style="stroke:#B38D22;stroke-width:1.0;"/><text fill="#000000" font-family="sans-serif" font-size="11" lengthAdjust="spacing" textLength="142" x="232" y="462.7891">void write(String message)</text><!--MD5=[27a2caf253a0da4852d53bf0c6340241]
class FileLogger--><rect codeLine="25" fill="#FEFECE" filter="url(#folyiqpqdd27v)" height="73.9102" id="FileLogger" style="stroke:#A80036;stroke-width:1.5;" width="168" x="415" y="395.1992"/><ellipse cx="465.75" cy="411.1992" fill="#ADD1B2" rx="11" ry="11" style="stroke:#A80036;stroke-width:1.0;"/><path d="M468.2231,417.3423 Q467.6421,417.6411 467.0029,417.7905 Q466.3638,417.9399 465.6582,417.9399 Q463.1514,417.9399 461.8315,416.2881 Q460.5117,414.6362 460.5117,411.5151 Q460.5117,408.3857 461.8315,406.7339 Q463.1514,405.082 465.6582,405.082 Q466.3638,405.082 467.0112,405.2314 Q467.6587,405.3809 468.2231,405.6797 L468.2231,408.4023 Q467.5923,407.8213 466.9988,407.5515 Q466.4053,407.2817 465.7744,407.2817 Q464.4297,407.2817 463.7449,408.3484 Q463.0601,409.415 463.0601,411.5151 Q463.0601,413.6069 463.7449,414.6736 Q464.4297,415.7402 465.7744,415.7402 Q466.4053,415.7402 466.9988,415.4705 Q467.5923,415.2007 468.2231,414.6196 Z " fill="#000000"/><text fill="#000000" font-family="sans-serif" font-size="12" lengthAdjust="spacing" textLength="58" x="486.25" y="415.7344">FileLogger</text><line style="stroke:#A80036;stroke-width:1.5;" x1="416" x2="582" y1="427.1992" y2="427.1992"/><line style="stroke:#A80036;stroke-width:1.5;" x1="416" x2="582" y1="435.1992" y2="435.1992"/><ellipse cx="426" cy="446.1992" fill="#84BE84" rx="3" ry="3" style="stroke:#038048;stroke-width:1.0;"/><text fill="#000000" font-family="sans-serif" font-size="11" lengthAdjust="spacing" textLength="105" x="435" y="449.834">FileLogger(int level)</text><polygon fill="#FFFF44" points="426,454.1543,430,458.1543,426,462.1543,422,458.1543" style="stroke:#B38D22;stroke-width:1.0;"/><text fill="#000000" font-family="sans-serif" font-size="11" lengthAdjust="spacing" textLength="142" x="435" y="462.7891">void write(String message)</text><!--MD5=[ece96dc3f660ef4197fc3f5872f73754]
class ChainPatternDemo--><rect fill="#FEFECE" filter="url(#folyiqpqdd27v)" height="48" id="ChainPatternDemo" style="stroke:#A80036;stroke-width:1.5;" width="139" x="226.5" y="28.1992"/><ellipse cx="241.5" cy="44.1992" fill="#ADD1B2" rx="11" ry="11" style="stroke:#A80036;stroke-width:1.0;"/><path d="M243.9731,50.3423 Q243.3921,50.6411 242.7529,50.7905 Q242.1138,50.9399 241.4082,50.9399 Q238.9014,50.9399 237.5815,49.2881 Q236.2617,47.6362 236.2617,44.5151 Q236.2617,41.3857 237.5815,39.7339 Q238.9014,38.082 241.4082,38.082 Q242.1138,38.082 242.7612,38.2314 Q243.4087,38.3809 243.9731,38.6797 L243.9731,41.4023 Q243.3423,40.8213 242.7488,40.5515 Q242.1553,40.2817 241.5244,40.2817 Q240.1797,40.2817 239.4949,41.3484 Q238.8101,42.415 238.8101,44.5151 Q238.8101,46.6069 239.4949,47.6736 Q240.1797,48.7402 241.5244,48.7402 Q242.1553,48.7402 242.7488,48.4705 Q243.3423,48.2007 243.9731,47.6196 Z " fill="#000000"/><text fill="#000000" font-family="sans-serif" font-size="12" lengthAdjust="spacing" textLength="107" x="255.5" y="48.7344">ChainPatternDemo</text><line style="stroke:#A80036;stroke-width:1.5;" x1="227.5" x2="364.5" y1="60.1992" y2="60.1992"/><line style="stroke:#A80036;stroke-width:1.5;" x1="227.5" x2="364.5" y1="68.1992" y2="68.1992"/><!--MD5=[4b1cffe20303232e6ac876fd9103fa86]
link AbstractLogger to AbstractLogger--><path codeLine="30" d="M440.32,215.4492 C461.06,218.6992 475,225.4492 475,235.6992 C475,245.0692 463.35,251.5192 445.51,255.0292 " fill="none" id="AbstractLogger-to-AbstractLogger" style="stroke:#A80036;stroke-width:1.0;stroke-dasharray:7.0,7.0;"/><polygon fill="#A80036" points="440.32,255.9492,449.8802,258.3164,445.2432,255.0762,448.4833,250.4392,440.32,255.9492" style="stroke:#A80036;stroke-width:1.0;"/><text fill="#000000" font-family="sans-serif" font-size="13" lengthAdjust="spacing" textLength="97" x="481" y="240.7676">依赖-使用 use a</text><!--MD5=[eb2c57aa174ff318d6ed0fed1de41bff]
reverse link AbstractLogger to ConsoleLogger--><path codeLine="31" d="M196.31,332.2192 C172.95,354.5992 149.46,377.0992 130.8,394.9792 " fill="none" id="AbstractLogger-backto-ConsoleLogger" style="stroke:#A80036;stroke-width:1.0;"/><polygon fill="none" points="191.51,327.1192,210.79,318.3392,201.19,337.2292,191.51,327.1192" style="stroke:#A80036;stroke-width:1.0;"/><text fill="#000000" font-family="sans-serif" font-size="13" lengthAdjust="spacing" textLength="55" x="178" y="361.7676">extentds</text><!--MD5=[d0459a887bc0391d69a04ce258e47b20]
reverse link AbstractLogger to ErrorLogger--><path codeLine="32" d="M296,338.5492 C296,358.7992 296,378.7892 296,394.9792 " fill="none" id="AbstractLogger-backto-ErrorLogger" style="stroke:#A80036;stroke-width:1.0;"/><polygon fill="none" points="289,338.3392,296,318.3392,303,338.3392,289,338.3392" style="stroke:#A80036;stroke-width:1.0;"/><text fill="#000000" font-family="sans-serif" font-size="13" lengthAdjust="spacing" textLength="55" x="297" y="361.7676">extentds</text><!--MD5=[1f7b9a76d53ccc3e034273b37927b738]
reverse link AbstractLogger to FileLogger--><path codeLine="33" d="M395.69,332.2192 C419.05,354.5992 442.54,377.0992 461.2,394.9792 " fill="none" id="AbstractLogger-backto-FileLogger" style="stroke:#A80036;stroke-width:1.0;"/><polygon fill="none" points="390.81,337.2292,381.21,318.3392,400.49,327.1192,390.81,337.2292" style="stroke:#A80036;stroke-width:1.0;"/><text fill="#000000" font-family="sans-serif" font-size="13" lengthAdjust="spacing" textLength="55" x="428" y="361.7676">extentds</text><!--MD5=[a054b21a89714524cbd5450ed8967237]
link ChainPatternDemo to AbstractLogger--><path codeLine="35" d="M296,76.5592 C296,94.8692 296,121.5592 296,147.8292 " fill="none" id="ChainPatternDemo-to-AbstractLogger" style="stroke:#A80036;stroke-width:1.0;stroke-dasharray:7.0,7.0;"/><polygon fill="#A80036" points="296,153.0692,300,144.0692,296,148.0692,292,144.0692,296,153.0692" style="stroke:#A80036;stroke-width:1.0;"/><text fill="#000000" font-family="sans-serif" font-size="13" lengthAdjust="spacing" textLength="97" x="297" y="119.7676">依赖-使用 use a</text><!--MD5=[51b33fdd6aa6aa9361edbc46b86673ae]
@startuml
Title 设计模式-责任链模式

abstract class AbstractLogger {
   + {static} int INFO = 1;
   + {static} int DEBUG = 2;
   + {static} int ERROR = 3;
   # int level;
   //责任链中的下一个元素
   # AbstractLogger nextLogger;
   + void setNextLogger(AbstractLogger nextLogger)
   + void logMessage(int level, String message)
   # abstract void write(String message)
}

class ConsoleLogger {
   + ConsoleLogger(int level)
   # void write(String message)
}

class ErrorLogger {
   + ErrorLogger(int level)
   # void write(String message)
}

class FileLogger {
   + FileLogger(int level)
   # void write(String message) 
}

AbstractLogger ..> AbstractLogger:依赖-使用 use a
AbstractLogger <|- - ConsoleLogger:extentds
AbstractLogger <|- - ErrorLogger:extentds
AbstractLogger <|- - FileLogger:extentds

ChainPatternDemo ..> AbstractLogger:依赖-使用 use a

@enduml

PlantUML version 1.2021.7(Sun May 23 20:40:07 CST 2021)
(GPL source distribution)
Java Runtime: OpenJDK Runtime Environment
JVM: OpenJDK 64-Bit Server VM
Default Encoding: UTF-8
Language: zh
Country: CN
--></g></svg>