<?xml version="1.0" encoding="UTF-8" standalone="no"?><svg xmlns="http://www.w3.org/2000/svg" xmlns:xlink="http://www.w3.org/1999/xlink" contentScriptType="application/ecmascript" contentStyleType="text/css" height="608px" preserveAspectRatio="none" style="width:414px;height:608px;background:#FFFFFF;" version="1.1" viewBox="0 0 414 608" width="414px" zoomAndPan="magnify"><defs><filter height="300%" id="f1sxeb0han2yzu" width="300%" x="-1" y="-1"><feGaussianBlur result="blurOut" stdDeviation="2.0"/><feColorMatrix in="blurOut" result="blurOut2" type="matrix" values="0 0 0 0 0 0 0 0 0 0 0 0 0 0 0 0 0 0 .4 0"/><feOffset dx="4.0" dy="4.0" in="blurOut2" result="blurOut3"/><feBlend in="SourceGraphic" in2="blurOut3" mode="normal"/></filter></defs><g><text fill="#000000" font-family="sans-serif" font-size="18" lengthAdjust="spacing" textLength="208" x="96.585" y="17.4023">设计模式-前端控制器模式</text><!--MD5=[c045e12321b83266d36d22b9096c24ea]
class View--><rect codeLine="3" fill="#FEFECE" filter="url(#f1sxeb0han2yzu)" height="60.9551" id="View" style="stroke:#A80036;stroke-width:1.5;" width="88" x="42.67" y="375.6992"/><ellipse cx="70.72" cy="391.6992" fill="#B4A7E5" rx="11" ry="11" style="stroke:#A80036;stroke-width:1.0;"/><path d="M67.1477,387.9644 L67.1477,385.8062 L74.5271,385.8062 L74.5271,387.9644 L72.0618,387.9644 L72.0618,396.041 L74.5271,396.041 L74.5271,398.1992 L67.1477,398.1992 L67.1477,396.041 L69.6131,396.041 L69.6131,387.9644 Z " fill="#000000"/><text fill="#000000" font-family="sans-serif" font-size="12" font-style="italic" lengthAdjust="spacing" textLength="27" x="87.62" y="396.2344">View</text><line style="stroke:#A80036;stroke-width:1.5;" x1="43.67" x2="129.67" y1="407.6992" y2="407.6992"/><line style="stroke:#A80036;stroke-width:1.5;" x1="43.67" x2="129.67" y1="415.6992" y2="415.6992"/><ellipse cx="53.67" cy="426.6992" fill="#84BE84" rx="3" ry="3" style="stroke:#038048;stroke-width:1.0;"/><text fill="#000000" font-family="sans-serif" font-size="11" lengthAdjust="spacing" textLength="62" x="62.67" y="430.334">void show()</text><!--MD5=[638d2833c1deeea8266eb58e4e049321]
class HomeView--><rect codeLine="7" fill="#FEFECE" filter="url(#f1sxeb0han2yzu)" height="60.9551" id="HomeView" style="stroke:#A80036;stroke-width:1.5;" width="93" x="59.17" y="533.1992"/><ellipse cx="74.17" cy="549.1992" fill="#ADD1B2" rx="11" ry="11" style="stroke:#A80036;stroke-width:1.0;"/><path d="M76.6431,555.3423 Q76.0621,555.6411 75.4229,555.7905 Q74.7838,555.9399 74.0782,555.9399 Q71.5714,555.9399 70.2515,554.2881 Q68.9317,552.6362 68.9317,549.5151 Q68.9317,546.3857 70.2515,544.7339 Q71.5714,543.082 74.0782,543.082 Q74.7838,543.082 75.4312,543.2314 Q76.0787,543.3809 76.6431,543.6797 L76.6431,546.4023 Q76.0123,545.8213 75.4188,545.5515 Q74.8253,545.2817 74.1944,545.2817 Q72.8497,545.2817 72.1649,546.3484 Q71.4801,547.415 71.4801,549.5151 Q71.4801,551.6069 72.1649,552.6736 Q72.8497,553.7402 74.1944,553.7402 Q74.8253,553.7402 75.4188,553.4705 Q76.0123,553.2007 76.6431,552.6196 Z " fill="#000000"/><text fill="#000000" font-family="sans-serif" font-size="12" lengthAdjust="spacing" textLength="61" x="88.17" y="553.7344">HomeView</text><line style="stroke:#A80036;stroke-width:1.5;" x1="60.17" x2="151.17" y1="565.1992" y2="565.1992"/><line style="stroke:#A80036;stroke-width:1.5;" x1="60.17" x2="151.17" y1="573.1992" y2="573.1992"/><ellipse cx="70.17" cy="584.1992" fill="#84BE84" rx="3" ry="3" style="stroke:#038048;stroke-width:1.0;"/><text fill="#000000" font-family="sans-serif" font-size="11" lengthAdjust="spacing" textLength="62" x="79.17" y="587.834">void show()</text><!--MD5=[7a3e8aee19273ec94808eb5ba74063d2]
class StudentView--><rect codeLine="11" fill="#FEFECE" filter="url(#f1sxeb0han2yzu)" height="60.9551" id="StudentView" style="stroke:#A80036;stroke-width:1.5;" width="102" x="230.67" y="533.1992"/><ellipse cx="245.67" cy="549.1992" fill="#ADD1B2" rx="11" ry="11" style="stroke:#A80036;stroke-width:1.0;"/><path d="M248.1431,555.3423 Q247.5621,555.6411 246.9229,555.7905 Q246.2838,555.9399 245.5782,555.9399 Q243.0714,555.9399 241.7515,554.2881 Q240.4317,552.6362 240.4317,549.5151 Q240.4317,546.3857 241.7515,544.7339 Q243.0714,543.082 245.5782,543.082 Q246.2838,543.082 246.9312,543.2314 Q247.5787,543.3809 248.1431,543.6797 L248.1431,546.4023 Q247.5123,545.8213 246.9188,545.5515 Q246.3253,545.2817 245.6944,545.2817 Q244.3497,545.2817 243.6649,546.3484 Q242.9801,547.415 242.9801,549.5151 Q242.9801,551.6069 243.6649,552.6736 Q244.3497,553.7402 245.6944,553.7402 Q246.3253,553.7402 246.9188,553.4705 Q247.5123,553.2007 248.1431,552.6196 Z " fill="#000000"/><text fill="#000000" font-family="sans-serif" font-size="12" lengthAdjust="spacing" textLength="70" x="259.67" y="553.7344">StudentView</text><line style="stroke:#A80036;stroke-width:1.5;" x1="231.67" x2="331.67" y1="565.1992" y2="565.1992"/><line style="stroke:#A80036;stroke-width:1.5;" x1="231.67" x2="331.67" y1="573.1992" y2="573.1992"/><ellipse cx="241.67" cy="584.1992" fill="#84BE84" rx="3" ry="3" style="stroke:#038048;stroke-width:1.0;"/><text fill="#000000" font-family="sans-serif" font-size="11" lengthAdjust="spacing" textLength="62" x="250.67" y="587.834">void show()</text><!--MD5=[0c7624888451d2039aaef18036130ed9]
class Dispatcher--><rect codeLine="19" fill="#FEFECE" filter="url(#f1sxeb0han2yzu)" height="99.8203" id="Dispatcher" style="stroke:#A80036;stroke-width:1.5;" width="182" x="196.67" y="356.1992"/><ellipse cx="252.42" cy="372.1992" fill="#ADD1B2" rx="11" ry="11" style="stroke:#A80036;stroke-width:1.0;"/><path d="M254.8931,378.3423 Q254.3121,378.6411 253.6729,378.7905 Q253.0338,378.9399 252.3282,378.9399 Q249.8214,378.9399 248.5015,377.2881 Q247.1817,375.6362 247.1817,372.5151 Q247.1817,369.3857 248.5015,367.7339 Q249.8214,366.082 252.3282,366.082 Q253.0338,366.082 253.6812,366.2314 Q254.3287,366.3809 254.8931,366.6797 L254.8931,369.4023 Q254.2623,368.8213 253.6688,368.5515 Q253.0753,368.2817 252.4444,368.2817 Q251.0997,368.2817 250.4149,369.3484 Q249.7301,370.415 249.7301,372.5151 Q249.7301,374.6069 250.4149,375.6736 Q251.0997,376.7402 252.4444,376.7402 Q253.0753,376.7402 253.6688,376.4705 Q254.2623,376.2007 254.8931,375.6196 Z " fill="#000000"/><text fill="#000000" font-family="sans-serif" font-size="12" lengthAdjust="spacing" textLength="62" x="272.92" y="376.7344">Dispatcher</text><line style="stroke:#A80036;stroke-width:1.5;" x1="197.67" x2="377.67" y1="388.1992" y2="388.1992"/><rect fill="none" height="6" style="stroke:#C82930;stroke-width:1.0;" width="6" x="204.67" y="396.1992"/><text fill="#000000" font-family="sans-serif" font-size="11" lengthAdjust="spacing" textLength="133" x="216.67" y="402.834">StudentView studentView</text><rect fill="none" height="6" style="stroke:#C82930;stroke-width:1.0;" width="6" x="204.67" y="409.1543"/><text fill="#000000" font-family="sans-serif" font-size="11" lengthAdjust="spacing" textLength="112" x="216.67" y="415.7891">HomeView homeView</text><line style="stroke:#A80036;stroke-width:1.5;" x1="197.67" x2="377.67" y1="422.1094" y2="422.1094"/><ellipse cx="207.67" cy="433.1094" fill="#84BE84" rx="3" ry="3" style="stroke:#038048;stroke-width:1.0;"/><text fill="#000000" font-family="sans-serif" font-size="11" lengthAdjust="spacing" textLength="66" x="216.67" y="436.7441">Dispatcher()</text><ellipse cx="207.67" cy="446.0645" fill="#84BE84" rx="3" ry="3" style="stroke:#038048;stroke-width:1.0;"/><text fill="#000000" font-family="sans-serif" font-size="11" lengthAdjust="spacing" textLength="156" x="216.67" y="449.6992">void dispatch(String request)</text><!--MD5=[9a803660f6cd88ff2192982720b4f4d6]
class FrontController--><rect codeLine="26" fill="#FEFECE" filter="url(#f1sxeb0han2yzu)" height="112.7754" id="FrontController" style="stroke:#A80036;stroke-width:1.5;" width="225" x="175.17" y="166.1992"/><ellipse cx="240.92" cy="182.1992" fill="#ADD1B2" rx="11" ry="11" style="stroke:#A80036;stroke-width:1.0;"/><path d="M243.3931,188.3423 Q242.8121,188.6411 242.1729,188.7905 Q241.5338,188.9399 240.8282,188.9399 Q238.3214,188.9399 237.0015,187.2881 Q235.6817,185.6362 235.6817,182.5151 Q235.6817,179.3857 237.0015,177.7339 Q238.3214,176.082 240.8282,176.082 Q241.5338,176.082 242.1812,176.2314 Q242.8287,176.3809 243.3931,176.6797 L243.3931,179.4023 Q242.7623,178.8213 242.1688,178.5515 Q241.5753,178.2817 240.9444,178.2817 Q239.5997,178.2817 238.9149,179.3484 Q238.2301,180.415 238.2301,182.5151 Q238.2301,184.6069 238.9149,185.6736 Q239.5997,186.7402 240.9444,186.7402 Q241.5753,186.7402 242.1688,186.4705 Q242.7623,186.2007 243.3931,185.6196 Z " fill="#000000"/><text fill="#000000" font-family="sans-serif" font-size="12" lengthAdjust="spacing" textLength="85" x="261.42" y="186.7344">FrontController</text><line style="stroke:#A80036;stroke-width:1.5;" x1="176.17" x2="399.17" y1="198.1992" y2="198.1992"/><rect fill="none" height="6" style="stroke:#C82930;stroke-width:1.0;" width="6" x="183.17" y="206.1992"/><text fill="#000000" font-family="sans-serif" font-size="11" lengthAdjust="spacing" textLength="118" x="195.17" y="212.834">Dispatcher dispatcher</text><line style="stroke:#A80036;stroke-width:1.5;" x1="176.17" x2="399.17" y1="219.1543" y2="219.1543"/><ellipse cx="186.17" cy="230.1543" fill="#84BE84" rx="3" ry="3" style="stroke:#038048;stroke-width:1.0;"/><text fill="#000000" font-family="sans-serif" font-size="11" lengthAdjust="spacing" textLength="92" x="195.17" y="233.7891">FrontController()</text><rect fill="#F24D5C" height="6" style="stroke:#C82930;stroke-width:1.0;" width="6" x="183.17" y="240.1094"/><text fill="#000000" font-family="sans-serif" font-size="11" lengthAdjust="spacing" textLength="140" x="195.17" y="246.7441">boolean isAuthenticUser()</text><rect fill="#F24D5C" height="6" style="stroke:#C82930;stroke-width:1.0;" width="6" x="183.17" y="253.0645"/><text fill="#000000" font-family="sans-serif" font-size="11" lengthAdjust="spacing" textLength="180" x="195.17" y="259.6992">void trackRequest(String request)</text><ellipse cx="186.17" cy="269.0195" fill="#84BE84" rx="3" ry="3" style="stroke:#038048;stroke-width:1.0;"/><text fill="#000000" font-family="sans-serif" font-size="11" lengthAdjust="spacing" textLength="199" x="195.17" y="272.6543">void dispatchRequest(String request)</text><!--MD5=[4e825879adcf2e459938afcc564c8c4f]
class FrontControllerPatternDemo--><rect codeLine="34" fill="#FEFECE" filter="url(#f1sxeb0han2yzu)" height="60.9551" id="FrontControllerPatternDemo" style="stroke:#A80036;stroke-width:1.5;" width="192" x="191.67" y="28.1992"/><ellipse cx="206.67" cy="44.1992" fill="#ADD1B2" rx="11" ry="11" style="stroke:#A80036;stroke-width:1.0;"/><path d="M209.1431,50.3423 Q208.5621,50.6411 207.9229,50.7905 Q207.2838,50.9399 206.5782,50.9399 Q204.0714,50.9399 202.7515,49.2881 Q201.4317,47.6362 201.4317,44.5151 Q201.4317,41.3857 202.7515,39.7339 Q204.0714,38.082 206.5782,38.082 Q207.2838,38.082 207.9312,38.2314 Q208.5787,38.3809 209.1431,38.6797 L209.1431,41.4023 Q208.5123,40.8213 207.9188,40.5515 Q207.3253,40.2817 206.6944,40.2817 Q205.3497,40.2817 204.6649,41.3484 Q203.9801,42.415 203.9801,44.5151 Q203.9801,46.6069 204.6649,47.6736 Q205.3497,48.7402 206.6944,48.7402 Q207.3253,48.7402 207.9188,48.4705 Q208.5123,48.2007 209.1431,47.6196 Z " fill="#000000"/><text fill="#000000" font-family="sans-serif" font-size="12" lengthAdjust="spacing" textLength="160" x="220.67" y="48.7344">FrontControllerPatternDemo</text><line style="stroke:#A80036;stroke-width:1.5;" x1="192.67" x2="382.67" y1="60.1992" y2="60.1992"/><line style="stroke:#A80036;stroke-width:1.5;" x1="192.67" x2="382.67" y1="68.1992" y2="68.1992"/><ellipse cx="202.67" cy="79.1992" fill="#84BE84" rx="3" ry="3" style="stroke:#038048;stroke-width:1.0;"/><text fill="#000000" font-family="sans-serif" font-size="11" lengthAdjust="spacing" text-decoration="underline" textLength="127" x="211.67" y="82.834">void main(String[] args)</text><!--MD5=[fd9e3077a214aafb6f57138bd71f9b2c]
reverse link View to HomeView--><path codeLine="15" d="M28.14,451.0692 C14.28,466.8492 6,485.2092 15.67,503.1992 C25.07,520.6892 42.11,533.8892 58.86,543.3692 " fill="none" id="View-backto-HomeView" style="stroke:#A80036;stroke-width:1.0;stroke-dasharray:7.0,7.0;"/><polygon fill="none" points="23.52,445.7892,42.72,436.8292,33.31,455.8092,23.52,445.7892" style="stroke:#A80036;stroke-width:1.0;"/><text fill="#000000" font-family="sans-serif" font-size="13" lengthAdjust="spacing" textLength="74" x="16.67" y="499.7676">implements</text><!--MD5=[b4e58b3f57c652cab52502add6fe5d0c]
reverse link View to StudentView--><path codeLine="16" d="M98.98,455.9292 C105.25,472.6792 114.43,490.4192 127.67,503.1992 C155.71,530.2792 197.42,545.3792 230.36,553.5792 " fill="none" id="View-backto-StudentView" style="stroke:#A80036;stroke-width:1.0;stroke-dasharray:7.0,7.0;"/><polygon fill="none" points="92.26,457.8992,92.8,436.7192,105.59,453.6192,92.26,457.8992" style="stroke:#A80036;stroke-width:1.0;"/><text fill="#000000" font-family="sans-serif" font-size="13" lengthAdjust="spacing" textLength="74" x="128.67" y="499.7676">implements</text><!--MD5=[1a4a649d71e9c5a7e7a890e900a7c6fb]
link Dispatcher to StudentView--><path codeLine="38" d="M287.6918,468.5482 C287.6918,468.5482 287.17,492.4292 286.67,503.1992 C286.41,508.6792 286.04,514.4292 285.63,520.1092 " fill="none" id="Dispatcher-StudentView" style="stroke:#A80036;stroke-width:1.0;"/><polygon fill="#A80036" points="284.59,533.0692,289.2897,524.414,284.9857,528.0849,281.3147,523.7809,284.59,533.0692" style="stroke:#A80036;stroke-width:1.0;"/><line style="stroke:#A80036;stroke-width:1.0;" x1="284.9857" x2="285.625" y1="528.0849" y2="520.1092"/><polygon fill="#FFFFFF" points="287.85,456.5492,283.7712,462.496,287.6918,468.5482,291.7705,462.6014,287.85,456.5492" style="stroke:#A80036;stroke-width:1.0;"/><text fill="#000000" font-family="sans-serif" font-size="13" lengthAdjust="spacing" textLength="33" x="287.67" y="499.7676">has a</text><!--MD5=[247861cb332148e7449a7a9bbbbc7fda]
link Dispatcher to HomeView--><path codeLine="39" d="M247.2362,465.7373 C247.2362,465.7373 224.17,492.5292 211.67,503.1992 C197.39,515.3792 180.24,526.2792 163.94,535.3092 " fill="none" id="Dispatcher-HomeView" style="stroke:#A80036;stroke-width:1.0;"/><polygon fill="#A80036" points="152.28,541.5492,162.1027,540.8313,156.6889,539.1909,158.3293,533.7771,152.28,541.5492" style="stroke:#A80036;stroke-width:1.0;"/><line style="stroke:#A80036;stroke-width:1.0;" x1="156.6889" x2="163.735" y1="539.1909" y2="535.4192"/><polygon fill="#FFFFFF" points="254.66,456.3092,247.8054,458.5487,247.2362,465.7373,254.0908,463.4978,254.66,456.3092" style="stroke:#A80036;stroke-width:1.0;"/><text fill="#000000" font-family="sans-serif" font-size="13" lengthAdjust="spacing" textLength="33" x="229.67" y="499.7676">has a</text><!--MD5=[a7071976591c2b702dfb55cdc7f6f2cc]
link FrontController to Dispatcher--><path codeLine="40" d="M287.67,291.6392 C287.67,291.6392 287.67,326.6392 287.67,342.7392 " fill="none" id="FrontController-Dispatcher" style="stroke:#A80036;stroke-width:1.0;"/><polygon fill="#A80036" points="287.67,355.8992,291.67,346.8992,287.67,350.8992,283.67,346.8992,287.67,355.8992" style="stroke:#A80036;stroke-width:1.0;"/><line style="stroke:#A80036;stroke-width:1.0;" x1="287.67" x2="287.67" y1="350.8992" y2="342.8992"/><polygon fill="#FFFFFF" points="287.67,279.6392,283.67,285.6392,287.67,291.6392,291.67,285.6392,287.67,279.6392" style="stroke:#A80036;stroke-width:1.0;"/><text fill="#000000" font-family="sans-serif" font-size="13" lengthAdjust="spacing" textLength="33" x="288.67" y="322.7676">has a</text><!--MD5=[6344330a193e0c7dee104af1931006d8]
link FrontControllerPatternDemo to FrontController--><path codeLine="41" d="M287.67,89.4092 C287.67,109.3692 287.67,136.3792 287.67,160.7892 " fill="none" id="FrontControllerPatternDemo-to-FrontController" style="stroke:#A80036;stroke-width:1.0;stroke-dasharray:7.0,7.0;"/><polygon fill="#A80036" points="287.67,165.9592,291.67,156.9592,287.67,160.9592,283.67,156.9592,287.67,165.9592" style="stroke:#A80036;stroke-width:1.0;"/><text fill="#000000" font-family="sans-serif" font-size="13" lengthAdjust="spacing" textLength="33" x="288.67" y="132.7676">use a</text><!--MD5=[89218623b0c03ed88789011e75dfe955]
@startuml
Title 设计模式-前端控制器模式

interface View{
    + void show()
}

class HomeView {
   + void show()
}

class StudentView {
   + void show()
}

View <|.. HomeView:implements
View <|.. StudentView:implements


class Dispatcher {
   - StudentView studentView
   - HomeView homeView
   + Dispatcher()
   + void dispatch(String request)
}

class FrontController {
   - Dispatcher dispatcher
   + FrontController()
   - boolean isAuthenticUser()
   - void trackRequest(String request)
   + void dispatchRequest(String request)
}

class FrontControllerPatternDemo {
   + {static} void main(String[] args)
}

Dispatcher o- -> StudentView:has a
Dispatcher o- -> HomeView:has a
FrontController o- -> Dispatcher:has a
FrontControllerPatternDemo ..> FrontController:use a

' StudentController ..> Student:依赖使用 use a
' StudentController ..> StudentView:依赖使用 use a
' StudentController <.. MVCPatternDemo:依赖使用 use a


@enduml

@startuml
Title 设计模式-前端控制器模式

interface View{
    + void show()
}

class HomeView {
   + void show()
}

class StudentView {
   + void show()
}

View <|.. HomeView:implements
View <|.. StudentView:implements


class Dispatcher {
   - StudentView studentView
   - HomeView homeView
   + Dispatcher()
   + void dispatch(String request)
}

class FrontController {
   - Dispatcher dispatcher
   + FrontController()
   - boolean isAuthenticUser()
   - void trackRequest(String request)
   + void dispatchRequest(String request)
}

class FrontControllerPatternDemo {
   + {static} void main(String[] args)
}

Dispatcher o- -> StudentView:has a
Dispatcher o- -> HomeView:has a
FrontController o- -> Dispatcher:has a
FrontControllerPatternDemo ..> FrontController:use a



@enduml

PlantUML version 1.2021.7(Sun May 23 20:40:07 CST 2021)
(GPL source distribution)
Java Runtime: OpenJDK Runtime Environment
JVM: OpenJDK 64-Bit Server VM
Default Encoding: UTF-8
Language: zh
Country: CN
--></g></svg>