<?xml version="1.0" encoding="UTF-8" standalone="no"?><svg xmlns="http://www.w3.org/2000/svg" xmlns:xlink="http://www.w3.org/1999/xlink" contentScriptType="application/ecmascript" contentStyleType="text/css" height="280px" preserveAspectRatio="none" style="width:187px;height:280px;background:#FFFFFF;" version="1.1" viewBox="0 0 187 280" width="187px" zoomAndPan="magnify"><defs><filter height="300%" id="foa36u1oynst1" width="300%" x="-1" y="-1"><feGaussianBlur result="blurOut" stdDeviation="2.0"/><feColorMatrix in="blurOut" result="blurOut2" type="matrix" values="0 0 0 0 0 0 0 0 0 0 0 0 0 0 0 0 0 0 .4 0"/><feOffset dx="4.0" dy="4.0" in="blurOut2" result="blurOut3"/><feBlend in="SourceGraphic" in2="blurOut3" mode="normal"/></filter></defs><g><text fill="#000000" font-family="sans-serif" font-size="18" lengthAdjust="spacing" textLength="154" x="10" y="17.4023">设计模式-单例模式</text><!--MD5=[ddce3bb7ef9254622e676c52a780f190]
class SingletonPatternDemo--><rect codeLine="3" fill="#FEFECE" filter="url(#foa36u1oynst1)" height="60.9551" id="SingletonPatternDemo" style="stroke:#A80036;stroke-width:1.5;" width="158" x="11" y="28.1992"/><ellipse cx="26" cy="44.1992" fill="#ADD1B2" rx="11" ry="11" style="stroke:#A80036;stroke-width:1.0;"/><path d="M28.4731,50.3423 Q27.8921,50.6411 27.2529,50.7905 Q26.6138,50.9399 25.9082,50.9399 Q23.4014,50.9399 22.0815,49.2881 Q20.7617,47.6362 20.7617,44.5151 Q20.7617,41.3857 22.0815,39.7339 Q23.4014,38.082 25.9082,38.082 Q26.6138,38.082 27.2612,38.2314 Q27.9087,38.3809 28.4731,38.6797 L28.4731,41.4023 Q27.8423,40.8213 27.2488,40.5515 Q26.6553,40.2817 26.0244,40.2817 Q24.6797,40.2817 23.9949,41.3484 Q23.3101,42.415 23.3101,44.5151 Q23.3101,46.6069 23.9949,47.6736 Q24.6797,48.7402 26.0244,48.7402 Q26.6553,48.7402 27.2488,48.4705 Q27.8423,48.2007 28.4731,47.6196 Z " fill="#000000"/><text fill="#000000" font-family="sans-serif" font-size="12" lengthAdjust="spacing" textLength="126" x="40" y="48.7344">SingletonPatternDemo</text><line style="stroke:#A80036;stroke-width:1.5;" x1="12" x2="168" y1="60.1992" y2="60.1992"/><line style="stroke:#A80036;stroke-width:1.5;" x1="12" x2="168" y1="68.1992" y2="68.1992"/><ellipse cx="22" cy="79.1992" fill="#84BE84" rx="3" ry="3" style="stroke:#038048;stroke-width:1.0;"/><text fill="#000000" font-family="sans-serif" font-size="11" lengthAdjust="spacing" textLength="60" x="31" y="82.834">void main()</text><!--MD5=[a70b73e8261079bcd3eb711bb17cb64e]
class SingleObject--><rect codeLine="10" fill="#FEFECE" filter="url(#foa36u1oynst1)" height="99.8203" id="SingleObject" style="stroke:#A80036;stroke-width:1.5;" width="166" x="7" y="166.1992"/><ellipse cx="50.35" cy="182.1992" fill="#ADD1B2" rx="11" ry="11" style="stroke:#A80036;stroke-width:1.0;"/><path d="M52.8231,188.3423 Q52.2421,188.6411 51.6029,188.7905 Q50.9638,188.9399 50.2582,188.9399 Q47.7514,188.9399 46.4315,187.2881 Q45.1117,185.6362 45.1117,182.5151 Q45.1117,179.3857 46.4315,177.7339 Q47.7514,176.082 50.2582,176.082 Q50.9638,176.082 51.6112,176.2314 Q52.2587,176.3809 52.8231,176.6797 L52.8231,179.4023 Q52.1923,178.8213 51.5988,178.5515 Q51.0053,178.2817 50.3744,178.2817 Q49.0297,178.2817 48.3449,179.3484 Q47.6601,180.415 47.6601,182.5151 Q47.6601,184.6069 48.3449,185.6736 Q49.0297,186.7402 50.3744,186.7402 Q51.0053,186.7402 51.5988,186.4705 Q52.1923,186.2007 52.8231,185.6196 Z " fill="#000000"/><text fill="#000000" font-family="sans-serif" font-size="12" lengthAdjust="spacing" textLength="71" x="70.65" y="186.7344">SingleObject</text><line style="stroke:#A80036;stroke-width:1.5;" x1="8" x2="172" y1="198.1992" y2="198.1992"/><rect fill="none" height="6" style="stroke:#C82930;stroke-width:1.0;" width="6" x="15" y="206.1992"/><text fill="#000000" font-family="sans-serif" font-size="11" lengthAdjust="spacing" textLength="115" x="27" y="212.834">SingleObject instance</text><line style="stroke:#A80036;stroke-width:1.5;" x1="8" x2="172" y1="219.1543" y2="219.1543"/><rect fill="#F24D5C" height="6" style="stroke:#C82930;stroke-width:1.0;" width="6" x="15" y="227.1543"/><text fill="#000000" font-family="sans-serif" font-size="11" lengthAdjust="spacing" textLength="75" x="27" y="233.7891">SingleObject()</text><ellipse cx="18" cy="243.1094" fill="#84BE84" rx="3" ry="3" style="stroke:#038048;stroke-width:1.0;"/><text fill="#000000" font-family="sans-serif" font-size="11" lengthAdjust="spacing" textLength="140" x="27" y="246.7441">SingleObject getInstance()</text><ellipse cx="18" cy="256.0645" fill="#84BE84" rx="3" ry="3" style="stroke:#038048;stroke-width:1.0;"/><text fill="#000000" font-family="sans-serif" font-size="11" lengthAdjust="spacing" textLength="108" x="27" y="259.6992">void showMessage()</text><!--MD5=[609b76d784f49d8bdee601adf6aa6b36]
link SingletonPatternDemo to SingleObject--><path codeLine="7" d="M45.02,89.2592 C31.12,102.3092 20.86,118.6592 27,136.1992 C30.08,144.9992 34.6,153.5492 39.82,161.5792 " fill="none" id="SingletonPatternDemo-to-SingleObject" style="stroke:#A80036;stroke-width:1.0;stroke-dasharray:7.0,7.0;"/><polygon fill="#A80036" points="42.79,165.9892,41.0644,156.2927,39.9902,161.8466,34.4363,160.7724,42.79,165.9892" style="stroke:#A80036;stroke-width:1.0;"/><text fill="#000000" font-family="sans-serif" font-size="13" lengthAdjust="spacing" textLength="78" x="28" y="132.7676">获取唯一对象</text><!--MD5=[9eba2046d690999600a0cb54672b7200]
link SingleObject to SingletonPatternDemo--><path codeLine="8" d="M108.19,166.0392 C111.73,151.0592 113.62,134.4992 111,119.1992 C109.59,110.9692 107.16,102.3692 104.44,94.3492 " fill="none" id="SingleObject-to-SingletonPatternDemo" style="stroke:#A80036;stroke-width:1.0;stroke-dasharray:7.0,7.0;"/><polygon fill="#A80036" points="102.72,89.4392,101.931,99.2564,104.3781,94.1563,109.4783,96.6034,102.72,89.4392" style="stroke:#A80036;stroke-width:1.0;"/><text fill="#000000" font-family="sans-serif" font-size="13" lengthAdjust="spacing" textLength="26" x="113" y="132.7676">返回</text><!--MD5=[aa40d700fa15e7567c4af5665da803d8]
@startuml
Title 设计模式-单例模式

class SingletonPatternDemo{
    + void main()
}

SingletonPatternDemo ..> SingleObject:获取唯一对象
SingleObject..>SingletonPatternDemo:返回

class SingleObject{
   - SingleObject instance
   - SingleObject()
   + SingleObject getInstance()
   + void showMessage()
}
@enduml

PlantUML version 1.2021.7(Sun May 23 20:40:07 CST 2021)
(GPL source distribution)
Java Runtime: OpenJDK Runtime Environment
JVM: OpenJDK 64-Bit Server VM
Default Encoding: UTF-8
Language: zh
Country: CN
--></g></svg>