<?xml version="1.0" encoding="UTF-8" standalone="no"?><svg xmlns="http://www.w3.org/2000/svg" xmlns:xlink="http://www.w3.org/1999/xlink" contentScriptType="application/ecmascript" contentStyleType="text/css" height="543px" preserveAspectRatio="none" style="width:754px;height:543px;background:#FFFFFF;" version="1.1" viewBox="0 0 754 543" width="754px" zoomAndPan="magnify"><defs><filter height="300%" id="ft1pey6pqegr0" width="300%" x="-1" y="-1"><feGaussianBlur result="blurOut" stdDeviation="2.0"/><feColorMatrix in="blurOut" result="blurOut2" type="matrix" values="0 0 0 0 0 0 0 0 0 0 0 0 0 0 0 0 0 0 .4 0"/><feOffset dx="4.0" dy="4.0" in="blurOut2" result="blurOut3"/><feBlend in="SourceGraphic" in2="blurOut3" mode="normal"/></filter></defs><g><text fill="#000000" font-family="sans-serif" font-size="18" lengthAdjust="spacing" textLength="154" x="293.5" y="17.4023">设计模式-策略模式</text><!--MD5=[377953f0e8c8c0131a700fca43c84158]
class Strategy--><rect codeLine="3" fill="#FEFECE" filter="url(#ft1pey6pqegr0)" height="60.9551" id="Strategy" style="stroke:#A80036;stroke-width:1.5;" width="221" x="263" y="330.1992"/><ellipse cx="346.25" cy="346.1992" fill="#B4A7E5" rx="11" ry="11" style="stroke:#A80036;stroke-width:1.0;"/><path d="M342.6777,342.4644 L342.6777,340.3062 L350.0571,340.3062 L350.0571,342.4644 L347.5918,342.4644 L347.5918,350.541 L350.0571,350.541 L350.0571,352.6992 L342.6777,352.6992 L342.6777,350.541 L345.1431,350.541 L345.1431,342.4644 Z " fill="#000000"/><text fill="#000000" font-family="sans-serif" font-size="12" font-style="italic" lengthAdjust="spacing" textLength="46" x="366.75" y="350.7344">Strategy</text><line style="stroke:#A80036;stroke-width:1.5;" x1="264" x2="483" y1="362.1992" y2="362.1992"/><line style="stroke:#A80036;stroke-width:1.5;" x1="264" x2="483" y1="370.1992" y2="370.1992"/><ellipse cx="274" cy="381.1992" fill="#84BE84" rx="3" ry="3" style="stroke:#038048;stroke-width:1.0;"/><text fill="#000000" font-family="sans-serif" font-size="11" lengthAdjust="spacing" textLength="195" x="283" y="384.834">int doOperation(int num1, int num2)</text><!--MD5=[d06a1b9870429d125d3a6869605c51ed]
class OperationAdd--><rect codeLine="7" fill="#FEFECE" filter="url(#ft1pey6pqegr0)" height="60.9551" id="OperationAdd" style="stroke:#A80036;stroke-width:1.5;" width="221" x="7" y="468.1992"/><ellipse cx="72.75" cy="484.1992" fill="#ADD1B2" rx="11" ry="11" style="stroke:#A80036;stroke-width:1.0;"/><path d="M75.2231,490.3423 Q74.6421,490.6411 74.0029,490.7905 Q73.3638,490.9399 72.6582,490.9399 Q70.1514,490.9399 68.8315,489.2881 Q67.5117,487.6362 67.5117,484.5151 Q67.5117,481.3857 68.8315,479.7339 Q70.1514,478.082 72.6582,478.082 Q73.3638,478.082 74.0112,478.2314 Q74.6587,478.3809 75.2231,478.6797 L75.2231,481.4023 Q74.5923,480.8213 73.9988,480.5515 Q73.4053,480.2817 72.7744,480.2817 Q71.4297,480.2817 70.7449,481.3484 Q70.0601,482.415 70.0601,484.5151 Q70.0601,486.6069 70.7449,487.6736 Q71.4297,488.7402 72.7744,488.7402 Q73.4053,488.7402 73.9988,488.4705 Q74.5923,488.2007 75.2231,487.6196 Z " fill="#000000"/><text fill="#000000" font-family="sans-serif" font-size="12" lengthAdjust="spacing" textLength="81" x="93.25" y="488.7344">OperationAdd</text><line style="stroke:#A80036;stroke-width:1.5;" x1="8" x2="227" y1="500.1992" y2="500.1992"/><line style="stroke:#A80036;stroke-width:1.5;" x1="8" x2="227" y1="508.1992" y2="508.1992"/><ellipse cx="18" cy="519.1992" fill="#84BE84" rx="3" ry="3" style="stroke:#038048;stroke-width:1.0;"/><text fill="#000000" font-family="sans-serif" font-size="11" lengthAdjust="spacing" textLength="195" x="27" y="522.834">int doOperation(int num1, int num2)</text><!--MD5=[94b290ad1d7de2e16f7afd7ab358a933]
class OperationSubtract--><rect codeLine="10" fill="#FEFECE" filter="url(#ft1pey6pqegr0)" height="60.9551" id="OperationSubtract" style="stroke:#A80036;stroke-width:1.5;" width="221" x="263" y="468.1992"/><ellipse cx="317.25" cy="484.1992" fill="#ADD1B2" rx="11" ry="11" style="stroke:#A80036;stroke-width:1.0;"/><path d="M319.7231,490.3423 Q319.1421,490.6411 318.5029,490.7905 Q317.8638,490.9399 317.1582,490.9399 Q314.6514,490.9399 313.3315,489.2881 Q312.0117,487.6362 312.0117,484.5151 Q312.0117,481.3857 313.3315,479.7339 Q314.6514,478.082 317.1582,478.082 Q317.8638,478.082 318.5112,478.2314 Q319.1587,478.3809 319.7231,478.6797 L319.7231,481.4023 Q319.0923,480.8213 318.4988,480.5515 Q317.9053,480.2817 317.2744,480.2817 Q315.9297,480.2817 315.2449,481.3484 Q314.5601,482.415 314.5601,484.5151 Q314.5601,486.6069 315.2449,487.6736 Q315.9297,488.7402 317.2744,488.7402 Q317.9053,488.7402 318.4988,488.4705 Q319.0923,488.2007 319.7231,487.6196 Z " fill="#000000"/><text fill="#000000" font-family="sans-serif" font-size="12" lengthAdjust="spacing" textLength="104" x="337.75" y="488.7344">OperationSubtract</text><line style="stroke:#A80036;stroke-width:1.5;" x1="264" x2="483" y1="500.1992" y2="500.1992"/><line style="stroke:#A80036;stroke-width:1.5;" x1="264" x2="483" y1="508.1992" y2="508.1992"/><ellipse cx="274" cy="519.1992" fill="#84BE84" rx="3" ry="3" style="stroke:#038048;stroke-width:1.0;"/><text fill="#000000" font-family="sans-serif" font-size="11" lengthAdjust="spacing" textLength="195" x="283" y="522.834">int doOperation(int num1, int num2)</text><!--MD5=[2a79c9449f218eb7f8f635a5a229a4d0]
class OperationMultiply--><rect codeLine="13" fill="#FEFECE" filter="url(#ft1pey6pqegr0)" height="60.9551" id="OperationMultiply" style="stroke:#A80036;stroke-width:1.5;" width="221" x="519" y="468.1992"/><ellipse cx="574.75" cy="484.1992" fill="#ADD1B2" rx="11" ry="11" style="stroke:#A80036;stroke-width:1.0;"/><path d="M577.2231,490.3423 Q576.6421,490.6411 576.0029,490.7905 Q575.3638,490.9399 574.6582,490.9399 Q572.1514,490.9399 570.8315,489.2881 Q569.5117,487.6362 569.5117,484.5151 Q569.5117,481.3857 570.8315,479.7339 Q572.1514,478.082 574.6582,478.082 Q575.3638,478.082 576.0112,478.2314 Q576.6587,478.3809 577.2231,478.6797 L577.2231,481.4023 Q576.5923,480.8213 575.9988,480.5515 Q575.4053,480.2817 574.7744,480.2817 Q573.4297,480.2817 572.7449,481.3484 Q572.0601,482.415 572.0601,484.5151 Q572.0601,486.6069 572.7449,487.6736 Q573.4297,488.7402 574.7744,488.7402 Q575.4053,488.7402 575.9988,488.4705 Q576.5923,488.2007 577.2231,487.6196 Z " fill="#000000"/><text fill="#000000" font-family="sans-serif" font-size="12" lengthAdjust="spacing" textLength="101" x="595.25" y="488.7344">OperationMultiply</text><line style="stroke:#A80036;stroke-width:1.5;" x1="520" x2="739" y1="500.1992" y2="500.1992"/><line style="stroke:#A80036;stroke-width:1.5;" x1="520" x2="739" y1="508.1992" y2="508.1992"/><ellipse cx="530" cy="519.1992" fill="#84BE84" rx="3" ry="3" style="stroke:#038048;stroke-width:1.0;"/><text fill="#000000" font-family="sans-serif" font-size="11" lengthAdjust="spacing" textLength="195" x="539" y="522.834">int doOperation(int num1, int num2)</text><!--MD5=[6754354365917abf8f1a56af1b7e344c]
class Context--><rect codeLine="21" fill="#FEFECE" filter="url(#ft1pey6pqegr0)" height="86.8652" id="Context" style="stroke:#A80036;stroke-width:1.5;" width="242" x="252.5" y="166.1992"/><ellipse cx="347.25" cy="182.1992" fill="#ADD1B2" rx="11" ry="11" style="stroke:#A80036;stroke-width:1.0;"/><path d="M349.7231,188.3423 Q349.1421,188.6411 348.5029,188.7905 Q347.8638,188.9399 347.1582,188.9399 Q344.6514,188.9399 343.3315,187.2881 Q342.0117,185.6362 342.0117,182.5151 Q342.0117,179.3857 343.3315,177.7339 Q344.6514,176.082 347.1582,176.082 Q347.8638,176.082 348.5112,176.2314 Q349.1587,176.3809 349.7231,176.6797 L349.7231,179.4023 Q349.0923,178.8213 348.4988,178.5515 Q347.9053,178.2817 347.2744,178.2817 Q345.9297,178.2817 345.2449,179.3484 Q344.5601,180.415 344.5601,182.5151 Q344.5601,184.6069 345.2449,185.6736 Q345.9297,186.7402 347.2744,186.7402 Q347.9053,186.7402 348.4988,186.4705 Q349.0923,186.2007 349.7231,185.6196 Z " fill="#000000"/><text fill="#000000" font-family="sans-serif" font-size="12" lengthAdjust="spacing" textLength="44" x="367.75" y="186.7344">Context</text><line style="stroke:#A80036;stroke-width:1.5;" x1="253.5" x2="493.5" y1="198.1992" y2="198.1992"/><rect fill="none" height="6" style="stroke:#C82930;stroke-width:1.0;" width="6" x="260.5" y="206.1992"/><text fill="#000000" font-family="sans-serif" font-size="11" lengthAdjust="spacing" textLength="91" x="272.5" y="212.834">Strategy strategy</text><line style="stroke:#A80036;stroke-width:1.5;" x1="253.5" x2="493.5" y1="219.1543" y2="219.1543"/><ellipse cx="263.5" cy="230.1543" fill="#84BE84" rx="3" ry="3" style="stroke:#038048;stroke-width:1.0;"/><text fill="#000000" font-family="sans-serif" font-size="11" lengthAdjust="spacing" textLength="142" x="272.5" y="233.7891">Context(Strategy strategy)</text><ellipse cx="263.5" cy="243.1094" fill="#84BE84" rx="3" ry="3" style="stroke:#038048;stroke-width:1.0;"/><text fill="#000000" font-family="sans-serif" font-size="11" lengthAdjust="spacing" textLength="216" x="272.5" y="246.7441">int executeStrategy(int num1, int num2);</text><!--MD5=[48811b063ec1953db78e2292eeed59e5]
class StrategyPatternDemo--><rect codeLine="29" fill="#FEFECE" filter="url(#ft1pey6pqegr0)" height="60.9551" id="StrategyPatternDemo" style="stroke:#A80036;stroke-width:1.5;" width="153" x="297" y="28.1992"/><ellipse cx="312" cy="44.1992" fill="#ADD1B2" rx="11" ry="11" style="stroke:#A80036;stroke-width:1.0;"/><path d="M314.4731,50.3423 Q313.8921,50.6411 313.2529,50.7905 Q312.6138,50.9399 311.9082,50.9399 Q309.4014,50.9399 308.0815,49.2881 Q306.7617,47.6362 306.7617,44.5151 Q306.7617,41.3857 308.0815,39.7339 Q309.4014,38.082 311.9082,38.082 Q312.6138,38.082 313.2612,38.2314 Q313.9087,38.3809 314.4731,38.6797 L314.4731,41.4023 Q313.8423,40.8213 313.2488,40.5515 Q312.6553,40.2817 312.0244,40.2817 Q310.6797,40.2817 309.9949,41.3484 Q309.3101,42.415 309.3101,44.5151 Q309.3101,46.6069 309.9949,47.6736 Q310.6797,48.7402 312.0244,48.7402 Q312.6553,48.7402 313.2488,48.4705 Q313.8423,48.2007 314.4731,47.6196 Z " fill="#000000"/><text fill="#000000" font-family="sans-serif" font-size="12" lengthAdjust="spacing" textLength="121" x="326" y="48.7344">StrategyPatternDemo</text><line style="stroke:#A80036;stroke-width:1.5;" x1="298" x2="449" y1="60.1992" y2="60.1992"/><line style="stroke:#A80036;stroke-width:1.5;" x1="298" x2="449" y1="68.1992" y2="68.1992"/><ellipse cx="308" cy="79.1992" fill="#84BE84" rx="3" ry="3" style="stroke:#038048;stroke-width:1.0;"/><text fill="#000000" font-family="sans-serif" font-size="11" lengthAdjust="spacing" text-decoration="underline" textLength="127" x="317" y="82.834">void main(String[] args)</text><!--MD5=[1f2265ec0302e1681e077f9d3bc811c6]
reverse link Strategy to OperationAdd--><path codeLine="17" d="M300.12,400.6792 C259.8,422.1092 210.56,448.2592 173.38,468.0092 " fill="none" id="Strategy-backto-OperationAdd" style="stroke:#A80036;stroke-width:1.0;stroke-dasharray:7.0,7.0;"/><polygon fill="none" points="297.01,394.4092,317.95,391.2092,303.57,406.7692,297.01,394.4092" style="stroke:#A80036;stroke-width:1.0;"/><text fill="#000000" font-family="sans-serif" font-size="13" lengthAdjust="spacing" textLength="74" x="262.5" y="434.7676">implements</text><!--MD5=[4f3dd896a72e678c87f0534dd85b580f]
reverse link Strategy to OperationSubtract--><path codeLine="18" d="M373.5,411.3592 C373.5,430.2792 373.5,451.2392 373.5,467.7792 " fill="none" id="Strategy-backto-OperationSubtract" style="stroke:#A80036;stroke-width:1.0;stroke-dasharray:7.0,7.0;"/><polygon fill="none" points="366.5,411.2092,373.5,391.2092,380.5,411.2092,366.5,411.2092" style="stroke:#A80036;stroke-width:1.0;"/><text fill="#000000" font-family="sans-serif" font-size="13" lengthAdjust="spacing" textLength="74" x="374.5" y="434.7676">implements</text><!--MD5=[802ba5be7ed58b6181064471c5922e3f]
reverse link Strategy to OperationMultiply--><path codeLine="19" d="M446.88,400.6792 C487.2,422.1092 536.44,448.2592 573.62,468.0092 " fill="none" id="Strategy-backto-OperationMultiply" style="stroke:#A80036;stroke-width:1.0;stroke-dasharray:7.0,7.0;"/><polygon fill="none" points="443.43,406.7692,429.05,391.2092,449.99,394.4092,443.43,406.7692" style="stroke:#A80036;stroke-width:1.0;"/><text fill="#000000" font-family="sans-serif" font-size="13" lengthAdjust="spacing" textLength="74" x="517.5" y="434.7676">implements</text><!--MD5=[0a7be358f08202a33cfcf8e27bbb9c25]
link Context to Strategy--><path codeLine="27" d="M373.5,265.3992 C373.5,265.3992 373.5,300.9892 373.5,316.6592 " fill="none" id="Context-Strategy" style="stroke:#A80036;stroke-width:1.0;"/><polygon fill="#A80036" points="373.5,329.7592,377.5,320.7592,373.5,324.7592,369.5,320.7592,373.5,329.7592" style="stroke:#A80036;stroke-width:1.0;"/><line style="stroke:#A80036;stroke-width:1.0;" x1="373.5" x2="373.5" y1="324.7592" y2="316.7592"/><polygon fill="#A80036" points="373.5,253.3992,369.5,259.3992,373.5,265.3992,377.5,259.3992,373.5,253.3992" style="stroke:#A80036;stroke-width:1.0;"/><text fill="#000000" font-family="sans-serif" font-size="13" lengthAdjust="spacing" textLength="33" x="374.5" y="296.7676">has a</text><!--MD5=[3ad7ec5e58cd2aa37b9d1715ab374298]
link StrategyPatternDemo to Context--><path codeLine="33" d="M373.5,89.4892 C373.5,109.8592 373.5,137.3092 373.5,160.7292 " fill="none" id="StrategyPatternDemo-to-Context" style="stroke:#A80036;stroke-width:1.0;stroke-dasharray:7.0,7.0;"/><polygon fill="#A80036" points="373.5,165.9692,377.5,156.9692,373.5,160.9692,369.5,156.9692,373.5,165.9692" style="stroke:#A80036;stroke-width:1.0;"/><text fill="#000000" font-family="sans-serif" font-size="13" lengthAdjust="spacing" textLength="97" x="374.5" y="132.7676">依赖-使用 use a</text><!--MD5=[fb6b05a84473d86e2cc3c521f9e356fa]
@startuml
Title 设计模式-策略模式

interface Strategy {
   + int doOperation(int num1, int num2)
}

class OperationAdd{
    + int doOperation(int num1, int num2)
}
class OperationSubtract{
    + int doOperation(int num1, int num2)
}
class OperationMultiply{
    + int doOperation(int num1, int num2)
}

Strategy <|.. OperationAdd:implements
Strategy <|.. OperationSubtract:implements
Strategy <|.. OperationMultiply:implements

class Context {
    - Strategy strategy
    + Context(Strategy strategy)
    + int executeStrategy(int num1, int num2);
}

Context *- -> Strategy:has a

class StrategyPatternDemo{
    + {static} void main(String[] args)
}

StrategyPatternDemo ..> Context:依赖-使用 use a

@enduml

PlantUML version 1.2021.7(Sun May 23 20:40:07 CST 2021)
(GPL source distribution)
Java Runtime: OpenJDK Runtime Environment
JVM: OpenJDK 64-Bit Server VM
Default Encoding: UTF-8
Language: zh
Country: CN
--></g></svg>