<?xml version="1.0" encoding="UTF-8" standalone="no"?><svg xmlns="http://www.w3.org/2000/svg" xmlns:xlink="http://www.w3.org/1999/xlink" contentScriptType="application/ecmascript" contentStyleType="text/css" height="576px" preserveAspectRatio="none" style="width:484px;height:576px;background:#FFFFFF;" version="1.1" viewBox="0 0 484 576" width="484px" zoomAndPan="magnify"><defs><filter height="300%" id="fdhtt15otjo1" width="300%" x="-1" y="-1"><feGaussianBlur result="blurOut" stdDeviation="2.0"/><feColorMatrix in="blurOut" result="blurOut2" type="matrix" values="0 0 0 0 0 0 0 0 0 0 0 0 0 0 0 0 0 0 .4 0"/><feOffset dx="4.0" dy="4.0" in="blurOut2" result="blurOut3"/><feBlend in="SourceGraphic" in2="blurOut3" mode="normal"/></filter></defs><g><text fill="#000000" font-family="sans-serif" font-size="18" lengthAdjust="spacing" textLength="154" x="158.5" y="17.4023">设计模式-工厂模式</text><!--MD5=[22238981d4678d24a4b690f00fa36180]
cluster factory--><rect fill="#FFFFFF" filter="url(#fdhtt15otjo1)" height="266" style="stroke:#000000;stroke-width:1.5;" width="399" x="73" y="298.1992"/><text fill="#000000" font-family="sans-serif" font-size="14" font-weight="bold" lengthAdjust="spacing" textLength="50" x="247.5" y="313.7344">factory</text><!--MD5=[426e75666daf533f17226ff4c87e20fd]
class Shape--><rect codeLine="14" fill="#FEFECE" filter="url(#fdhtt15otjo1)" height="60.9551" id="Shape" style="stroke:#A80036;stroke-width:1.5;" width="72" x="220" y="341.1992"/><ellipse cx="237.25" cy="357.1992" fill="#B4A7E5" rx="11" ry="11" style="stroke:#A80036;stroke-width:1.0;"/><path d="M233.6777,353.4644 L233.6777,351.3062 L241.0571,351.3062 L241.0571,353.4644 L238.5918,353.4644 L238.5918,361.541 L241.0571,361.541 L241.0571,363.6992 L233.6777,363.6992 L233.6777,361.541 L236.1431,361.541 L236.1431,353.4644 Z " fill="#000000"/><text fill="#000000" font-family="sans-serif" font-size="12" font-style="italic" lengthAdjust="spacing" textLength="35" x="251.75" y="361.7344">Shape</text><line style="stroke:#A80036;stroke-width:1.5;" x1="221" x2="291" y1="373.1992" y2="373.1992"/><line style="stroke:#A80036;stroke-width:1.5;" x1="221" x2="291" y1="381.1992" y2="381.1992"/><text fill="#000000" font-family="sans-serif" font-size="11" lengthAdjust="spacing" textLength="60" x="226" y="395.834">void draw()</text><!--MD5=[a7f9118cae7621dd25d25149752faef0]
class Circle--><rect codeLine="17" fill="#FEFECE" filter="url(#fdhtt15otjo1)" height="60.9551" id="Circle" style="stroke:#A80036;stroke-width:1.5;" width="72" x="105" y="479.1992"/><ellipse cx="123.6" cy="495.1992" fill="#ADD1B2" rx="11" ry="11" style="stroke:#A80036;stroke-width:1.0;"/><path d="M126.0731,501.3423 Q125.4921,501.6411 124.8529,501.7905 Q124.2138,501.9399 123.5082,501.9399 Q121.0014,501.9399 119.6815,500.2881 Q118.3617,498.6362 118.3617,495.5151 Q118.3617,492.3857 119.6815,490.7339 Q121.0014,489.082 123.5082,489.082 Q124.2138,489.082 124.8612,489.2314 Q125.5087,489.3809 126.0731,489.6797 L126.0731,492.4023 Q125.4423,491.8213 124.8488,491.5515 Q124.2553,491.2817 123.6244,491.2817 Q122.2797,491.2817 121.5949,492.3484 Q120.9101,493.415 120.9101,495.5151 Q120.9101,497.6069 121.5949,498.6736 Q122.2797,499.7402 123.6244,499.7402 Q124.2553,499.7402 124.8488,499.4705 Q125.4423,499.2007 126.0731,498.6196 Z " fill="#000000"/><text fill="#000000" font-family="sans-serif" font-size="12" lengthAdjust="spacing" textLength="32" x="138.4" y="499.7344">Circle</text><line style="stroke:#A80036;stroke-width:1.5;" x1="106" x2="176" y1="511.1992" y2="511.1992"/><line style="stroke:#A80036;stroke-width:1.5;" x1="106" x2="176" y1="519.1992" y2="519.1992"/><text fill="#000000" font-family="sans-serif" font-size="11" lengthAdjust="spacing" textLength="60" x="111" y="533.834">void draw()</text><!--MD5=[5655ee3e2a0d028d03fe20f829576392]
class Square--><rect codeLine="20" fill="#FEFECE" filter="url(#fdhtt15otjo1)" height="60.9551" id="Square" style="stroke:#A80036;stroke-width:1.5;" width="72" x="220" y="479.1992"/><ellipse cx="235" cy="495.1992" fill="#ADD1B2" rx="11" ry="11" style="stroke:#A80036;stroke-width:1.0;"/><path d="M237.4731,501.3423 Q236.8921,501.6411 236.2529,501.7905 Q235.6138,501.9399 234.9082,501.9399 Q232.4014,501.9399 231.0815,500.2881 Q229.7617,498.6362 229.7617,495.5151 Q229.7617,492.3857 231.0815,490.7339 Q232.4014,489.082 234.9082,489.082 Q235.6138,489.082 236.2612,489.2314 Q236.9087,489.3809 237.4731,489.6797 L237.4731,492.4023 Q236.8423,491.8213 236.2488,491.5515 Q235.6553,491.2817 235.0244,491.2817 Q233.6797,491.2817 232.9949,492.3484 Q232.3101,493.415 232.3101,495.5151 Q232.3101,497.6069 232.9949,498.6736 Q233.6797,499.7402 235.0244,499.7402 Q235.6553,499.7402 236.2488,499.4705 Q236.8423,499.2007 237.4731,498.6196 Z " fill="#000000"/><text fill="#000000" font-family="sans-serif" font-size="12" lengthAdjust="spacing" textLength="40" x="249" y="499.7344">Square</text><line style="stroke:#A80036;stroke-width:1.5;" x1="221" x2="291" y1="511.1992" y2="511.1992"/><line style="stroke:#A80036;stroke-width:1.5;" x1="221" x2="291" y1="519.1992" y2="519.1992"/><text fill="#000000" font-family="sans-serif" font-size="11" lengthAdjust="spacing" textLength="60" x="226" y="533.834">void draw()</text><!--MD5=[b5313cd49da22b0744b541f414f8445e]
class Rectangle--><rect codeLine="23" fill="#FEFECE" filter="url(#fdhtt15otjo1)" height="60.9551" id="Rectangle" style="stroke:#A80036;stroke-width:1.5;" width="88" x="328" y="479.1992"/><ellipse cx="343" cy="495.1992" fill="#ADD1B2" rx="11" ry="11" style="stroke:#A80036;stroke-width:1.0;"/><path d="M345.4731,501.3423 Q344.8921,501.6411 344.2529,501.7905 Q343.6138,501.9399 342.9082,501.9399 Q340.4014,501.9399 339.0815,500.2881 Q337.7617,498.6362 337.7617,495.5151 Q337.7617,492.3857 339.0815,490.7339 Q340.4014,489.082 342.9082,489.082 Q343.6138,489.082 344.2612,489.2314 Q344.9087,489.3809 345.4731,489.6797 L345.4731,492.4023 Q344.8423,491.8213 344.2488,491.5515 Q343.6553,491.2817 343.0244,491.2817 Q341.6797,491.2817 340.9949,492.3484 Q340.3101,493.415 340.3101,495.5151 Q340.3101,497.6069 340.9949,498.6736 Q341.6797,499.7402 343.0244,499.7402 Q343.6553,499.7402 344.2488,499.4705 Q344.8423,499.2007 345.4731,498.6196 Z " fill="#000000"/><text fill="#000000" font-family="sans-serif" font-size="12" lengthAdjust="spacing" textLength="56" x="357" y="499.7344">Rectangle</text><line style="stroke:#A80036;stroke-width:1.5;" x1="329" x2="415" y1="511.1992" y2="511.1992"/><line style="stroke:#A80036;stroke-width:1.5;" x1="329" x2="415" y1="519.1992" y2="519.1992"/><text fill="#000000" font-family="sans-serif" font-size="11" lengthAdjust="spacing" textLength="60" x="334" y="533.834">void draw()</text><!--MD5=[08b7ef2587a417834a9dba6ade68f64f]
class FactoryPatternDemo--><rect codeLine="3" fill="#FEFECE" filter="url(#fdhtt15otjo1)" height="60.9551" id="FactoryPatternDemo" style="stroke:#A80036;stroke-width:1.5;" width="148" x="7" y="28.1992"/><ellipse cx="22" cy="44.1992" fill="#ADD1B2" rx="11" ry="11" style="stroke:#A80036;stroke-width:1.0;"/><path d="M24.4731,50.3423 Q23.8921,50.6411 23.2529,50.7905 Q22.6138,50.9399 21.9082,50.9399 Q19.4014,50.9399 18.0815,49.2881 Q16.7617,47.6362 16.7617,44.5151 Q16.7617,41.3857 18.0815,39.7339 Q19.4014,38.082 21.9082,38.082 Q22.6138,38.082 23.2612,38.2314 Q23.9087,38.3809 24.4731,38.6797 L24.4731,41.4023 Q23.8423,40.8213 23.2488,40.5515 Q22.6553,40.2817 22.0244,40.2817 Q20.6797,40.2817 19.9949,41.3484 Q19.3101,42.415 19.3101,44.5151 Q19.3101,46.6069 19.9949,47.6736 Q20.6797,48.7402 22.0244,48.7402 Q22.6553,48.7402 23.2488,48.4705 Q23.8423,48.2007 24.4731,47.6196 Z " fill="#000000"/><text fill="#000000" font-family="sans-serif" font-size="12" lengthAdjust="spacing" textLength="116" x="36" y="48.7344">FactoryPatternDemo</text><line style="stroke:#A80036;stroke-width:1.5;" x1="8" x2="154" y1="60.1992" y2="60.1992"/><line style="stroke:#A80036;stroke-width:1.5;" x1="8" x2="154" y1="68.1992" y2="68.1992"/><text fill="#000000" font-family="sans-serif" font-size="11" lengthAdjust="spacing" textLength="60" x="13" y="82.834">void main()</text><!--MD5=[1c573188985f4c75505740d1b2f472b4]
class ShapeFactory--><rect codeLine="7" fill="#FEFECE" filter="url(#fdhtt15otjo1)" height="60.9551" id="ShapeFactory" style="stroke:#A80036;stroke-width:1.5;" width="108" x="27" y="166.1992"/><ellipse cx="42" cy="182.1992" fill="#ADD1B2" rx="11" ry="11" style="stroke:#A80036;stroke-width:1.0;"/><path d="M44.4731,188.3423 Q43.8921,188.6411 43.2529,188.7905 Q42.6138,188.9399 41.9082,188.9399 Q39.4014,188.9399 38.0815,187.2881 Q36.7617,185.6362 36.7617,182.5151 Q36.7617,179.3857 38.0815,177.7339 Q39.4014,176.082 41.9082,176.082 Q42.6138,176.082 43.2612,176.2314 Q43.9087,176.3809 44.4731,176.6797 L44.4731,179.4023 Q43.8423,178.8213 43.2488,178.5515 Q42.6553,178.2817 42.0244,178.2817 Q40.6797,178.2817 39.9949,179.3484 Q39.3101,180.415 39.3101,182.5151 Q39.3101,184.6069 39.9949,185.6736 Q40.6797,186.7402 42.0244,186.7402 Q42.6553,186.7402 43.2488,186.4705 Q43.8423,186.2007 44.4731,185.6196 Z " fill="#000000"/><text fill="#000000" font-family="sans-serif" font-size="12" lengthAdjust="spacing" textLength="76" x="56" y="186.7344">ShapeFactory</text><line style="stroke:#A80036;stroke-width:1.5;" x1="28" x2="134" y1="198.1992" y2="198.1992"/><line style="stroke:#A80036;stroke-width:1.5;" x1="28" x2="134" y1="206.1992" y2="206.1992"/><text fill="#000000" font-family="sans-serif" font-size="11" lengthAdjust="spacing" textLength="92" x="33" y="220.834">Shape getshape()</text><!--MD5=[2e70a7a1357f94bf9625e73c3c1a820d]
link ShapeFactory to factory--><path codeLine="11" d="M81,227.4392 C81,239.6117 81,254.4692 81,269.953 C81,277.6948 81,285.5933 81,293.3909 C81,294.3656 81,295.3388 81,296.3098 C81,296.7954 81,297.2804 81,297.7648 " fill="none" id="ShapeFactory-to-factory" style="stroke:#A80036;stroke-width:1.0;stroke-dasharray:7.0,7.0;"/><polygon fill="#A80036" points="81,297.7648,85,288.7648,81,292.7648,77,288.7648,81,297.7648" style="stroke:#A80036;stroke-width:1.0;"/><text fill="#000000" font-family="sans-serif" font-size="13" lengthAdjust="spacing" textLength="52" x="82" y="270.7676">创建工厂</text><!--MD5=[6eb5f726e862c3d7696fe0709dbbfe47]
link FactoryPatternDemo to ShapeFactory--><path codeLine="12" d="M81,89.2092 C81,110.1792 81,138.4392 81,160.5792 " fill="none" id="FactoryPatternDemo-to-ShapeFactory" style="stroke:#A80036;stroke-width:1.0;stroke-dasharray:7.0,7.0;"/><polygon fill="#A80036" points="81,165.7792,85,156.7792,81,160.7792,77,156.7792,81,165.7792" style="stroke:#A80036;stroke-width:1.0;"/><text fill="#000000" font-family="sans-serif" font-size="13" lengthAdjust="spacing" textLength="52" x="82" y="132.7676">使用工厂</text><!--MD5=[d637a7d0c5b779627461b5a6979d5756]
reverse link Shape to Circle--><path codeLine="26" d="M202.25,409.5992 C188.61,416.0292 179.43,417.9392 168,432.1992 C157.16,445.7192 150.51,463.8992 146.52,479.1492 " fill="none" id="Shape-backto-Circle" style="stroke:#A80036;stroke-width:1.0;stroke-dasharray:7.0,7.0;"/><polygon fill="none" points="199.06,403.3592,219.9,399.5192,206,415.5192,199.06,403.3592" style="stroke:#A80036;stroke-width:1.0;"/><text fill="#000000" font-family="sans-serif" font-size="13" lengthAdjust="spacing" textLength="74" x="169" y="445.7676">implements</text><!--MD5=[d4ca5a4026589bf67f913f07d54add2c]
reverse link Shape to Square--><path codeLine="27" d="M253.31,422.4192 C253.18,425.7292 253.08,429.0092 253,432.1992 C252.61,447.6092 253.19,464.7692 253.94,478.9192 " fill="none" id="Shape-backto-Square" style="stroke:#A80036;stroke-width:1.0;stroke-dasharray:7.0,7.0;"/><polygon fill="none" points="246.32,422.0092,254.21,402.3492,260.3,422.6392,246.32,422.0092" style="stroke:#A80036;stroke-width:1.0;"/><text fill="#000000" font-family="sans-serif" font-size="13" lengthAdjust="spacing" textLength="74" x="254" y="445.7676">implements</text><!--MD5=[793668fe740f4b06a80dd095381d024c]
reverse link Shape to Rectangle--><path codeLine="28" d="M308.18,407.8992 C317.09,415.2892 325.79,423.4992 333,432.1992 C344.51,446.0892 353.85,463.9392 360.51,478.8992 " fill="none" id="Shape-backto-Rectangle" style="stroke:#A80036;stroke-width:1.0;stroke-dasharray:7.0,7.0;"/><polygon fill="none" points="303.73,413.3092,292.16,395.5592,312.28,402.2192,303.73,413.3092" style="stroke:#A80036;stroke-width:1.0;"/><text fill="#000000" font-family="sans-serif" font-size="13" lengthAdjust="spacing" textLength="74" x="344" y="445.7676">implements</text><!--MD5=[e8a2ee8478186a0c310a31cc4ea02193]
@startuml
Title 设计模式-工厂模式

class FactoryPatternDemo{
    void main()
}

class ShapeFactory{
    Shape getshape()
}

ShapeFactory ..> factory :创建工厂
FactoryPatternDemo ..> ShapeFactory :使用工厂
package factory <<Rectangle>> {
    interface Shape{
        void draw()
    }
    class Circle{
        void draw()
    }
    class Square{
        void draw()
    }
    class Rectangle{
        void draw()
    }
    Shape <|.. Circle:implements
    Shape <|.. Square:implements
    Shape <|.. Rectangle:implements
}

@enduml

PlantUML version 1.2021.7(Sun May 23 20:40:07 CST 2021)
(GPL source distribution)
Java Runtime: OpenJDK Runtime Environment
JVM: OpenJDK 64-Bit Server VM
Default Encoding: UTF-8
Language: zh
Country: CN
--></g></svg>