<?xml version="1.0" encoding="UTF-8" standalone="no"?><svg xmlns="http://www.w3.org/2000/svg" xmlns:xlink="http://www.w3.org/1999/xlink" contentScriptType="application/ecmascript" contentStyleType="text/css" height="586px" preserveAspectRatio="none" style="width:435px;height:586px;background:#FFFFFF;" version="1.1" viewBox="0 0 435 586" width="435px" zoomAndPan="magnify"><defs><filter height="300%" id="fonkyh1ekxjfb" width="300%" x="-1" y="-1"><feGaussianBlur result="blurOut" stdDeviation="2.0"/><feColorMatrix in="blurOut" result="blurOut2" type="matrix" values="0 0 0 0 0 0 0 0 0 0 0 0 0 0 0 0 0 0 .4 0"/><feOffset dx="4.0" dy="4.0" in="blurOut2" result="blurOut3"/><feBlend in="SourceGraphic" in2="blurOut3" mode="normal"/></filter></defs><g><text fill="#000000" font-family="sans-serif" font-size="18" lengthAdjust="spacing" textLength="226" x="98.25" y="17.4023">设计模式-数据访问对象模式</text><!--MD5=[d6181cb537bdc20c0a3007a98a56832d]
class Student--><rect codeLine="3" fill="#FEFECE" filter="url(#fonkyh1ekxjfb)" height="138.6855" id="Student" style="stroke:#A80036;stroke-width:1.5;" width="195" x="156.5" y="434.1992"/><ellipse cx="228.25" cy="450.1992" fill="#ADD1B2" rx="11" ry="11" style="stroke:#A80036;stroke-width:1.0;"/><path d="M230.7231,456.3423 Q230.1421,456.6411 229.5029,456.7905 Q228.8638,456.9399 228.1582,456.9399 Q225.6514,456.9399 224.3315,455.2881 Q223.0117,453.6362 223.0117,450.5151 Q223.0117,447.3857 224.3315,445.7339 Q225.6514,444.082 228.1582,444.082 Q228.8638,444.082 229.5112,444.2314 Q230.1587,444.3809 230.7231,444.6797 L230.7231,447.4023 Q230.0923,446.8213 229.4988,446.5515 Q228.9053,446.2817 228.2744,446.2817 Q226.9297,446.2817 226.2449,447.3484 Q225.5601,448.415 225.5601,450.5151 Q225.5601,452.6069 226.2449,453.6736 Q226.9297,454.7402 228.2744,454.7402 Q228.9053,454.7402 229.4988,454.4705 Q230.0923,454.2007 230.7231,453.6196 Z " fill="#000000"/><text fill="#000000" font-family="sans-serif" font-size="12" lengthAdjust="spacing" textLength="43" x="248.75" y="454.7344">Student</text><line style="stroke:#A80036;stroke-width:1.5;" x1="157.5" x2="350.5" y1="466.1992" y2="466.1992"/><rect fill="none" height="6" style="stroke:#C82930;stroke-width:1.0;" width="6" x="164.5" y="474.1992"/><text fill="#000000" font-family="sans-serif" font-size="11" lengthAdjust="spacing" textLength="71" x="176.5" y="480.834">String rollNo;</text><rect fill="none" height="6" style="stroke:#C82930;stroke-width:1.0;" width="6" x="164.5" y="487.1543"/><text fill="#000000" font-family="sans-serif" font-size="11" lengthAdjust="spacing" textLength="67" x="176.5" y="493.7891">String name;</text><line style="stroke:#A80036;stroke-width:1.5;" x1="157.5" x2="350.5" y1="500.1094" y2="500.1094"/><polygon fill="#4177AF" points="167.5,507.1094,163.5,513.1094,171.5,513.1094" style="stroke:#1963A0;stroke-width:1.0;"/><text fill="#000000" font-family="sans-serif" font-size="11" lengthAdjust="spacing" textLength="169" x="176.5" y="514.7441">Student(String name, int rollNo)</text><ellipse cx="167.5" cy="524.0645" fill="#84BE84" rx="3" ry="3" style="stroke:#038048;stroke-width:1.0;"/><text fill="#000000" font-family="sans-serif" font-size="11" lengthAdjust="spacing" textLength="95" x="176.5" y="527.6992">String getRollNo()</text><ellipse cx="167.5" cy="537.0195" fill="#84BE84" rx="3" ry="3" style="stroke:#038048;stroke-width:1.0;"/><text fill="#000000" font-family="sans-serif" font-size="11" lengthAdjust="spacing" textLength="153" x="176.5" y="540.6543">void setRollNo(String rollNo)</text><ellipse cx="167.5" cy="549.9746" fill="#84BE84" rx="3" ry="3" style="stroke:#038048;stroke-width:1.0;"/><text fill="#000000" font-family="sans-serif" font-size="11" lengthAdjust="spacing" textLength="90" x="176.5" y="553.6094">String getName()</text><ellipse cx="167.5" cy="562.9297" fill="#84BE84" rx="3" ry="3" style="stroke:#038048;stroke-width:1.0;"/><text fill="#000000" font-family="sans-serif" font-size="11" lengthAdjust="spacing" textLength="144" x="176.5" y="566.5645">void setName(String name)</text><!--MD5=[3755126478b495faad9957a030e04f3b]
class StudentDao--><rect codeLine="13" fill="#FEFECE" filter="url(#fonkyh1ekxjfb)" height="99.8203" id="StudentDao" style="stroke:#A80036;stroke-width:1.5;" width="226" x="7" y="28.1992"/><ellipse cx="82.75" cy="44.1992" fill="#B4A7E5" rx="11" ry="11" style="stroke:#A80036;stroke-width:1.0;"/><path d="M79.1777,40.4644 L79.1777,38.3062 L86.5571,38.3062 L86.5571,40.4644 L84.0918,40.4644 L84.0918,48.541 L86.5571,48.541 L86.5571,50.6992 L79.1777,50.6992 L79.1777,48.541 L81.6431,48.541 L81.6431,40.4644 Z " fill="#000000"/><text fill="#000000" font-family="sans-serif" font-size="12" font-style="italic" lengthAdjust="spacing" textLength="66" x="103.25" y="48.7344">StudentDao</text><line style="stroke:#A80036;stroke-width:1.5;" x1="8" x2="232" y1="60.1992" y2="60.1992"/><line style="stroke:#A80036;stroke-width:1.5;" x1="8" x2="232" y1="68.1992" y2="68.1992"/><ellipse cx="18" cy="79.1992" fill="#84BE84" rx="3" ry="3" style="stroke:#038048;stroke-width:1.0;"/><text fill="#000000" font-family="sans-serif" font-size="11" lengthAdjust="spacing" textLength="170" x="27" y="82.834">List&lt;Student&gt; getAllStudents();</text><ellipse cx="18" cy="92.1543" fill="#84BE84" rx="3" ry="3" style="stroke:#038048;stroke-width:1.0;"/><text fill="#000000" font-family="sans-serif" font-size="11" lengthAdjust="spacing" textLength="163" x="27" y="95.7891">Student getStudent(int rollNo);</text><ellipse cx="18" cy="105.1094" fill="#84BE84" rx="3" ry="3" style="stroke:#038048;stroke-width:1.0;"/><text fill="#000000" font-family="sans-serif" font-size="11" lengthAdjust="spacing" textLength="200" x="27" y="108.7441">void updateStudent(Student student);</text><ellipse cx="18" cy="118.0645" fill="#84BE84" rx="3" ry="3" style="stroke:#038048;stroke-width:1.0;"/><text fill="#000000" font-family="sans-serif" font-size="11" lengthAdjust="spacing" textLength="195" x="27" y="121.6992">void deleteStudent(Student student);</text><!--MD5=[3a91f06266e0ba53bcb9956f75c05591]
class StudentDaoImpl--><rect codeLine="20" fill="#FEFECE" filter="url(#fonkyh1ekxjfb)" height="151.6406" id="StudentDaoImpl" style="stroke:#A80036;stroke-width:1.5;" width="223" x="51.5" y="205.1992"/><ellipse cx="113.25" cy="221.1992" fill="#ADD1B2" rx="11" ry="11" style="stroke:#A80036;stroke-width:1.0;"/><path d="M115.7231,227.3423 Q115.1421,227.6411 114.5029,227.7905 Q113.8638,227.9399 113.1582,227.9399 Q110.6514,227.9399 109.3315,226.2881 Q108.0117,224.6362 108.0117,221.5151 Q108.0117,218.3857 109.3315,216.7339 Q110.6514,215.082 113.1582,215.082 Q113.8638,215.082 114.5112,215.2314 Q115.1587,215.3809 115.7231,215.6797 L115.7231,218.4023 Q115.0923,217.8213 114.4988,217.5515 Q113.9053,217.2817 113.2744,217.2817 Q111.9297,217.2817 111.2449,218.3484 Q110.5601,219.415 110.5601,221.5151 Q110.5601,223.6069 111.2449,224.6736 Q111.9297,225.7402 113.2744,225.7402 Q113.9053,225.7402 114.4988,225.4705 Q115.0923,225.2007 115.7231,224.6196 Z " fill="#000000"/><text fill="#000000" font-family="sans-serif" font-size="12" lengthAdjust="spacing" textLength="91" x="133.75" y="225.7344">StudentDaoImpl</text><line style="stroke:#A80036;stroke-width:1.5;" x1="52.5" x2="273.5" y1="237.1992" y2="237.1992"/><text fill="#000000" font-family="sans-serif" font-size="11" lengthAdjust="spacing" textLength="122" x="57.5" y="251.834">//列表是当作一个数据库</text><text fill="#000000" font-family="sans-serif" font-size="11" lengthAdjust="spacing" textLength="128" x="57.5" y="264.7891">List&lt;Student&gt; students</text><text fill="#000000" font-family="sans-serif" font-size="11" lengthAdjust="spacing" textLength="133" x="57.5" y="277.7441">//从数据库中检索学生名单</text><line style="stroke:#A80036;stroke-width:1.5;" x1="52.5" x2="273.5" y1="284.0645" y2="284.0645"/><ellipse cx="62.5" cy="295.0645" fill="#84BE84" rx="3" ry="3" style="stroke:#038048;stroke-width:1.0;"/><text fill="#000000" font-family="sans-serif" font-size="11" lengthAdjust="spacing" textLength="93" x="71.5" y="298.6992">StudentDaoImpl()</text><ellipse cx="62.5" cy="308.0195" fill="#84BE84" rx="3" ry="3" style="stroke:#038048;stroke-width:1.0;"/><text fill="#000000" font-family="sans-serif" font-size="11" lengthAdjust="spacing" textLength="192" x="71.5" y="311.6543">void deleteStudent(Student student)</text><ellipse cx="62.5" cy="320.9746" fill="#84BE84" rx="3" ry="3" style="stroke:#038048;stroke-width:1.0;"/><text fill="#000000" font-family="sans-serif" font-size="11" lengthAdjust="spacing" textLength="167" x="71.5" y="324.6094">List&lt;Student&gt; getAllStudents()</text><ellipse cx="62.5" cy="333.9297" fill="#84BE84" rx="3" ry="3" style="stroke:#038048;stroke-width:1.0;"/><text fill="#000000" font-family="sans-serif" font-size="11" lengthAdjust="spacing" textLength="160" x="71.5" y="337.5645">Student getStudent(int rollNo)</text><ellipse cx="62.5" cy="346.8848" fill="#84BE84" rx="3" ry="3" style="stroke:#038048;stroke-width:1.0;"/><text fill="#000000" font-family="sans-serif" font-size="11" lengthAdjust="spacing" textLength="197" x="71.5" y="350.5195">void updateStudent(Student student)</text><!--MD5=[af9f2945c8fa60d0f99afb4957b7250b]
class DaoPatternDemo--><rect codeLine="33" fill="#FEFECE" filter="url(#fonkyh1ekxjfb)" height="60.9551" id="DaoPatternDemo" style="stroke:#A80036;stroke-width:1.5;" width="153" x="268.5" y="47.6992"/><ellipse cx="293.85" cy="63.6992" fill="#ADD1B2" rx="11" ry="11" style="stroke:#A80036;stroke-width:1.0;"/><path d="M296.3231,69.8423 Q295.7421,70.1411 295.1029,70.2905 Q294.4638,70.4399 293.7582,70.4399 Q291.2514,70.4399 289.9315,68.7881 Q288.6117,67.1362 288.6117,64.0151 Q288.6117,60.8857 289.9315,59.2339 Q291.2514,57.582 293.7582,57.582 Q294.4638,57.582 295.1112,57.7314 Q295.7587,57.8809 296.3231,58.1797 L296.3231,60.9023 Q295.6923,60.3213 295.0988,60.0515 Q294.5053,59.7817 293.8744,59.7817 Q292.5297,59.7817 291.8449,60.8484 Q291.1601,61.915 291.1601,64.0151 Q291.1601,66.1069 291.8449,67.1736 Q292.5297,68.2402 293.8744,68.2402 Q294.5053,68.2402 295.0988,67.9705 Q295.6923,67.7007 296.3231,67.1196 Z " fill="#000000"/><text fill="#000000" font-family="sans-serif" font-size="12" lengthAdjust="spacing" textLength="98" x="310.15" y="68.2344">DaoPatternDemo</text><line style="stroke:#A80036;stroke-width:1.5;" x1="269.5" x2="420.5" y1="79.6992" y2="79.6992"/><line style="stroke:#A80036;stroke-width:1.5;" x1="269.5" x2="420.5" y1="87.6992" y2="87.6992"/><ellipse cx="279.5" cy="98.6992" fill="#84BE84" rx="3" ry="3" style="stroke:#038048;stroke-width:1.0;"/><text fill="#000000" font-family="sans-serif" font-size="11" lengthAdjust="spacing" text-decoration="underline" textLength="127" x="288.5" y="102.334">void main(String[] args)</text><!--MD5=[7d67b09aee986b605f635dc930cfebdf]
reverse link StudentDao to StudentDaoImpl--><path d="M134.76,148.1992 C138.67,166.4792 142.91,186.2992 146.89,204.8892 " fill="none" id="StudentDao-backto-StudentDaoImpl" style="stroke:#A80036;stroke-width:1.0;stroke-dasharray:7.0,7.0;"/><polygon fill="none" points="127.86,149.3892,130.52,128.3692,141.55,146.4592,127.86,149.3892" style="stroke:#A80036;stroke-width:1.0;"/><!--MD5=[a2fa6afe972f06ee8d693691a21541fc]
link StudentDaoImpl to Student--><path codeLine="31" d="M194.06,357.4692 C203.63,380.6492 214.14,406.1292 223.66,429.1792 " fill="none" id="StudentDaoImpl-to-Student" style="stroke:#A80036;stroke-width:1.0;"/><polygon fill="#A80036" points="225.68,434.0692,225.9627,424.2244,223.7813,429.4438,218.5619,427.2624,225.68,434.0692" style="stroke:#A80036;stroke-width:1.0;"/><text fill="#000000" font-family="sans-serif" font-size="13" lengthAdjust="spacing" textLength="33" x="213" y="400.7676">has a</text><!--MD5=[0e802d7b3e482495aa36adeed0d3d1f0]
link DaoPatternDemo to StudentDaoImpl--><path codeLine="37" d="M283.15,108.8592 C261.13,121.6892 237.48,138.3592 220,158.1992 C209.08,170.5992 199.84,185.4592 192.19,200.4592 " fill="none" id="DaoPatternDemo-to-StudentDaoImpl" style="stroke:#A80036;stroke-width:1.0;stroke-dasharray:7.0,7.0;"/><polygon fill="#A80036" points="189.87,205.1192,197.4566,198.8389,192.0947,200.6414,190.2921,195.2794,189.87,205.1192" style="stroke:#A80036;stroke-width:1.0;"/><text fill="#000000" font-family="sans-serif" font-size="13" lengthAdjust="spacing" textLength="97" x="221" y="171.7676">依赖-使用 use a</text><!--MD5=[e8d8a70a32a146df992d2d5748a3b0e3]
link DaoPatternDemo to Student--><path codeLine="38" d="M340,108.9592 C331.28,159.9792 312.28,267.3292 292,357.1992 C286.69,380.7392 280.26,406.2492 274.21,429.2292 " fill="none" id="DaoPatternDemo-to-Student" style="stroke:#A80036;stroke-width:1.0;stroke-dasharray:7.0,7.0;"/><polygon fill="#A80036" points="272.93,434.0992,279.0843,426.4099,274.1997,429.2631,271.3465,424.3785,272.93,434.0992" style="stroke:#A80036;stroke-width:1.0;"/><text fill="#000000" font-family="sans-serif" font-size="13" lengthAdjust="spacing" textLength="97" x="323" y="286.2676">依赖-使用 use a</text><!--MD5=[be78892c7967d95c7a0d3fe07153fd42]
@startuml
Title 设计模式-数据访问对象模式

class Student {
   - String rollNo;
   - String name;
   ~ Student(String name, int rollNo)
   + String getRollNo() 
   + void setRollNo(String rollNo) 
   + String getName() 
   + void setName(String name) 
}

interface StudentDao {
   + List<Student> getAllStudents();
   + Student getStudent(int rollNo);
   + void updateStudent(Student student);
   + void deleteStudent(Student student);
}

class StudentDaoImpl implements StudentDao {
   //列表是当作一个数据库
   List<Student> students
   + StudentDaoImpl()
   + void deleteStudent(Student student)
   //从数据库中检索学生名单
   + List<Student> getAllStudents()
   + Student getStudent(int rollNo) 
   + void updateStudent(Student student) 
}

StudentDaoImpl O- -> Student: has a

class DaoPatternDemo {
   + {static} void main(String[] args) 
}

DaoPatternDemo ..> StudentDaoImpl:依赖-使用 use a
DaoPatternDemo ..> Student:依赖-使用 use a

' StudentController ..> Student:依赖使用 use a
' StudentController ..> StudentView:依赖使用 use a
' StudentController <.. MVCPatternDemo:依赖使用 use a


@enduml

@startuml
Title 设计模式-数据访问对象模式

class Student {
   - String rollNo;
   - String name;
   ~ Student(String name, int rollNo)
   + String getRollNo() 
   + void setRollNo(String rollNo) 
   + String getName() 
   + void setName(String name) 
}

interface StudentDao {
   + List<Student> getAllStudents();
   + Student getStudent(int rollNo);
   + void updateStudent(Student student);
   + void deleteStudent(Student student);
}

class StudentDaoImpl implements StudentDao {
   //列表是当作一个数据库
   List<Student> students
   + StudentDaoImpl()
   + void deleteStudent(Student student)
   //从数据库中检索学生名单
   + List<Student> getAllStudents()
   + Student getStudent(int rollNo) 
   + void updateStudent(Student student) 
}

StudentDaoImpl O- -> Student: has a

class DaoPatternDemo {
   + {static} void main(String[] args) 
}

DaoPatternDemo ..> StudentDaoImpl:依赖-使用 use a
DaoPatternDemo ..> Student:依赖-使用 use a



@enduml

PlantUML version 1.2021.7(Sun May 23 20:40:07 CST 2021)
(GPL source distribution)
Java Runtime: OpenJDK Runtime Environment
JVM: OpenJDK 64-Bit Server VM
Default Encoding: UTF-8
Language: zh
Country: CN
--></g></svg>