<?xml version="1.0" encoding="UTF-8" standalone="no"?><svg xmlns="http://www.w3.org/2000/svg" xmlns:xlink="http://www.w3.org/1999/xlink" contentScriptType="application/ecmascript" contentStyleType="text/css" height="849px" preserveAspectRatio="none" style="width:859px;height:849px;background:#FFFFFF;" version="1.1" viewBox="0 0 859 849" width="859px" zoomAndPan="magnify"><defs><filter height="300%" id="f4h9qjbpgrmsn" width="300%" x="-1" y="-1"><feGaussianBlur result="blurOut" stdDeviation="2.0"/><feColorMatrix in="blurOut" result="blurOut2" type="matrix" values="0 0 0 0 0 0 0 0 0 0 0 0 0 0 0 0 0 0 .4 0"/><feOffset dx="4.0" dy="4.0" in="blurOut2" result="blurOut3"/><feBlend in="SourceGraphic" in2="blurOut3" mode="normal"/></filter></defs><g><text fill="#000000" font-family="sans-serif" font-size="18" lengthAdjust="spacing" textLength="190" x="328.0103" y="17.4023">设计模式-抽象工厂模式</text><!--MD5=[15316a8ec5baf64487a818761fcecc6d]
cluster factoryShape--><rect fill="#FFFFFF" filter="url(#f4h9qjbpgrmsn)" height="266" style="stroke:#000000;stroke-width:1.5;" width="399" x="9.0207" y="571.1992"/><text fill="#000000" font-family="sans-serif" font-size="14" font-weight="bold" lengthAdjust="spacing" textLength="92" x="162.5207" y="586.7344">factoryShape</text><!--MD5=[c9ad1f45cef1662e5d1e7191d1ee3263]
cluster factoryColor--><rect fill="#FFFFFF" filter="url(#f4h9qjbpgrmsn)" height="266" style="stroke:#000000;stroke-width:1.5;" width="399" x="448.0207" y="571.1992"/><text fill="#000000" font-family="sans-serif" font-size="14" font-weight="bold" lengthAdjust="spacing" textLength="89" x="603.0207" y="586.7344">factoryColor</text><!--MD5=[426e75666daf533f17226ff4c87e20fd]
class Shape--><rect codeLine="38" fill="#FEFECE" filter="url(#f4h9qjbpgrmsn)" height="60.9551" id="Shape" style="stroke:#A80036;stroke-width:1.5;" width="86" x="149.0207" y="614.1992"/><ellipse cx="172.5707" cy="630.1992" fill="#B4A7E5" rx="11" ry="11" style="stroke:#A80036;stroke-width:1.0;"/><path d="M168.9984,626.4644 L168.9984,624.3062 L176.3778,624.3062 L176.3778,626.4644 L173.9124,626.4644 L173.9124,634.541 L176.3778,634.541 L176.3778,636.6992 L168.9984,636.6992 L168.9984,634.541 L171.4637,634.541 L171.4637,626.4644 Z " fill="#000000"/><text fill="#000000" font-family="sans-serif" font-size="12" font-style="italic" lengthAdjust="spacing" textLength="35" x="188.4707" y="634.7344">Shape</text><line style="stroke:#A80036;stroke-width:1.5;" x1="150.0207" x2="234.0207" y1="646.1992" y2="646.1992"/><line style="stroke:#A80036;stroke-width:1.5;" x1="150.0207" x2="234.0207" y1="654.1992" y2="654.1992"/><ellipse cx="160.0207" cy="665.1992" fill="#84BE84" rx="3" ry="3" style="stroke:#038048;stroke-width:1.0;"/><text fill="#000000" font-family="sans-serif" font-size="11" lengthAdjust="spacing" textLength="60" x="169.0207" y="668.834">void draw()</text><!--MD5=[a7f9118cae7621dd25d25149752faef0]
class Circle--><rect codeLine="41" fill="#FEFECE" filter="url(#f4h9qjbpgrmsn)" height="60.9551" id="Circle" style="stroke:#A80036;stroke-width:1.5;" width="86" x="41.0207" y="752.1992"/><ellipse cx="65.9207" cy="768.1992" fill="#ADD1B2" rx="11" ry="11" style="stroke:#A80036;stroke-width:1.0;"/><path d="M68.3938,774.3423 Q67.8127,774.6411 67.1736,774.7905 Q66.5344,774.9399 65.8289,774.9399 Q63.322,774.9399 62.0022,773.2881 Q60.6824,771.6362 60.6824,768.5151 Q60.6824,765.3857 62.0022,763.7339 Q63.322,762.082 65.8289,762.082 Q66.5344,762.082 67.1819,762.2314 Q67.8293,762.3809 68.3938,762.6797 L68.3938,765.4023 Q67.7629,764.8213 67.1694,764.5515 Q66.5759,764.2817 65.9451,764.2817 Q64.6003,764.2817 63.9155,765.3484 Q63.2307,766.415 63.2307,768.5151 Q63.2307,770.6069 63.9155,771.6736 Q64.6003,772.7402 65.9451,772.7402 Q66.5759,772.7402 67.1694,772.4705 Q67.7629,772.2007 68.3938,771.6196 Z " fill="#000000"/><text fill="#000000" font-family="sans-serif" font-size="12" lengthAdjust="spacing" textLength="32" x="82.1207" y="772.7344">Circle</text><line style="stroke:#A80036;stroke-width:1.5;" x1="42.0207" x2="126.0207" y1="784.1992" y2="784.1992"/><line style="stroke:#A80036;stroke-width:1.5;" x1="42.0207" x2="126.0207" y1="792.1992" y2="792.1992"/><ellipse cx="52.0207" cy="803.1992" fill="#84BE84" rx="3" ry="3" style="stroke:#038048;stroke-width:1.0;"/><text fill="#000000" font-family="sans-serif" font-size="11" lengthAdjust="spacing" textLength="60" x="61.0207" y="806.834">void draw()</text><!--MD5=[5655ee3e2a0d028d03fe20f829576392]
class Square--><rect codeLine="44" fill="#FEFECE" filter="url(#f4h9qjbpgrmsn)" height="60.9551" id="Square" style="stroke:#A80036;stroke-width:1.5;" width="86" x="162.0207" y="752.1992"/><ellipse cx="183.3207" cy="768.1992" fill="#ADD1B2" rx="11" ry="11" style="stroke:#A80036;stroke-width:1.0;"/><path d="M185.7938,774.3423 Q185.2127,774.6411 184.5736,774.7905 Q183.9344,774.9399 183.2289,774.9399 Q180.722,774.9399 179.4022,773.2881 Q178.0824,771.6362 178.0824,768.5151 Q178.0824,765.3857 179.4022,763.7339 Q180.722,762.082 183.2289,762.082 Q183.9344,762.082 184.5819,762.2314 Q185.2293,762.3809 185.7938,762.6797 L185.7938,765.4023 Q185.1629,764.8213 184.5694,764.5515 Q183.9759,764.2817 183.3451,764.2817 Q182.0003,764.2817 181.3155,765.3484 Q180.6307,766.415 180.6307,768.5151 Q180.6307,770.6069 181.3155,771.6736 Q182.0003,772.7402 183.3451,772.7402 Q183.9759,772.7402 184.5694,772.4705 Q185.1629,772.2007 185.7938,771.6196 Z " fill="#000000"/><text fill="#000000" font-family="sans-serif" font-size="12" lengthAdjust="spacing" textLength="40" x="198.7207" y="772.7344">Square</text><line style="stroke:#A80036;stroke-width:1.5;" x1="163.0207" x2="247.0207" y1="784.1992" y2="784.1992"/><line style="stroke:#A80036;stroke-width:1.5;" x1="163.0207" x2="247.0207" y1="792.1992" y2="792.1992"/><ellipse cx="173.0207" cy="803.1992" fill="#84BE84" rx="3" ry="3" style="stroke:#038048;stroke-width:1.0;"/><text fill="#000000" font-family="sans-serif" font-size="11" lengthAdjust="spacing" textLength="60" x="182.0207" y="806.834">void draw()</text><!--MD5=[b5313cd49da22b0744b541f414f8445e]
class Rectangle--><rect codeLine="47" fill="#FEFECE" filter="url(#f4h9qjbpgrmsn)" height="60.9551" id="Rectangle" style="stroke:#A80036;stroke-width:1.5;" width="88" x="283.0207" y="752.1992"/><ellipse cx="298.0207" cy="768.1992" fill="#ADD1B2" rx="11" ry="11" style="stroke:#A80036;stroke-width:1.0;"/><path d="M300.4938,774.3423 Q299.9127,774.6411 299.2736,774.7905 Q298.6344,774.9399 297.9289,774.9399 Q295.422,774.9399 294.1022,773.2881 Q292.7824,771.6362 292.7824,768.5151 Q292.7824,765.3857 294.1022,763.7339 Q295.422,762.082 297.9289,762.082 Q298.6344,762.082 299.2819,762.2314 Q299.9293,762.3809 300.4938,762.6797 L300.4938,765.4023 Q299.8629,764.8213 299.2694,764.5515 Q298.6759,764.2817 298.0451,764.2817 Q296.7003,764.2817 296.0155,765.3484 Q295.3307,766.415 295.3307,768.5151 Q295.3307,770.6069 296.0155,771.6736 Q296.7003,772.7402 298.0451,772.7402 Q298.6759,772.7402 299.2694,772.4705 Q299.8629,772.2007 300.4938,771.6196 Z " fill="#000000"/><text fill="#000000" font-family="sans-serif" font-size="12" lengthAdjust="spacing" textLength="56" x="312.0207" y="772.7344">Rectangle</text><line style="stroke:#A80036;stroke-width:1.5;" x1="284.0207" x2="370.0207" y1="784.1992" y2="784.1992"/><line style="stroke:#A80036;stroke-width:1.5;" x1="284.0207" x2="370.0207" y1="792.1992" y2="792.1992"/><ellipse cx="294.0207" cy="803.1992" fill="#84BE84" rx="3" ry="3" style="stroke:#038048;stroke-width:1.0;"/><text fill="#000000" font-family="sans-serif" font-size="11" lengthAdjust="spacing" textLength="60" x="303.0207" y="806.834">void draw()</text><!--MD5=[18eee71c88ab61f27581b8cbdd3ef5ee]
class Color--><rect codeLine="56" fill="#FEFECE" filter="url(#f4h9qjbpgrmsn)" height="60.9551" id="Color" style="stroke:#A80036;stroke-width:1.5;" width="73" x="594.5207" y="614.1992"/><ellipse cx="614.4707" cy="630.1992" fill="#B4A7E5" rx="11" ry="11" style="stroke:#A80036;stroke-width:1.0;"/><path d="M610.8984,626.4644 L610.8984,624.3062 L618.2778,624.3062 L618.2778,626.4644 L615.8124,626.4644 L615.8124,634.541 L618.2778,634.541 L618.2778,636.6992 L610.8984,636.6992 L610.8984,634.541 L613.3637,634.541 L613.3637,626.4644 Z " fill="#000000"/><text fill="#000000" font-family="sans-serif" font-size="12" font-style="italic" lengthAdjust="spacing" textLength="30" x="629.5707" y="634.7344">Color</text><line style="stroke:#A80036;stroke-width:1.5;" x1="595.5207" x2="666.5207" y1="646.1992" y2="646.1992"/><line style="stroke:#A80036;stroke-width:1.5;" x1="595.5207" x2="666.5207" y1="654.1992" y2="654.1992"/><ellipse cx="605.5207" cy="665.1992" fill="#84BE84" rx="3" ry="3" style="stroke:#038048;stroke-width:1.0;"/><text fill="#000000" font-family="sans-serif" font-size="11" lengthAdjust="spacing" textLength="47" x="614.5207" y="668.834">void fill()</text><!--MD5=[08be530975453a47bdc5b5370100f2fc]
class Red--><rect codeLine="59" fill="#FEFECE" filter="url(#f4h9qjbpgrmsn)" height="60.9551" id="Red" style="stroke:#A80036;stroke-width:1.5;" width="73" x="480.5207" y="752.1992"/><ellipse cx="503.6207" cy="768.1992" fill="#ADD1B2" rx="11" ry="11" style="stroke:#A80036;stroke-width:1.0;"/><path d="M506.0938,774.3423 Q505.5127,774.6411 504.8736,774.7905 Q504.2344,774.9399 503.5289,774.9399 Q501.022,774.9399 499.7022,773.2881 Q498.3824,771.6362 498.3824,768.5151 Q498.3824,765.3857 499.7022,763.7339 Q501.022,762.082 503.5289,762.082 Q504.2344,762.082 504.8819,762.2314 Q505.5293,762.3809 506.0938,762.6797 L506.0938,765.4023 Q505.4629,764.8213 504.8694,764.5515 Q504.2759,764.2817 503.6451,764.2817 Q502.3003,764.2817 501.6155,765.3484 Q500.9307,766.415 500.9307,768.5151 Q500.9307,770.6069 501.6155,771.6736 Q502.3003,772.7402 503.6451,772.7402 Q504.2759,772.7402 504.8694,772.4705 Q505.4629,772.2007 506.0938,771.6196 Z " fill="#000000"/><text fill="#000000" font-family="sans-serif" font-size="12" lengthAdjust="spacing" textLength="23" x="519.4207" y="772.7344">Red</text><line style="stroke:#A80036;stroke-width:1.5;" x1="481.5207" x2="552.5207" y1="784.1992" y2="784.1992"/><line style="stroke:#A80036;stroke-width:1.5;" x1="481.5207" x2="552.5207" y1="792.1992" y2="792.1992"/><ellipse cx="491.5207" cy="803.1992" fill="#84BE84" rx="3" ry="3" style="stroke:#038048;stroke-width:1.0;"/><text fill="#000000" font-family="sans-serif" font-size="11" lengthAdjust="spacing" textLength="47" x="500.5207" y="806.834">void fill()</text><!--MD5=[3778656fef14cf416db6e1fe750da04b]
class Green--><rect codeLine="62" fill="#FEFECE" filter="url(#f4h9qjbpgrmsn)" height="60.9551" id="Green" style="stroke:#A80036;stroke-width:1.5;" width="73" x="594.5207" y="752.1992"/><ellipse cx="612.2207" cy="768.1992" fill="#ADD1B2" rx="11" ry="11" style="stroke:#A80036;stroke-width:1.0;"/><path d="M614.6938,774.3423 Q614.1127,774.6411 613.4736,774.7905 Q612.8344,774.9399 612.1289,774.9399 Q609.622,774.9399 608.3022,773.2881 Q606.9824,771.6362 606.9824,768.5151 Q606.9824,765.3857 608.3022,763.7339 Q609.622,762.082 612.1289,762.082 Q612.8344,762.082 613.4819,762.2314 Q614.1293,762.3809 614.6938,762.6797 L614.6938,765.4023 Q614.0629,764.8213 613.4694,764.5515 Q612.8759,764.2817 612.2451,764.2817 Q610.9003,764.2817 610.2155,765.3484 Q609.5307,766.415 609.5307,768.5151 Q609.5307,770.6069 610.2155,771.6736 Q610.9003,772.7402 612.2451,772.7402 Q612.8759,772.7402 613.4694,772.4705 Q614.0629,772.2007 614.6938,771.6196 Z " fill="#000000"/><text fill="#000000" font-family="sans-serif" font-size="12" lengthAdjust="spacing" textLength="35" x="626.8207" y="772.7344">Green</text><line style="stroke:#A80036;stroke-width:1.5;" x1="595.5207" x2="666.5207" y1="784.1992" y2="784.1992"/><line style="stroke:#A80036;stroke-width:1.5;" x1="595.5207" x2="666.5207" y1="792.1992" y2="792.1992"/><ellipse cx="605.5207" cy="803.1992" fill="#84BE84" rx="3" ry="3" style="stroke:#038048;stroke-width:1.0;"/><text fill="#000000" font-family="sans-serif" font-size="11" lengthAdjust="spacing" textLength="47" x="614.5207" y="806.834">void fill()</text><!--MD5=[e5fcaaf7dd279fcaa419853012f8d36f]
class Blue--><rect codeLine="65" fill="#FEFECE" filter="url(#f4h9qjbpgrmsn)" height="60.9551" id="Blue" style="stroke:#A80036;stroke-width:1.5;" width="73" x="710.5207" y="752.1992"/><ellipse cx="733.1707" cy="768.1992" fill="#ADD1B2" rx="11" ry="11" style="stroke:#A80036;stroke-width:1.0;"/><path d="M735.6438,774.3423 Q735.0627,774.6411 734.4236,774.7905 Q733.7844,774.9399 733.0789,774.9399 Q730.572,774.9399 729.2522,773.2881 Q727.9324,771.6362 727.9324,768.5151 Q727.9324,765.3857 729.2522,763.7339 Q730.572,762.082 733.0789,762.082 Q733.7844,762.082 734.4319,762.2314 Q735.0793,762.3809 735.6438,762.6797 L735.6438,765.4023 Q735.0129,764.8213 734.4194,764.5515 Q733.8259,764.2817 733.1951,764.2817 Q731.8503,764.2817 731.1655,765.3484 Q730.4807,766.415 730.4807,768.5151 Q730.4807,770.6069 731.1655,771.6736 Q731.8503,772.7402 733.1951,772.7402 Q733.8259,772.7402 734.4194,772.4705 Q735.0129,772.2007 735.6438,771.6196 Z " fill="#000000"/><text fill="#000000" font-family="sans-serif" font-size="12" lengthAdjust="spacing" textLength="24" x="748.8707" y="772.7344">Blue</text><line style="stroke:#A80036;stroke-width:1.5;" x1="711.5207" x2="782.5207" y1="784.1992" y2="784.1992"/><line style="stroke:#A80036;stroke-width:1.5;" x1="711.5207" x2="782.5207" y1="792.1992" y2="792.1992"/><ellipse cx="721.5207" cy="803.1992" fill="#84BE84" rx="3" ry="3" style="stroke:#038048;stroke-width:1.0;"/><text fill="#000000" font-family="sans-serif" font-size="11" lengthAdjust="spacing" textLength="47" x="730.5207" y="806.834">void fill()</text><!--MD5=[996e842fc0864cdf056dd4447474338b]
class AbstractFactoryPatternDemo--><rect codeLine="3" fill="#FEFECE" filter="url(#f4h9qjbpgrmsn)" height="60.9551" id="AbstractFactoryPatternDemo" style="stroke:#A80036;stroke-width:1.5;" width="196" x="210.0207" y="28.1992"/><ellipse cx="225.0207" cy="44.1992" fill="#ADD1B2" rx="11" ry="11" style="stroke:#A80036;stroke-width:1.0;"/><path d="M227.4938,50.3423 Q226.9127,50.6411 226.2736,50.7905 Q225.6344,50.9399 224.9289,50.9399 Q222.422,50.9399 221.1022,49.2881 Q219.7824,47.6362 219.7824,44.5151 Q219.7824,41.3857 221.1022,39.7339 Q222.422,38.082 224.9289,38.082 Q225.6344,38.082 226.2819,38.2314 Q226.9293,38.3809 227.4938,38.6797 L227.4938,41.4023 Q226.8629,40.8213 226.2694,40.5515 Q225.6759,40.2817 225.0451,40.2817 Q223.7003,40.2817 223.0155,41.3484 Q222.3307,42.415 222.3307,44.5151 Q222.3307,46.6069 223.0155,47.6736 Q223.7003,48.7402 225.0451,48.7402 Q225.6759,48.7402 226.2694,48.4705 Q226.8629,48.2007 227.4938,47.6196 Z " fill="#000000"/><text fill="#000000" font-family="sans-serif" font-size="12" lengthAdjust="spacing" textLength="164" x="239.0207" y="48.7344">AbstractFactoryPatternDemo</text><line style="stroke:#A80036;stroke-width:1.5;" x1="211.0207" x2="405.0207" y1="60.1992" y2="60.1992"/><line style="stroke:#A80036;stroke-width:1.5;" x1="211.0207" x2="405.0207" y1="68.1992" y2="68.1992"/><ellipse cx="221.0207" cy="79.1992" fill="#84BE84" rx="3" ry="3" style="stroke:#038048;stroke-width:1.0;"/><text fill="#000000" font-family="sans-serif" font-size="11" lengthAdjust="spacing" textLength="60" x="230.0207" y="82.834">void main()</text><!--MD5=[8d5b8367d10232d9879d5e16b6b02315]
class FactoryProducer--><rect codeLine="9" fill="#FEFECE" filter="url(#f4h9qjbpgrmsn)" height="60.9551" id="FactoryProducer" style="stroke:#A80036;stroke-width:1.5;" width="180" x="218.0207" y="166.1992"/><ellipse cx="257.7707" cy="182.1992" fill="#ADD1B2" rx="11" ry="11" style="stroke:#A80036;stroke-width:1.0;"/><path d="M260.2438,188.3423 Q259.6627,188.6411 259.0236,188.7905 Q258.3844,188.9399 257.6789,188.9399 Q255.172,188.9399 253.8522,187.2881 Q252.5324,185.6362 252.5324,182.5151 Q252.5324,179.3857 253.8522,177.7339 Q255.172,176.082 257.6789,176.082 Q258.3844,176.082 259.0319,176.2314 Q259.6793,176.3809 260.2438,176.6797 L260.2438,179.4023 Q259.6129,178.8213 259.0194,178.5515 Q258.4259,178.2817 257.7951,178.2817 Q256.4503,178.2817 255.7655,179.3484 Q255.0807,180.415 255.0807,182.5151 Q255.0807,184.6069 255.7655,185.6736 Q256.4503,186.7402 257.7951,186.7402 Q258.4259,186.7402 259.0194,186.4705 Q259.6129,186.2007 260.2438,185.6196 Z " fill="#000000"/><text fill="#000000" font-family="sans-serif" font-size="12" lengthAdjust="spacing" textLength="93" x="277.2707" y="186.7344">FactoryProducer</text><line style="stroke:#A80036;stroke-width:1.5;" x1="219.0207" x2="397.0207" y1="198.1992" y2="198.1992"/><line style="stroke:#A80036;stroke-width:1.5;" x1="219.0207" x2="397.0207" y1="206.1992" y2="206.1992"/><ellipse cx="229.0207" cy="217.1992" fill="#84BE84" rx="3" ry="3" style="stroke:#038048;stroke-width:1.0;"/><text fill="#000000" font-family="sans-serif" font-size="11" lengthAdjust="spacing" textLength="154" x="238.0207" y="220.834">AbstractFactory getFactory()</text><!--MD5=[536fe7577e8cf19597ee85886b82cd6a]
class AbstractFactory--><rect codeLine="15" fill="#FEFECE" filter="url(#f4h9qjbpgrmsn)" height="73.9102" id="AbstractFactory" style="stroke:#A80036;stroke-width:1.5;" width="121" x="247.5207" y="304.1992"/><ellipse cx="262.5207" cy="320.1992" fill="#A9DCDF" rx="11" ry="11" style="stroke:#A80036;stroke-width:1.0;"/><path d="M262.6339,315.7974 L261.4801,320.8691 L263.796,320.8691 Z M261.1398,313.5562 L264.1364,313.5562 L267.4816,325.9492 L265.0329,325.9492 L264.2692,322.8862 L260.9904,322.8862 L260.2433,325.9492 L257.7946,325.9492 Z " fill="#000000"/><text fill="#000000" font-family="sans-serif" font-size="12" font-style="italic" lengthAdjust="spacing" textLength="89" x="276.5207" y="324.7344">AbstractFactory</text><line style="stroke:#A80036;stroke-width:1.5;" x1="248.5207" x2="367.5207" y1="336.1992" y2="336.1992"/><line style="stroke:#A80036;stroke-width:1.5;" x1="248.5207" x2="367.5207" y1="344.1992" y2="344.1992"/><ellipse cx="258.5207" cy="355.1992" fill="#84BE84" rx="3" ry="3" style="stroke:#038048;stroke-width:1.0;"/><text fill="#000000" font-family="sans-serif" font-size="11" lengthAdjust="spacing" textLength="92" x="267.5207" y="358.834">Shape getShape()</text><ellipse cx="258.5207" cy="368.1543" fill="#84BE84" rx="3" ry="3" style="stroke:#038048;stroke-width:1.0;"/><text fill="#000000" font-family="sans-serif" font-size="11" lengthAdjust="spacing" textLength="88" x="267.5207" y="371.7891">Color getColor()</text><!--MD5=[1c573188985f4c75505740d1b2f472b4]
class ShapeFactory--><rect codeLine="21" fill="#FEFECE" filter="url(#f4h9qjbpgrmsn)" height="60.9551" id="ShapeFactory" style="stroke:#A80036;stroke-width:1.5;" width="118" x="174.0207" y="439.1992"/><ellipse cx="193.5207" cy="455.1992" fill="#ADD1B2" rx="11" ry="11" style="stroke:#A80036;stroke-width:1.0;"/><path d="M195.9938,461.3423 Q195.4127,461.6411 194.7736,461.7905 Q194.1344,461.9399 193.4289,461.9399 Q190.922,461.9399 189.6022,460.2881 Q188.2824,458.6362 188.2824,455.5151 Q188.2824,452.3857 189.6022,450.7339 Q190.922,449.082 193.4289,449.082 Q194.1344,449.082 194.7819,449.2314 Q195.4293,449.3809 195.9938,449.6797 L195.9938,452.4023 Q195.3629,451.8213 194.7694,451.5515 Q194.1759,451.2817 193.5451,451.2817 Q192.2003,451.2817 191.5155,452.3484 Q190.8307,453.415 190.8307,455.5151 Q190.8307,457.6069 191.5155,458.6736 Q192.2003,459.7402 193.5451,459.7402 Q194.1759,459.7402 194.7694,459.4705 Q195.3629,459.2007 195.9938,458.6196 Z " fill="#000000"/><text fill="#000000" font-family="sans-serif" font-size="12" lengthAdjust="spacing" textLength="76" x="208.5207" y="459.7344">ShapeFactory</text><line style="stroke:#A80036;stroke-width:1.5;" x1="175.0207" x2="291.0207" y1="471.1992" y2="471.1992"/><line style="stroke:#A80036;stroke-width:1.5;" x1="175.0207" x2="291.0207" y1="479.1992" y2="479.1992"/><ellipse cx="185.0207" cy="490.1992" fill="#84BE84" rx="3" ry="3" style="stroke:#038048;stroke-width:1.0;"/><text fill="#000000" font-family="sans-serif" font-size="11" lengthAdjust="spacing" textLength="92" x="194.0207" y="493.834">Shape getShape()</text><!--MD5=[fc8bbf7e74b642892a25205e34350ce7]
class ColorFactory--><rect codeLine="25" fill="#FEFECE" filter="url(#f4h9qjbpgrmsn)" height="60.9551" id="ColorFactory" style="stroke:#A80036;stroke-width:1.5;" width="114" x="363.0207" y="439.1992"/><ellipse cx="382.9707" cy="455.1992" fill="#ADD1B2" rx="11" ry="11" style="stroke:#A80036;stroke-width:1.0;"/><path d="M385.4438,461.3423 Q384.8627,461.6411 384.2236,461.7905 Q383.5844,461.9399 382.8789,461.9399 Q380.372,461.9399 379.0522,460.2881 Q377.7324,458.6362 377.7324,455.5151 Q377.7324,452.3857 379.0522,450.7339 Q380.372,449.082 382.8789,449.082 Q383.5844,449.082 384.2319,449.2314 Q384.8793,449.3809 385.4438,449.6797 L385.4438,452.4023 Q384.8129,451.8213 384.2194,451.5515 Q383.6259,451.2817 382.9951,451.2817 Q381.6503,451.2817 380.9655,452.3484 Q380.2807,453.415 380.2807,455.5151 Q380.2807,457.6069 380.9655,458.6736 Q381.6503,459.7402 382.9951,459.7402 Q383.6259,459.7402 384.2194,459.4705 Q384.8129,459.2007 385.4438,458.6196 Z " fill="#000000"/><text fill="#000000" font-family="sans-serif" font-size="12" lengthAdjust="spacing" textLength="71" x="398.0707" y="459.7344">ColorFactory</text><line style="stroke:#A80036;stroke-width:1.5;" x1="364.0207" x2="476.0207" y1="471.1992" y2="471.1992"/><line style="stroke:#A80036;stroke-width:1.5;" x1="364.0207" x2="476.0207" y1="479.1992" y2="479.1992"/><ellipse cx="374.0207" cy="490.1992" fill="#84BE84" rx="3" ry="3" style="stroke:#038048;stroke-width:1.0;"/><text fill="#000000" font-family="sans-serif" font-size="11" lengthAdjust="spacing" textLength="88" x="383.0207" y="493.834">Color getColor()</text><!--MD5=[57f081f39aebd2150f2af5c5b613a97e]
link AbstractFactoryPatternDemo to FactoryProducer--><path codeLine="7" d="M308.0207,89.2092 C308.0207,110.1792 308.0207,138.4392 308.0207,160.5792 " fill="none" id="AbstractFactoryPatternDemo-to-FactoryProducer" style="stroke:#A80036;stroke-width:1.0;stroke-dasharray:7.0,7.0;"/><polygon fill="#A80036" points="308.0207,165.7792,312.0207,156.7792,308.0207,160.7792,304.0207,156.7792,308.0207,165.7792" style="stroke:#A80036;stroke-width:1.0;"/><text fill="#000000" font-family="sans-serif" font-size="13" lengthAdjust="spacing" textLength="26" x="309.0207" y="132.7676">使用</text><!--MD5=[d3d52b17d2c338ac5fc5ac2124cced97]
link FactoryProducer to AbstractFactory--><path codeLine="13" d="M308.0207,227.2292 C308.0207,247.9892 308.0207,276.0592 308.0207,299.0192 " fill="none" id="FactoryProducer-to-AbstractFactory" style="stroke:#A80036;stroke-width:1.0;stroke-dasharray:7.0,7.0;"/><polygon fill="#A80036" points="308.0207,304.1392,312.0207,295.1392,308.0207,299.1392,304.0207,295.1392,308.0207,304.1392" style="stroke:#A80036;stroke-width:1.0;"/><text fill="#000000" font-family="sans-serif" font-size="13" lengthAdjust="spacing" textLength="65" x="309.0207" y="270.7676">工厂创造器</text><!--MD5=[a9a0600d4864155e85d9d3b5f918df9a]
reverse link AbstractFactory to ShapeFactory--><path d="M276.2207,395.8292 C267.4907,410.5592 258.3407,425.9892 250.7207,438.8392 " fill="none" id="AbstractFactory-backto-ShapeFactory" style="stroke:#A80036;stroke-width:1.0;"/><polygon fill="none" points="270.3107,392.0792,286.5307,378.4492,282.3507,399.2192,270.3107,392.0792" style="stroke:#A80036;stroke-width:1.0;"/><!--MD5=[40600c56b52225d28ccaab1daec18903]
reverse link AbstractFactory to ColorFactory--><path d="M353.7907,393.8992 C367.3307,409.1892 381.7007,425.4192 393.5907,438.8392 " fill="none" id="AbstractFactory-backto-ColorFactory" style="stroke:#A80036;stroke-width:1.0;"/><polygon fill="none" points="348.1307,398.0592,340.1107,378.4492,358.6107,388.7792,348.1307,398.0592" style="stroke:#A80036;stroke-width:1.0;"/><!--MD5=[a9d89294f39c0d502e8a17934fdd3975]
link ShapeFactory to factoryShape--><path codeLine="30" d="M173.9507,477.9092 C125.6907,487.1392 59.9407,508.0592 25.0207,555.1992 C22.1744,559.0417 19.9002,563.2514 18.1012,567.683 C17.6515,568.7909 17.2314,569.9127 16.8396,571.046 " fill="none" id="ShapeFactory-to-factoryShape" style="stroke:#A80036;stroke-width:1.0;stroke-dasharray:7.0,7.0;"/><polygon fill="#A80036" points="16.8396,571.046,23.5608,563.8471,18.4734,566.3205,16,561.233,16.8396,571.046" style="stroke:#A80036;stroke-width:1.0;"/><text fill="#000000" font-family="sans-serif" font-size="13" lengthAdjust="spacing" textLength="65" x="47.0207" y="543.7676">创建工厂类</text><!--MD5=[d2a25aa3616d3002be926e22145ae408]
link ColorFactory to factoryColor--><path codeLine="33" d="M426.2107,500.4392 C431.2757,524.7842 438.5757,559.8692 444.6844,589.2242 C445.448,592.8936 446.193,596.4734 446.9127,599.9316 C447.2725,601.6607 447.626,603.3593 447.9723,605.0235 " fill="none" id="ColorFactory-to-factoryColor" style="stroke:#A80036;stroke-width:1.0;stroke-dasharray:7.0,7.0;"/><polygon fill="#A80036" points="447.9723,605.0235,450.0547,595.3973,446.9536,600.1284,442.2225,597.0273,447.9723,605.0235" style="stroke:#A80036;stroke-width:1.0;"/><text fill="#000000" font-family="sans-serif" font-size="13" lengthAdjust="spacing" textLength="65" x="436.0207" y="543.7676">创建工厂类</text><!--MD5=[d637a7d0c5b779627461b5a6979d5756]
reverse link Shape to Circle--><path codeLine="50" d="M131.7107,684.8792 C116.6107,694.9192 104.2807,703.4092 103.0207,705.1992 C93.4207,718.8592 88.6607,736.8792 86.3007,751.9892 " fill="none" id="Shape-backto-Circle" style="stroke:#A80036;stroke-width:1.0;stroke-dasharray:7.0,7.0;"/><polygon fill="none" points="128.2507,678.7792,148.8007,673.6292,135.9507,690.4692,128.2507,678.7792" style="stroke:#A80036;stroke-width:1.0;"/><text fill="#000000" font-family="sans-serif" font-size="13" lengthAdjust="spacing" textLength="74" x="104.0207" y="718.7676">implements</text><!--MD5=[d4ca5a4026589bf67f913f07d54add2c]
reverse link Shape to Square--><path codeLine="51" d="M187.6207,695.2692 C187.5207,704.2592 187.8707,713.5292 189.0207,722.1992 C190.3207,732.0592 192.7907,742.6092 195.4107,752.0492 " fill="none" id="Shape-backto-Square" style="stroke:#A80036;stroke-width:1.0;stroke-dasharray:7.0,7.0;"/><polygon fill="none" points="180.6307,694.8892,188.5307,675.2292,194.6107,695.5292,180.6307,694.8892" style="stroke:#A80036;stroke-width:1.0;"/><text fill="#000000" font-family="sans-serif" font-size="13" lengthAdjust="spacing" textLength="74" x="190.0207" y="718.7676">implements</text><!--MD5=[793668fe740f4b06a80dd095381d024c]
reverse link Shape to Rectangle--><path codeLine="52" d="M250.2807,688.0192 C256.8307,693.5592 263.2207,699.3392 269.0207,705.1992 C283.1007,719.4092 296.7207,737.0992 307.2207,751.8992 " fill="none" id="Shape-backto-Rectangle" style="stroke:#A80036;stroke-width:1.0;stroke-dasharray:7.0,7.0;"/><polygon fill="none" points="245.6607,693.2892,234.4607,675.2992,254.4307,682.3792,245.6607,693.2892" style="stroke:#A80036;stroke-width:1.0;"/><text fill="#000000" font-family="sans-serif" font-size="13" lengthAdjust="spacing" textLength="74" x="284.0207" y="718.7676">implements</text><!--MD5=[fab54b5999e935266d298ad54749f91a]
reverse link Color to Red--><path codeLine="68" d="M577.0807,682.6992 C563.5807,688.9892 554.3707,690.8692 543.0207,705.1992 C532.3107,718.7192 525.8907,736.9092 522.1107,752.1592 " fill="none" id="Color-backto-Red" style="stroke:#A80036;stroke-width:1.0;stroke-dasharray:7.0,7.0;"/><polygon fill="none" points="573.6307,676.6092,594.4807,672.8192,580.5407,688.7792,573.6307,676.6092" style="stroke:#A80036;stroke-width:1.0;"/><text fill="#000000" font-family="sans-serif" font-size="13" lengthAdjust="spacing" textLength="74" x="544.0207" y="718.7676">implements</text><!--MD5=[9b9d24ea93eb20378c733f632b2003b3]
reverse link Color to Green--><path codeLine="69" d="M628.3307,695.4192 C628.2007,698.7292 628.1007,702.0092 628.0207,705.1992 C627.6307,720.6092 628.2107,737.7692 628.9607,751.9192 " fill="none" id="Color-backto-Green" style="stroke:#A80036;stroke-width:1.0;stroke-dasharray:7.0,7.0;"/><polygon fill="none" points="621.3407,695.0092,629.2307,675.3492,635.3207,695.6392,621.3407,695.0092" style="stroke:#A80036;stroke-width:1.0;"/><text fill="#000000" font-family="sans-serif" font-size="13" lengthAdjust="spacing" textLength="74" x="629.0207" y="718.7676">implements</text><!--MD5=[43364a787a1aa71eb994c83faab9e0a3]
reverse link Color to Blue--><path codeLine="70" d="M683.4507,681.1092 C692.2707,688.4392 700.8807,696.5792 708.0207,705.1992 C719.5307,719.0892 728.8707,736.9392 735.5307,751.8992 " fill="none" id="Color-backto-Blue" style="stroke:#A80036;stroke-width:1.0;stroke-dasharray:7.0,7.0;"/><polygon fill="none" points="679.1207,686.6092,667.5807,668.8392,687.6807,675.5292,679.1207,686.6092" style="stroke:#A80036;stroke-width:1.0;"/><text fill="#000000" font-family="sans-serif" font-size="13" lengthAdjust="spacing" textLength="74" x="719.0207" y="718.7676">implements</text><!--MD5=[fad8ba0457494442dd8c0101ae259ed3]
@startuml
Title 设计模式-抽象工厂模式

class AbstractFactoryPatternDemo{
    + void main()
}

AbstractFactoryPatternDemo ..> FactoryProducer:使用

class FactoryProducer{
   + AbstractFactory getFactory()
}

FactoryProducer ..> AbstractFactory :工厂创造器

abstract class AbstractFactory{
     + Shape getShape()
     + Color getColor()
}


class ShapeFactory extends AbstractFactory{
    + Shape getShape()
}

class ColorFactory extends AbstractFactory{
    + Color getColor()
}


ShapeFactory ..> factoryShape :创建工厂类
' FactoryPatternDemo ..> ShapeFactory :使用工厂

ColorFactory ..> factoryColor :创建工厂类
' FactoryPatternDemo ..> ShapeFactory :使用工厂


package factoryShape <<Rectangle>> {
    interface Shape{
        + void draw()
    }
    class Circle{
        + void draw()
    }
    class Square{
        + void draw()
    }
    class Rectangle{
        + void draw()
    }
    Shape <|.. Circle:implements
    Shape <|.. Square:implements
    Shape <|.. Rectangle:implements
}

package factoryColor <<Rectangle>> {
    interface Color{
        + void fill()
    }
    class Red{
        + void fill()
    }
    class Green{
        + void fill()
    }
    class Blue{
        + void fill()
    }
    Color <|.. Red:implements
    Color <|.. Green:implements
    Color <|.. Blue:implements
}

@enduml

@startuml
Title 设计模式-抽象工厂模式

class AbstractFactoryPatternDemo{
    + void main()
}

AbstractFactoryPatternDemo ..> FactoryProducer:使用

class FactoryProducer{
   + AbstractFactory getFactory()
}

FactoryProducer ..> AbstractFactory :工厂创造器

abstract class AbstractFactory{
     + Shape getShape()
     + Color getColor()
}


class ShapeFactory extends AbstractFactory{
    + Shape getShape()
}

class ColorFactory extends AbstractFactory{
    + Color getColor()
}


ShapeFactory ..> factoryShape :创建工厂类

ColorFactory ..> factoryColor :创建工厂类


package factoryShape <<Rectangle>> {
    interface Shape{
        + void draw()
    }
    class Circle{
        + void draw()
    }
    class Square{
        + void draw()
    }
    class Rectangle{
        + void draw()
    }
    Shape <|.. Circle:implements
    Shape <|.. Square:implements
    Shape <|.. Rectangle:implements
}

package factoryColor <<Rectangle>> {
    interface Color{
        + void fill()
    }
    class Red{
        + void fill()
    }
    class Green{
        + void fill()
    }
    class Blue{
        + void fill()
    }
    Color <|.. Red:implements
    Color <|.. Green:implements
    Color <|.. Blue:implements
}

@enduml

PlantUML version 1.2021.7(Sun May 23 20:40:07 CST 2021)
(GPL source distribution)
Java Runtime: OpenJDK Runtime Environment
JVM: OpenJDK 64-Bit Server VM
Default Encoding: UTF-8
Language: zh
Country: CN
--></g></svg>