<?xml version="1.0" encoding="UTF-8" standalone="no"?><svg xmlns="http://www.w3.org/2000/svg" xmlns:xlink="http://www.w3.org/1999/xlink" contentScriptType="application/ecmascript" contentStyleType="text/css" height="894px" preserveAspectRatio="none" style="width:680px;height:894px;background:#FFFFFF;" version="1.1" viewBox="0 0 680 894" width="680px" zoomAndPan="magnify"><defs><filter height="300%" id="f8i30efur30i1" width="300%" x="-1" y="-1"><feGaussianBlur result="blurOut" stdDeviation="2.0"/><feColorMatrix in="blurOut" result="blurOut2" type="matrix" values="0 0 0 0 0 0 0 0 0 0 0 0 0 0 0 0 0 0 .4 0"/><feOffset dx="4.0" dy="4.0" in="blurOut2" result="blurOut3"/><feBlend in="SourceGraphic" in2="blurOut3" mode="normal"/></filter></defs><g><text fill="#000000" font-family="sans-serif" font-size="18" lengthAdjust="spacing" textLength="208" x="229.5" y="17.4023">设计模式-拦截过滤器模式</text><!--MD5=[bddb511951cf0a1d6a79f67b0c2ed87d]
class Filter--><rect codeLine="3" fill="#FEFECE" filter="url(#f8i30efur30i1)" height="60.9551" id="Filter" style="stroke:#A80036;stroke-width:1.5;" width="178" x="132" y="697.1992"/><ellipse cx="202.75" cy="713.1992" fill="#B4A7E5" rx="11" ry="11" style="stroke:#A80036;stroke-width:1.0;"/><path d="M199.1777,709.4644 L199.1777,707.3062 L206.5571,707.3062 L206.5571,709.4644 L204.0918,709.4644 L204.0918,717.541 L206.5571,717.541 L206.5571,719.6992 L199.1777,719.6992 L199.1777,717.541 L201.6431,717.541 L201.6431,709.4644 Z " fill="#000000"/><text fill="#000000" font-family="sans-serif" font-size="12" font-style="italic" lengthAdjust="spacing" textLength="28" x="223.25" y="717.7344">Filter</text><line style="stroke:#A80036;stroke-width:1.5;" x1="133" x2="309" y1="729.1992" y2="729.1992"/><line style="stroke:#A80036;stroke-width:1.5;" x1="133" x2="309" y1="737.1992" y2="737.1992"/><ellipse cx="143" cy="748.1992" fill="#84BE84" rx="3" ry="3" style="stroke:#038048;stroke-width:1.0;"/><text fill="#000000" font-family="sans-serif" font-size="11" lengthAdjust="spacing" textLength="152" x="152" y="751.834">void execute(String request)</text><!--MD5=[47203c3ec102b8e95ada774b9956c5eb]
class AuthenticationFilter--><rect codeLine="7" fill="#FEFECE" filter="url(#f8i30efur30i1)" height="60.9551" id="AuthenticationFilter" style="stroke:#A80036;stroke-width:1.5;" width="178" x="7" y="819.1992"/><ellipse cx="38.65" cy="835.1992" fill="#ADD1B2" rx="11" ry="11" style="stroke:#A80036;stroke-width:1.0;"/><path d="M41.1231,841.3423 Q40.5421,841.6411 39.9029,841.7905 Q39.2638,841.9399 38.5582,841.9399 Q36.0514,841.9399 34.7315,840.2881 Q33.4117,838.6362 33.4117,835.5151 Q33.4117,832.3857 34.7315,830.7339 Q36.0514,829.082 38.5582,829.082 Q39.2638,829.082 39.9112,829.2314 Q40.5587,829.3809 41.1231,829.6797 L41.1231,832.4023 Q40.4923,831.8213 39.8988,831.5515 Q39.3053,831.2817 38.6744,831.2817 Q37.3297,831.2817 36.6449,832.3484 Q35.9601,833.415 35.9601,835.5151 Q35.9601,837.6069 36.6449,838.6736 Q37.3297,839.7402 38.6744,839.7402 Q39.3053,839.7402 39.8988,839.4705 Q40.4923,839.2007 41.1231,838.6196 Z " fill="#000000"/><text fill="#000000" font-family="sans-serif" font-size="12" lengthAdjust="spacing" textLength="109" x="56.35" y="839.7344">AuthenticationFilter</text><line style="stroke:#A80036;stroke-width:1.5;" x1="8" x2="184" y1="851.1992" y2="851.1992"/><line style="stroke:#A80036;stroke-width:1.5;" x1="8" x2="184" y1="859.1992" y2="859.1992"/><ellipse cx="18" cy="870.1992" fill="#84BE84" rx="3" ry="3" style="stroke:#038048;stroke-width:1.0;"/><text fill="#000000" font-family="sans-serif" font-size="11" lengthAdjust="spacing" textLength="152" x="27" y="873.834">void execute(String request)</text><!--MD5=[f6d7ae31760d337291a69b8d18dc8483]
class DebugFilter--><rect codeLine="11" fill="#FEFECE" filter="url(#f8i30efur30i1)" height="60.9551" id="DebugFilter" style="stroke:#A80036;stroke-width:1.5;" width="178" x="357" y="819.1992"/><ellipse cx="408.75" cy="835.1992" fill="#ADD1B2" rx="11" ry="11" style="stroke:#A80036;stroke-width:1.0;"/><path d="M411.2231,841.3423 Q410.6421,841.6411 410.0029,841.7905 Q409.3638,841.9399 408.6582,841.9399 Q406.1514,841.9399 404.8315,840.2881 Q403.5117,838.6362 403.5117,835.5151 Q403.5117,832.3857 404.8315,830.7339 Q406.1514,829.082 408.6582,829.082 Q409.3638,829.082 410.0112,829.2314 Q410.6587,829.3809 411.2231,829.6797 L411.2231,832.4023 Q410.5923,831.8213 409.9988,831.5515 Q409.4053,831.2817 408.7744,831.2817 Q407.4297,831.2817 406.7449,832.3484 Q406.0601,833.415 406.0601,835.5151 Q406.0601,837.6069 406.7449,838.6736 Q407.4297,839.7402 408.7744,839.7402 Q409.4053,839.7402 409.9988,839.4705 Q410.5923,839.2007 411.2231,838.6196 Z " fill="#000000"/><text fill="#000000" font-family="sans-serif" font-size="12" lengthAdjust="spacing" textLength="66" x="429.25" y="839.7344">DebugFilter</text><line style="stroke:#A80036;stroke-width:1.5;" x1="358" x2="534" y1="851.1992" y2="851.1992"/><line style="stroke:#A80036;stroke-width:1.5;" x1="358" x2="534" y1="859.1992" y2="859.1992"/><ellipse cx="368" cy="870.1992" fill="#84BE84" rx="3" ry="3" style="stroke:#038048;stroke-width:1.0;"/><text fill="#000000" font-family="sans-serif" font-size="11" lengthAdjust="spacing" textLength="152" x="377" y="873.834">void execute(String request)</text><!--MD5=[fc07866a383d07d405a25512054a0e5c]
class Target--><rect codeLine="15" fill="#FEFECE" filter="url(#f8i30efur30i1)" height="60.9551" id="Target" style="stroke:#A80036;stroke-width:1.5;" width="178" x="345" y="697.1992"/><ellipse cx="410.75" cy="713.1992" fill="#ADD1B2" rx="11" ry="11" style="stroke:#A80036;stroke-width:1.0;"/><path d="M413.2231,719.3423 Q412.6421,719.6411 412.0029,719.7905 Q411.3638,719.9399 410.6582,719.9399 Q408.1514,719.9399 406.8315,718.2881 Q405.5117,716.6362 405.5117,713.5151 Q405.5117,710.3857 406.8315,708.7339 Q408.1514,707.082 410.6582,707.082 Q411.3638,707.082 412.0112,707.2314 Q412.6587,707.3809 413.2231,707.6797 L413.2231,710.4023 Q412.5923,709.8213 411.9988,709.5515 Q411.4053,709.2817 410.7744,709.2817 Q409.4297,709.2817 408.7449,710.3484 Q408.0601,711.415 408.0601,713.5151 Q408.0601,715.6069 408.7449,716.6736 Q409.4297,717.7402 410.7744,717.7402 Q411.4053,717.7402 411.9988,717.4705 Q412.5923,717.2007 413.2231,716.6196 Z " fill="#000000"/><text fill="#000000" font-family="sans-serif" font-size="12" lengthAdjust="spacing" textLength="38" x="431.25" y="717.7344">Target</text><line style="stroke:#A80036;stroke-width:1.5;" x1="346" x2="522" y1="729.1992" y2="729.1992"/><line style="stroke:#A80036;stroke-width:1.5;" x1="346" x2="522" y1="737.1992" y2="737.1992"/><ellipse cx="356" cy="748.1992" fill="#84BE84" rx="3" ry="3" style="stroke:#038048;stroke-width:1.0;"/><text fill="#000000" font-family="sans-serif" font-size="11" lengthAdjust="spacing" textLength="152" x="365" y="751.834">void execute(String request)</text><!--MD5=[ac4ec0718dfdad7e4e3685e941f34e29]
class FilterChain--><rect codeLine="19" fill="#FEFECE" filter="url(#f8i30efur30i1)" height="112.7754" id="FilterChain" style="stroke:#A80036;stroke-width:1.5;" width="181" x="233.5" y="507.1992"/><ellipse cx="289.75" cy="523.1992" fill="#ADD1B2" rx="11" ry="11" style="stroke:#A80036;stroke-width:1.0;"/><path d="M292.2231,529.3423 Q291.6421,529.6411 291.0029,529.7905 Q290.3638,529.9399 289.6582,529.9399 Q287.1514,529.9399 285.8315,528.2881 Q284.5117,526.6362 284.5117,523.5151 Q284.5117,520.3857 285.8315,518.7339 Q287.1514,517.082 289.6582,517.082 Q290.3638,517.082 291.0112,517.2314 Q291.6587,517.3809 292.2231,517.6797 L292.2231,520.4023 Q291.5923,519.8213 290.9988,519.5515 Q290.4053,519.2817 289.7744,519.2817 Q288.4297,519.2817 287.7449,520.3484 Q287.0601,521.415 287.0601,523.5151 Q287.0601,525.6069 287.7449,526.6736 Q288.4297,527.7402 289.7744,527.7402 Q290.4053,527.7402 290.9988,527.4705 Q291.5923,527.2007 292.2231,526.6196 Z " fill="#000000"/><text fill="#000000" font-family="sans-serif" font-size="12" lengthAdjust="spacing" textLength="60" x="310.25" y="527.7344">FilterChain</text><line style="stroke:#A80036;stroke-width:1.5;" x1="234.5" x2="413.5" y1="539.1992" y2="539.1992"/><rect fill="none" height="6" style="stroke:#C82930;stroke-width:1.0;" width="6" x="241.5" y="547.1992"/><text fill="#000000" font-family="sans-serif" font-size="11" lengthAdjust="spacing" textLength="98" x="253.5" y="553.834">List&lt;Filter&gt; filters</text><rect fill="none" height="6" style="stroke:#C82930;stroke-width:1.0;" width="6" x="241.5" y="560.1543"/><text fill="#000000" font-family="sans-serif" font-size="11" lengthAdjust="spacing" textLength="73" x="253.5" y="566.7891">Target target;</text><line style="stroke:#A80036;stroke-width:1.5;" x1="234.5" x2="413.5" y1="573.1094" y2="573.1094"/><ellipse cx="244.5" cy="584.1094" fill="#84BE84" rx="3" ry="3" style="stroke:#038048;stroke-width:1.0;"/><text fill="#000000" font-family="sans-serif" font-size="11" lengthAdjust="spacing" textLength="136" x="253.5" y="587.7441">void addFilter(Filter filter)</text><ellipse cx="244.5" cy="597.0645" fill="#84BE84" rx="3" ry="3" style="stroke:#038048;stroke-width:1.0;"/><text fill="#000000" font-family="sans-serif" font-size="11" lengthAdjust="spacing" textLength="152" x="253.5" y="600.6992">void execute(String request)</text><ellipse cx="244.5" cy="610.0195" fill="#84BE84" rx="3" ry="3" style="stroke:#038048;stroke-width:1.0;"/><text fill="#000000" font-family="sans-serif" font-size="11" lengthAdjust="spacing" textLength="155" x="253.5" y="613.6543">void setTarget(Target target)</text><!--MD5=[fefbd9e3f258518c5b93369807aada2d]
class FilterManager--><rect codeLine="27" fill="#FEFECE" filter="url(#f8i30efur30i1)" height="99.8203" id="FilterManager" style="stroke:#A80036;stroke-width:1.5;" width="204" x="222" y="330.1992"/><ellipse cx="280.75" cy="346.1992" fill="#ADD1B2" rx="11" ry="11" style="stroke:#A80036;stroke-width:1.0;"/><path d="M283.2231,352.3423 Q282.6421,352.6411 282.0029,352.7905 Q281.3638,352.9399 280.6582,352.9399 Q278.1514,352.9399 276.8315,351.2881 Q275.5117,349.6362 275.5117,346.5151 Q275.5117,343.3857 276.8315,341.7339 Q278.1514,340.082 280.6582,340.082 Q281.3638,340.082 282.0112,340.2314 Q282.6587,340.3809 283.2231,340.6797 L283.2231,343.4023 Q282.5923,342.8213 281.9988,342.5515 Q281.4053,342.2817 280.7744,342.2817 Q279.4297,342.2817 278.7449,343.3484 Q278.0601,344.415 278.0601,346.5151 Q278.0601,348.6069 278.7449,349.6736 Q279.4297,350.7402 280.7744,350.7402 Q281.4053,350.7402 281.9988,350.4705 Q282.5923,350.2007 283.2231,349.6196 Z " fill="#000000"/><text fill="#000000" font-family="sans-serif" font-size="12" lengthAdjust="spacing" textLength="78" x="301.25" y="350.7344">FilterManager</text><line style="stroke:#A80036;stroke-width:1.5;" x1="223" x2="425" y1="362.1992" y2="362.1992"/><polygon fill="none" points="233,369.1992,229,375.1992,237,375.1992" style="stroke:#1963A0;stroke-width:1.0;"/><text fill="#000000" font-family="sans-serif" font-size="11" lengthAdjust="spacing" textLength="117" x="242" y="376.834">FilterChain filterChain</text><line style="stroke:#A80036;stroke-width:1.5;" x1="223" x2="425" y1="383.1543" y2="383.1543"/><ellipse cx="233" cy="394.1543" fill="#84BE84" rx="3" ry="3" style="stroke:#038048;stroke-width:1.0;"/><text fill="#000000" font-family="sans-serif" font-size="11" lengthAdjust="spacing" textLength="151" x="242" y="397.7891">FilterManager(Target target)</text><ellipse cx="233" cy="407.1094" fill="#84BE84" rx="3" ry="3" style="stroke:#038048;stroke-width:1.0;"/><text fill="#000000" font-family="sans-serif" font-size="11" lengthAdjust="spacing" textLength="132" x="242" y="410.7441">void setFilter(Filter filter)</text><ellipse cx="233" cy="420.0645" fill="#84BE84" rx="3" ry="3" style="stroke:#038048;stroke-width:1.0;"/><text fill="#000000" font-family="sans-serif" font-size="11" lengthAdjust="spacing" textLength="178" x="242" y="423.6992">void filterRequest(String request)</text><!--MD5=[ed6624c6556d5e7b1bd23032162d20b7]
class Client--><rect codeLine="34" fill="#FEFECE" filter="url(#f8i30efur30i1)" height="86.8652" id="Client" style="stroke:#A80036;stroke-width:1.5;" width="296" x="72" y="166.1992"/><ellipse cx="199.75" cy="182.1992" fill="#ADD1B2" rx="11" ry="11" style="stroke:#A80036;stroke-width:1.0;"/><path d="M202.2231,188.3423 Q201.6421,188.6411 201.0029,188.7905 Q200.3638,188.9399 199.6582,188.9399 Q197.1514,188.9399 195.8315,187.2881 Q194.5117,185.6362 194.5117,182.5151 Q194.5117,179.3857 195.8315,177.7339 Q197.1514,176.082 199.6582,176.082 Q200.3638,176.082 201.0112,176.2314 Q201.6587,176.3809 202.2231,176.6797 L202.2231,179.4023 Q201.5923,178.8213 200.9988,178.5515 Q200.4053,178.2817 199.7744,178.2817 Q198.4297,178.2817 197.7449,179.3484 Q197.0601,180.415 197.0601,182.5151 Q197.0601,184.6069 197.7449,185.6736 Q198.4297,186.7402 199.7744,186.7402 Q200.4053,186.7402 200.9988,186.4705 Q201.5923,186.2007 202.2231,185.6196 Z " fill="#000000"/><text fill="#000000" font-family="sans-serif" font-size="12" lengthAdjust="spacing" textLength="32" x="220.25" y="186.7344">Client</text><line style="stroke:#A80036;stroke-width:1.5;" x1="73" x2="367" y1="198.1992" y2="198.1992"/><polygon fill="none" points="83,205.1992,79,211.1992,87,211.1992" style="stroke:#1963A0;stroke-width:1.0;"/><text fill="#000000" font-family="sans-serif" font-size="11" lengthAdjust="spacing" textLength="147" x="92" y="212.834">FilterManager filterManager</text><line style="stroke:#A80036;stroke-width:1.5;" x1="73" x2="367" y1="219.1543" y2="219.1543"/><ellipse cx="83" cy="230.1543" fill="#84BE84" rx="3" ry="3" style="stroke:#038048;stroke-width:1.0;"/><text fill="#000000" font-family="sans-serif" font-size="11" lengthAdjust="spacing" textLength="270" x="92" y="233.7891">void setFilterManager(FilterManager filterManager)</text><ellipse cx="83" cy="243.1094" fill="#84BE84" rx="3" ry="3" style="stroke:#038048;stroke-width:1.0;"/><text fill="#000000" font-family="sans-serif" font-size="11" lengthAdjust="spacing" textLength="179" x="92" y="246.7441">void sendRequest(String request)</text><!--MD5=[e6f8407938834da894f2bb9aa9412749]
class InterceptingFilterDemo--><rect codeLine="40" fill="#FEFECE" filter="url(#f8i30efur30i1)" height="60.9551" id="InterceptingFilterDemo" style="stroke:#A80036;stroke-width:1.5;" width="162" x="300" y="28.1992"/><ellipse cx="315" cy="44.1992" fill="#ADD1B2" rx="11" ry="11" style="stroke:#A80036;stroke-width:1.0;"/><path d="M317.4731,50.3423 Q316.8921,50.6411 316.2529,50.7905 Q315.6138,50.9399 314.9082,50.9399 Q312.4014,50.9399 311.0815,49.2881 Q309.7617,47.6362 309.7617,44.5151 Q309.7617,41.3857 311.0815,39.7339 Q312.4014,38.082 314.9082,38.082 Q315.6138,38.082 316.2612,38.2314 Q316.9087,38.3809 317.4731,38.6797 L317.4731,41.4023 Q316.8423,40.8213 316.2488,40.5515 Q315.6553,40.2817 315.0244,40.2817 Q313.6797,40.2817 312.9949,41.3484 Q312.3101,42.415 312.3101,44.5151 Q312.3101,46.6069 312.9949,47.6736 Q313.6797,48.7402 315.0244,48.7402 Q315.6553,48.7402 316.2488,48.4705 Q316.8423,48.2007 317.4731,47.6196 Z " fill="#000000"/><text fill="#000000" font-family="sans-serif" font-size="12" lengthAdjust="spacing" textLength="130" x="329" y="48.7344">InterceptingFilterDemo</text><line style="stroke:#A80036;stroke-width:1.5;" x1="301" x2="461" y1="60.1992" y2="60.1992"/><line style="stroke:#A80036;stroke-width:1.5;" x1="301" x2="461" y1="68.1992" y2="68.1992"/><ellipse cx="311" cy="79.1992" fill="#84BE84" rx="3" ry="3" style="stroke:#038048;stroke-width:1.0;"/><text fill="#000000" font-family="sans-serif" font-size="11" lengthAdjust="spacing" text-decoration="underline" textLength="127" x="320" y="82.834">void main(String[] args)</text><!--MD5=[121cdded0af1b64f231486ef4da5af01]
reverse link Filter to AuthenticationFilter--><path d="M175.33,772.5392 C159.25,787.9792 141.56,804.9592 126.98,818.9592 " fill="none" id="Filter-backto-AuthenticationFilter" style="stroke:#A80036;stroke-width:1.0;stroke-dasharray:7.0,7.0;"/><polygon fill="none" points="170.83,767.1592,190.1,758.3592,180.52,777.2592,170.83,767.1592" style="stroke:#A80036;stroke-width:1.0;"/><!--MD5=[ae3a2d0882aa3c6e79224317385a7928]
reverse link Filter to DebugFilter--><path d="M294.14,767.7092 C325.46,784.4092 361.42,803.5892 390.49,819.0992 " fill="none" id="Filter-backto-DebugFilter" style="stroke:#A80036;stroke-width:1.0;stroke-dasharray:7.0,7.0;"/><polygon fill="none" points="290.68,773.7992,276.33,758.2092,297.27,761.4392,290.68,773.7992" style="stroke:#A80036;stroke-width:1.0;"/><!--MD5=[2410d2a62c3e26306f72e406010ec3b5]
link FilterChain to Target--><path codeLine="44" d="M368.5983,630.3787 C368.5983,630.3787 395.1,669.4092 406.3,685.9092 " fill="none" id="FilterChain-Target" style="stroke:#A80036;stroke-width:1.0;"/><polygon fill="#A80036" points="413.7,696.8092,411.9561,687.116,410.8924,692.6719,405.3364,691.6082,413.7,696.8092" style="stroke:#A80036;stroke-width:1.0;"/><line style="stroke:#A80036;stroke-width:1.0;" x1="410.8924" x2="406.405" y1="692.6719" y2="686.0542"/><polygon fill="#FFFFFF" points="361.86,620.4492,361.9193,627.6601,368.5983,630.3787,368.539,623.1679,361.86,620.4492" style="stroke:#A80036;stroke-width:1.0;"/><text fill="#000000" font-family="sans-serif" font-size="13" lengthAdjust="spacing" textLength="33" x="393" y="663.7676">has a</text><!--MD5=[194b04a12f580a26e1544bc70b8ad8e0]
link FilterChain to Filter--><path codeLine="45" d="M282.1143,630.5775 C282.1143,630.5775 257.67,669.0292 247.24,685.4292 " fill="none" id="FilterChain-Filter" style="stroke:#A80036;stroke-width:1.0;"/><polygon fill="#A80036" points="240,696.8092,248.2029,691.3582,242.6815,692.5891,241.4507,687.0678,240,696.8092" style="stroke:#A80036;stroke-width:1.0;"/><line style="stroke:#A80036;stroke-width:1.0;" x1="242.6815" x2="246.98" y1="692.5891" y2="685.8392"/><polygon fill="#FFFFFF" points="288.55,620.4492,281.9561,623.3681,282.1143,630.5775,288.7083,627.6586,288.55,620.4492" style="stroke:#A80036;stroke-width:1.0;"/><text fill="#000000" font-family="sans-serif" font-size="13" lengthAdjust="spacing" textLength="33" x="270" y="663.7676">has a</text><!--MD5=[79c3dd707a49146071ecef5493f8d277]
link FilterManager to FilterChain--><path codeLine="46" d="M324,442.3192 C324,442.3192 324,477.4792 324,494.0892 " fill="none" id="FilterManager-FilterChain" style="stroke:#A80036;stroke-width:1.0;"/><polygon fill="#A80036" points="324,507.1392,328,498.1392,324,502.1392,320,498.1392,324,507.1392" style="stroke:#A80036;stroke-width:1.0;"/><line style="stroke:#A80036;stroke-width:1.0;" x1="324" x2="324" y1="502.1392" y2="494.1392"/><polygon fill="#FFFFFF" points="324,430.3192,320,436.3192,324,442.3192,328,436.3192,324,430.3192" style="stroke:#A80036;stroke-width:1.0;"/><text fill="#000000" font-family="sans-serif" font-size="13" lengthAdjust="spacing" textLength="33" x="325" y="473.7676">has a</text><!--MD5=[9f63030136d11a817b56d6a9f7ce10f1]
link Client to FilterManager--><path codeLine="47" d="M252.5454,263.4291 C252.5454,263.4291 275.88,301.2392 286.85,318.9992 " fill="none" id="Client-FilterManager" style="stroke:#A80036;stroke-width:1.0;"/><polygon fill="#A80036" points="293.71,330.1192,292.3843,320.36,291.0828,325.8651,285.5777,324.5636,293.71,330.1192" style="stroke:#A80036;stroke-width:1.0;"/><line style="stroke:#A80036;stroke-width:1.0;" x1="291.0828" x2="286.88" y1="325.8651" y2="319.0592"/><polygon fill="#FFFFFF" points="246.24,253.2192,245.9894,260.426,252.5454,263.4291,252.796,256.2224,246.24,253.2192" style="stroke:#A80036;stroke-width:1.0;"/><text fill="#000000" font-family="sans-serif" font-size="13" lengthAdjust="spacing" textLength="33" x="276" y="296.7676">has a</text><!--MD5=[8075e5665b12adffe3e7e2b184241f09]
link InterceptingFilterDemo to Client--><path codeLine="48" d="M348.81,89.4892 C326.24,110.3792 295.64,138.6992 269.92,162.4992 " fill="none" id="InterceptingFilterDemo-to-Client" style="stroke:#A80036;stroke-width:1.0;stroke-dasharray:7.0,7.0;"/><polygon fill="#A80036" points="266.17,165.9692,275.4912,162.7889,269.8385,162.5719,270.0555,156.9192,266.17,165.9692" style="stroke:#A80036;stroke-width:1.0;"/><text fill="#000000" font-family="sans-serif" font-size="13" lengthAdjust="spacing" textLength="89" x="315" y="132.7676">依赖使用 use a</text><!--MD5=[5f591bd5cde2a8d17f8b36cc79ba9938]
link InterceptingFilterDemo to FilterManager--><path codeLine="49" d="M400.66,89.3992 C405.7,98.5692 410.42,108.9592 413,119.1992 C414.85,126.5292 413.85,128.6892 413,136.1992 C406.96,189.2192 403.9,202.9192 386,253.1992 C377.3,277.6392 365.11,303.5392 353.85,325.4592 " fill="none" id="InterceptingFilterDemo-to-FilterManager" style="stroke:#A80036;stroke-width:1.0;stroke-dasharray:7.0,7.0;"/><polygon fill="#A80036" points="351.46,330.0692,359.1579,323.9258,353.7645,325.632,352.0583,320.2386,351.46,330.0692" style="stroke:#A80036;stroke-width:1.0;"/><text fill="#000000" font-family="sans-serif" font-size="13" lengthAdjust="spacing" textLength="89" x="410" y="214.7676">依赖使用 use a</text><!--MD5=[aafcd6b31ae63be2508f38e3f176203d]
link InterceptingFilterDemo to AuthenticationFilter--><path codeLine="50" d="M299.76,76.1192 C193.03,100.0792 19,148.3792 19,208.6992 C19,208.6992 19,208.6992 19,728.6992 C19,761.6892 39.87,792.8592 59.88,815.1592 " fill="none" id="InterceptingFilterDemo-to-AuthenticationFilter" style="stroke:#A80036;stroke-width:1.0;stroke-dasharray:7.0,7.0;"/><polygon fill="#A80036" points="63.35,818.9392,60.2269,809.5986,59.9753,815.2499,54.324,814.9982,63.35,818.9392" style="stroke:#A80036;stroke-width:1.0;"/><text fill="#000000" font-family="sans-serif" font-size="13" lengthAdjust="spacing" textLength="89" x="20" y="473.7676">依赖使用 use a</text><!--MD5=[ef909482a2e90aea394c3e67c8c14fab]
link InterceptingFilterDemo to DebugFilter--><path codeLine="51" d="M462.18,84.1492 C517.96,106.5492 582,145.9292 582,208.6992 C582,208.6992 582,208.6992 582,728.6992 C582,767.4192 550.62,796.6392 518,816.5392 " fill="none" id="InterceptingFilterDemo-to-DebugFilter" style="stroke:#A80036;stroke-width:1.0;stroke-dasharray:7.0,7.0;"/><polygon fill="#A80036" points="513.6,819.1592,523.3783,817.9827,517.8938,816.5973,519.2792,811.1127,513.6,819.1592" style="stroke:#A80036;stroke-width:1.0;"/><text fill="#000000" font-family="sans-serif" font-size="13" lengthAdjust="spacing" textLength="89" x="583" y="473.7676">依赖使用 use a</text><!--MD5=[69c0d1620d125ee9e8195a7bbb30487b]
@startuml
Title 设计模式-拦截过滤器模式

interface Filter {
   + void execute(String request)
}

class AuthenticationFilter implements Filter {
   + void execute(String request)
}

class DebugFilter implements Filter {
   + void execute(String request)
}

class Target {
   + void execute(String request)
}

class FilterChain {
   - List<Filter> filters
   - Target target;
   + void addFilter(Filter filter)
   + void execute(String request)
   + void setTarget(Target target)
}

class FilterManager {
   ~ FilterChain filterChain
   + FilterManager(Target target)
   + void setFilter(Filter filter)
   + void filterRequest(String request)
}

class Client {
   ~ FilterManager filterManager
   + void setFilterManager(FilterManager filterManager)
   + void sendRequest(String request)
}

class InterceptingFilterDemo {
   + {static} void main(String[] args)
}

FilterChain o- -> Target:has a
FilterChain o- -> Filter:has a
FilterManager o- -> FilterChain:has a
Client o- -> FilterManager:has a
InterceptingFilterDemo ..> Client:依赖使用 use a
InterceptingFilterDemo ..> FilterManager:依赖使用 use a
InterceptingFilterDemo ..> AuthenticationFilter:依赖使用 use a
InterceptingFilterDemo ..> DebugFilter:依赖使用 use a


@enduml

PlantUML version 1.2021.7(Sun May 23 20:40:07 CST 2021)
(GPL source distribution)
Java Runtime: OpenJDK Runtime Environment
JVM: OpenJDK 64-Bit Server VM
Default Encoding: UTF-8
Language: zh
Country: CN
--></g></svg>