<?xml version="1.0" encoding="UTF-8" standalone="no"?><svg xmlns="http://www.w3.org/2000/svg" xmlns:xlink="http://www.w3.org/1999/xlink" contentScriptType="application/ecmascript" contentStyleType="text/css" height="746px" preserveAspectRatio="none" style="width:602px;height:746px;background:#FFFFFF;" version="1.1" viewBox="0 0 602 746" width="602px" zoomAndPan="magnify"><defs><filter height="300%" id="f11pva3rgozqgm" width="300%" x="-1" y="-1"><feGaussianBlur result="blurOut" stdDeviation="2.0"/><feColorMatrix in="blurOut" result="blurOut2" type="matrix" values="0 0 0 0 0 0 0 0 0 0 0 0 0 0 0 0 0 0 .4 0"/><feOffset dx="4.0" dy="4.0" in="blurOut2" result="blurOut3"/><feBlend in="SourceGraphic" in2="blurOut3" mode="normal"/></filter></defs><g><text fill="#000000" font-family="sans-serif" font-size="18" lengthAdjust="spacing" textLength="208" x="190.5" y="17.4023">设计模式-服务定位器模式</text><!--MD5=[dbb8b4f13c7b21394f9d757e58732f45]
class Service--><rect codeLine="3" fill="#FEFECE" filter="url(#f11pva3rgozqgm)" height="73.9102" id="Service" style="stroke:#A80036;stroke-width:1.5;" width="116" x="332" y="507.1992"/><ellipse cx="366.8" cy="523.1992" fill="#B4A7E5" rx="11" ry="11" style="stroke:#A80036;stroke-width:1.0;"/><path d="M363.2277,519.4644 L363.2277,517.3062 L370.6071,517.3062 L370.6071,519.4644 L368.1418,519.4644 L368.1418,527.541 L370.6071,527.541 L370.6071,529.6992 L363.2277,529.6992 L363.2277,527.541 L365.6931,527.541 L365.6931,519.4644 Z " fill="#000000"/><text fill="#000000" font-family="sans-serif" font-size="12" font-style="italic" lengthAdjust="spacing" textLength="40" x="385.2" y="527.7344">Service</text><line style="stroke:#A80036;stroke-width:1.5;" x1="333" x2="447" y1="539.1992" y2="539.1992"/><line style="stroke:#A80036;stroke-width:1.5;" x1="333" x2="447" y1="547.1992" y2="547.1992"/><ellipse cx="343" cy="558.1992" fill="#84BE84" rx="3" ry="3" style="stroke:#038048;stroke-width:1.0;"/><text fill="#000000" font-family="sans-serif" font-size="11" lengthAdjust="spacing" textLength="90" x="352" y="561.834">String getName()</text><ellipse cx="343" cy="571.1543" fill="#84BE84" rx="3" ry="3" style="stroke:#038048;stroke-width:1.0;"/><text fill="#000000" font-family="sans-serif" font-size="11" lengthAdjust="spacing" textLength="76" x="352" y="574.7891">void execute()</text><!--MD5=[0c7f1b6d58003bf892f8fa19cfc8d4db]
class Service1--><rect codeLine="8" fill="#FEFECE" filter="url(#f11pva3rgozqgm)" height="73.9102" id="Service1" style="stroke:#A80036;stroke-width:1.5;" width="116" x="113" y="658.1992"/><ellipse cx="144.2" cy="674.1992" fill="#ADD1B2" rx="11" ry="11" style="stroke:#A80036;stroke-width:1.0;"/><path d="M146.6731,680.3423 Q146.0921,680.6411 145.4529,680.7905 Q144.8138,680.9399 144.1082,680.9399 Q141.6014,680.9399 140.2815,679.2881 Q138.9617,677.6362 138.9617,674.5151 Q138.9617,671.3857 140.2815,669.7339 Q141.6014,668.082 144.1082,668.082 Q144.8138,668.082 145.4612,668.2314 Q146.1087,668.3809 146.6731,668.6797 L146.6731,671.4023 Q146.0423,670.8213 145.4488,670.5515 Q144.8553,670.2817 144.2244,670.2817 Q142.8797,670.2817 142.1949,671.3484 Q141.5101,672.415 141.5101,674.5151 Q141.5101,676.6069 142.1949,677.6736 Q142.8797,678.7402 144.2244,678.7402 Q144.8553,678.7402 145.4488,678.4705 Q146.0423,678.2007 146.6731,677.6196 Z " fill="#000000"/><text fill="#000000" font-family="sans-serif" font-size="12" lengthAdjust="spacing" textLength="48" x="161.8" y="678.7344">Service1</text><line style="stroke:#A80036;stroke-width:1.5;" x1="114" x2="228" y1="690.1992" y2="690.1992"/><line style="stroke:#A80036;stroke-width:1.5;" x1="114" x2="228" y1="698.1992" y2="698.1992"/><ellipse cx="124" cy="709.1992" fill="#84BE84" rx="3" ry="3" style="stroke:#038048;stroke-width:1.0;"/><text fill="#000000" font-family="sans-serif" font-size="11" lengthAdjust="spacing" textLength="76" x="133" y="712.834">void execute()</text><ellipse cx="124" cy="722.1543" fill="#84BE84" rx="3" ry="3" style="stroke:#038048;stroke-width:1.0;"/><text fill="#000000" font-family="sans-serif" font-size="11" lengthAdjust="spacing" textLength="90" x="133" y="725.7891">String getName()</text><!--MD5=[dc909085dc51ba963cad0526ff95c51e]
class Service2--><rect codeLine="13" fill="#FEFECE" filter="url(#f11pva3rgozqgm)" height="73.9102" id="Service2" style="stroke:#A80036;stroke-width:1.5;" width="116" x="298" y="658.1992"/><ellipse cx="329.2" cy="674.1992" fill="#ADD1B2" rx="11" ry="11" style="stroke:#A80036;stroke-width:1.0;"/><path d="M331.6731,680.3423 Q331.0921,680.6411 330.4529,680.7905 Q329.8138,680.9399 329.1082,680.9399 Q326.6014,680.9399 325.2815,679.2881 Q323.9617,677.6362 323.9617,674.5151 Q323.9617,671.3857 325.2815,669.7339 Q326.6014,668.082 329.1082,668.082 Q329.8138,668.082 330.4612,668.2314 Q331.1087,668.3809 331.6731,668.6797 L331.6731,671.4023 Q331.0423,670.8213 330.4488,670.5515 Q329.8553,670.2817 329.2244,670.2817 Q327.8797,670.2817 327.1949,671.3484 Q326.5101,672.415 326.5101,674.5151 Q326.5101,676.6069 327.1949,677.6736 Q327.8797,678.7402 329.2244,678.7402 Q329.8553,678.7402 330.4488,678.4705 Q331.0423,678.2007 331.6731,677.6196 Z " fill="#000000"/><text fill="#000000" font-family="sans-serif" font-size="12" lengthAdjust="spacing" textLength="48" x="346.8" y="678.7344">Service2</text><line style="stroke:#A80036;stroke-width:1.5;" x1="299" x2="413" y1="690.1992" y2="690.1992"/><line style="stroke:#A80036;stroke-width:1.5;" x1="299" x2="413" y1="698.1992" y2="698.1992"/><ellipse cx="309" cy="709.1992" fill="#84BE84" rx="3" ry="3" style="stroke:#038048;stroke-width:1.0;"/><text fill="#000000" font-family="sans-serif" font-size="11" lengthAdjust="spacing" textLength="76" x="318" y="712.834">void execute()</text><ellipse cx="309" cy="722.1543" fill="#84BE84" rx="3" ry="3" style="stroke:#038048;stroke-width:1.0;"/><text fill="#000000" font-family="sans-serif" font-size="11" lengthAdjust="spacing" textLength="90" x="318" y="725.7891">String getName()</text><!--MD5=[806cea427422a717e28e6e21ca2070d4]
class InitialContext--><rect codeLine="18" fill="#FEFECE" filter="url(#f11pva3rgozqgm)" height="60.9551" id="InitialContext" style="stroke:#A80036;stroke-width:1.5;" width="194" x="7" y="513.6992"/><ellipse cx="62.75" cy="529.6992" fill="#ADD1B2" rx="11" ry="11" style="stroke:#A80036;stroke-width:1.0;"/><path d="M65.2231,535.8423 Q64.6421,536.1411 64.0029,536.2905 Q63.3638,536.4399 62.6582,536.4399 Q60.1514,536.4399 58.8315,534.7881 Q57.5117,533.1362 57.5117,530.0151 Q57.5117,526.8857 58.8315,525.2339 Q60.1514,523.582 62.6582,523.582 Q63.3638,523.582 64.0112,523.7314 Q64.6587,523.8809 65.2231,524.1797 L65.2231,526.9023 Q64.5923,526.3213 63.9988,526.0515 Q63.4053,525.7817 62.7744,525.7817 Q61.4297,525.7817 60.7449,526.8484 Q60.0601,527.915 60.0601,530.0151 Q60.0601,532.1069 60.7449,533.1736 Q61.4297,534.2402 62.7744,534.2402 Q63.4053,534.2402 63.9988,533.9705 Q64.5923,533.7007 65.2231,533.1196 Z " fill="#000000"/><text fill="#000000" font-family="sans-serif" font-size="12" lengthAdjust="spacing" textLength="74" x="83.25" y="534.2344">InitialContext</text><line style="stroke:#A80036;stroke-width:1.5;" x1="8" x2="200" y1="545.6992" y2="545.6992"/><line style="stroke:#A80036;stroke-width:1.5;" x1="8" x2="200" y1="553.6992" y2="553.6992"/><ellipse cx="18" cy="564.6992" fill="#84BE84" rx="3" ry="3" style="stroke:#038048;stroke-width:1.0;"/><text fill="#000000" font-family="sans-serif" font-size="11" lengthAdjust="spacing" textLength="168" x="27" y="568.334">Object lookup(String jndiName)</text><!--MD5=[cf7212f148c2a2f46c357ea31d18a0ad]
class Cache--><rect codeLine="22" fill="#FEFECE" filter="url(#f11pva3rgozqgm)" height="99.8203" id="Cache" style="stroke:#A80036;stroke-width:1.5;" width="233" x="226.5" y="330.1992"/><ellipse cx="321.25" cy="346.1992" fill="#ADD1B2" rx="11" ry="11" style="stroke:#A80036;stroke-width:1.0;"/><path d="M323.7231,352.3423 Q323.1421,352.6411 322.5029,352.7905 Q321.8638,352.9399 321.1582,352.9399 Q318.6514,352.9399 317.3315,351.2881 Q316.0117,349.6362 316.0117,346.5151 Q316.0117,343.3857 317.3315,341.7339 Q318.6514,340.082 321.1582,340.082 Q321.8638,340.082 322.5112,340.2314 Q323.1587,340.3809 323.7231,340.6797 L323.7231,343.4023 Q323.0923,342.8213 322.4988,342.5515 Q321.9053,342.2817 321.2744,342.2817 Q319.9297,342.2817 319.2449,343.3484 Q318.5601,344.415 318.5601,346.5151 Q318.5601,348.6069 319.2449,349.6736 Q319.9297,350.7402 321.2744,350.7402 Q321.9053,350.7402 322.4988,350.4705 Q323.0923,350.2007 323.7231,349.6196 Z " fill="#000000"/><text fill="#000000" font-family="sans-serif" font-size="12" lengthAdjust="spacing" textLength="35" x="341.75" y="350.7344">Cache</text><line style="stroke:#A80036;stroke-width:1.5;" x1="227.5" x2="458.5" y1="362.1992" y2="362.1992"/><rect fill="none" height="6" style="stroke:#C82930;stroke-width:1.0;" width="6" x="234.5" y="370.1992"/><text fill="#000000" font-family="sans-serif" font-size="11" lengthAdjust="spacing" textLength="122" x="246.5" y="376.834">List&lt;Service&gt; services</text><line style="stroke:#A80036;stroke-width:1.5;" x1="227.5" x2="458.5" y1="383.1543" y2="383.1543"/><ellipse cx="237.5" cy="394.1543" fill="#84BE84" rx="3" ry="3" style="stroke:#038048;stroke-width:1.0;"/><text fill="#000000" font-family="sans-serif" font-size="11" lengthAdjust="spacing" textLength="41" x="246.5" y="397.7891">Cache()</text><ellipse cx="237.5" cy="407.1094" fill="#84BE84" rx="3" ry="3" style="stroke:#038048;stroke-width:1.0;"/><text fill="#000000" font-family="sans-serif" font-size="11" lengthAdjust="spacing" textLength="207" x="246.5" y="410.7441">Service getService(String serviceName)</text><ellipse cx="237.5" cy="420.0645" fill="#84BE84" rx="3" ry="3" style="stroke:#038048;stroke-width:1.0;"/><text fill="#000000" font-family="sans-serif" font-size="11" lengthAdjust="spacing" textLength="192" x="246.5" y="423.6992">void addService(Service newService)</text><!--MD5=[1e01740ac65d9cfc5dbad37d18c706e8]
class ServiceLocator--><rect codeLine="29" fill="#FEFECE" filter="url(#f11pva3rgozqgm)" height="86.8652" id="ServiceLocator" style="stroke:#A80036;stroke-width:1.5;" width="247" x="212.5" y="166.1992"/><ellipse cx="290.75" cy="182.1992" fill="#ADD1B2" rx="11" ry="11" style="stroke:#A80036;stroke-width:1.0;"/><path d="M293.2231,188.3423 Q292.6421,188.6411 292.0029,188.7905 Q291.3638,188.9399 290.6582,188.9399 Q288.1514,188.9399 286.8315,187.2881 Q285.5117,185.6362 285.5117,182.5151 Q285.5117,179.3857 286.8315,177.7339 Q288.1514,176.082 290.6582,176.082 Q291.3638,176.082 292.0112,176.2314 Q292.6587,176.3809 293.2231,176.6797 L293.2231,179.4023 Q292.5923,178.8213 291.9988,178.5515 Q291.4053,178.2817 290.7744,178.2817 Q289.4297,178.2817 288.7449,179.3484 Q288.0601,180.415 288.0601,182.5151 Q288.0601,184.6069 288.7449,185.6736 Q289.4297,186.7402 290.7744,186.7402 Q291.4053,186.7402 291.9988,186.4705 Q292.5923,186.2007 293.2231,185.6196 Z " fill="#000000"/><text fill="#000000" font-family="sans-serif" font-size="12" lengthAdjust="spacing" textLength="82" x="311.25" y="186.7344">ServiceLocator</text><line style="stroke:#A80036;stroke-width:1.5;" x1="213.5" x2="458.5" y1="198.1992" y2="198.1992"/><rect fill="none" height="6" style="stroke:#C82930;stroke-width:1.0;" width="6" x="220.5" y="206.1992"/><text fill="#000000" font-family="sans-serif" font-size="11" lengthAdjust="spacing" text-decoration="underline" textLength="67" x="232.5" y="212.834">Cache cache</text><polygon fill="none" points="223.5,218.1543,219.5,224.1543,227.5,224.1543" style="stroke:#1963A0;stroke-width:1.0;"/><text fill="#000000" font-family="sans-serif" font-size="11" lengthAdjust="spacing" text-decoration="underline" textLength="8" x="232.5" y="225.7891">{}</text><line style="stroke:#A80036;stroke-width:1.5;" x1="213.5" x2="458.5" y1="232.1094" y2="232.1094"/><ellipse cx="223.5" cy="243.1094" fill="#84BE84" rx="3" ry="3" style="stroke:#038048;stroke-width:1.0;"/><text fill="#000000" font-family="sans-serif" font-size="11" lengthAdjust="spacing" textLength="221" x="232.5" y="246.7441">static Service getService(String jndiName)</text><!--MD5=[d2aa4ccb4efcd4b1b0110062e814458e]
class ServiceLocatorPatternDemo--><rect codeLine="35" fill="#FEFECE" filter="url(#f11pva3rgozqgm)" height="60.9551" id="ServiceLocatorPatternDemo" style="stroke:#A80036;stroke-width:1.5;" width="189" x="330.5" y="28.1992"/><ellipse cx="345.5" cy="44.1992" fill="#ADD1B2" rx="11" ry="11" style="stroke:#A80036;stroke-width:1.0;"/><path d="M347.9731,50.3423 Q347.3921,50.6411 346.7529,50.7905 Q346.1138,50.9399 345.4082,50.9399 Q342.9014,50.9399 341.5815,49.2881 Q340.2617,47.6362 340.2617,44.5151 Q340.2617,41.3857 341.5815,39.7339 Q342.9014,38.082 345.4082,38.082 Q346.1138,38.082 346.7612,38.2314 Q347.4087,38.3809 347.9731,38.6797 L347.9731,41.4023 Q347.3423,40.8213 346.7488,40.5515 Q346.1553,40.2817 345.5244,40.2817 Q344.1797,40.2817 343.4949,41.3484 Q342.8101,42.415 342.8101,44.5151 Q342.8101,46.6069 343.4949,47.6736 Q344.1797,48.7402 345.5244,48.7402 Q346.1553,48.7402 346.7488,48.4705 Q347.3423,48.2007 347.9731,47.6196 Z " fill="#000000"/><text fill="#000000" font-family="sans-serif" font-size="12" lengthAdjust="spacing" textLength="157" x="359.5" y="48.7344">ServiceLocatorPatternDemo</text><line style="stroke:#A80036;stroke-width:1.5;" x1="331.5" x2="518.5" y1="60.1992" y2="60.1992"/><line style="stroke:#A80036;stroke-width:1.5;" x1="331.5" x2="518.5" y1="68.1992" y2="68.1992"/><ellipse cx="341.5" cy="79.1992" fill="#84BE84" rx="3" ry="3" style="stroke:#038048;stroke-width:1.0;"/><text fill="#000000" font-family="sans-serif" font-size="11" lengthAdjust="spacing" text-decoration="underline" textLength="127" x="350.5" y="82.834">void main(String[] args)</text><!--MD5=[0ede193d7b68843ee288efa260ff9895]
reverse link Service to Service1--><path d="M356.58,597.9192 C347.91,608.9092 337.91,619.7192 327,628.1992 C298.1,650.6692 260.41,666.8992 229.32,677.6392 " fill="none" id="Service-backto-Service1" style="stroke:#A80036;stroke-width:1.0;stroke-dasharray:7.0,7.0;"/><polygon fill="none" points="351.22,593.3992,368.66,581.3792,362.52,601.6592,351.22,593.3992" style="stroke:#A80036;stroke-width:1.0;"/><!--MD5=[3ffdce2bb0102b2f52753c244156a703]
reverse link Service to Service2--><path d="M377.27,600.9992 C372.92,620.0492 368.18,640.8392 364.27,657.9492 " fill="none" id="Service-backto-Service2" style="stroke:#A80036;stroke-width:1.0;stroke-dasharray:7.0,7.0;"/><polygon fill="none" points="370.5,599.2092,381.77,581.2692,384.14,602.3192,370.5,599.2092" style="stroke:#A80036;stroke-width:1.0;"/><!--MD5=[5daa4a5f26c76850ec8d65ead925e940]
link InitialContext to Service1--><path codeLine="40" d="M96.9,574.7692 C94.42,591.1492 93.8,611.5192 101,628.1992 C105.09,637.6892 111.3,646.4492 118.36,654.2692 " fill="none" id="InitialContext-to-Service1" style="stroke:#A80036;stroke-width:1.0;stroke-dasharray:7.0,7.0;"/><polygon fill="#A80036" points="121.88,658.0392,118.6439,648.7372,118.4608,654.3911,112.8069,654.208,121.88,658.0392" style="stroke:#A80036;stroke-width:1.0;"/><text fill="#000000" font-family="sans-serif" font-size="13" lengthAdjust="spacing" textLength="89" x="102" y="624.7676">依赖使用 use a</text><!--MD5=[4e167b6dab7d7b46686b1b19bc649331]
link InitialContext to Service2--><path codeLine="41" d="M154.09,574.8192 C194.05,598.4492 250.27,631.6792 293.23,657.0892 " fill="none" id="InitialContext-to-Service2" style="stroke:#A80036;stroke-width:1.0;stroke-dasharray:7.0,7.0;"/><polygon fill="#A80036" points="297.61,659.6792,291.8993,651.655,293.3062,657.1341,287.8271,658.5411,297.61,659.6792" style="stroke:#A80036;stroke-width:1.0;"/><text fill="#000000" font-family="sans-serif" font-size="13" lengthAdjust="spacing" textLength="89" x="239" y="624.7676">依赖使用 use a</text><!--MD5=[04f3e2d8e17b73550373ed10a1c66f48]
link Cache to Service--><path codeLine="42" d="M357.23,430.2392 C363.91,453.2692 371.78,480.4092 378.14,502.3092 " fill="none" id="Cache-to-Service" style="stroke:#A80036;stroke-width:1.0;stroke-dasharray:7.0,7.0;"/><polygon fill="#A80036" points="379.55,507.1892,380.8968,497.4329,378.1632,502.3854,373.2107,499.6518,379.55,507.1892" style="stroke:#A80036;stroke-width:1.0;"/><text fill="#000000" font-family="sans-serif" font-size="13" lengthAdjust="spacing" textLength="89" x="372" y="473.7676">依赖使用 use a</text><!--MD5=[04f3e2d8e17b73550373ed10a1c66f48]
link Cache to Service--><path codeLine="43" d="M320.3301,442.468 C320.3301,442.468 319.65,466.7092 324,477.1992 C326.9,484.1992 330.94,490.8492 335.61,497.0292 " fill="none" id="Cache-Service" style="stroke:#A80036;stroke-width:1.0;"/><polygon fill="#A80036" points="343.98,506.9892,341.2579,497.524,340.7656,503.1594,335.1302,502.6671,343.98,506.9892" style="stroke:#A80036;stroke-width:1.0;"/><line style="stroke:#A80036;stroke-width:1.0;" x1="340.7656" x2="335.615" y1="503.1594" y2="497.0342"/><polygon fill="#FFFFFF" points="322.35,430.6392,317.3971,435.8803,320.3301,442.468,325.283,437.2269,322.35,430.6392" style="stroke:#A80036;stroke-width:1.0;"/><text fill="#000000" font-family="sans-serif" font-size="13" lengthAdjust="spacing" textLength="33" x="325" y="473.7676">has a</text><!--MD5=[0b7a18e964dc97d67aee74b92b00fcd8]
link ServiceLocator to Cache--><path codeLine="44" d="M338.2712,265.2087 C338.2712,265.2087 339.73,300.4692 340.42,317.0992 " fill="none" id="ServiceLocator-Cache" style="stroke:#A80036;stroke-width:1.0;"/><polygon fill="#A80036" points="340.96,330.1192,344.5907,320.964,340.7566,325.1234,336.5973,321.2893,340.96,330.1192" style="stroke:#A80036;stroke-width:1.0;"/><line style="stroke:#A80036;stroke-width:1.0;" x1="340.7566" x2="340.425" y1="325.1234" y2="317.1342"/><polygon fill="#FFFFFF" points="337.77,253.2192,334.0241,259.3811,338.2712,265.2087,342.0171,259.0469,337.77,253.2192" style="stroke:#A80036;stroke-width:1.0;"/><text fill="#000000" font-family="sans-serif" font-size="13" lengthAdjust="spacing" textLength="33" x="341" y="296.7676">has a</text><!--MD5=[065b870f6ad864547f2fc9d707eb80a6]
link ServiceLocator to InitialContext--><path codeLine="45" d="M201.5973,257.4511 C201.5973,257.4511 137.68,299.3292 118,330.1992 C85.25,381.5692 88.79,454.7892 95.51,500.6192 " fill="none" id="ServiceLocator-InitialContext" style="stroke:#A80036;stroke-width:1.0;"/><polygon fill="#A80036" points="97.62,513.6292,100.1342,504.1067,96.823,508.6932,92.2365,505.3819,97.62,513.6292" style="stroke:#A80036;stroke-width:1.0;"/><line style="stroke:#A80036;stroke-width:1.0;" x1="96.823" x2="95.54" y1="508.6932" y2="500.7942"/><polygon fill="#FFFFFF" points="212.22,251.8692,205.048,251.1192,201.5973,257.4511,208.7693,258.2011,212.22,251.8692" style="stroke:#A80036;stroke-width:1.0;"/><text fill="#000000" font-family="sans-serif" font-size="13" lengthAdjust="spacing" textLength="89" x="119" y="385.2676">依赖使用 use a</text><!--MD5=[cef554258af480b2acaab2c154f86c6d]
link ServiceLocatorPatternDemo to ServiceLocator--><path codeLine="46" d="M407.2,89.4892 C394.88,110.1192 378.23,137.9992 364.12,161.6192 " fill="none" id="ServiceLocatorPatternDemo-to-ServiceLocator" style="stroke:#A80036;stroke-width:1.0;stroke-dasharray:7.0,7.0;"/><polygon fill="#A80036" points="361.52,165.9692,369.5721,160.2979,364.0862,161.678,362.7061,156.192,361.52,165.9692" style="stroke:#A80036;stroke-width:1.0;"/><text fill="#000000" font-family="sans-serif" font-size="13" lengthAdjust="spacing" textLength="89" x="390" y="132.7676">依赖使用 use a</text><!--MD5=[29d372693adf3ecdc982b016852971b5]
link ServiceLocatorPatternDemo to Service--><path codeLine="47" d="M466.31,89.4092 C475.1,97.9392 483.18,108.0092 488,119.1992 C542.75,246.2092 489.79,292.4792 477,430.1992 C475.05,451.2292 480.39,458.8092 470,477.1992 C464.59,486.7592 457.22,495.5192 449.13,503.3092 " fill="none" id="ServiceLocatorPatternDemo-to-Service" style="stroke:#A80036;stroke-width:1.0;stroke-dasharray:7.0,7.0;"/><polygon fill="#A80036" points="445.1,507.0492,454.4212,503.8689,448.7685,503.6519,448.9855,497.9992,445.1,507.0492" style="stroke:#A80036;stroke-width:1.0;"/><text fill="#000000" font-family="sans-serif" font-size="13" lengthAdjust="spacing" textLength="89" x="505" y="296.7676">依赖使用 use a</text><!--MD5=[26e0b23402b667eb50750bd6594d15f8]
@startuml
Title 设计模式-服务定位器模式

interface Service {
   + String getName()
   + void execute()
}

class Service1 implements Service {
   + void execute()
   + String getName()
}

class Service2 implements Service {
   + void execute()
   + String getName() 
}

class InitialContext {
   + Object lookup(String jndiName)
}

class Cache {
   - List<Service> services
   + Cache()
   + Service getService(String serviceName)
   + void addService(Service newService)
}

class ServiceLocator {
   - {static} Cache cache
   ~ {static}{}
   + static Service getService(String jndiName)
}

class ServiceLocatorPatternDemo {
   + {static} void main(String[] args)
}


InitialContext ..> Service1:依赖使用 use a
InitialContext ..> Service2:依赖使用 use a
Cache ..> Service:依赖使用 use a
Cache o- -> Service:has a
ServiceLocator o- -> Cache:has a
ServiceLocator o- -> InitialContext:依赖使用 use a
ServiceLocatorPatternDemo ..> ServiceLocator:依赖使用 use a
ServiceLocatorPatternDemo ..> Service:依赖使用 use a

@enduml

PlantUML version 1.2021.7(Sun May 23 20:40:07 CST 2021)
(GPL source distribution)
Java Runtime: OpenJDK Runtime Environment
JVM: OpenJDK 64-Bit Server VM
Default Encoding: UTF-8
Language: zh
Country: CN
--></g></svg>