<?xml version="1.0" encoding="UTF-8" standalone="no"?><svg xmlns="http://www.w3.org/2000/svg" xmlns:xlink="http://www.w3.org/1999/xlink" contentScriptType="application/ecmascript" contentStyleType="text/css" height="516px" preserveAspectRatio="none" style="width:659px;height:516px;background:#FFFFFF;" version="1.1" viewBox="0 0 659 516" width="659px" zoomAndPan="magnify"><defs><filter height="300%" id="f1ghpqhws2swzy" width="300%" x="-1" y="-1"><feGaussianBlur result="blurOut" stdDeviation="2.0"/><feColorMatrix in="blurOut" result="blurOut2" type="matrix" values="0 0 0 0 0 0 0 0 0 0 0 0 0 0 0 0 0 0 .4 0"/><feOffset dx="4.0" dy="4.0" in="blurOut2" result="blurOut3"/><feBlend in="SourceGraphic" in2="blurOut3" mode="normal"/></filter></defs><g><text fill="#000000" font-family="sans-serif" font-size="18" lengthAdjust="spacing" textLength="172" x="237" y="17.4023">设计模式-备忘录模式</text><!--MD5=[868d05e6e0f72a047bc0a2d0d45522fa]
cluster 备忘录--><rect fill="#FFFFFF" filter="url(#f1ghpqhws2swzy)" height="344" style="stroke:#000000;stroke-width:1.5;" width="568" x="79" y="160.1992"/><text fill="#000000" font-family="sans-serif" font-size="14" font-weight="bold" lengthAdjust="spacing" textLength="42" x="342" y="175.7344">备忘录</text><!--MD5=[b8338156e8cd96c783f5ffc7d8021ea7]
class Memento--><rect codeLine="4" fill="#FEFECE" filter="url(#f1ghpqhws2swzy)" height="86.8652" id="Memento" style="stroke:#A80036;stroke-width:1.5;" width="144" x="226" y="393.1992"/><ellipse cx="267.55" cy="409.1992" fill="#ADD1B2" rx="11" ry="11" style="stroke:#A80036;stroke-width:1.0;"/><path d="M270.0231,415.3423 Q269.4421,415.6411 268.8029,415.7905 Q268.1638,415.9399 267.4582,415.9399 Q264.9514,415.9399 263.6315,414.2881 Q262.3117,412.6362 262.3117,409.5151 Q262.3117,406.3857 263.6315,404.7339 Q264.9514,403.082 267.4582,403.082 Q268.1638,403.082 268.8112,403.2314 Q269.4587,403.3809 270.0231,403.6797 L270.0231,406.4023 Q269.3923,405.8213 268.7988,405.5515 Q268.2053,405.2817 267.5744,405.2817 Q266.2297,405.2817 265.5449,406.3484 Q264.8601,407.415 264.8601,409.5151 Q264.8601,411.6069 265.5449,412.6736 Q266.2297,413.7402 267.5744,413.7402 Q268.2053,413.7402 268.7988,413.4705 Q269.3923,413.2007 270.0231,412.6196 Z " fill="#000000"/><text fill="#000000" font-family="sans-serif" font-size="12" lengthAdjust="spacing" textLength="53" x="287.45" y="413.7344">Memento</text><line style="stroke:#A80036;stroke-width:1.5;" x1="227" x2="369" y1="425.1992" y2="425.1992"/><rect fill="none" height="6" style="stroke:#C82930;stroke-width:1.0;" width="6" x="234" y="433.1992"/><text fill="#000000" font-family="sans-serif" font-size="11" lengthAdjust="spacing" textLength="64" x="246" y="439.834">String state;</text><line style="stroke:#A80036;stroke-width:1.5;" x1="227" x2="369" y1="446.1543" y2="446.1543"/><ellipse cx="237" cy="457.1543" fill="#84BE84" rx="3" ry="3" style="stroke:#038048;stroke-width:1.0;"/><text fill="#000000" font-family="sans-serif" font-size="11" lengthAdjust="spacing" textLength="118" x="246" y="460.7891">Memento(String state)</text><ellipse cx="237" cy="470.1094" fill="#84BE84" rx="3" ry="3" style="stroke:#038048;stroke-width:1.0;"/><text fill="#000000" font-family="sans-serif" font-size="11" lengthAdjust="spacing" textLength="86" x="246" y="473.7441">String getState()</text><!--MD5=[7741422977f4247944b44037bf409cca]
class Originator--><rect codeLine="10" fill="#FEFECE" filter="url(#f1ghpqhws2swzy)" height="112.7754" id="Originator" style="stroke:#A80036;stroke-width:1.5;" width="281" x="341.5" y="203.1992"/><ellipse cx="449.25" cy="219.1992" fill="#ADD1B2" rx="11" ry="11" style="stroke:#A80036;stroke-width:1.0;"/><path d="M451.7231,225.3423 Q451.1421,225.6411 450.5029,225.7905 Q449.8638,225.9399 449.1582,225.9399 Q446.6514,225.9399 445.3315,224.2881 Q444.0117,222.6362 444.0117,219.5151 Q444.0117,216.3857 445.3315,214.7339 Q446.6514,213.082 449.1582,213.082 Q449.8638,213.082 450.5112,213.2314 Q451.1587,213.3809 451.7231,213.6797 L451.7231,216.4023 Q451.0923,215.8213 450.4988,215.5515 Q449.9053,215.2817 449.2744,215.2817 Q447.9297,215.2817 447.2449,216.3484 Q446.5601,217.415 446.5601,219.5151 Q446.5601,221.6069 447.2449,222.6736 Q447.9297,223.7402 449.2744,223.7402 Q449.9053,223.7402 450.4988,223.4705 Q451.0923,223.2007 451.7231,222.6196 Z " fill="#000000"/><text fill="#000000" font-family="sans-serif" font-size="12" lengthAdjust="spacing" textLength="57" x="469.75" y="223.7344">Originator</text><line style="stroke:#A80036;stroke-width:1.5;" x1="342.5" x2="621.5" y1="235.1992" y2="235.1992"/><rect fill="none" height="6" style="stroke:#C82930;stroke-width:1.0;" width="6" x="349.5" y="243.1992"/><text fill="#000000" font-family="sans-serif" font-size="11" lengthAdjust="spacing" textLength="64" x="361.5" y="249.834">String state;</text><line style="stroke:#A80036;stroke-width:1.5;" x1="342.5" x2="621.5" y1="256.1543" y2="256.1543"/><ellipse cx="352.5" cy="267.1543" fill="#84BE84" rx="3" ry="3" style="stroke:#038048;stroke-width:1.0;"/><text fill="#000000" font-family="sans-serif" font-size="11" lengthAdjust="spacing" textLength="137" x="361.5" y="270.7891">void setState(String state)</text><ellipse cx="352.5" cy="280.1094" fill="#84BE84" rx="3" ry="3" style="stroke:#038048;stroke-width:1.0;"/><text fill="#000000" font-family="sans-serif" font-size="11" lengthAdjust="spacing" textLength="86" x="361.5" y="283.7441">String getState()</text><ellipse cx="352.5" cy="293.0645" fill="#84BE84" rx="3" ry="3" style="stroke:#038048;stroke-width:1.0;"/><text fill="#000000" font-family="sans-serif" font-size="11" lengthAdjust="spacing" textLength="173" x="361.5" y="296.6992">Memento saveStateToMemento()</text><ellipse cx="352.5" cy="306.0195" fill="#84BE84" rx="3" ry="3" style="stroke:#038048;stroke-width:1.0;"/><text fill="#000000" font-family="sans-serif" font-size="11" lengthAdjust="spacing" textLength="255" x="361.5" y="309.6543">void getStateFromMemento(Memento Memento)</text><!--MD5=[97623df425179619299c02e71393d6f5]
class CareTaker--><rect codeLine="20" fill="#FEFECE" filter="url(#f1ghpqhws2swzy)" height="86.8652" id="CareTaker" style="stroke:#A80036;stroke-width:1.5;" width="184" x="122" y="216.1992"/><ellipse cx="179.25" cy="232.1992" fill="#ADD1B2" rx="11" ry="11" style="stroke:#A80036;stroke-width:1.0;"/><path d="M181.7231,238.3423 Q181.1421,238.6411 180.5029,238.7905 Q179.8638,238.9399 179.1582,238.9399 Q176.6514,238.9399 175.3315,237.2881 Q174.0117,235.6362 174.0117,232.5151 Q174.0117,229.3857 175.3315,227.7339 Q176.6514,226.082 179.1582,226.082 Q179.8638,226.082 180.5112,226.2314 Q181.1587,226.3809 181.7231,226.6797 L181.7231,229.4023 Q181.0923,228.8213 180.4988,228.5515 Q179.9053,228.2817 179.2744,228.2817 Q177.9297,228.2817 177.2449,229.3484 Q176.5601,230.415 176.5601,232.5151 Q176.5601,234.6069 177.2449,235.6736 Q177.9297,236.7402 179.2744,236.7402 Q179.9053,236.7402 180.4988,236.4705 Q181.0923,236.2007 181.7231,235.6196 Z " fill="#000000"/><text fill="#000000" font-family="sans-serif" font-size="12" lengthAdjust="spacing" textLength="61" x="199.75" y="236.7344">CareTaker</text><line style="stroke:#A80036;stroke-width:1.5;" x1="123" x2="305" y1="248.1992" y2="248.1992"/><rect fill="none" height="6" style="stroke:#C82930;stroke-width:1.0;" width="6" x="130" y="256.1992"/><text fill="#000000" font-family="sans-serif" font-size="11" lengthAdjust="spacing" textLength="158" x="142" y="262.834">List&lt;Memento&gt; mementoList</text><line style="stroke:#A80036;stroke-width:1.5;" x1="123" x2="305" y1="269.1543" y2="269.1543"/><ellipse cx="133" cy="280.1543" fill="#84BE84" rx="3" ry="3" style="stroke:#038048;stroke-width:1.0;"/><text fill="#000000" font-family="sans-serif" font-size="11" lengthAdjust="spacing" textLength="132" x="142" y="283.7891">void add(Memento state)</text><ellipse cx="133" cy="293.1094" fill="#84BE84" rx="3" ry="3" style="stroke:#038048;stroke-width:1.0;"/><text fill="#000000" font-family="sans-serif" font-size="11" lengthAdjust="spacing" textLength="124" x="142" y="296.7441">Memento get(int index)</text><!--MD5=[d8e97c643231f1b0dec02941f2be4932]
class MementoPatternDemo--><rect codeLine="30" fill="#FEFECE" filter="url(#f1ghpqhws2swzy)" height="60.9551" id="MementoPatternDemo" style="stroke:#A80036;stroke-width:1.5;" width="160" x="7" y="28.1992"/><ellipse cx="22" cy="44.1992" fill="#ADD1B2" rx="11" ry="11" style="stroke:#A80036;stroke-width:1.0;"/><path d="M24.4731,50.3423 Q23.8921,50.6411 23.2529,50.7905 Q22.6138,50.9399 21.9082,50.9399 Q19.4014,50.9399 18.0815,49.2881 Q16.7617,47.6362 16.7617,44.5151 Q16.7617,41.3857 18.0815,39.7339 Q19.4014,38.082 21.9082,38.082 Q22.6138,38.082 23.2612,38.2314 Q23.9087,38.3809 24.4731,38.6797 L24.4731,41.4023 Q23.8423,40.8213 23.2488,40.5515 Q22.6553,40.2817 22.0244,40.2817 Q20.6797,40.2817 19.9949,41.3484 Q19.3101,42.415 19.3101,44.5151 Q19.3101,46.6069 19.9949,47.6736 Q20.6797,48.7402 22.0244,48.7402 Q22.6553,48.7402 23.2488,48.4705 Q23.8423,48.2007 24.4731,47.6196 Z " fill="#000000"/><text fill="#000000" font-family="sans-serif" font-size="12" lengthAdjust="spacing" textLength="128" x="36" y="48.7344">MementoPatternDemo</text><line style="stroke:#A80036;stroke-width:1.5;" x1="8" x2="166" y1="60.1992" y2="60.1992"/><line style="stroke:#A80036;stroke-width:1.5;" x1="8" x2="166" y1="68.1992" y2="68.1992"/><ellipse cx="18" cy="79.1992" fill="#84BE84" rx="3" ry="3" style="stroke:#038048;stroke-width:1.0;"/><text fill="#000000" font-family="sans-serif" font-size="11" lengthAdjust="spacing" text-decoration="underline" textLength="127" x="27" y="82.834">void main(String[] args)</text><!--MD5=[71d138568cdfa7e1d586268bf66dd3c4]
link Originator to Memento--><path codeLine="18" d="M423.53,316.3092 C398.76,339.8692 370.23,367.0092 346.63,389.4492 " fill="none" id="Originator-to-Memento" style="stroke:#A80036;stroke-width:1.0;stroke-dasharray:7.0,7.0;"/><polygon fill="#A80036" points="342.89,393.0092,352.172,389.7162,346.5171,389.5677,346.6656,383.9128,342.89,393.0092" style="stroke:#A80036;stroke-width:1.0;"/><text fill="#000000" font-family="sans-serif" font-size="13" lengthAdjust="spacing" textLength="97" x="391" y="359.7676">依赖-使用 use a</text><!--MD5=[f14de95ac18f06bbe01977d461230f9c]
link CareTaker to Memento--><path codeLine="26" d="M239.7419,314.3279 C239.7419,314.3279 261.75,360.1892 271.79,381.0992 " fill="none" id="CareTaker-Memento" style="stroke:#A80036;stroke-width:1.0;"/><polygon fill="#A80036" points="277.52,393.0292,277.2276,383.1847,275.3546,388.5225,270.0168,386.6494,277.52,393.0292" style="stroke:#A80036;stroke-width:1.0;"/><line style="stroke:#A80036;stroke-width:1.0;" x1="275.3546" x2="271.89" y1="388.5225" y2="381.3092"/><polygon fill="#FFFFFF" points="234.55,303.5092,233.5397,310.6492,239.7419,314.3279,240.7522,307.1879,234.55,303.5092" style="stroke:#A80036;stroke-width:1.0;"/><text fill="#000000" font-family="sans-serif" font-size="13" lengthAdjust="spacing" textLength="26" x="262" y="359.7676">聚合</text><!--MD5=[8312266fa3330d2510d7f5ef00b53098]
link MementoPatternDemo to 备忘录--><path codeLine="34" d="M87,89.4892 C87,103.1517 87,120.3373 87,138.4847 C87,143.0215 87,147.6185 87,152.2355 C87,154.544 87,156.8575 87,159.1711 C87,159.4603 87,159.7495 87,160.0387 " fill="none" id="MementoPatternDemo-to-备忘录" style="stroke:#A80036;stroke-width:1.0;stroke-dasharray:7.0,7.0;"/><polygon fill="#A80036" points="87,160.0387,91,151.0387,87,155.0387,83,151.0387,87,160.0387" style="stroke:#A80036;stroke-width:1.0;"/><text fill="#000000" font-family="sans-serif" font-size="13" lengthAdjust="spacing" textLength="97" x="88" y="132.7676">依赖-使用 use a</text><!--MD5=[bd53a2eec315622130bce32a6bb66602]
@startuml
Title 设计模式-备忘录模式

package 备忘录 <<Rectangle>>{
    class Memento {
        - String state;
        + Memento(String state)
        + String getState()
    }

    class Originator {
        - String state;
        + void setState(String state)
        + String getState()
        + Memento saveStateToMemento()
        + void getStateFromMemento(Memento Memento)
    }

    Originator ..> Memento:依赖-使用 use a

    class CareTaker {
        - List<Memento> mementoList
        + void add(Memento state)
        + Memento get(int index)
    }

    CareTaker o- -> Memento:聚合
}


class MementoPatternDemo {
   + {static} void main(String[] args)
}

MementoPatternDemo ..> 备忘录:依赖-使用 use a

@enduml

PlantUML version 1.2021.7(Sun May 23 20:40:07 CST 2021)
(GPL source distribution)
Java Runtime: OpenJDK Runtime Environment
JVM: OpenJDK 64-Bit Server VM
Default Encoding: UTF-8
Language: zh
Country: CN
--></g></svg>