<?xml version="1.0" encoding="UTF-8" standalone="no"?><svg xmlns="http://www.w3.org/2000/svg" xmlns:xlink="http://www.w3.org/1999/xlink" contentScriptType="application/ecmascript" contentStyleType="text/css" height="431px" preserveAspectRatio="none" style="width:295px;height:431px;background:#FFFFFF;" version="1.1" viewBox="0 0 295 431" width="295px" zoomAndPan="magnify"><defs><filter height="300%" id="f1ca8twnl3zcpm" width="300%" x="-1" y="-1"><feGaussianBlur result="blurOut" stdDeviation="2.0"/><feColorMatrix in="blurOut" result="blurOut2" type="matrix" values="0 0 0 0 0 0 0 0 0 0 0 0 0 0 0 0 0 0 .4 0"/><feOffset dx="4.0" dy="4.0" in="blurOut2" result="blurOut3"/><feBlend in="SourceGraphic" in2="blurOut3" mode="normal"/></filter></defs><g><text fill="#000000" font-family="sans-serif" font-size="18" lengthAdjust="spacing" textLength="172" x="55" y="17.4023">设计模式-中介者模式</text><!--MD5=[8d82b504b58c2fac8ac5760159ea733e]
class ChatRoom--><rect codeLine="3" fill="#FEFECE" filter="url(#f1ca8twnl3zcpm)" height="60.9551" id="ChatRoom" style="stroke:#A80036;stroke-width:1.5;" width="274" x="7" y="356.1992"/><ellipse cx="110.25" cy="372.1992" fill="#ADD1B2" rx="11" ry="11" style="stroke:#A80036;stroke-width:1.0;"/><path d="M112.7231,378.3423 Q112.1421,378.6411 111.5029,378.7905 Q110.8638,378.9399 110.1582,378.9399 Q107.6514,378.9399 106.3315,377.2881 Q105.0117,375.6362 105.0117,372.5151 Q105.0117,369.3857 106.3315,367.7339 Q107.6514,366.082 110.1582,366.082 Q110.8638,366.082 111.5112,366.2314 Q112.1587,366.3809 112.7231,366.6797 L112.7231,369.4023 Q112.0923,368.8213 111.4988,368.5515 Q110.9053,368.2817 110.2744,368.2817 Q108.9297,368.2817 108.2449,369.3484 Q107.5601,370.415 107.5601,372.5151 Q107.5601,374.6069 108.2449,375.6736 Q108.9297,376.7402 110.2744,376.7402 Q110.9053,376.7402 111.4988,376.4705 Q112.0923,376.2007 112.7231,375.6196 Z " fill="#000000"/><text fill="#000000" font-family="sans-serif" font-size="12" lengthAdjust="spacing" textLength="59" x="130.75" y="376.7344">ChatRoom</text><line style="stroke:#A80036;stroke-width:1.5;" x1="8" x2="280" y1="388.1992" y2="388.1992"/><line style="stroke:#A80036;stroke-width:1.5;" x1="8" x2="280" y1="396.1992" y2="396.1992"/><ellipse cx="18" cy="407.1992" fill="#84BE84" rx="3" ry="3" style="stroke:#038048;stroke-width:1.0;"/><text fill="#000000" font-family="sans-serif" font-size="11" lengthAdjust="spacing" text-decoration="underline" textLength="248" x="27" y="410.834">void showMessage(User user, String message)</text><!--MD5=[3fd616f346a44cd59a91eb10b19e157c]
class User--><rect codeLine="7" fill="#FEFECE" filter="url(#f1ca8twnl3zcpm)" height="112.7754" id="User" style="stroke:#A80036;stroke-width:1.5;" width="214" x="37" y="166.1992"/><ellipse cx="126.75" cy="182.1992" fill="#ADD1B2" rx="11" ry="11" style="stroke:#A80036;stroke-width:1.0;"/><path d="M129.2231,188.3423 Q128.6421,188.6411 128.0029,188.7905 Q127.3638,188.9399 126.6582,188.9399 Q124.1514,188.9399 122.8315,187.2881 Q121.5117,185.6362 121.5117,182.5151 Q121.5117,179.3857 122.8315,177.7339 Q124.1514,176.082 126.6582,176.082 Q127.3638,176.082 128.0112,176.2314 Q128.6587,176.3809 129.2231,176.6797 L129.2231,179.4023 Q128.5923,178.8213 127.9988,178.5515 Q127.4053,178.2817 126.7744,178.2817 Q125.4297,178.2817 124.7449,179.3484 Q124.0601,180.415 124.0601,182.5151 Q124.0601,184.6069 124.7449,185.6736 Q125.4297,186.7402 126.7744,186.7402 Q127.4053,186.7402 127.9988,186.4705 Q128.5923,186.2007 129.2231,185.6196 Z " fill="#000000"/><text fill="#000000" font-family="sans-serif" font-size="12" lengthAdjust="spacing" textLength="26" x="147.25" y="186.7344">User</text><line style="stroke:#A80036;stroke-width:1.5;" x1="38" x2="250" y1="198.1992" y2="198.1992"/><rect fill="none" height="6" style="stroke:#C82930;stroke-width:1.0;" width="6" x="45" y="206.1992"/><text fill="#000000" font-family="sans-serif" font-size="11" lengthAdjust="spacing" textLength="67" x="57" y="212.834">String name;</text><line style="stroke:#A80036;stroke-width:1.5;" x1="38" x2="250" y1="219.1543" y2="219.1543"/><ellipse cx="48" cy="230.1543" fill="#84BE84" rx="3" ry="3" style="stroke:#038048;stroke-width:1.0;"/><text fill="#000000" font-family="sans-serif" font-size="11" lengthAdjust="spacing" textLength="90" x="57" y="233.7891">String getName()</text><ellipse cx="48" cy="243.1094" fill="#84BE84" rx="3" ry="3" style="stroke:#038048;stroke-width:1.0;"/><text fill="#000000" font-family="sans-serif" font-size="11" lengthAdjust="spacing" textLength="144" x="57" y="246.7441">void setName(String name)</text><ellipse cx="48" cy="256.0645" fill="#84BE84" rx="3" ry="3" style="stroke:#038048;stroke-width:1.0;"/><text fill="#000000" font-family="sans-serif" font-size="11" lengthAdjust="spacing" textLength="97" x="57" y="259.6992">User(String name)</text><ellipse cx="48" cy="269.0195" fill="#84BE84" rx="3" ry="3" style="stroke:#038048;stroke-width:1.0;"/><text fill="#000000" font-family="sans-serif" font-size="11" lengthAdjust="spacing" textLength="188" x="57" y="272.6543">void sendMessage(String message)</text><!--MD5=[6f764b7239428244f43590983ce2e1ac]
class MediatorPatternDemo--><rect codeLine="17" fill="#FEFECE" filter="url(#f1ca8twnl3zcpm)" height="60.9551" id="MediatorPatternDemo" style="stroke:#A80036;stroke-width:1.5;" width="185" x="51.5" y="28.1992"/><ellipse cx="78.65" cy="44.1992" fill="#ADD1B2" rx="11" ry="11" style="stroke:#A80036;stroke-width:1.0;"/><path d="M81.1231,50.3423 Q80.5421,50.6411 79.9029,50.7905 Q79.2638,50.9399 78.5582,50.9399 Q76.0514,50.9399 74.7315,49.2881 Q73.4117,47.6362 73.4117,44.5151 Q73.4117,41.3857 74.7315,39.7339 Q76.0514,38.082 78.5582,38.082 Q79.2638,38.082 79.9112,38.2314 Q80.5587,38.3809 81.1231,38.6797 L81.1231,41.4023 Q80.4923,40.8213 79.8988,40.5515 Q79.3053,40.2817 78.6744,40.2817 Q77.3297,40.2817 76.6449,41.3484 Q75.9601,42.415 75.9601,44.5151 Q75.9601,46.6069 76.6449,47.6736 Q77.3297,48.7402 78.6744,48.7402 Q79.3053,48.7402 79.8988,48.4705 Q80.4923,48.2007 81.1231,47.6196 Z " fill="#000000"/><text fill="#000000" font-family="sans-serif" font-size="12" lengthAdjust="spacing" textLength="126" x="95.35" y="48.7344">MediatorPatternDemo</text><line style="stroke:#A80036;stroke-width:1.5;" x1="52.5" x2="235.5" y1="60.1992" y2="60.1992"/><line style="stroke:#A80036;stroke-width:1.5;" x1="52.5" x2="235.5" y1="68.1992" y2="68.1992"/><ellipse cx="62.5" cy="79.1992" fill="#84BE84" rx="3" ry="3" style="stroke:#038048;stroke-width:1.0;"/><text fill="#000000" font-family="sans-serif" font-size="11" lengthAdjust="spacing" textLength="159" x="71.5" y="82.834">static void main(String[] args)</text><!--MD5=[2b0d70ab46565585d10dbf9bc26c55b7]
link User to ChatRoom--><path codeLine="15" d="M144,279.4492 C144,303.0792 144,329.8892 144,350.6592 " fill="none" id="User-to-ChatRoom" style="stroke:#A80036;stroke-width:1.0;stroke-dasharray:7.0,7.0;"/><polygon fill="#A80036" points="144,355.8092,148,346.8092,144,350.8092,140,346.8092,144,355.8092" style="stroke:#A80036;stroke-width:1.0;"/><text fill="#000000" font-family="sans-serif" font-size="13" lengthAdjust="spacing" textLength="97" x="145" y="322.7676">依赖-使用 use a</text><!--MD5=[da322a76034753cf8479970b39550b0a]
link MediatorPatternDemo to User--><path codeLine="21" d="M144,89.4092 C144,109.3692 144,136.3792 144,160.7892 " fill="none" id="MediatorPatternDemo-to-User" style="stroke:#A80036;stroke-width:1.0;stroke-dasharray:7.0,7.0;"/><polygon fill="#A80036" points="144,165.9592,148,156.9592,144,160.9592,140,156.9592,144,165.9592" style="stroke:#A80036;stroke-width:1.0;"/><text fill="#000000" font-family="sans-serif" font-size="13" lengthAdjust="spacing" textLength="97" x="145" y="132.7676">依赖-使用 use a</text><!--MD5=[36c68610d952c1409aa9fe2da3ca3e2c]
@startuml
Title 设计模式-中介者模式

class ChatRoom {
   + {static} void showMessage(User user, String message)
}

class User {
   - String name;
   + String getName()
   + void setName(String name)
   + User(String name)
   + void sendMessage(String message)
}

User ..> ChatRoom:依赖-使用 use a

class MediatorPatternDemo {
   + static void main(String[] args)
}

MediatorPatternDemo ..> User:依赖-使用 use a

@enduml

PlantUML version 1.2021.7(Sun May 23 20:40:07 CST 2021)
(GPL source distribution)
Java Runtime: OpenJDK Runtime Environment
JVM: OpenJDK 64-Bit Server VM
Default Encoding: UTF-8
Language: zh
Country: CN
--></g></svg>