<?xml version="1.0" encoding="UTF-8" standalone="no"?><svg xmlns="http://www.w3.org/2000/svg" xmlns:xlink="http://www.w3.org/1999/xlink" contentScriptType="application/ecmascript" contentStyleType="text/css" height="418px" preserveAspectRatio="none" style="width:417px;height:418px;background:#FFFFFF;" version="1.1" viewBox="0 0 417 418" width="417px" zoomAndPan="magnify"><defs><filter height="300%" id="f14zb674qavjps" width="300%" x="-1" y="-1"><feGaussianBlur result="blurOut" stdDeviation="2.0"/><feColorMatrix in="blurOut" result="blurOut2" type="matrix" values="0 0 0 0 0 0 0 0 0 0 0 0 0 0 0 0 0 0 .4 0"/><feOffset dx="4.0" dy="4.0" in="blurOut2" result="blurOut3"/><feBlend in="SourceGraphic" in2="blurOut3" mode="normal"/></filter></defs><g><text fill="#000000" font-family="sans-serif" font-size="18" lengthAdjust="spacing" textLength="172" x="116" y="17.4023">设计模式-迭代器模式</text><!--MD5=[023ecf6702e3ca2ce47ae747eafb20f1]
class Iterator--><rect codeLine="3" fill="#FEFECE" filter="url(#f14zb674qavjps)" height="73.9102" id="Iterator" style="stroke:#A80036;stroke-width:1.5;" width="127" x="7" y="166.1992"/><ellipse cx="45.85" cy="182.1992" fill="#B4A7E5" rx="11" ry="11" style="stroke:#A80036;stroke-width:1.0;"/><path d="M42.2777,178.4644 L42.2777,176.3062 L49.6571,176.3062 L49.6571,178.4644 L47.1918,178.4644 L47.1918,186.541 L49.6571,186.541 L49.6571,188.6992 L42.2777,188.6992 L42.2777,186.541 L44.7431,186.541 L44.7431,178.4644 Z " fill="#000000"/><text fill="#000000" font-family="sans-serif" font-size="12" font-style="italic" lengthAdjust="spacing" textLength="42" x="65.15" y="186.7344">Iterator</text><line style="stroke:#A80036;stroke-width:1.5;" x1="8" x2="133" y1="198.1992" y2="198.1992"/><line style="stroke:#A80036;stroke-width:1.5;" x1="8" x2="133" y1="206.1992" y2="206.1992"/><ellipse cx="18" cy="217.1992" fill="#84BE84" rx="3" ry="3" style="stroke:#038048;stroke-width:1.0;"/><text fill="#000000" font-family="sans-serif" font-size="11" lengthAdjust="spacing" textLength="101" x="27" y="220.834">boolean hasNext();</text><ellipse cx="18" cy="230.1543" fill="#84BE84" rx="3" ry="3" style="stroke:#038048;stroke-width:1.0;"/><text fill="#000000" font-family="sans-serif" font-size="11" lengthAdjust="spacing" textLength="73" x="27" y="233.7891">Object next();</text><!--MD5=[e9a58730c562b34349daa605d1ed6662]
class Container--><rect codeLine="8" fill="#FEFECE" filter="url(#f14zb674qavjps)" height="60.9551" id="Container" style="stroke:#A80036;stroke-width:1.5;" width="137" x="78" y="28.1992"/><ellipse cx="115.5" cy="44.1992" fill="#B4A7E5" rx="11" ry="11" style="stroke:#A80036;stroke-width:1.0;"/><path d="M111.9277,40.4644 L111.9277,38.3062 L119.3071,38.3062 L119.3071,40.4644 L116.8418,40.4644 L116.8418,48.541 L119.3071,48.541 L119.3071,50.6992 L111.9277,50.6992 L111.9277,48.541 L114.3931,48.541 L114.3931,40.4644 Z " fill="#000000"/><text fill="#000000" font-family="sans-serif" font-size="12" font-style="italic" lengthAdjust="spacing" textLength="55" x="134.5" y="48.7344">Container</text><line style="stroke:#A80036;stroke-width:1.5;" x1="79" x2="214" y1="60.1992" y2="60.1992"/><line style="stroke:#A80036;stroke-width:1.5;" x1="79" x2="214" y1="68.1992" y2="68.1992"/><ellipse cx="89" cy="79.1992" fill="#84BE84" rx="3" ry="3" style="stroke:#038048;stroke-width:1.0;"/><text fill="#000000" font-family="sans-serif" font-size="11" lengthAdjust="spacing" textLength="111" x="98" y="82.834">Iterator getIterator();</text><!--MD5=[33c791a20d5bf5fb45a9638694790210]
class NameRepository--><rect codeLine="12" fill="#FEFECE" filter="url(#f14zb674qavjps)" height="73.9102" id="NameRepository" style="stroke:#A80036;stroke-width:1.5;" width="134" x="169.5" y="166.1992"/><ellipse cx="187.65" cy="182.1992" fill="#ADD1B2" rx="11" ry="11" style="stroke:#A80036;stroke-width:1.0;"/><path d="M190.1231,188.3423 Q189.5421,188.6411 188.9029,188.7905 Q188.2638,188.9399 187.5582,188.9399 Q185.0514,188.9399 183.7315,187.2881 Q182.4117,185.6362 182.4117,182.5151 Q182.4117,179.3857 183.7315,177.7339 Q185.0514,176.082 187.5582,176.082 Q188.2638,176.082 188.9112,176.2314 Q189.5587,176.3809 190.1231,176.6797 L190.1231,179.4023 Q189.4923,178.8213 188.8988,178.5515 Q188.3053,178.2817 187.6744,178.2817 Q186.3297,178.2817 185.6449,179.3484 Q184.9601,180.415 184.9601,182.5151 Q184.9601,184.6069 185.6449,185.6736 Q186.3297,186.7402 187.6744,186.7402 Q188.3053,186.7402 188.8988,186.4705 Q189.4923,186.2007 190.1231,185.6196 Z " fill="#000000"/><text fill="#000000" font-family="sans-serif" font-size="12" lengthAdjust="spacing" textLength="95" x="202.35" y="186.7344">NameRepository</text><line style="stroke:#A80036;stroke-width:1.5;" x1="170.5" x2="302.5" y1="198.1992" y2="198.1992"/><ellipse cx="180.5" cy="209.1992" rx="3" ry="3" style="stroke:#038048;stroke-width:1.0;fill:none;"/><text fill="#000000" font-family="sans-serif" font-size="11" lengthAdjust="spacing" textLength="81" x="189.5" y="212.834">String[] names;</text><line style="stroke:#A80036;stroke-width:1.5;" x1="170.5" x2="302.5" y1="219.1543" y2="219.1543"/><ellipse cx="180.5" cy="230.1543" fill="#84BE84" rx="3" ry="3" style="stroke:#038048;stroke-width:1.0;"/><text fill="#000000" font-family="sans-serif" font-size="11" lengthAdjust="spacing" textLength="108" x="189.5" y="233.7891">Iterator getIterator()</text><!--MD5=[45f3a386b4779c72620b82d5ff8fc702]
class NameIterator--><rect codeLine="17" fill="#FEFECE" filter="url(#f14zb674qavjps)" height="86.8652" id="NameIterator" style="stroke:#A80036;stroke-width:1.5;" width="124" x="116.5" y="317.1992"/><ellipse cx="138.7" cy="333.1992" fill="#ADD1B2" rx="11" ry="11" style="stroke:#A80036;stroke-width:1.0;"/><path d="M141.1731,339.3423 Q140.5921,339.6411 139.9529,339.7905 Q139.3138,339.9399 138.6082,339.9399 Q136.1014,339.9399 134.7815,338.2881 Q133.4617,336.6362 133.4617,333.5151 Q133.4617,330.3857 134.7815,328.7339 Q136.1014,327.082 138.6082,327.082 Q139.3138,327.082 139.9612,327.2314 Q140.6087,327.3809 141.1731,327.6797 L141.1731,330.4023 Q140.5423,329.8213 139.9488,329.5515 Q139.3553,329.2817 138.7244,329.2817 Q137.3797,329.2817 136.6949,330.3484 Q136.0101,331.415 136.0101,333.5151 Q136.0101,335.6069 136.6949,336.6736 Q137.3797,337.7402 138.7244,337.7402 Q139.3553,337.7402 139.9488,337.4705 Q140.5423,337.2007 141.1731,336.6196 Z " fill="#000000"/><text fill="#000000" font-family="sans-serif" font-size="12" lengthAdjust="spacing" textLength="76" x="154.3" y="337.7344">NameIterator</text><line style="stroke:#A80036;stroke-width:1.5;" x1="117.5" x2="239.5" y1="349.1992" y2="349.1992"/><text fill="#000000" font-family="sans-serif" font-size="11" lengthAdjust="spacing" textLength="50" x="122.5" y="363.834">int index;</text><line style="stroke:#A80036;stroke-width:1.5;" x1="117.5" x2="239.5" y1="370.1543" y2="370.1543"/><ellipse cx="127.5" cy="381.1543" fill="#84BE84" rx="3" ry="3" style="stroke:#038048;stroke-width:1.0;"/><text fill="#000000" font-family="sans-serif" font-size="11" lengthAdjust="spacing" textLength="98" x="136.5" y="384.7891">boolean hasNext()</text><ellipse cx="127.5" cy="394.1094" fill="#84BE84" rx="3" ry="3" style="stroke:#038048;stroke-width:1.0;"/><text fill="#000000" font-family="sans-serif" font-size="11" lengthAdjust="spacing" textLength="70" x="136.5" y="397.7441">Object next()</text><!--MD5=[e1cc9c4394207b490356e99fd9991f85]
class IteratorPatternDemo--><rect codeLine="29" fill="#FEFECE" filter="url(#f14zb674qavjps)" height="60.9551" id="IteratorPatternDemo" style="stroke:#A80036;stroke-width:1.5;" width="153" x="250" y="28.1992"/><ellipse cx="266.8" cy="44.1992" fill="#ADD1B2" rx="11" ry="11" style="stroke:#A80036;stroke-width:1.0;"/><path d="M269.2731,50.3423 Q268.6921,50.6411 268.0529,50.7905 Q267.4138,50.9399 266.7082,50.9399 Q264.2014,50.9399 262.8815,49.2881 Q261.5617,47.6362 261.5617,44.5151 Q261.5617,41.3857 262.8815,39.7339 Q264.2014,38.082 266.7082,38.082 Q267.4138,38.082 268.0612,38.2314 Q268.7087,38.3809 269.2731,38.6797 L269.2731,41.4023 Q268.6423,40.8213 268.0488,40.5515 Q267.4553,40.2817 266.8244,40.2817 Q265.4797,40.2817 264.7949,41.3484 Q264.1101,42.415 264.1101,44.5151 Q264.1101,46.6069 264.7949,47.6736 Q265.4797,48.7402 266.8244,48.7402 Q267.4553,48.7402 268.0488,48.4705 Q268.6423,48.2007 269.2731,47.6196 Z " fill="#000000"/><text fill="#000000" font-family="sans-serif" font-size="12" lengthAdjust="spacing" textLength="117" x="281.2" y="48.7344">IteratorPatternDemo</text><line style="stroke:#A80036;stroke-width:1.5;" x1="251" x2="402" y1="60.1992" y2="60.1992"/><line style="stroke:#A80036;stroke-width:1.5;" x1="251" x2="402" y1="68.1992" y2="68.1992"/><ellipse cx="261" cy="79.1992" fill="#84BE84" rx="3" ry="3" style="stroke:#038048;stroke-width:1.0;"/><text fill="#000000" font-family="sans-serif" font-size="11" lengthAdjust="spacing" text-decoration="underline" textLength="127" x="270" y="82.834">void main(String[] args)</text><!--MD5=[4ee24f95a474c7f6e6e8a2a02489b86b]
reverse link Container to NameRepository--><path d="M176.01,106.4192 C188.27,125.8392 202.28,148.0192 213.73,166.1392 " fill="none" id="Container-backto-NameRepository" style="stroke:#A80036;stroke-width:1.0;stroke-dasharray:7.0,7.0;"/><polygon fill="none" points="169.91,109.8692,165.15,89.2292,181.75,102.3992,169.91,109.8692" style="stroke:#A80036;stroke-width:1.0;"/><!--MD5=[760336e7b55096e98dac4ddaf5f0b4bd]
reverse link Iterator to NameIterator--><path d="M106.98,256.7192 C120.59,276.3192 135.86,298.3092 148.79,316.9292 " fill="none" id="Iterator-backto-NameIterator" style="stroke:#A80036;stroke-width:1.0;stroke-dasharray:7.0,7.0;"/><polygon fill="none" points="101.21,260.6892,95.55,240.2692,112.71,252.6992,101.21,260.6892" style="stroke:#A80036;stroke-width:1.0;"/><!--MD5=[7a2cf5e6cb984a78a05200bbea06a190]
reverse link NameRepository to NameIterator--><path codeLine="23" d="M207.52,254.1692 C204.96,259.4892 202.56,264.8992 200.5,270.1992 C194.71,285.1192 190.09,302.0392 186.6,317.1192 " fill="none" id="NameRepository-backto-NameIterator" style="stroke:#A80036;stroke-width:1.0;"/><ellipse cx="210.9293" cy="247.5077" fill="#FFFFFF" rx="8" ry="8" style="stroke:#A80036;stroke-width:1.0;"/><line style="stroke:#A80036;stroke-width:1.0;" x1="207.2786" x2="214.58" y1="254.6261" y2="240.3892"/><line style="stroke:#A80036;stroke-width:1.0;" x1="203.8109" x2="218.0478" y1="243.857" y2="251.1584"/><!--MD5=[27dede68feb5dfd96c363c03aaba520c]
link NameRepository to NameIterator--><path codeLine="24" d="M218.8582,251.5133 C218.8582,251.5133 205.45,287.4592 199.14,304.3592 " fill="none" id="NameRepository-NameIterator" style="stroke:#A80036;stroke-width:1.0;"/><polygon fill="#A80036" points="194.45,316.9292,201.3419,309.8934,196.1966,312.2442,193.8458,307.0989,194.45,316.9292" style="stroke:#A80036;stroke-width:1.0;"/><line style="stroke:#A80036;stroke-width:1.0;" x1="196.1966" x2="198.995" y1="312.2442" y2="304.7492"/><polygon fill="#A80036" points="223.05,240.2692,217.2061,244.494,218.8582,251.5133,224.7021,247.2885,223.05,240.2692" style="stroke:#A80036;stroke-width:1.0;"/><polygon fill="#000000" points="214.7521,283.539,220.6676,276.092,215.1606,274.0372,214.7521,283.539" style="stroke:#000000;stroke-width:1.0;"/><text fill="#000000" font-family="sans-serif" font-size="13" lengthAdjust="spacing" textLength="22" x="225.5" y="283.7676">has</text><!--MD5=[c22795dfa1ab507b13c0d28b8e2d63e7]
link IteratorPatternDemo to NameRepository--><path codeLine="27" d="M307.85,89.2292 C294.57,110.2492 276.56,138.7692 261.96,161.8892 " fill="none" id="IteratorPatternDemo-to-NameRepository" style="stroke:#A80036;stroke-width:1.0;stroke-dasharray:7.0,7.0;"/><polygon fill="#A80036" points="259.27,166.1392,267.4586,160.6668,261.9405,161.9121,260.6952,156.394,259.27,166.1392" style="stroke:#A80036;stroke-width:1.0;"/><text fill="#000000" font-family="sans-serif" font-size="13" lengthAdjust="spacing" textLength="97" x="287.5" y="132.7676">依赖-使用 use a</text><!--MD5=[2018012f9f9673b72e2b81e71149d373]
@startuml
Title 设计模式-迭代器模式

interface Iterator {
   + boolean hasNext();
   + Object next();
}

interface Container {
   + Iterator getIterator();
}

class NameRepository implements Container {
   + String[] names;
   + Iterator getIterator() 
}

class NameIterator implements Iterator {
    int index;
    + boolean hasNext() 
    + Object next()  
}

NameRepository +- - NameIterator
NameRepository *- -> NameIterator: > has


IteratorPatternDemo ..> NameRepository :依赖-使用 use a

class IteratorPatternDemo {
   + {static} void main(String[] args)
}

@enduml

PlantUML version 1.2021.7(Sun May 23 20:40:07 CST 2021)
(GPL source distribution)
Java Runtime: OpenJDK Runtime Environment
JVM: OpenJDK 64-Bit Server VM
Default Encoding: UTF-8
Language: zh
Country: CN
--></g></svg>