<?xml version="1.0" encoding="UTF-8" standalone="no"?><svg xmlns="http://www.w3.org/2000/svg" xmlns:xlink="http://www.w3.org/1999/xlink" contentScriptType="application/ecmascript" contentStyleType="text/css" height="457px" preserveAspectRatio="none" style="width:391px;height:457px;background:#FFFFFF;" version="1.1" viewBox="0 0 391 457" width="391px" zoomAndPan="magnify"><defs><filter height="300%" id="f1ms5zqo0hmry5" width="300%" x="-1" y="-1"><feGaussianBlur result="blurOut" stdDeviation="2.0"/><feColorMatrix in="blurOut" result="blurOut2" type="matrix" values="0 0 0 0 0 0 0 0 0 0 0 0 0 0 0 0 0 0 .4 0"/><feOffset dx="4.0" dy="4.0" in="blurOut2" result="blurOut3"/><feBlend in="SourceGraphic" in2="blurOut3" mode="normal"/></filter></defs><g><text fill="#000000" font-family="sans-serif" font-size="18" lengthAdjust="spacing" textLength="154" x="112.25" y="17.4023">设计模式-代理模式</text><!--MD5=[964f074a2dd77d134c21b891bb53e381]
class Image--><rect codeLine="3" fill="#FEFECE" filter="url(#f1ms5zqo0hmry5)" height="60.9551" id="Image" style="stroke:#A80036;stroke-width:1.5;" width="98" x="59.5" y="28.1992"/><ellipse cx="88.45" cy="44.1992" fill="#B4A7E5" rx="11" ry="11" style="stroke:#A80036;stroke-width:1.0;"/><path d="M84.8777,40.4644 L84.8777,38.3062 L92.2571,38.3062 L92.2571,40.4644 L89.7918,40.4644 L89.7918,48.541 L92.2571,48.541 L92.2571,50.6992 L84.8777,50.6992 L84.8777,48.541 L87.3431,48.541 L87.3431,40.4644 Z " fill="#000000"/><text fill="#000000" font-family="sans-serif" font-size="12" font-style="italic" lengthAdjust="spacing" textLength="35" x="105.55" y="48.7344">Image</text><line style="stroke:#A80036;stroke-width:1.5;" x1="60.5" x2="156.5" y1="60.1992" y2="60.1992"/><line style="stroke:#A80036;stroke-width:1.5;" x1="60.5" x2="156.5" y1="68.1992" y2="68.1992"/><ellipse cx="70.5" cy="79.1992" fill="#84BE84" rx="3" ry="3" style="stroke:#038048;stroke-width:1.0;"/><text fill="#000000" font-family="sans-serif" font-size="11" lengthAdjust="spacing" textLength="72" x="79.5" y="82.834">void display()</text><!--MD5=[89d30dc0c0d094d34ed46ab1b68a4180]
class RealImage--><rect codeLine="7" fill="#FEFECE" filter="url(#f1ms5zqo0hmry5)" height="99.8203" id="RealImage" style="stroke:#A80036;stroke-width:1.5;" width="215" x="7" y="343.1992"/><ellipse cx="80.25" cy="359.1992" fill="#ADD1B2" rx="11" ry="11" style="stroke:#A80036;stroke-width:1.0;"/><path d="M82.7231,365.3423 Q82.1421,365.6411 81.5029,365.7905 Q80.8638,365.9399 80.1582,365.9399 Q77.6514,365.9399 76.3315,364.2881 Q75.0117,362.6362 75.0117,359.5151 Q75.0117,356.3857 76.3315,354.7339 Q77.6514,353.082 80.1582,353.082 Q80.8638,353.082 81.5112,353.2314 Q82.1587,353.3809 82.7231,353.6797 L82.7231,356.4023 Q82.0923,355.8213 81.4988,355.5515 Q80.9053,355.2817 80.2744,355.2817 Q78.9297,355.2817 78.2449,356.3484 Q77.5601,357.415 77.5601,359.5151 Q77.5601,361.6069 78.2449,362.6736 Q78.9297,363.7402 80.2744,363.7402 Q80.9053,363.7402 81.4988,363.4705 Q82.0923,363.2007 82.7231,362.6196 Z " fill="#000000"/><text fill="#000000" font-family="sans-serif" font-size="12" lengthAdjust="spacing" textLength="60" x="100.75" y="363.7344">RealImage</text><line style="stroke:#A80036;stroke-width:1.5;" x1="8" x2="221" y1="375.1992" y2="375.1992"/><rect fill="none" height="6" style="stroke:#C82930;stroke-width:1.0;" width="6" x="15" y="383.1992"/><text fill="#000000" font-family="sans-serif" font-size="11" lengthAdjust="spacing" textLength="81" x="27" y="389.834">String fileName</text><line style="stroke:#A80036;stroke-width:1.5;" x1="8" x2="221" y1="396.1543" y2="396.1543"/><ellipse cx="18" cy="407.1543" fill="#84BE84" rx="3" ry="3" style="stroke:#038048;stroke-width:1.0;"/><text fill="#000000" font-family="sans-serif" font-size="11" lengthAdjust="spacing" textLength="143" x="27" y="410.7891">RealImage(String fileName)</text><ellipse cx="18" cy="420.1094" fill="#84BE84" rx="3" ry="3" style="stroke:#038048;stroke-width:1.0;"/><text fill="#000000" font-family="sans-serif" font-size="11" lengthAdjust="spacing" textLength="72" x="27" y="423.7441">void display()</text><rect fill="#F24D5C" height="6" style="stroke:#C82930;stroke-width:1.0;" width="6" x="15" y="430.0645"/><text fill="#000000" font-family="sans-serif" font-size="11" lengthAdjust="spacing" textLength="189" x="27" y="436.6992">void loadFromDisk(String fileName)</text><!--MD5=[b80044190758d1ea057d0acc6bc57b50]
class ProxyImage--><rect codeLine="14" fill="#FEFECE" filter="url(#f1ms5zqo0hmry5)" height="99.8203" id="ProxyImage" style="stroke:#A80036;stroke-width:1.5;" width="178" x="196.5" y="166.1992"/><ellipse cx="247.75" cy="182.1992" fill="#ADD1B2" rx="11" ry="11" style="stroke:#A80036;stroke-width:1.0;"/><path d="M250.2231,188.3423 Q249.6421,188.6411 249.0029,188.7905 Q248.3638,188.9399 247.6582,188.9399 Q245.1514,188.9399 243.8315,187.2881 Q242.5117,185.6362 242.5117,182.5151 Q242.5117,179.3857 243.8315,177.7339 Q245.1514,176.082 247.6582,176.082 Q248.3638,176.082 249.0112,176.2314 Q249.6587,176.3809 250.2231,176.6797 L250.2231,179.4023 Q249.5923,178.8213 248.9988,178.5515 Q248.4053,178.2817 247.7744,178.2817 Q246.4297,178.2817 245.7449,179.3484 Q245.0601,180.415 245.0601,182.5151 Q245.0601,184.6069 245.7449,185.6736 Q246.4297,186.7402 247.7744,186.7402 Q248.4053,186.7402 248.9988,186.4705 Q249.5923,186.2007 250.2231,185.6196 Z " fill="#000000"/><text fill="#000000" font-family="sans-serif" font-size="12" lengthAdjust="spacing" textLength="67" x="268.25" y="186.7344">ProxyImage</text><line style="stroke:#A80036;stroke-width:1.5;" x1="197.5" x2="373.5" y1="198.1992" y2="198.1992"/><rect fill="none" height="6" style="stroke:#C82930;stroke-width:1.0;" width="6" x="204.5" y="206.1992"/><text fill="#000000" font-family="sans-serif" font-size="11" lengthAdjust="spacing" textLength="109" x="216.5" y="212.834">RealImage realImage</text><rect fill="none" height="6" style="stroke:#C82930;stroke-width:1.0;" width="6" x="204.5" y="219.1543"/><text fill="#000000" font-family="sans-serif" font-size="11" lengthAdjust="spacing" textLength="81" x="216.5" y="225.7891">String fileName</text><line style="stroke:#A80036;stroke-width:1.5;" x1="197.5" x2="373.5" y1="232.1094" y2="232.1094"/><ellipse cx="207.5" cy="243.1094" fill="#84BE84" rx="3" ry="3" style="stroke:#038048;stroke-width:1.0;"/><text fill="#000000" font-family="sans-serif" font-size="11" lengthAdjust="spacing" textLength="152" x="216.5" y="246.7441">ProxyImage(String fileName)</text><ellipse cx="207.5" cy="256.0645" fill="#84BE84" rx="3" ry="3" style="stroke:#038048;stroke-width:1.0;"/><text fill="#000000" font-family="sans-serif" font-size="11" lengthAdjust="spacing" textLength="72" x="216.5" y="259.6992">void display()</text><!--MD5=[aec58e9c559f0ca3819b118bd7de970c]
class ProxyPatternDemo--><rect codeLine="24" fill="#FEFECE" filter="url(#f1ms5zqo0hmry5)" height="60.9551" id="ProxyPatternDemo" style="stroke:#A80036;stroke-width:1.5;" width="139" x="216" y="28.1992"/><ellipse cx="231" cy="44.1992" fill="#ADD1B2" rx="11" ry="11" style="stroke:#A80036;stroke-width:1.0;"/><path d="M233.4731,50.3423 Q232.8921,50.6411 232.2529,50.7905 Q231.6138,50.9399 230.9082,50.9399 Q228.4014,50.9399 227.0815,49.2881 Q225.7617,47.6362 225.7617,44.5151 Q225.7617,41.3857 227.0815,39.7339 Q228.4014,38.082 230.9082,38.082 Q231.6138,38.082 232.2612,38.2314 Q232.9087,38.3809 233.4731,38.6797 L233.4731,41.4023 Q232.8423,40.8213 232.2488,40.5515 Q231.6553,40.2817 231.0244,40.2817 Q229.6797,40.2817 228.9949,41.3484 Q228.3101,42.415 228.3101,44.5151 Q228.3101,46.6069 228.9949,47.6736 Q229.6797,48.7402 231.0244,48.7402 Q231.6553,48.7402 232.2488,48.4705 Q232.8423,48.2007 233.4731,47.6196 Z " fill="#000000"/><text fill="#000000" font-family="sans-serif" font-size="12" lengthAdjust="spacing" textLength="107" x="245" y="48.7344">ProxyPatternDemo</text><line style="stroke:#A80036;stroke-width:1.5;" x1="217" x2="354" y1="60.1992" y2="60.1992"/><line style="stroke:#A80036;stroke-width:1.5;" x1="217" x2="354" y1="68.1992" y2="68.1992"/><ellipse cx="227" cy="79.1992" fill="#84BE84" rx="3" ry="3" style="stroke:#038048;stroke-width:1.0;"/><text fill="#000000" font-family="sans-serif" font-size="11" lengthAdjust="spacing" text-decoration="underline" textLength="60" x="236" y="82.834">void main()</text><!--MD5=[7345adca31c04485740eb50d8cb4dcaa]
reverse link Image to RealImage--><path codeLine="21" d="M105.1,109.7692 C104.04,127.5792 103.02,147.7792 102.5,166.1992 C101.25,210.6292 100.39,221.8092 102.5,266.1992 C103.7,291.5492 106.26,319.6792 108.71,342.9092 " fill="none" id="Image-backto-RealImage" style="stroke:#A80036;stroke-width:1.0;stroke-dasharray:7.0,7.0;"/><polygon fill="none" points="98.13,109.0392,106.37,89.5192,112.1,109.9192,98.13,109.0392" style="stroke:#A80036;stroke-width:1.0;"/><text fill="#000000" font-family="sans-serif" font-size="13" lengthAdjust="spacing" textLength="74" x="103.5" y="221.2676">implements</text><!--MD5=[85f03f213ee77362854fdc48b77a1577]
reverse link Image to ProxyImage--><path codeLine="22" d="M157.3,102.5792 C179.72,122.2692 206.42,145.7292 229.64,166.1192 " fill="none" id="Image-backto-ProxyImage" style="stroke:#A80036;stroke-width:1.0;stroke-dasharray:7.0,7.0;"/><polygon fill="none" points="152.61,107.7692,142.21,89.3092,161.85,97.2592,152.61,107.7692" style="stroke:#A80036;stroke-width:1.0;"/><text fill="#000000" font-family="sans-serif" font-size="13" lengthAdjust="spacing" textLength="74" x="193.5" y="132.7676">implements</text><!--MD5=[4ddbee4311008d4e17a7df45eb740deb]
link ProxyPatternDemo to ProxyImage--><path codeLine="29" d="M285.5,89.3092 C285.5,109.5492 285.5,136.9592 285.5,161.0392 " fill="none" id="ProxyPatternDemo-to-ProxyImage" style="stroke:#A80036;stroke-width:1.0;stroke-dasharray:7.0,7.0;"/><polygon fill="#A80036" points="285.5,166.1192,289.5,157.1192,285.5,161.1192,281.5,157.1192,285.5,166.1192" style="stroke:#A80036;stroke-width:1.0;"/><text fill="#000000" font-family="sans-serif" font-size="13" lengthAdjust="spacing" textLength="97" x="286.5" y="132.7676">依赖-使用 use a</text><!--MD5=[5df0b6fd37cbca177e8d6ec8617f3d22]
link ProxyImage to RealImage--><path codeLine="30" d="M237.41,266.4092 C215.19,289.1592 188.77,316.1992 166.12,339.3692 " fill="none" id="ProxyImage-to-RealImage" style="stroke:#A80036;stroke-width:1.0;stroke-dasharray:7.0,7.0;"/><polygon fill="#A80036" points="162.52,343.0492,171.6762,339.421,166.0196,339.4782,165.9625,333.8216,162.52,343.0492" style="stroke:#A80036;stroke-width:1.0;"/><text fill="#000000" font-family="sans-serif" font-size="13" lengthAdjust="spacing" textLength="97" x="206.5" y="309.7676">依赖-使用 use a</text><!--MD5=[6540a3d1e063ffbd08548e4eb96b41ec]
@startuml
Title 设计模式-代理模式

interface Image {
   + void display()
}

class RealImage{
   - String fileName
   + RealImage(String fileName)
   + void display()
   - void loadFromDisk(String fileName)
}

class ProxyImage{
   - RealImage realImage
   - String fileName
   + ProxyImage(String fileName)
   + void display()
}

Image <|.. RealImage:implements
Image <|.. ProxyImage:implements

class ProxyPatternDemo {
   + {static} void main()
}


ProxyPatternDemo ..> ProxyImage:依赖-使用 use a
ProxyImage ..> RealImage:依赖-使用 use a


@enduml

PlantUML version 1.2021.7(Sun May 23 20:40:07 CST 2021)
(GPL source distribution)
Java Runtime: OpenJDK Runtime Environment
JVM: OpenJDK 64-Bit Server VM
Default Encoding: UTF-8
Language: zh
Country: CN
--></g></svg>