<?xml version="1.0" encoding="UTF-8" standalone="no"?><svg xmlns="http://www.w3.org/2000/svg" xmlns:xlink="http://www.w3.org/1999/xlink" contentScriptType="application/ecmascript" contentStyleType="text/css" height="692px" preserveAspectRatio="none" style="width:884px;height:692px;background:#FFFFFF;" version="1.1" viewBox="0 0 884 692" width="884px" zoomAndPan="magnify"><defs><filter height="300%" id="f933h0hxirvp1" width="300%" x="-1" y="-1"><feGaussianBlur result="blurOut" stdDeviation="2.0"/><feColorMatrix in="blurOut" result="blurOut2" type="matrix" values="0 0 0 0 0 0 0 0 0 0 0 0 0 0 0 0 0 0 .4 0"/><feOffset dx="4.0" dy="4.0" in="blurOut2" result="blurOut3"/><feBlend in="SourceGraphic" in2="blurOut3" mode="normal"/></filter></defs><g><text fill="#000000" font-family="sans-serif" font-size="18" lengthAdjust="spacing" textLength="154" x="358.5" y="17.4023">设计模式-命令模式</text><!--MD5=[0ca7f7a21b9536fde84a711dfa12a4db]
cluster 示意图--><rect fill="#FFFFFF" filter="url(#f933h0hxirvp1)" height="599" style="stroke:#000000;stroke-width:1.5;" width="362" x="7" y="28.1992"/><text fill="#000000" font-family="sans-serif" font-size="14" font-weight="bold" lengthAdjust="spacing" textLength="42" x="167" y="43.7344">示意图</text><!--MD5=[ba865cd4a311e0746ff18980082d1fbd]
cluster 实际设计图--><rect fill="#FFFFFF" filter="url(#f933h0hxirvp1)" height="652" style="stroke:#000000;stroke-width:1.5;" width="479" x="393" y="28.1992"/><text fill="#000000" font-family="sans-serif" font-size="14" font-weight="bold" lengthAdjust="spacing" textLength="70" x="597.5" y="43.7344">实际设计图</text><!--MD5=[bf72176b0536e5edd88604726378cfe6]
cluster 接口--><rect fill="#FFFFFF" filter="url(#f933h0hxirvp1)" height="276" style="stroke:#000000;stroke-width:1.5;" width="415" x="425" y="372.1992"/><text fill="#000000" font-family="sans-serif" font-size="14" font-weight="bold" lengthAdjust="spacing" textLength="28" x="618.5" y="387.7344">接口</text><!--MD5=[e3f72718913f1e037c5bc72e44de49f6]
class client--><rect codeLine="4" fill="#FEFECE" filter="url(#f933h0hxirvp1)" height="32" id="client" style="stroke:#A80036;stroke-width:1.5;" width="62" x="291" y="235.1992"/><ellipse cx="306" cy="251.1992" fill="#ADD1B2" rx="11" ry="11" style="stroke:#A80036;stroke-width:1.0;"/><path d="M308.4731,257.3423 Q307.8921,257.6411 307.2529,257.7905 Q306.6138,257.9399 305.9082,257.9399 Q303.4014,257.9399 302.0815,256.2881 Q300.7617,254.6362 300.7617,251.5151 Q300.7617,248.3857 302.0815,246.7339 Q303.4014,245.082 305.9082,245.082 Q306.6138,245.082 307.2612,245.2314 Q307.9087,245.3809 308.4731,245.6797 L308.4731,248.4023 Q307.8423,247.8213 307.2488,247.5515 Q306.6553,247.2817 306.0244,247.2817 Q304.6797,247.2817 303.9949,248.3484 Q303.3101,249.415 303.3101,251.5151 Q303.3101,253.6069 303.9949,254.6736 Q304.6797,255.7402 306.0244,255.7402 Q306.6553,255.7402 307.2488,255.4705 Q307.8423,255.2007 308.4731,254.6196 Z " fill="#000000"/><text fill="#000000" font-family="sans-serif" font-size="12" lengthAdjust="spacing" textLength="30" x="320" y="255.7344">client</text><!--MD5=[bcee973e2623bef0127252815a37a6e8]
class Receiver--><rect codeLine="7" fill="#FEFECE" filter="url(#f933h0hxirvp1)" height="60.9551" id="Receiver" style="stroke:#A80036;stroke-width:1.5;" width="81" x="238.5" y="550.1992"/><ellipse cx="253.5" cy="566.1992" fill="#ADD1B2" rx="11" ry="11" style="stroke:#A80036;stroke-width:1.0;"/><path d="M255.9731,572.3423 Q255.3921,572.6411 254.7529,572.7905 Q254.1138,572.9399 253.4082,572.9399 Q250.9014,572.9399 249.5815,571.2881 Q248.2617,569.6362 248.2617,566.5151 Q248.2617,563.3857 249.5815,561.7339 Q250.9014,560.082 253.4082,560.082 Q254.1138,560.082 254.7612,560.2314 Q255.4087,560.3809 255.9731,560.6797 L255.9731,563.4023 Q255.3423,562.8213 254.7488,562.5515 Q254.1553,562.2817 253.5244,562.2817 Q252.1797,562.2817 251.4949,563.3484 Q250.8101,564.415 250.8101,566.5151 Q250.8101,568.6069 251.4949,569.6736 Q252.1797,570.7402 253.5244,570.7402 Q254.1553,570.7402 254.7488,570.4705 Q255.3423,570.2007 255.9731,569.6196 Z " fill="#000000"/><text fill="#000000" font-family="sans-serif" font-size="12" lengthAdjust="spacing" textLength="49" x="267.5" y="570.7344">Receiver</text><line style="stroke:#A80036;stroke-width:1.5;" x1="239.5" x2="318.5" y1="582.1992" y2="582.1992"/><line style="stroke:#A80036;stroke-width:1.5;" x1="239.5" x2="318.5" y1="590.1992" y2="590.1992"/><text fill="#000000" font-family="sans-serif" font-size="11" lengthAdjust="spacing" textLength="41" x="244.5" y="604.834">action()</text><!--MD5=[d01e39adb8cc3240d418de1aedb45e74]
class Invoker--><rect codeLine="10" fill="#FEFECE" filter="url(#f933h0hxirvp1)" height="60.9551" id="Invoker" style="stroke:#A80036;stroke-width:1.5;" width="91" x="163.5" y="63.1992"/><ellipse cx="186.15" cy="79.1992" fill="#ADD1B2" rx="11" ry="11" style="stroke:#A80036;stroke-width:1.0;"/><path d="M188.6231,85.3423 Q188.0421,85.6411 187.4029,85.7905 Q186.7638,85.9399 186.0582,85.9399 Q183.5514,85.9399 182.2315,84.2881 Q180.9117,82.6362 180.9117,79.5151 Q180.9117,76.3857 182.2315,74.7339 Q183.5514,73.082 186.0582,73.082 Q186.7638,73.082 187.4112,73.2314 Q188.0587,73.3809 188.6231,73.6797 L188.6231,76.4023 Q187.9923,75.8213 187.3988,75.5515 Q186.8053,75.2817 186.1744,75.2817 Q184.8297,75.2817 184.1449,76.3484 Q183.4601,77.415 183.4601,79.5151 Q183.4601,81.6069 184.1449,82.6736 Q184.8297,83.7402 186.1744,83.7402 Q186.8053,83.7402 187.3988,83.4705 Q187.9923,83.2007 188.6231,82.6196 Z " fill="#000000"/><text fill="#000000" font-family="sans-serif" font-size="12" lengthAdjust="spacing" textLength="42" x="201.85" y="83.7344">Invoker</text><line style="stroke:#A80036;stroke-width:1.5;" x1="164.5" x2="253.5" y1="95.1992" y2="95.1992"/><line style="stroke:#A80036;stroke-width:1.5;" x1="164.5" x2="253.5" y1="103.1992" y2="103.1992"/><text fill="#000000" font-family="sans-serif" font-size="11" lengthAdjust="spacing" textLength="79" x="169.5" y="117.834">setCommand()</text><!--MD5=[11008d568be52109e77f2977709dd853]
class ICommand--><rect codeLine="13" fill="#FEFECE" filter="url(#f933h0hxirvp1)" height="60.9551" id="ICommand" style="stroke:#A80036;stroke-width:1.5;" width="94" x="162" y="220.6992"/><ellipse cx="177" cy="236.6992" fill="#B4A7E5" rx="11" ry="11" style="stroke:#A80036;stroke-width:1.0;"/><path d="M173.4277,232.9644 L173.4277,230.8062 L180.8071,230.8062 L180.8071,232.9644 L178.3418,232.9644 L178.3418,241.041 L180.8071,241.041 L180.8071,243.1992 L173.4277,243.1992 L173.4277,241.041 L175.8931,241.041 L175.8931,232.9644 Z " fill="#000000"/><text fill="#000000" font-family="sans-serif" font-size="12" font-style="italic" lengthAdjust="spacing" textLength="62" x="191" y="241.2344">ICommand</text><line style="stroke:#A80036;stroke-width:1.5;" x1="163" x2="255" y1="252.6992" y2="252.6992"/><line style="stroke:#A80036;stroke-width:1.5;" x1="163" x2="255" y1="260.6992" y2="260.6992"/><text fill="#000000" font-family="sans-serif" font-size="11" lengthAdjust="spacing" textLength="50" x="168" y="275.334">Execute()</text><!--MD5=[6fb1311da0745c184c648aedb301439e]
class ConcreteCommand--><rect codeLine="23" fill="#FEFECE" filter="url(#f933h0hxirvp1)" height="60.9551" id="ConcreteCommand" style="stroke:#A80036;stroke-width:1.5;" width="142" x="174" y="415.1992"/><ellipse cx="189" cy="431.1992" fill="#ADD1B2" rx="11" ry="11" style="stroke:#A80036;stroke-width:1.0;"/><path d="M191.4731,437.3423 Q190.8921,437.6411 190.2529,437.7905 Q189.6138,437.9399 188.9082,437.9399 Q186.4014,437.9399 185.0815,436.2881 Q183.7617,434.6362 183.7617,431.5151 Q183.7617,428.3857 185.0815,426.7339 Q186.4014,425.082 188.9082,425.082 Q189.6138,425.082 190.2612,425.2314 Q190.9087,425.3809 191.4731,425.6797 L191.4731,428.4023 Q190.8423,427.8213 190.2488,427.5515 Q189.6553,427.2817 189.0244,427.2817 Q187.6797,427.2817 186.9949,428.3484 Q186.3101,429.415 186.3101,431.5151 Q186.3101,433.6069 186.9949,434.6736 Q187.6797,435.7402 189.0244,435.7402 Q189.6553,435.7402 190.2488,435.4705 Q190.8423,435.2007 191.4731,434.6196 Z " fill="#000000"/><text fill="#000000" font-family="sans-serif" font-size="12" lengthAdjust="spacing" textLength="110" x="203" y="435.7344">ConcreteCommand</text><line style="stroke:#A80036;stroke-width:1.5;" x1="175" x2="315" y1="447.1992" y2="447.1992"/><line style="stroke:#A80036;stroke-width:1.5;" x1="175" x2="315" y1="455.1992" y2="455.1992"/><text fill="#000000" font-family="sans-serif" font-size="11" lengthAdjust="spacing" textLength="50" x="180" y="469.834">Execute()</text><path d="M23,433.1992 L23,458.5098 A0,0 0 0 0 23,458.5098 L139,458.5098 A0,0 0 0 0 139,458.5098 L139,451.1992 L173.98,445.6992 L139,443.1992 L139,443.1992 L129,433.1992 L23,433.1992 A0,0 0 0 0 23,433.1992 " fill="#FBFB77" filter="url(#f933h0hxirvp1)" style="stroke:#A80036;stroke-width:1.0;"/><path d="M129,433.1992 L129,443.1992 L139,443.1992 L129,433.1992 " fill="#FBFB77" style="stroke:#A80036;stroke-width:1.0;"/><text fill="#000000" font-family="sans-serif" font-size="13" lengthAdjust="spacing" textLength="95" x="29" y="450.7676">Receiver.action</text><!--MD5=[bc5cfb6f659265949d29b23f39cdf5e7]
class Broker--><rect codeLine="52" fill="#FEFECE" filter="url(#f933h0hxirvp1)" height="86.8652" id="Broker" style="stroke:#A80036;stroke-width:1.5;" width="179" x="409.5" y="207.6992"/><ellipse cx="475.75" cy="223.6992" fill="#ADD1B2" rx="11" ry="11" style="stroke:#A80036;stroke-width:1.0;"/><path d="M478.2231,229.8423 Q477.6421,230.1411 477.0029,230.2905 Q476.3638,230.4399 475.6582,230.4399 Q473.1514,230.4399 471.8315,228.7881 Q470.5117,227.1362 470.5117,224.0151 Q470.5117,220.8857 471.8315,219.2339 Q473.1514,217.582 475.6582,217.582 Q476.3638,217.582 477.0112,217.7314 Q477.6587,217.8809 478.2231,218.1797 L478.2231,220.9023 Q477.5923,220.3213 476.9988,220.0515 Q476.4053,219.7817 475.7744,219.7817 Q474.4297,219.7817 473.7449,220.8484 Q473.0601,221.915 473.0601,224.0151 Q473.0601,226.1069 473.7449,227.1736 Q474.4297,228.2402 475.7744,228.2402 Q476.4053,228.2402 476.9988,227.9705 Q477.5923,227.7007 478.2231,227.1196 Z " fill="#000000"/><text fill="#000000" font-family="sans-serif" font-size="12" lengthAdjust="spacing" textLength="38" x="496.25" y="228.2344">Broker</text><line style="stroke:#A80036;stroke-width:1.5;" x1="410.5" x2="587.5" y1="239.6992" y2="239.6992"/><rect fill="none" height="6" style="stroke:#C82930;stroke-width:1.0;" width="6" x="417.5" y="247.6992"/><text fill="#000000" font-family="sans-serif" font-size="11" lengthAdjust="spacing" textLength="121" x="429.5" y="254.334">List&lt;Order&gt; orderList</text><line style="stroke:#A80036;stroke-width:1.5;" x1="410.5" x2="587.5" y1="260.6543" y2="260.6543"/><ellipse cx="420.5" cy="271.6543" fill="#84BE84" rx="3" ry="3" style="stroke:#038048;stroke-width:1.0;"/><text fill="#000000" font-family="sans-serif" font-size="11" lengthAdjust="spacing" textLength="153" x="429.5" y="275.2891">void takeOrder(Order order)</text><ellipse cx="420.5" cy="284.6094" fill="#84BE84" rx="3" ry="3" style="stroke:#038048;stroke-width:1.0;"/><text fill="#000000" font-family="sans-serif" font-size="11" lengthAdjust="spacing" textLength="100" x="429.5" y="288.2441">void placeOrders()</text><!--MD5=[a4cb0f987c11031dc931233a0e7767af]
class Stock--><rect codeLine="58" fill="#FEFECE" filter="url(#f933h0hxirvp1)" height="99.8203" id="Stock" style="stroke:#A80036;stroke-width:1.5;" width="138" x="624" y="201.1992"/><ellipse cx="673.75" cy="217.1992" fill="#ADD1B2" rx="11" ry="11" style="stroke:#A80036;stroke-width:1.0;"/><path d="M676.2231,223.3423 Q675.6421,223.6411 675.0029,223.7905 Q674.3638,223.9399 673.6582,223.9399 Q671.1514,223.9399 669.8315,222.2881 Q668.5117,220.6362 668.5117,217.5151 Q668.5117,214.3857 669.8315,212.7339 Q671.1514,211.082 673.6582,211.082 Q674.3638,211.082 675.0112,211.2314 Q675.6587,211.3809 676.2231,211.6797 L676.2231,214.4023 Q675.5923,213.8213 674.9988,213.5515 Q674.4053,213.2817 673.7744,213.2817 Q672.4297,213.2817 671.7449,214.3484 Q671.0601,215.415 671.0601,217.5151 Q671.0601,219.6069 671.7449,220.6736 Q672.4297,221.7402 673.7744,221.7402 Q674.4053,221.7402 674.9988,221.4705 Q675.5923,221.2007 676.2231,220.6196 Z " fill="#000000"/><text fill="#000000" font-family="sans-serif" font-size="12" lengthAdjust="spacing" textLength="30" x="694.25" y="221.7344">Stock</text><line style="stroke:#A80036;stroke-width:1.5;" x1="625" x2="761" y1="233.1992" y2="233.1992"/><rect fill="none" height="6" style="stroke:#C82930;stroke-width:1.0;" width="6" x="632" y="241.1992"/><text fill="#000000" font-family="sans-serif" font-size="11" lengthAdjust="spacing" textLength="112" x="644" y="247.834">String name = "ABC";</text><rect fill="none" height="6" style="stroke:#C82930;stroke-width:1.0;" width="6" x="632" y="254.1543"/><text fill="#000000" font-family="sans-serif" font-size="11" lengthAdjust="spacing" textLength="93" x="644" y="260.7891">int quantity = 10;</text><line style="stroke:#A80036;stroke-width:1.5;" x1="625" x2="761" y1="267.1094" y2="267.1094"/><ellipse cx="635" cy="278.1094" fill="#84BE84" rx="3" ry="3" style="stroke:#038048;stroke-width:1.0;"/><text fill="#000000" font-family="sans-serif" font-size="11" lengthAdjust="spacing" textLength="54" x="644" y="281.7441">void buy()</text><ellipse cx="635" cy="291.0645" fill="#84BE84" rx="3" ry="3" style="stroke:#038048;stroke-width:1.0;"/><text fill="#000000" font-family="sans-serif" font-size="11" lengthAdjust="spacing" textLength="52" x="644" y="294.6992">void sell()</text><!--MD5=[27811b0c10abe3f89709e4883bfa9f28]
class CommandPatternDemo--><rect codeLine="65" fill="#FEFECE" filter="url(#f933h0hxirvp1)" height="60.9551" id="CommandPatternDemo" style="stroke:#A80036;stroke-width:1.5;" width="166" x="499" y="63.1992"/><ellipse cx="514" cy="79.1992" fill="#ADD1B2" rx="11" ry="11" style="stroke:#A80036;stroke-width:1.0;"/><path d="M516.4731,85.3423 Q515.8921,85.6411 515.2529,85.7905 Q514.6138,85.9399 513.9082,85.9399 Q511.4014,85.9399 510.0815,84.2881 Q508.7617,82.6362 508.7617,79.5151 Q508.7617,76.3857 510.0815,74.7339 Q511.4014,73.082 513.9082,73.082 Q514.6138,73.082 515.2612,73.2314 Q515.9087,73.3809 516.4731,73.6797 L516.4731,76.4023 Q515.8423,75.8213 515.2488,75.5515 Q514.6553,75.2817 514.0244,75.2817 Q512.6797,75.2817 511.9949,76.3484 Q511.3101,77.415 511.3101,79.5151 Q511.3101,81.6069 511.9949,82.6736 Q512.6797,83.7402 514.0244,83.7402 Q514.6553,83.7402 515.2488,83.4705 Q515.8423,83.2007 516.4731,82.6196 Z " fill="#000000"/><text fill="#000000" font-family="sans-serif" font-size="12" lengthAdjust="spacing" textLength="134" x="528" y="83.7344">CommandPatternDemo</text><line style="stroke:#A80036;stroke-width:1.5;" x1="500" x2="664" y1="95.1992" y2="95.1992"/><line style="stroke:#A80036;stroke-width:1.5;" x1="500" x2="664" y1="103.1992" y2="103.1992"/><ellipse cx="510" cy="114.1992" fill="#84BE84" rx="3" ry="3" style="stroke:#038048;stroke-width:1.0;"/><text fill="#000000" font-family="sans-serif" font-size="11" lengthAdjust="spacing" text-decoration="underline" textLength="127" x="519" y="117.834">void main(String[] args)</text><!--MD5=[cf4d6237fcae255cd2e1656cf84a30e2]
class Order--><rect codeLine="34" fill="#FEFECE" filter="url(#f933h0hxirvp1)" height="60.9551" id="Order" style="stroke:#A80036;stroke-width:1.5;" width="91" x="590.5" y="415.1992"/><ellipse cx="616.75" cy="431.1992" fill="#B4A7E5" rx="11" ry="11" style="stroke:#A80036;stroke-width:1.0;"/><path d="M613.1777,427.4644 L613.1777,425.3062 L620.5571,425.3062 L620.5571,427.4644 L618.0918,427.4644 L618.0918,435.541 L620.5571,435.541 L620.5571,437.6992 L613.1777,437.6992 L613.1777,435.541 L615.6431,435.541 L615.6431,427.4644 Z " fill="#000000"/><text fill="#000000" font-family="sans-serif" font-size="12" font-style="italic" lengthAdjust="spacing" textLength="34" x="633.25" y="435.7344">Order</text><line style="stroke:#A80036;stroke-width:1.5;" x1="591.5" x2="680.5" y1="447.1992" y2="447.1992"/><line style="stroke:#A80036;stroke-width:1.5;" x1="591.5" x2="680.5" y1="455.1992" y2="455.1992"/><text fill="#000000" font-family="sans-serif" font-size="11" lengthAdjust="spacing" textLength="79" x="596.5" y="469.834">void execute();</text><!--MD5=[7971c1e3fd672fd8ef7f9ef176bed95f]
class BuyStock--><rect codeLine="38" fill="#FEFECE" filter="url(#f933h0hxirvp1)" height="86.8652" id="BuyStock" style="stroke:#A80036;stroke-width:1.5;" width="162" x="457" y="537.1992"/><ellipse cx="508.75" cy="553.1992" fill="#ADD1B2" rx="11" ry="11" style="stroke:#A80036;stroke-width:1.0;"/><path d="M511.2231,559.3423 Q510.6421,559.6411 510.0029,559.7905 Q509.3638,559.9399 508.6582,559.9399 Q506.1514,559.9399 504.8315,558.2881 Q503.5117,556.6362 503.5117,553.5151 Q503.5117,550.3857 504.8315,548.7339 Q506.1514,547.082 508.6582,547.082 Q509.3638,547.082 510.0112,547.2314 Q510.6587,547.3809 511.2231,547.6797 L511.2231,550.4023 Q510.5923,549.8213 509.9988,549.5515 Q509.4053,549.2817 508.7744,549.2817 Q507.4297,549.2817 506.7449,550.3484 Q506.0601,551.415 506.0601,553.5151 Q506.0601,555.6069 506.7449,556.6736 Q507.4297,557.7402 508.7744,557.7402 Q509.4053,557.7402 509.9988,557.4705 Q510.5923,557.2007 511.2231,556.6196 Z " fill="#000000"/><text fill="#000000" font-family="sans-serif" font-size="12" lengthAdjust="spacing" textLength="50" x="529.25" y="557.7344">BuyStock</text><line style="stroke:#A80036;stroke-width:1.5;" x1="458" x2="618" y1="569.1992" y2="569.1992"/><rect fill="none" height="6" style="stroke:#C82930;stroke-width:1.0;" width="6" x="465" y="577.1992"/><text fill="#000000" font-family="sans-serif" font-size="11" lengthAdjust="spacing" textLength="80" x="477" y="583.834">Stock abcStock</text><line style="stroke:#A80036;stroke-width:1.5;" x1="458" x2="618" y1="590.1543" y2="590.1543"/><ellipse cx="468" cy="601.1543" fill="#84BE84" rx="3" ry="3" style="stroke:#038048;stroke-width:1.0;"/><text fill="#000000" font-family="sans-serif" font-size="11" lengthAdjust="spacing" textLength="136" x="477" y="604.7891">BuyStock(Stock abcStock)</text><ellipse cx="468" cy="614.1094" fill="#84BE84" rx="3" ry="3" style="stroke:#038048;stroke-width:1.0;"/><text fill="#000000" font-family="sans-serif" font-size="11" lengthAdjust="spacing" textLength="76" x="477" y="617.7441">void execute()</text><!--MD5=[5ba5346b0e4f52090aa6e658fa64e57d]
class SellStock--><rect codeLine="44" fill="#FEFECE" filter="url(#f933h0hxirvp1)" height="86.8652" id="SellStock" style="stroke:#A80036;stroke-width:1.5;" width="161" x="654.5" y="537.1992"/><ellipse cx="706.25" cy="553.1992" fill="#ADD1B2" rx="11" ry="11" style="stroke:#A80036;stroke-width:1.0;"/><path d="M708.7231,559.3423 Q708.1421,559.6411 707.5029,559.7905 Q706.8638,559.9399 706.1582,559.9399 Q703.6514,559.9399 702.3315,558.2881 Q701.0117,556.6362 701.0117,553.5151 Q701.0117,550.3857 702.3315,548.7339 Q703.6514,547.082 706.1582,547.082 Q706.8638,547.082 707.5112,547.2314 Q708.1587,547.3809 708.7231,547.6797 L708.7231,550.4023 Q708.0923,549.8213 707.4988,549.5515 Q706.9053,549.2817 706.2744,549.2817 Q704.9297,549.2817 704.2449,550.3484 Q703.5601,551.415 703.5601,553.5151 Q703.5601,555.6069 704.2449,556.6736 Q704.9297,557.7402 706.2744,557.7402 Q706.9053,557.7402 707.4988,557.4705 Q708.0923,557.2007 708.7231,556.6196 Z " fill="#000000"/><text fill="#000000" font-family="sans-serif" font-size="12" lengthAdjust="spacing" textLength="49" x="726.75" y="557.7344">SellStock</text><line style="stroke:#A80036;stroke-width:1.5;" x1="655.5" x2="814.5" y1="569.1992" y2="569.1992"/><rect fill="none" height="6" style="stroke:#C82930;stroke-width:1.0;" width="6" x="662.5" y="577.1992"/><text fill="#000000" font-family="sans-serif" font-size="11" lengthAdjust="spacing" textLength="83" x="674.5" y="583.834">Stock abcStock;</text><line style="stroke:#A80036;stroke-width:1.5;" x1="655.5" x2="814.5" y1="590.1543" y2="590.1543"/><ellipse cx="665.5" cy="601.1543" fill="#84BE84" rx="3" ry="3" style="stroke:#038048;stroke-width:1.0;"/><text fill="#000000" font-family="sans-serif" font-size="11" lengthAdjust="spacing" textLength="135" x="674.5" y="604.7891">SellStock(Stock abcStock)</text><ellipse cx="665.5" cy="614.1094" fill="#84BE84" rx="3" ry="3" style="stroke:#038048;stroke-width:1.0;"/><text fill="#000000" font-family="sans-serif" font-size="11" lengthAdjust="spacing" textLength="76" x="674.5" y="617.7441">void execute()</text><!--MD5=[cc4d0d82f78b4d6c56edb442f0ec38fb]
reverse link ICommand to ConcreteCommand--><path d="M218.25,301.6792 C224.96,337.5392 233.8,384.8292 239.45,415.0092 " fill="none" id="ICommand-backto-ConcreteCommand" style="stroke:#A80036;stroke-width:1.0;stroke-dasharray:7.0,7.0;"/><polygon fill="none" points="211.34,302.7992,214.55,281.8592,225.1,300.2292,211.34,302.7992" style="stroke:#A80036;stroke-width:1.0;"/><!--MD5=[19fe6bc1e00e261807f2bfc974fabb52]
link Invoker to ICommand--><path codeLine="19" d="M209,136.3092 C209,136.3092 209,185.6692 209,207.4692 " fill="none" id="Invoker-ICommand" style="stroke:#A80036;stroke-width:1.0;"/><polygon fill="#A80036" points="209,220.6992,213,211.6992,209,215.6992,205,211.6992,209,220.6992" style="stroke:#A80036;stroke-width:1.0;"/><line style="stroke:#A80036;stroke-width:1.0;" x1="209" x2="209" y1="215.6992" y2="207.6992"/><polygon fill="#FFFFFF" points="209,124.3092,205,130.3092,209,136.3092,213,130.3092,209,124.3092" style="stroke:#A80036;stroke-width:1.0;"/><!--MD5=[3ae1d6467d9c51ec8ad627ef4a302624]
link client to Receiver--><path codeLine="20" d="M325.85,267.4292 C334.46,304.0592 353.07,399.6792 334,476.1992 C327.82,500.9792 314.48,526.3392 302.49,545.7592 " fill="none" id="client-to-Receiver" style="stroke:#A80036;stroke-width:1.0;"/><polygon fill="#A80036" points="299.79,550.0592,307.9653,544.567,302.4503,545.8257,301.1916,540.3106,299.79,550.0592" style="stroke:#A80036;stroke-width:1.0;"/><!--MD5=[61226423da3d0f874329010916e4aeca]
link ConcreteCommand to Receiver--><path codeLine="21" d="M252.55,476.2192 C257.73,496.4792 264.62,523.4592 270.08,544.7892 " fill="none" id="ConcreteCommand-to-Receiver" style="stroke:#A80036;stroke-width:1.0;"/><polygon fill="#A80036" points="271.36,549.8092,273.0241,540.102,270.1305,544.9627,265.2697,542.0691,271.36,549.8092" style="stroke:#A80036;stroke-width:1.0;"/><!--MD5=[61de32dbe220ed9c3de60d1857854bbb]
link client to ConcreteCommand--><path codeLine="22" d="M315.96,267.3092 C303.23,299.1192 273.47,373.5392 256.81,415.1692 " fill="none" id="client-ConcreteCommand" style="stroke:#A80036;stroke-width:1.0;stroke-dasharray:7.0,7.0;"/><!--MD5=[797ce17be6fb485021035f6f0e34d94e]
reverse link Order to BuyStock--><path d="M602.34,492.3792 C591.65,506.8892 579.88,522.8692 569.36,537.1392 " fill="none" id="Order-backto-BuyStock" style="stroke:#A80036;stroke-width:1.0;stroke-dasharray:7.0,7.0;"/><polygon fill="none" points="596.75,488.1692,614.25,476.2192,608.02,496.4692,596.75,488.1692" style="stroke:#A80036;stroke-width:1.0;"/><!--MD5=[d86bcac7bbf7caed59b35b6a1ff4ce44]
reverse link Order to SellStock--><path d="M670,492.3792 C680.8,506.8892 692.69,522.8692 703.32,537.1392 " fill="none" id="Order-backto-SellStock" style="stroke:#A80036;stroke-width:1.0;stroke-dasharray:7.0,7.0;"/><polygon fill="none" points="664.3,496.4392,657.97,476.2192,675.53,488.0792,664.3,496.4392" style="stroke:#A80036;stroke-width:1.0;"/><!--MD5=[6c975fedd304cef1e01de59bcf1ae8e4]
link Broker to 接口--><path codeLine="69" d="M469.86,294.8992 C458.94,313.0192 447.59,334.8692 441,356.1992 C439.5888,360.7692 438.402,365.5302 437.4062,370.3688 C437.2817,370.9736 437.1602,371.5796 437.0416,372.1867 " fill="none" id="Broker-to-接口" style="stroke:#A80036;stroke-width:1.0;stroke-dasharray:7.0,7.0;"/><polygon fill="#A80036" points="437.0416,372.1867,442.6929,364.1206,438.0002,367.2794,434.8414,362.5867,437.0416,372.1867" style="stroke:#A80036;stroke-width:1.0;"/><text fill="#000000" font-family="sans-serif" font-size="13" lengthAdjust="spacing" textLength="97" x="451" y="344.7676">依赖-使用 use a</text><!--MD5=[b4157fe51097d3cc5b2734a94528be7d]
link CommandPatternDemo to Broker--><path codeLine="70" d="M556.98,124.4892 C549.97,133.6692 542.71,144.0392 537,154.1992 C528.48,169.3492 520.96,186.7992 514.91,202.6292 " fill="none" id="CommandPatternDemo-to-Broker" style="stroke:#A80036;stroke-width:1.0;stroke-dasharray:7.0,7.0;"/><polygon fill="#A80036" points="513.08,207.4792,519.9925,200.4637,514.8403,202.7993,512.5047,197.6472,513.08,207.4792" style="stroke:#A80036;stroke-width:1.0;"/><text fill="#000000" font-family="sans-serif" font-size="13" lengthAdjust="spacing" textLength="97" x="538" y="167.7676">依赖-使用 use a</text><!--MD5=[22416c663a26117a9bdac0ab43b8c51f]
link CommandPatternDemo to Stock--><path codeLine="71" d="M614.07,124.4592 C623.01,133.5592 632.35,143.8892 640,154.1992 C649.58,167.1092 658.61,181.9492 666.41,196.0392 " fill="none" id="CommandPatternDemo-to-Stock" style="stroke:#A80036;stroke-width:1.0;stroke-dasharray:7.0,7.0;"/><polygon fill="#A80036" points="669,200.7892,668.1885,190.9739,666.5997,196.403,661.1706,194.8143,669,200.7892" style="stroke:#A80036;stroke-width:1.0;"/><text fill="#000000" font-family="sans-serif" font-size="13" lengthAdjust="spacing" textLength="97" x="651" y="167.7676">依赖-使用 use a</text><!--MD5=[9776b79a57b88b6723345700eb2870fd]
@startuml
Title 设计模式-命令模式

package 示意图 <<Rectangle>>{
   class client{
       +hiddenMethod()
   }
   class Receiver{
      action()
   }
   class Invoker{
      setCommand()
   }
   interface ICommand{
      Execute()
   }
   class ConcreteCommand implements ICommand{
      Execute()
   }
   Invoker o- -> ICommand
   client - -> Receiver
   ConcreteCommand - -> Receiver
   client .. ConcreteCommand
   class ConcreteCommand
   note left: Receiver.action

}

hide client methods
hide client members

package 实际设计图 <<Rectangle>>{
   
   package 接口 <<Rectangle>>{
      interface Order {
         void execute();
      }

      class BuyStock implements Order {
         - Stock abcStock
         + BuyStock(Stock abcStock)
         + void execute()
      }

      class SellStock implements Order {
         - Stock abcStock;
         + SellStock(Stock abcStock)
         + void execute()
      }
      
   }

   class Broker {
      - List<Order> orderList
      + void takeOrder(Order order)
      + void placeOrders()
   }

   class Stock {
      - String name = "ABC";
      - int quantity = 10;
      + void buy()
      + void sell()
   }

   class CommandPatternDemo {
      + {static} void main(String[] args) 
   }

   Broker ..>  接口:依赖-使用 use a
   CommandPatternDemo ..> Broker:依赖-使用 use a
   CommandPatternDemo ..> Stock:依赖-使用 use a


}


@enduml

PlantUML version 1.2021.7(Sun May 23 20:40:07 CST 2021)
(GPL source distribution)
Java Runtime: OpenJDK Runtime Environment
JVM: OpenJDK 64-Bit Server VM
Default Encoding: UTF-8
Language: zh
Country: CN
--></g></svg>