<?xml version="1.0" encoding="UTF-8" standalone="no"?><svg xmlns="http://www.w3.org/2000/svg" xmlns:xlink="http://www.w3.org/1999/xlink" contentScriptType="application/ecmascript" contentStyleType="text/css" height="396px" preserveAspectRatio="none" style="width:894px;height:396px;background:#FFFFFF;" version="1.1" viewBox="0 0 894 396" width="894px" zoomAndPan="magnify"><defs><filter height="300%" id="f8zb0id5pxdiu" width="300%" x="-1" y="-1"><feGaussianBlur result="blurOut" stdDeviation="2.0"/><feColorMatrix in="blurOut" result="blurOut2" type="matrix" values="0 0 0 0 0 0 0 0 0 0 0 0 0 0 0 0 0 0 .4 0"/><feOffset dx="4.0" dy="4.0" in="blurOut2" result="blurOut3"/><feBlend in="SourceGraphic" in2="blurOut3" mode="normal"/></filter></defs><g><text fill="#000000" font-family="sans-serif" font-size="18" lengthAdjust="spacing" textLength="153" x="364" y="17.4023">设计模式-mvc模式</text><!--MD5=[d6181cb537bdc20c0a3007a98a56832d]
class Student--><rect codeLine="3" fill="#FEFECE" filter="url(#f8zb0id5pxdiu)" height="125.7305" id="Student" style="stroke:#A80036;stroke-width:1.5;" width="179" x="7" y="257.1992"/><ellipse cx="70.75" cy="273.1992" fill="#ADD1B2" rx="11" ry="11" style="stroke:#A80036;stroke-width:1.0;"/><path d="M73.2231,279.3423 Q72.6421,279.6411 72.0029,279.7905 Q71.3638,279.9399 70.6582,279.9399 Q68.1514,279.9399 66.8315,278.2881 Q65.5117,276.6362 65.5117,273.5151 Q65.5117,270.3857 66.8315,268.7339 Q68.1514,267.082 70.6582,267.082 Q71.3638,267.082 72.0112,267.2314 Q72.6587,267.3809 73.2231,267.6797 L73.2231,270.4023 Q72.5923,269.8213 71.9988,269.5515 Q71.4053,269.2817 70.7744,269.2817 Q69.4297,269.2817 68.7449,270.3484 Q68.0601,271.415 68.0601,273.5151 Q68.0601,275.6069 68.7449,276.6736 Q69.4297,277.7402 70.7744,277.7402 Q71.4053,277.7402 71.9988,277.4705 Q72.5923,277.2007 73.2231,276.6196 Z " fill="#000000"/><text fill="#000000" font-family="sans-serif" font-size="12" lengthAdjust="spacing" textLength="43" x="91.25" y="277.7344">Student</text><line style="stroke:#A80036;stroke-width:1.5;" x1="8" x2="185" y1="289.1992" y2="289.1992"/><rect fill="none" height="6" style="stroke:#C82930;stroke-width:1.0;" width="6" x="15" y="297.1992"/><text fill="#000000" font-family="sans-serif" font-size="11" lengthAdjust="spacing" textLength="71" x="27" y="303.834">String rollNo;</text><rect fill="none" height="6" style="stroke:#C82930;stroke-width:1.0;" width="6" x="15" y="310.1543"/><text fill="#000000" font-family="sans-serif" font-size="11" lengthAdjust="spacing" textLength="67" x="27" y="316.7891">String name;</text><line style="stroke:#A80036;stroke-width:1.5;" x1="8" x2="185" y1="323.1094" y2="323.1094"/><ellipse cx="18" cy="334.1094" fill="#84BE84" rx="3" ry="3" style="stroke:#038048;stroke-width:1.0;"/><text fill="#000000" font-family="sans-serif" font-size="11" lengthAdjust="spacing" textLength="95" x="27" y="337.7441">String getRollNo()</text><ellipse cx="18" cy="347.0645" fill="#84BE84" rx="3" ry="3" style="stroke:#038048;stroke-width:1.0;"/><text fill="#000000" font-family="sans-serif" font-size="11" lengthAdjust="spacing" textLength="153" x="27" y="350.6992">void setRollNo(String rollNo)</text><ellipse cx="18" cy="360.0195" fill="#84BE84" rx="3" ry="3" style="stroke:#038048;stroke-width:1.0;"/><text fill="#000000" font-family="sans-serif" font-size="11" lengthAdjust="spacing" textLength="90" x="27" y="363.6543">String getName()</text><ellipse cx="18" cy="372.9746" fill="#84BE84" rx="3" ry="3" style="stroke:#038048;stroke-width:1.0;"/><text fill="#000000" font-family="sans-serif" font-size="11" lengthAdjust="spacing" textLength="144" x="27" y="376.6094">void setName(String name)</text><!--MD5=[7a3e8aee19273ec94808eb5ba74063d2]
class StudentView--><rect codeLine="12" fill="#FEFECE" filter="url(#f8zb0id5pxdiu)" height="60.9551" id="StudentView" style="stroke:#A80036;stroke-width:1.5;" width="386" x="221.5" y="289.6992"/><ellipse cx="375.25" cy="305.6992" fill="#ADD1B2" rx="11" ry="11" style="stroke:#A80036;stroke-width:1.0;"/><path d="M377.7231,311.8423 Q377.1421,312.1411 376.5029,312.2905 Q375.8638,312.4399 375.1582,312.4399 Q372.6514,312.4399 371.3315,310.7881 Q370.0117,309.1362 370.0117,306.0151 Q370.0117,302.8857 371.3315,301.2339 Q372.6514,299.582 375.1582,299.582 Q375.8638,299.582 376.5112,299.7314 Q377.1587,299.8809 377.7231,300.1797 L377.7231,302.9023 Q377.0923,302.3213 376.4988,302.0515 Q375.9053,301.7817 375.2744,301.7817 Q373.9297,301.7817 373.2449,302.8484 Q372.5601,303.915 372.5601,306.0151 Q372.5601,308.1069 373.2449,309.1736 Q373.9297,310.2402 375.2744,310.2402 Q375.9053,310.2402 376.4988,309.9705 Q377.0923,309.7007 377.7231,309.1196 Z " fill="#000000"/><text fill="#000000" font-family="sans-serif" font-size="12" lengthAdjust="spacing" textLength="70" x="395.75" y="310.2344">StudentView</text><line style="stroke:#A80036;stroke-width:1.5;" x1="222.5" x2="606.5" y1="321.6992" y2="321.6992"/><line style="stroke:#A80036;stroke-width:1.5;" x1="222.5" x2="606.5" y1="329.6992" y2="329.6992"/><ellipse cx="232.5" cy="340.6992" fill="#84BE84" rx="3" ry="3" style="stroke:#038048;stroke-width:1.0;"/><text fill="#000000" font-family="sans-serif" font-size="11" lengthAdjust="spacing" textLength="360" x="241.5" y="344.334">void printStudentDetails(String studentName, String studentRollNo)</text><!--MD5=[530e89a8f9e4e740df08c0f56fe3de16]
class StudentController--><rect codeLine="16" fill="#FEFECE" filter="url(#f8zb0id5pxdiu)" height="151.6406" id="StudentController" style="stroke:#A80036;stroke-width:1.5;" width="304" x="262.5" y="28.1992"/><ellipse cx="360.75" cy="44.1992" fill="#ADD1B2" rx="11" ry="11" style="stroke:#A80036;stroke-width:1.0;"/><path d="M363.2231,50.3423 Q362.6421,50.6411 362.0029,50.7905 Q361.3638,50.9399 360.6582,50.9399 Q358.1514,50.9399 356.8315,49.2881 Q355.5117,47.6362 355.5117,44.5151 Q355.5117,41.3857 356.8315,39.7339 Q358.1514,38.082 360.6582,38.082 Q361.3638,38.082 362.0112,38.2314 Q362.6587,38.3809 363.2231,38.6797 L363.2231,41.4023 Q362.5923,40.8213 361.9988,40.5515 Q361.4053,40.2817 360.7744,40.2817 Q359.4297,40.2817 358.7449,41.3484 Q358.0601,42.415 358.0601,44.5151 Q358.0601,46.6069 358.7449,47.6736 Q359.4297,48.7402 360.7744,48.7402 Q361.4053,48.7402 361.9988,48.4705 Q362.5923,48.2007 363.2231,47.6196 Z " fill="#000000"/><text fill="#000000" font-family="sans-serif" font-size="12" lengthAdjust="spacing" textLength="99" x="381.25" y="48.7344">StudentController</text><line style="stroke:#A80036;stroke-width:1.5;" x1="263.5" x2="565.5" y1="60.1992" y2="60.1992"/><rect fill="none" height="6" style="stroke:#C82930;stroke-width:1.0;" width="6" x="270.5" y="68.1992"/><text fill="#000000" font-family="sans-serif" font-size="11" lengthAdjust="spacing" textLength="80" x="282.5" y="74.834">Student model;</text><rect fill="none" height="6" style="stroke:#C82930;stroke-width:1.0;" width="6" x="270.5" y="81.1543"/><text fill="#000000" font-family="sans-serif" font-size="11" lengthAdjust="spacing" textLength="94" x="282.5" y="87.7891">StudentView view;</text><line style="stroke:#A80036;stroke-width:1.5;" x1="263.5" x2="565.5" y1="94.1094" y2="94.1094"/><ellipse cx="273.5" cy="105.1094" fill="#84BE84" rx="3" ry="3" style="stroke:#038048;stroke-width:1.0;"/><text fill="#000000" font-family="sans-serif" font-size="11" lengthAdjust="spacing" textLength="278" x="282.5" y="108.7441">StudentController(Student model, StudentView view)</text><ellipse cx="273.5" cy="118.0645" fill="#84BE84" rx="3" ry="3" style="stroke:#038048;stroke-width:1.0;"/><text fill="#000000" font-family="sans-serif" font-size="11" lengthAdjust="spacing" textLength="185" x="282.5" y="121.6992">void setStudentName(String name)</text><ellipse cx="273.5" cy="131.0195" fill="#84BE84" rx="3" ry="3" style="stroke:#038048;stroke-width:1.0;"/><text fill="#000000" font-family="sans-serif" font-size="11" lengthAdjust="spacing" textLength="131" x="282.5" y="134.6543">String getStudentName()</text><ellipse cx="273.5" cy="143.9746" fill="#84BE84" rx="3" ry="3" style="stroke:#038048;stroke-width:1.0;"/><text fill="#000000" font-family="sans-serif" font-size="11" lengthAdjust="spacing" textLength="194" x="282.5" y="147.6094">void setStudentRollNo(String rollNo)</text><ellipse cx="273.5" cy="156.9297" fill="#84BE84" rx="3" ry="3" style="stroke:#038048;stroke-width:1.0;"/><text fill="#000000" font-family="sans-serif" font-size="11" lengthAdjust="spacing" textLength="136" x="282.5" y="160.5645">String getStudentRollNo()</text><ellipse cx="273.5" cy="169.8848" fill="#84BE84" rx="3" ry="3" style="stroke:#038048;stroke-width:1.0;"/><text fill="#000000" font-family="sans-serif" font-size="11" lengthAdjust="spacing" textLength="95" x="282.5" y="173.5195">void updateView()</text><!--MD5=[cc82f59a2af2f4b121c5dd6126d9775c]
class MVCPatternDemo--><rect codeLine="28" fill="#FEFECE" filter="url(#f8zb0id5pxdiu)" height="73.9102" id="MVCPatternDemo" style="stroke:#A80036;stroke-width:1.5;" width="237" x="643" y="283.1992"/><ellipse cx="706.75" cy="299.1992" fill="#ADD1B2" rx="11" ry="11" style="stroke:#A80036;stroke-width:1.0;"/><path d="M709.2231,305.3423 Q708.6421,305.6411 708.0029,305.7905 Q707.3638,305.9399 706.6582,305.9399 Q704.1514,305.9399 702.8315,304.2881 Q701.5117,302.6362 701.5117,299.5151 Q701.5117,296.3857 702.8315,294.7339 Q704.1514,293.082 706.6582,293.082 Q707.3638,293.082 708.0112,293.2314 Q708.6587,293.3809 709.2231,293.6797 L709.2231,296.4023 Q708.5923,295.8213 707.9988,295.5515 Q707.4053,295.2817 706.7744,295.2817 Q705.4297,295.2817 704.7449,296.3484 Q704.0601,297.415 704.0601,299.5151 Q704.0601,301.6069 704.7449,302.6736 Q705.4297,303.7402 706.7744,303.7402 Q707.4053,303.7402 707.9988,303.4705 Q708.5923,303.2007 709.2231,302.6196 Z " fill="#000000"/><text fill="#000000" font-family="sans-serif" font-size="12" lengthAdjust="spacing" textLength="101" x="727.25" y="303.7344">MVCPatternDemo</text><line style="stroke:#A80036;stroke-width:1.5;" x1="644" x2="879" y1="315.1992" y2="315.1992"/><line style="stroke:#A80036;stroke-width:1.5;" x1="644" x2="879" y1="323.1992" y2="323.1992"/><ellipse cx="654" cy="334.1992" fill="#84BE84" rx="3" ry="3" style="stroke:#038048;stroke-width:1.0;"/><text fill="#000000" font-family="sans-serif" font-size="11" lengthAdjust="spacing" text-decoration="underline" textLength="127" x="663" y="337.834">void main(String[] args)</text><rect fill="#F24D5C" height="6" style="stroke:#C82930;stroke-width:1.0;" width="6" x="651" y="344.1543"/><text fill="#000000" font-family="sans-serif" font-size="11" lengthAdjust="spacing" text-decoration="underline" textLength="211" x="663" y="350.7891">Student retrieveStudentFromDatabase()</text><!--MD5=[719eb11581e88d46de174896ff2afa05]
link StudentController to Student--><path codeLine="33" d="M302.83,180.3492 C266.12,205.0592 225.7,232.2592 190.43,255.9892 " fill="none" id="StudentController-to-Student" style="stroke:#A80036;stroke-width:1.0;stroke-dasharray:7.0,7.0;"/><polygon fill="#A80036" points="186.16,258.8592,195.8565,257.1336,190.3026,256.0594,191.3768,250.5055,186.16,258.8592" style="stroke:#A80036;stroke-width:1.0;"/><text fill="#000000" font-family="sans-serif" font-size="13" lengthAdjust="spacing" textLength="89" x="256.5" y="223.7676">依赖使用 use a</text><!--MD5=[a0a91bfadf4545406a2f62c65e5a4889]
link StudentController to StudentView--><path codeLine="34" d="M414.5,180.3492 C414.5,215.8292 414.5,256.4592 414.5,284.5592 " fill="none" id="StudentController-to-StudentView" style="stroke:#A80036;stroke-width:1.0;stroke-dasharray:7.0,7.0;"/><polygon fill="#A80036" points="414.5,289.6592,418.5,280.6592,414.5,284.6592,410.5,280.6592,414.5,289.6592" style="stroke:#A80036;stroke-width:1.0;"/><text fill="#000000" font-family="sans-serif" font-size="13" lengthAdjust="spacing" textLength="89" x="415.5" y="223.7676">依赖使用 use a</text><!--MD5=[2d34bbbff1464afc76df359ea756e92b]
reverse link StudentController to MVCPatternDemo--><path codeLine="35" d="M540.67,183.0092 C596.05,217.1592 658.4,255.6192 702.69,282.9292 " fill="none" id="StudentController-backto-MVCPatternDemo" style="stroke:#A80036;stroke-width:1.0;stroke-dasharray:7.0,7.0;"/><polygon fill="#A80036" points="536.35,180.3492,541.9064,188.4811,540.6044,182.9761,546.1093,181.6741,536.35,180.3492" style="stroke:#A80036;stroke-width:1.0;"/><text fill="#000000" font-family="sans-serif" font-size="13" lengthAdjust="spacing" textLength="89" x="610.5" y="223.7676">依赖使用 use a</text><!--MD5=[a9c1f98be10d58050f55e7ba9a8da3fd]
@startuml
Title 设计模式-mvc模式

class Student {
   - String rollNo;
   - String name;
   + String getRollNo() 
   + void setRollNo(String rollNo) 
   + String getName() 
   + void setName(String name) 
}

class StudentView {
   + void printStudentDetails(String studentName, String studentRollNo)
}

class StudentController {
   - Student model;
   - StudentView view;
 
   + StudentController(Student model, StudentView view)
   + void setStudentName(String name)
   + String getStudentName()
   + void setStudentRollNo(String rollNo)
   + String getStudentRollNo()
   + void updateView()           
}

class MVCPatternDemo {
   + {static} void main(String[] args)
   - {static} Student retrieveStudentFromDatabase()
}

StudentController ..> Student:依赖使用 use a
StudentController ..> StudentView:依赖使用 use a
StudentController <.. MVCPatternDemo:依赖使用 use a


@enduml

PlantUML version 1.2021.7(Sun May 23 20:40:07 CST 2021)
(GPL source distribution)
Java Runtime: OpenJDK Runtime Environment
JVM: OpenJDK 64-Bit Server VM
Default Encoding: UTF-8
Language: zh
Country: CN
--></g></svg>