<?xml version="1.0" encoding="UTF-8" standalone="no"?><svg xmlns="http://www.w3.org/2000/svg" xmlns:xlink="http://www.w3.org/1999/xlink" contentScriptType="application/ecmascript" contentStyleType="text/css" height="444px" preserveAspectRatio="none" style="width:463px;height:444px;background:#FFFFFF;" version="1.1" viewBox="0 0 463 444" width="463px" zoomAndPan="magnify"><defs><filter height="300%" id="fwrhqz15m2iye" width="300%" x="-1" y="-1"><feGaussianBlur result="blurOut" stdDeviation="2.0"/><feColorMatrix in="blurOut" result="blurOut2" type="matrix" values="0 0 0 0 0 0 0 0 0 0 0 0 0 0 0 0 0 0 .4 0"/><feOffset dx="4.0" dy="4.0" in="blurOut2" result="blurOut3"/><feBlend in="SourceGraphic" in2="blurOut3" mode="normal"/></filter></defs><g><text fill="#000000" font-family="sans-serif" font-size="18" lengthAdjust="spacing" textLength="154" x="148.385" y="17.4023">设计模式-模板模式</text><!--MD5=[b6dcce5e5ef3c84b0b048d11301373dd]
class Game--><rect codeLine="3" fill="#FEFECE" filter="url(#fwrhqz15m2iye)" height="99.8203" id="Game" style="stroke:#A80036;stroke-width:1.5;" width="153" x="155.27" y="166.1992"/><ellipse cx="210.52" cy="182.1992" fill="#A9DCDF" rx="11" ry="11" style="stroke:#A80036;stroke-width:1.0;"/><path d="M210.6333,177.7974 L209.4795,182.8691 L211.7954,182.8691 Z M209.1391,175.5562 L212.1357,175.5562 L215.4809,187.9492 L213.0322,187.9492 L212.2685,184.8862 L208.9897,184.8862 L208.2427,187.9492 L205.7939,187.9492 Z " fill="#000000"/><text fill="#000000" font-family="sans-serif" font-size="12" font-style="italic" lengthAdjust="spacing" textLength="34" x="231.02" y="186.7344">Game</text><line style="stroke:#A80036;stroke-width:1.5;" x1="156.27" x2="307.27" y1="198.1992" y2="198.1992"/><line style="stroke:#A80036;stroke-width:1.5;" x1="156.27" x2="307.27" y1="206.1992" y2="206.1992"/><polygon fill="#4177AF" points="166.27,213.1992,162.27,219.1992,170.27,219.1992" style="stroke:#1963A0;stroke-width:1.0;"/><text fill="#000000" font-family="sans-serif" font-size="11" lengthAdjust="spacing" textLength="125" x="175.27" y="220.834">abstract void initialize()</text><polygon fill="#4177AF" points="166.27,226.1543,162.27,232.1543,170.27,232.1543" style="stroke:#1963A0;stroke-width:1.0;"/><text fill="#000000" font-family="sans-serif" font-size="11" lengthAdjust="spacing" textLength="127" x="175.27" y="233.7891">abstract void startPlay()</text><polygon fill="#4177AF" points="166.27,239.1094,162.27,245.1094,170.27,245.1094" style="stroke:#1963A0;stroke-width:1.0;"/><text fill="#000000" font-family="sans-serif" font-size="11" lengthAdjust="spacing" textLength="122" x="175.27" y="246.7441">abstract void endPlay()</text><ellipse cx="166.27" cy="256.0645" fill="#84BE84" rx="3" ry="3" style="stroke:#038048;stroke-width:1.0;"/><text fill="#000000" font-family="sans-serif" font-size="11" lengthAdjust="spacing" textLength="82" x="175.27" y="259.6992">final void play()</text><!--MD5=[75b50a92b1055e02ddaa5a162d3707c5]
class Cricket--><rect codeLine="10" fill="#FEFECE" filter="url(#fwrhqz15m2iye)" height="86.8652" id="Cricket" style="stroke:#A80036;stroke-width:1.5;" width="106" x="66.77" y="343.1992"/><ellipse cx="97.07" cy="359.1992" fill="#ADD1B2" rx="11" ry="11" style="stroke:#A80036;stroke-width:1.0;"/><path d="M99.5431,365.3423 Q98.9621,365.6411 98.3229,365.7905 Q97.6838,365.9399 96.9782,365.9399 Q94.4714,365.9399 93.1515,364.2881 Q91.8317,362.6362 91.8317,359.5151 Q91.8317,356.3857 93.1515,354.7339 Q94.4714,353.082 96.9782,353.082 Q97.6838,353.082 98.3312,353.2314 Q98.9787,353.3809 99.5431,353.6797 L99.5431,356.4023 Q98.9123,355.8213 98.3188,355.5515 Q97.7253,355.2817 97.0944,355.2817 Q95.7497,355.2817 95.0649,356.3484 Q94.3801,357.415 94.3801,359.5151 Q94.3801,361.6069 95.0649,362.6736 Q95.7497,363.7402 97.0944,363.7402 Q97.7253,363.7402 98.3188,363.4705 Q98.9123,363.2007 99.5431,362.6196 Z " fill="#000000"/><text fill="#000000" font-family="sans-serif" font-size="12" lengthAdjust="spacing" textLength="40" x="114.47" y="363.7344">Cricket</text><line style="stroke:#A80036;stroke-width:1.5;" x1="67.77" x2="171.77" y1="375.1992" y2="375.1992"/><line style="stroke:#A80036;stroke-width:1.5;" x1="67.77" x2="171.77" y1="383.1992" y2="383.1992"/><polygon fill="#4177AF" points="77.77,390.1992,73.77,396.1992,81.77,396.1992" style="stroke:#1963A0;stroke-width:1.0;"/><text fill="#000000" font-family="sans-serif" font-size="11" lengthAdjust="spacing" textLength="78" x="86.77" y="397.834">void initialize()</text><polygon fill="#4177AF" points="77.77,403.1543,73.77,409.1543,81.77,409.1543" style="stroke:#1963A0;stroke-width:1.0;"/><text fill="#000000" font-family="sans-serif" font-size="11" lengthAdjust="spacing" textLength="80" x="86.77" y="410.7891">void startPlay()</text><polygon fill="#4177AF" points="77.77,416.1094,73.77,422.1094,81.77,422.1094" style="stroke:#1963A0;stroke-width:1.0;"/><text fill="#000000" font-family="sans-serif" font-size="11" lengthAdjust="spacing" textLength="75" x="86.77" y="423.7441">void endPlay()</text><!--MD5=[71ad7d676172a4c06fd1ca12122778bf]
class Football--><rect codeLine="15" fill="#FEFECE" filter="url(#fwrhqz15m2iye)" height="86.8652" id="Football" style="stroke:#A80036;stroke-width:1.5;" width="106" x="242.77" y="343.1992"/><ellipse cx="270.82" cy="359.1992" fill="#ADD1B2" rx="11" ry="11" style="stroke:#A80036;stroke-width:1.0;"/><path d="M273.2931,365.3423 Q272.7121,365.6411 272.0729,365.7905 Q271.4338,365.9399 270.7282,365.9399 Q268.2214,365.9399 266.9015,364.2881 Q265.5817,362.6362 265.5817,359.5151 Q265.5817,356.3857 266.9015,354.7339 Q268.2214,353.082 270.7282,353.082 Q271.4338,353.082 272.0812,353.2314 Q272.7287,353.3809 273.2931,353.6797 L273.2931,356.4023 Q272.6623,355.8213 272.0688,355.5515 Q271.4753,355.2817 270.8444,355.2817 Q269.4997,355.2817 268.8149,356.3484 Q268.1301,357.415 268.1301,359.5151 Q268.1301,361.6069 268.8149,362.6736 Q269.4997,363.7402 270.8444,363.7402 Q271.4753,363.7402 272.0688,363.4705 Q272.6623,363.2007 273.2931,362.6196 Z " fill="#000000"/><text fill="#000000" font-family="sans-serif" font-size="12" lengthAdjust="spacing" textLength="45" x="287.72" y="363.7344">Football</text><line style="stroke:#A80036;stroke-width:1.5;" x1="243.77" x2="347.77" y1="375.1992" y2="375.1992"/><line style="stroke:#A80036;stroke-width:1.5;" x1="243.77" x2="347.77" y1="383.1992" y2="383.1992"/><polygon fill="#4177AF" points="253.77,390.1992,249.77,396.1992,257.77,396.1992" style="stroke:#1963A0;stroke-width:1.0;"/><text fill="#000000" font-family="sans-serif" font-size="11" lengthAdjust="spacing" textLength="78" x="262.77" y="397.834">void initialize()</text><polygon fill="#4177AF" points="253.77,403.1543,249.77,409.1543,257.77,409.1543" style="stroke:#1963A0;stroke-width:1.0;"/><text fill="#000000" font-family="sans-serif" font-size="11" lengthAdjust="spacing" textLength="80" x="262.77" y="410.7891">void startPlay()</text><polygon fill="#4177AF" points="253.77,416.1094,249.77,422.1094,257.77,422.1094" style="stroke:#1963A0;stroke-width:1.0;"/><text fill="#000000" font-family="sans-serif" font-size="11" lengthAdjust="spacing" textLength="75" x="262.77" y="423.7441">void endPlay()</text><!--MD5=[d8d1eb4512c8893cfc976a6d91776e90]
class TemplatePatternDemo--><rect codeLine="24" fill="#FEFECE" filter="url(#fwrhqz15m2iye)" height="60.9551" id="TemplatePatternDemo" style="stroke:#A80036;stroke-width:1.5;" width="162" x="150.77" y="28.1992"/><ellipse cx="165.77" cy="44.1992" fill="#ADD1B2" rx="11" ry="11" style="stroke:#A80036;stroke-width:1.0;"/><path d="M168.2431,50.3423 Q167.6621,50.6411 167.0229,50.7905 Q166.3838,50.9399 165.6782,50.9399 Q163.1714,50.9399 161.8515,49.2881 Q160.5317,47.6362 160.5317,44.5151 Q160.5317,41.3857 161.8515,39.7339 Q163.1714,38.082 165.6782,38.082 Q166.3838,38.082 167.0312,38.2314 Q167.6787,38.3809 168.2431,38.6797 L168.2431,41.4023 Q167.6123,40.8213 167.0188,40.5515 Q166.4253,40.2817 165.7944,40.2817 Q164.4497,40.2817 163.7649,41.3484 Q163.0801,42.415 163.0801,44.5151 Q163.0801,46.6069 163.7649,47.6736 Q164.4497,48.7402 165.7944,48.7402 Q166.4253,48.7402 167.0188,48.4705 Q167.6123,48.2007 168.2431,47.6196 Z " fill="#000000"/><text fill="#000000" font-family="sans-serif" font-size="12" lengthAdjust="spacing" textLength="130" x="179.77" y="48.7344">TemplatePatternDemo</text><line style="stroke:#A80036;stroke-width:1.5;" x1="151.77" x2="311.77" y1="60.1992" y2="60.1992"/><line style="stroke:#A80036;stroke-width:1.5;" x1="151.77" x2="311.77" y1="68.1992" y2="68.1992"/><ellipse cx="161.77" cy="79.1992" fill="#84BE84" rx="3" ry="3" style="stroke:#038048;stroke-width:1.0;"/><text fill="#000000" font-family="sans-serif" font-size="11" lengthAdjust="spacing" text-decoration="underline" textLength="127" x="170.77" y="82.834">void main(String[] args)</text><!--MD5=[27d1c0e599569c3a23444f8b65f42073]
reverse link Game to Cricket--><path codeLine="21" d="M187.9,283.1992 C174.54,303.3092 160.2,324.8892 148.14,343.0292 " fill="none" id="Game-backto-Cricket" style="stroke:#A80036;stroke-width:1.0;"/><polygon fill="none" points="182.18,279.1692,199.08,266.3892,193.84,286.9192,182.18,279.1692" style="stroke:#A80036;stroke-width:1.0;"/><text fill="#000000" font-family="sans-serif" font-size="13" lengthAdjust="spacing" textLength="47" x="180.77" y="309.7676">extents</text><!--MD5=[654a3de15a2d92410fc3497d70f75379]
reverse link Game to Football--><path codeLine="22" d="M257.65,285.3292 C265.06,304.8292 272.92,325.5192 279.57,343.0292 " fill="none" id="Game-backto-Football" style="stroke:#A80036;stroke-width:1.0;"/><polygon fill="none" points="251.02,287.5692,250.46,266.3892,264.1,282.5992,251.02,287.5692" style="stroke:#A80036;stroke-width:1.0;"/><text fill="#000000" font-family="sans-serif" font-size="13" lengthAdjust="spacing" textLength="47" x="268.77" y="309.7676">extents</text><!--MD5=[9cbfdf11192cf4047f92bb1f3646c548]
link TemplatePatternDemo to Game--><path codeLine="28" d="M231.77,89.3092 C231.77,109.5492 231.77,136.9592 231.77,161.0392 " fill="none" id="TemplatePatternDemo-to-Game" style="stroke:#A80036;stroke-width:1.0;stroke-dasharray:7.0,7.0;"/><polygon fill="#A80036" points="231.77,166.1192,235.77,157.1192,231.77,161.1192,227.77,157.1192,231.77,166.1192" style="stroke:#A80036;stroke-width:1.0;"/><text fill="#000000" font-family="sans-serif" font-size="13" lengthAdjust="spacing" textLength="97" x="232.77" y="132.7676">依赖-使用 use a</text><!--MD5=[b65986694e624ac147d8f132e0d860ef]
link TemplatePatternDemo to Cricket--><path codeLine="29" d="M150.49,82.6592 C109.31,98.8592 63,125.1692 38.77,166.1992 C6,221.7192 45,292.7592 79.37,338.7392 " fill="none" id="TemplatePatternDemo-to-Cricket" style="stroke:#A80036;stroke-width:1.0;stroke-dasharray:7.0,7.0;"/><polygon fill="#A80036" points="82.47,342.8392,80.2098,333.2532,79.4449,338.8581,73.84,338.0933,82.47,342.8392" style="stroke:#A80036;stroke-width:1.0;"/><text fill="#000000" font-family="sans-serif" font-size="13" lengthAdjust="spacing" textLength="97" x="39.77" y="221.2676">依赖-使用 use a</text><!--MD5=[1872aa07479db471a2f59004b94aa721]
link TemplatePatternDemo to Football--><path codeLine="30" d="M309.09,89.2092 C320.95,97.1492 331.61,107.0192 338.77,119.1992 C378.98,187.5692 347.24,282.0192 321.1,338.1792 " fill="none" id="TemplatePatternDemo-to-Football" style="stroke:#A80036;stroke-width:1.0;stroke-dasharray:7.0,7.0;"/><polygon fill="#A80036" points="318.91,342.8192,326.383,336.404,321.0541,338.3023,319.1559,332.9734,318.91,342.8192" style="stroke:#A80036;stroke-width:1.0;"/><text fill="#000000" font-family="sans-serif" font-size="13" lengthAdjust="spacing" textLength="97" x="358.77" y="221.2676">依赖-使用 use a</text><!--MD5=[0f2b61f862c7ca48bcea112f93c08d31]
@startuml
Title 设计模式-模板模式

abstract class Game{
    ~ abstract void initialize()
    ~ abstract void startPlay()
    ~ abstract void endPlay()
    + final void play()
}

class Cricket {
    ~ void initialize()
    ~ void startPlay()
    ~ void endPlay()
}
class Football {
    ~ void initialize()
    ~ void startPlay()
    ~ void endPlay()
}

Game <|- - Cricket:extents
Game <|- - Football:extents

class TemplatePatternDemo{
    + {static} void main(String[] args)
}

TemplatePatternDemo ..> Game:依赖-使用 use a
TemplatePatternDemo ..> Cricket:依赖-使用 use a
TemplatePatternDemo ..> Football:依赖-使用 use a


@enduml

PlantUML version 1.2021.7(Sun May 23 20:40:07 CST 2021)
(GPL source distribution)
Java Runtime: OpenJDK Runtime Environment
JVM: OpenJDK 64-Bit Server VM
Default Encoding: UTF-8
Language: zh
Country: CN
--></g></svg>