<?xml version="1.0" encoding="UTF-8" standalone="no"?><svg xmlns="http://www.w3.org/2000/svg" xmlns:xlink="http://www.w3.org/1999/xlink" contentScriptType="application/ecmascript" contentStyleType="text/css" height="467px" preserveAspectRatio="none" style="width:1498px;height:467px;background:#FFFFFF;" version="1.1" viewBox="0 0 1498 467" width="1498px" zoomAndPan="magnify"><defs><filter height="300%" id="f1vzeclntb3lez" width="300%" x="-1" y="-1"><feGaussianBlur result="blurOut" stdDeviation="2.0"/><feColorMatrix in="blurOut" result="blurOut2" type="matrix" values="0 0 0 0 0 0 0 0 0 0 0 0 0 0 0 0 0 0 .4 0"/><feOffset dx="4.0" dy="4.0" in="blurOut2" result="blurOut3"/><feBlend in="SourceGraphic" in2="blurOut3" mode="normal"/></filter></defs><g><text fill="#000000" font-family="sans-serif" font-size="18" lengthAdjust="spacing" textLength="172" x="656.5" y="17.4023">设计模式-访问者模式</text><!--MD5=[fa329a1c24fe40e0fe4cc2630fa6c59f]
class ComputerPart--><rect codeLine="3" fill="#FEFECE" filter="url(#f1vzeclntb3lez)" height="60.9551" id="ComputerPart" style="stroke:#A80036;stroke-width:1.5;" width="319" x="707.5" y="224.6992"/><ellipse cx="822.75" cy="240.6992" fill="#B4A7E5" rx="11" ry="11" style="stroke:#A80036;stroke-width:1.0;"/><path d="M819.1777,236.9644 L819.1777,234.8062 L826.5571,234.8062 L826.5571,236.9644 L824.0918,236.9644 L824.0918,245.041 L826.5571,245.041 L826.5571,247.1992 L819.1777,247.1992 L819.1777,245.041 L821.6431,245.041 L821.6431,236.9644 Z " fill="#000000"/><text fill="#000000" font-family="sans-serif" font-size="12" font-style="italic" lengthAdjust="spacing" textLength="80" x="843.25" y="245.2344">ComputerPart</text><line style="stroke:#A80036;stroke-width:1.5;" x1="708.5" x2="1025.5" y1="256.6992" y2="256.6992"/><line style="stroke:#A80036;stroke-width:1.5;" x1="708.5" x2="1025.5" y1="264.6992" y2="264.6992"/><ellipse cx="718.5" cy="275.6992" fill="#84BE84" rx="3" ry="3" style="stroke:#038048;stroke-width:1.0;"/><text fill="#000000" font-family="sans-serif" font-size="11" lengthAdjust="spacing" textLength="293" x="727.5" y="279.334">void accept(ComputerPartVisitor computerPartVisitor);</text><!--MD5=[e17bd019cf9874112af63a52ea874b62]
class Keyboard--><rect codeLine="7" fill="#FEFECE" filter="url(#f1vzeclntb3lez)" height="60.9551" id="Keyboard" style="stroke:#A80036;stroke-width:1.5;" width="316" x="7" y="379.1992"/><ellipse cx="132.75" cy="395.1992" fill="#ADD1B2" rx="11" ry="11" style="stroke:#A80036;stroke-width:1.0;"/><path d="M135.2231,401.3423 Q134.6421,401.6411 134.0029,401.7905 Q133.3638,401.9399 132.6582,401.9399 Q130.1514,401.9399 128.8315,400.2881 Q127.5117,398.6362 127.5117,395.5151 Q127.5117,392.3857 128.8315,390.7339 Q130.1514,389.082 132.6582,389.082 Q133.3638,389.082 134.0112,389.2314 Q134.6587,389.3809 135.2231,389.6797 L135.2231,392.4023 Q134.5923,391.8213 133.9988,391.5515 Q133.4053,391.2817 132.7744,391.2817 Q131.4297,391.2817 130.7449,392.3484 Q130.0601,393.415 130.0601,395.5151 Q130.0601,397.6069 130.7449,398.6736 Q131.4297,399.7402 132.7744,399.7402 Q133.4053,399.7402 133.9988,399.4705 Q134.5923,399.2007 135.2231,398.6196 Z " fill="#000000"/><text fill="#000000" font-family="sans-serif" font-size="12" lengthAdjust="spacing" textLength="56" x="153.25" y="399.7344">Keyboard</text><line style="stroke:#A80036;stroke-width:1.5;" x1="8" x2="322" y1="411.1992" y2="411.1992"/><line style="stroke:#A80036;stroke-width:1.5;" x1="8" x2="322" y1="419.1992" y2="419.1992"/><ellipse cx="18" cy="430.1992" fill="#84BE84" rx="3" ry="3" style="stroke:#038048;stroke-width:1.0;"/><text fill="#000000" font-family="sans-serif" font-size="11" lengthAdjust="spacing" textLength="290" x="27" y="433.834">void accept(ComputerPartVisitor computerPartVisitor)</text><!--MD5=[9e90051182cb12ed686a454235a977a2]
class Monitor--><rect codeLine="11" fill="#FEFECE" filter="url(#f1vzeclntb3lez)" height="60.9551" id="Monitor" style="stroke:#A80036;stroke-width:1.5;" width="316" x="358" y="379.1992"/><ellipse cx="490.25" cy="395.1992" fill="#ADD1B2" rx="11" ry="11" style="stroke:#A80036;stroke-width:1.0;"/><path d="M492.7231,401.3423 Q492.1421,401.6411 491.5029,401.7905 Q490.8638,401.9399 490.1582,401.9399 Q487.6514,401.9399 486.3315,400.2881 Q485.0117,398.6362 485.0117,395.5151 Q485.0117,392.3857 486.3315,390.7339 Q487.6514,389.082 490.1582,389.082 Q490.8638,389.082 491.5112,389.2314 Q492.1587,389.3809 492.7231,389.6797 L492.7231,392.4023 Q492.0923,391.8213 491.4988,391.5515 Q490.9053,391.2817 490.2744,391.2817 Q488.9297,391.2817 488.2449,392.3484 Q487.5601,393.415 487.5601,395.5151 Q487.5601,397.6069 488.2449,398.6736 Q488.9297,399.7402 490.2744,399.7402 Q490.9053,399.7402 491.4988,399.4705 Q492.0923,399.2007 492.7231,398.6196 Z " fill="#000000"/><text fill="#000000" font-family="sans-serif" font-size="12" lengthAdjust="spacing" textLength="43" x="510.75" y="399.7344">Monitor</text><line style="stroke:#A80036;stroke-width:1.5;" x1="359" x2="673" y1="411.1992" y2="411.1992"/><line style="stroke:#A80036;stroke-width:1.5;" x1="359" x2="673" y1="419.1992" y2="419.1992"/><ellipse cx="369" cy="430.1992" fill="#84BE84" rx="3" ry="3" style="stroke:#038048;stroke-width:1.0;"/><text fill="#000000" font-family="sans-serif" font-size="11" lengthAdjust="spacing" textLength="290" x="378" y="433.834">void accept(ComputerPartVisitor computerPartVisitor)</text><!--MD5=[9d20eee4aed475d35a2e03a568297074]
class Mouse--><rect codeLine="15" fill="#FEFECE" filter="url(#f1vzeclntb3lez)" height="60.9551" id="Mouse" style="stroke:#A80036;stroke-width:1.5;" width="316" x="709" y="379.1992"/><ellipse cx="844.25" cy="395.1992" fill="#ADD1B2" rx="11" ry="11" style="stroke:#A80036;stroke-width:1.0;"/><path d="M846.7231,401.3423 Q846.1421,401.6411 845.5029,401.7905 Q844.8638,401.9399 844.1582,401.9399 Q841.6514,401.9399 840.3315,400.2881 Q839.0117,398.6362 839.0117,395.5151 Q839.0117,392.3857 840.3315,390.7339 Q841.6514,389.082 844.1582,389.082 Q844.8638,389.082 845.5112,389.2314 Q846.1587,389.3809 846.7231,389.6797 L846.7231,392.4023 Q846.0923,391.8213 845.4988,391.5515 Q844.9053,391.2817 844.2744,391.2817 Q842.9297,391.2817 842.2449,392.3484 Q841.5601,393.415 841.5601,395.5151 Q841.5601,397.6069 842.2449,398.6736 Q842.9297,399.7402 844.2744,399.7402 Q844.9053,399.7402 845.4988,399.4705 Q846.0923,399.2007 846.7231,398.6196 Z " fill="#000000"/><text fill="#000000" font-family="sans-serif" font-size="12" lengthAdjust="spacing" textLength="37" x="864.75" y="399.7344">Mouse</text><line style="stroke:#A80036;stroke-width:1.5;" x1="710" x2="1024" y1="411.1992" y2="411.1992"/><line style="stroke:#A80036;stroke-width:1.5;" x1="710" x2="1024" y1="419.1992" y2="419.1992"/><ellipse cx="720" cy="430.1992" fill="#84BE84" rx="3" ry="3" style="stroke:#038048;stroke-width:1.0;"/><text fill="#000000" font-family="sans-serif" font-size="11" lengthAdjust="spacing" textLength="290" x="729" y="433.834">void accept(ComputerPartVisitor computerPartVisitor)</text><!--MD5=[db25027423b3b96a5b12184dc6d389a4]
class Computer--><rect codeLine="19" fill="#FEFECE" filter="url(#f1vzeclntb3lez)" height="86.8652" id="Computer" style="stroke:#A80036;stroke-width:1.5;" width="316" x="1060" y="366.1992"/><ellipse cx="1185.25" cy="382.1992" fill="#ADD1B2" rx="11" ry="11" style="stroke:#A80036;stroke-width:1.0;"/><path d="M1187.7231,388.3423 Q1187.1421,388.6411 1186.5029,388.7905 Q1185.8638,388.9399 1185.1582,388.9399 Q1182.6514,388.9399 1181.3315,387.2881 Q1180.0117,385.6362 1180.0117,382.5151 Q1180.0117,379.3857 1181.3315,377.7339 Q1182.6514,376.082 1185.1582,376.082 Q1185.8638,376.082 1186.5112,376.2314 Q1187.1587,376.3809 1187.7231,376.6797 L1187.7231,379.4023 Q1187.0923,378.8213 1186.4988,378.5515 Q1185.9053,378.2817 1185.2744,378.2817 Q1183.9297,378.2817 1183.2449,379.3484 Q1182.5601,380.415 1182.5601,382.5151 Q1182.5601,384.6069 1183.2449,385.6736 Q1183.9297,386.7402 1185.2744,386.7402 Q1185.9053,386.7402 1186.4988,386.4705 Q1187.0923,386.2007 1187.7231,385.6196 Z " fill="#000000"/><text fill="#000000" font-family="sans-serif" font-size="12" lengthAdjust="spacing" textLength="57" x="1205.75" y="386.7344">Computer</text><line style="stroke:#A80036;stroke-width:1.5;" x1="1061" x2="1375" y1="398.1992" y2="398.1992"/><polygon fill="none" points="1071,405.1992,1067,411.1992,1075,411.1992" style="stroke:#1963A0;stroke-width:1.0;"/><text fill="#000000" font-family="sans-serif" font-size="11" lengthAdjust="spacing" textLength="117" x="1080" y="412.834">ComputerPart[] parts;</text><line style="stroke:#A80036;stroke-width:1.5;" x1="1061" x2="1375" y1="419.1543" y2="419.1543"/><ellipse cx="1071" cy="430.1543" fill="#84BE84" rx="3" ry="3" style="stroke:#038048;stroke-width:1.0;"/><text fill="#000000" font-family="sans-serif" font-size="11" lengthAdjust="spacing" textLength="62" x="1080" y="433.7891">Computer()</text><ellipse cx="1071" cy="443.1094" fill="#84BE84" rx="3" ry="3" style="stroke:#038048;stroke-width:1.0;"/><text fill="#000000" font-family="sans-serif" font-size="11" lengthAdjust="spacing" textLength="290" x="1080" y="446.7441">void accept(ComputerPartVisitor computerPartVisitor)</text><!--MD5=[84fd37c09cec4771e35aaa44f1c9da70]
class ComputerPartVisitor--><rect codeLine="26" fill="#FEFECE" filter="url(#f1vzeclntb3lez)" height="99.8203" id="ComputerPartVisitor" style="stroke:#A80036;stroke-width:1.5;" width="194" x="1290" y="28.1992"/><ellipse cx="1325.7" cy="44.1992" fill="#B4A7E5" rx="11" ry="11" style="stroke:#A80036;stroke-width:1.0;"/><path d="M1322.1277,40.4644 L1322.1277,38.3062 L1329.5071,38.3062 L1329.5071,40.4644 L1327.0418,40.4644 L1327.0418,48.541 L1329.5071,48.541 L1329.5071,50.6992 L1322.1277,50.6992 L1322.1277,48.541 L1324.5931,48.541 L1324.5931,40.4644 Z " fill="#000000"/><text fill="#000000" font-family="sans-serif" font-size="12" font-style="italic" lengthAdjust="spacing" textLength="116" x="1344.3" y="48.7344">ComputerPartVisitor</text><line style="stroke:#A80036;stroke-width:1.5;" x1="1291" x2="1483" y1="60.1992" y2="60.1992"/><line style="stroke:#A80036;stroke-width:1.5;" x1="1291" x2="1483" y1="68.1992" y2="68.1992"/><ellipse cx="1301" cy="79.1992" fill="#84BE84" rx="3" ry="3" style="stroke:#038048;stroke-width:1.0;"/><text fill="#000000" font-family="sans-serif" font-size="11" lengthAdjust="spacing" textLength="168" x="1310" y="82.834">void visit(Computer computer);</text><ellipse cx="1301" cy="92.1543" fill="#84BE84" rx="3" ry="3" style="stroke:#038048;stroke-width:1.0;"/><text fill="#000000" font-family="sans-serif" font-size="11" lengthAdjust="spacing" textLength="133" x="1310" y="95.7891">void visit(Mouse mouse);</text><ellipse cx="1301" cy="105.1094" fill="#84BE84" rx="3" ry="3" style="stroke:#038048;stroke-width:1.0;"/><text fill="#000000" font-family="sans-serif" font-size="11" lengthAdjust="spacing" textLength="163" x="1310" y="108.7441">void visit(Keyboard keyboard);</text><ellipse cx="1301" cy="118.0645" fill="#84BE84" rx="3" ry="3" style="stroke:#038048;stroke-width:1.0;"/><text fill="#000000" font-family="sans-serif" font-size="11" lengthAdjust="spacing" textLength="147" x="1310" y="121.6992">void visit(Monitor monitor);</text><!--MD5=[3b23ec25e925ff03f888089e0a9fe50f]
class ComputerPartDisplayVisitor--><rect codeLine="33" fill="#FEFECE" filter="url(#f1vzeclntb3lez)" height="99.8203" id="ComputerPartDisplayVisitor" style="stroke:#A80036;stroke-width:1.5;" width="191" x="1291.5" y="205.1992"/><ellipse cx="1306.95" cy="221.1992" fill="#ADD1B2" rx="11" ry="11" style="stroke:#A80036;stroke-width:1.0;"/><path d="M1309.4231,227.3423 Q1308.8421,227.6411 1308.2029,227.7905 Q1307.5638,227.9399 1306.8582,227.9399 Q1304.3514,227.9399 1303.0315,226.2881 Q1301.7117,224.6362 1301.7117,221.5151 Q1301.7117,218.3857 1303.0315,216.7339 Q1304.3514,215.082 1306.8582,215.082 Q1307.5638,215.082 1308.2112,215.2314 Q1308.8587,215.3809 1309.4231,215.6797 L1309.4231,218.4023 Q1308.7923,217.8213 1308.1988,217.5515 Q1307.6053,217.2817 1306.9744,217.2817 Q1305.6297,217.2817 1304.9449,218.3484 Q1304.2601,219.415 1304.2601,221.5151 Q1304.2601,223.6069 1304.9449,224.6736 Q1305.6297,225.7402 1306.9744,225.7402 Q1307.6053,225.7402 1308.1988,225.4705 Q1308.7923,225.2007 1309.4231,224.6196 Z " fill="#000000"/><text fill="#000000" font-family="sans-serif" font-size="12" lengthAdjust="spacing" textLength="158" x="1321.05" y="225.7344">ComputerPartDisplayVisitor</text><line style="stroke:#A80036;stroke-width:1.5;" x1="1292.5" x2="1481.5" y1="237.1992" y2="237.1992"/><line style="stroke:#A80036;stroke-width:1.5;" x1="1292.5" x2="1481.5" y1="245.1992" y2="245.1992"/><ellipse cx="1302.5" cy="256.1992" fill="#84BE84" rx="3" ry="3" style="stroke:#038048;stroke-width:1.0;"/><text fill="#000000" font-family="sans-serif" font-size="11" lengthAdjust="spacing" textLength="165" x="1311.5" y="259.834">void visit(Computer computer)</text><ellipse cx="1302.5" cy="269.1543" fill="#84BE84" rx="3" ry="3" style="stroke:#038048;stroke-width:1.0;"/><text fill="#000000" font-family="sans-serif" font-size="11" lengthAdjust="spacing" textLength="130" x="1311.5" y="272.7891">void visit(Mouse mouse)</text><ellipse cx="1302.5" cy="282.1094" fill="#84BE84" rx="3" ry="3" style="stroke:#038048;stroke-width:1.0;"/><text fill="#000000" font-family="sans-serif" font-size="11" lengthAdjust="spacing" textLength="160" x="1311.5" y="285.7441">void visit(Keyboard keyboard)</text><ellipse cx="1302.5" cy="295.0645" fill="#84BE84" rx="3" ry="3" style="stroke:#038048;stroke-width:1.0;"/><text fill="#000000" font-family="sans-serif" font-size="11" lengthAdjust="spacing" textLength="144" x="1311.5" y="298.6992">void visit(Monitor monitor)</text><!--MD5=[53680421779f0a284719686a08c4d896]
class VisitorPatternDemo--><rect codeLine="40" fill="#FEFECE" filter="url(#f1vzeclntb3lez)" height="60.9551" id="VisitorPatternDemo" style="stroke:#A80036;stroke-width:1.5;" width="153" x="1080.5" y="47.6992"/><ellipse cx="1100" cy="63.6992" fill="#ADD1B2" rx="11" ry="11" style="stroke:#A80036;stroke-width:1.0;"/><path d="M1102.4731,69.8423 Q1101.8921,70.1411 1101.2529,70.2905 Q1100.6138,70.4399 1099.9082,70.4399 Q1097.4014,70.4399 1096.0815,68.7881 Q1094.7617,67.1362 1094.7617,64.0151 Q1094.7617,60.8857 1096.0815,59.2339 Q1097.4014,57.582 1099.9082,57.582 Q1100.6138,57.582 1101.2612,57.7314 Q1101.9087,57.8809 1102.4731,58.1797 L1102.4731,60.9023 Q1101.8423,60.3213 1101.2488,60.0515 Q1100.6553,59.7817 1100.0244,59.7817 Q1098.6797,59.7817 1097.9949,60.8484 Q1097.3101,61.915 1097.3101,64.0151 Q1097.3101,66.1069 1097.9949,67.1736 Q1098.6797,68.2402 1100.0244,68.2402 Q1100.6553,68.2402 1101.2488,67.9705 Q1101.8423,67.7007 1102.4731,67.1196 Z " fill="#000000"/><text fill="#000000" font-family="sans-serif" font-size="12" lengthAdjust="spacing" textLength="111" x="1115" y="68.2344">VisitorPatternDemo</text><line style="stroke:#A80036;stroke-width:1.5;" x1="1081.5" x2="1232.5" y1="79.6992" y2="79.6992"/><line style="stroke:#A80036;stroke-width:1.5;" x1="1081.5" x2="1232.5" y1="87.6992" y2="87.6992"/><ellipse cx="1091.5" cy="98.6992" fill="#84BE84" rx="3" ry="3" style="stroke:#038048;stroke-width:1.0;"/><text fill="#000000" font-family="sans-serif" font-size="11" lengthAdjust="spacing" text-decoration="underline" textLength="127" x="1100.5" y="102.334">void main(String[] args)</text><!--MD5=[bc36ebd1a9511240b86a2d6a81926981]
reverse link ComputerPart to Keyboard--><path d="M699.43,289.7292 C595.71,310.8392 459.91,339.1292 340,366.1992 C322.01,370.2592 303.01,374.7092 284.43,379.1492 " fill="none" id="ComputerPart-backto-Keyboard" style="stroke:#A80036;stroke-width:1.0;stroke-dasharray:7.0,7.0;"/><polygon fill="none" points="698.07,282.8592,719.07,285.7392,700.86,296.5792,698.07,282.8592" style="stroke:#A80036;stroke-width:1.0;"/><!--MD5=[72ed5586b61e2ef39bff8826df541c35]
reverse link ComputerPart to Monitor--><path d="M780.36,293.8392 C719.74,320.1792 639.92,354.8592 583.9,379.1992 " fill="none" id="ComputerPart-backto-Monitor" style="stroke:#A80036;stroke-width:1.0;stroke-dasharray:7.0,7.0;"/><polygon fill="none" points="777.77,287.3292,798.91,285.7792,783.35,300.1692,777.77,287.3292" style="stroke:#A80036;stroke-width:1.0;"/><!--MD5=[96157b1cbb4ab2cc779fe63932bdb219]
reverse link ComputerPart to Mouse--><path d="M867,306.2192 C867,330.2992 867,358.3492 867,379.0092 " fill="none" id="ComputerPart-backto-Mouse" style="stroke:#A80036;stroke-width:1.0;stroke-dasharray:7.0,7.0;"/><polygon fill="none" points="860,305.9692,867,285.9692,874,305.9692,860,305.9692" style="stroke:#A80036;stroke-width:1.0;"/><!--MD5=[433947629a81fd727fa433e5bf37d901]
reverse link ComputerPart to Computer--><path d="M953.7,293.8692 C1004.07,315.7492 1067.69,343.3892 1119.88,366.0692 " fill="none" id="ComputerPart-backto-Computer" style="stroke:#A80036;stroke-width:1.0;stroke-dasharray:7.0,7.0;"/><polygon fill="none" points="950.65,300.1692,935.09,285.7792,956.23,287.3292,950.65,300.1692" style="stroke:#A80036;stroke-width:1.0;"/><!--MD5=[220fc00d7bd11b36bd4a42bbe99fc732]
reverse link ComputerPartVisitor to ComputerPartDisplayVisitor--><path d="M1387,148.6392 C1387,167.5092 1387,187.5592 1387,205.0492 " fill="none" id="ComputerPartVisitor-backto-ComputerPartDisplayVisitor" style="stroke:#A80036;stroke-width:1.0;stroke-dasharray:7.0,7.0;"/><polygon fill="none" points="1380,148.4092,1387,128.4092,1394,148.4092,1380,148.4092" style="stroke:#A80036;stroke-width:1.0;"/><!--MD5=[710b42f90e0f728d15fdd896e2b38d08]
link VisitorPatternDemo to ComputerPart--><path codeLine="44" d="M1107.81,108.8892 C1055.78,140.2792 973.97,189.6492 920.4,221.9792 " fill="none" id="VisitorPatternDemo-to-ComputerPart" style="stroke:#A80036;stroke-width:1.0;stroke-dasharray:7.0,7.0;"/><polygon fill="#A80036" points="915.95,224.6592,925.7225,223.4348,920.2312,222.0763,921.5897,216.585,915.95,224.6592" style="stroke:#A80036;stroke-width:1.0;"/><text fill="#000000" font-family="sans-serif" font-size="13" lengthAdjust="spacing" textLength="97" x="1022" y="171.7676">依赖-使用 use a</text><!--MD5=[079d9845f9b09c832ea0e5b4c07da9ba]
link VisitorPatternDemo to Computer--><path codeLine="45" d="M1156.43,108.9192 C1156.24,152.5692 1158.39,236.3292 1175,305.1992 C1179.57,324.1292 1187.13,344.0792 1194.66,361.3592 " fill="none" id="VisitorPatternDemo-to-Computer" style="stroke:#A80036;stroke-width:1.0;stroke-dasharray:7.0,7.0;"/><polygon fill="#A80036" points="1196.78,366.1592,1196.8115,356.3104,1194.7639,361.5837,1189.4906,359.5362,1196.78,366.1592" style="stroke:#A80036;stroke-width:1.0;"/><text fill="#000000" font-family="sans-serif" font-size="13" lengthAdjust="spacing" textLength="97" x="1176" y="260.2676">依赖-使用 use a</text><!--MD5=[b930a8fb425bc613ef130e2e460f6dc6]
link VisitorPatternDemo to ComputerPartDisplayVisitor--><path codeLine="46" d="M1194.48,108.8692 C1218.74,127.9792 1251.09,153.2492 1280,175.1992 C1291.57,183.9792 1303.91,193.2192 1315.94,202.1492 " fill="none" id="VisitorPatternDemo-to-ComputerPartDisplayVisitor" style="stroke:#A80036;stroke-width:1.0;stroke-dasharray:7.0,7.0;"/><polygon fill="#A80036" points="1320.01,205.1692,1315.1414,196.6078,1315.9862,202.2013,1310.3927,203.046,1320.01,205.1692" style="stroke:#A80036;stroke-width:1.0;"/><text fill="#000000" font-family="sans-serif" font-size="13" lengthAdjust="spacing" textLength="97" x="1281" y="171.7676">依赖-使用 use a</text><!--MD5=[bf65dd0acf8ce30d3f1a3acdbd4d4e2b]
@startuml
Title 设计模式-访问者模式

interface ComputerPart {
   + void accept(ComputerPartVisitor computerPartVisitor);
}

class Keyboard  implements ComputerPart {
   + void accept(ComputerPartVisitor computerPartVisitor)
}

class Monitor  implements ComputerPart {
   + void accept(ComputerPartVisitor computerPartVisitor)
}

class Mouse  implements ComputerPart {
   + void accept(ComputerPartVisitor computerPartVisitor)
}

class Computer implements ComputerPart {
   ~ ComputerPart[] parts;
   + Computer()
   + void accept(ComputerPartVisitor computerPartVisitor)
}


interface ComputerPartVisitor {
   + void visit(Computer computer);
   + void visit(Mouse mouse);
   + void visit(Keyboard keyboard);
   + void visit(Monitor monitor);
}

class ComputerPartDisplayVisitor implements ComputerPartVisitor {
   + void visit(Computer computer) 
   + void visit(Mouse mouse) 
   + void visit(Keyboard keyboard) 
   + void visit(Monitor monitor)
}

class VisitorPatternDemo {
   + {static} void main(String[] args)
}

VisitorPatternDemo ..> ComputerPart:依赖-使用 use a
VisitorPatternDemo ..> Computer:依赖-使用 use a
VisitorPatternDemo ..> ComputerPartDisplayVisitor:依赖-使用 use a


@enduml

PlantUML version 1.2021.7(Sun May 23 20:40:07 CST 2021)
(GPL source distribution)
Java Runtime: OpenJDK Runtime Environment
JVM: OpenJDK 64-Bit Server VM
Default Encoding: UTF-8
Language: zh
Country: CN
--></g></svg>