<?xml version="1.0" encoding="UTF-8" standalone="no"?><svg xmlns="http://www.w3.org/2000/svg" xmlns:xlink="http://www.w3.org/1999/xlink" contentScriptType="application/ecmascript" contentStyleType="text/css" height="500px" preserveAspectRatio="none" style="width:605px;height:500px;background:#FFFFFF;" version="1.1" viewBox="0 0 605 500" width="605px" zoomAndPan="magnify"><defs><filter height="300%" id="fldzef5ww3clw" width="300%" x="-1" y="-1"><feGaussianBlur result="blurOut" stdDeviation="2.0"/><feColorMatrix in="blurOut" result="blurOut2" type="matrix" values="0 0 0 0 0 0 0 0 0 0 0 0 0 0 0 0 0 0 .4 0"/><feOffset dx="4.0" dy="4.0" in="blurOut2" result="blurOut3"/><feBlend in="SourceGraphic" in2="blurOut3" mode="normal"/></filter></defs><g><text fill="#000000" font-family="sans-serif" font-size="18" lengthAdjust="spacing" textLength="154" x="219" y="17.4023">设计模式-外观模式</text><!--MD5=[5addd10074bc94483487f22db7bede91]
cluster interfacePackage--><rect fill="#FFFFFF" filter="url(#fldzef5ww3clw)" height="305" style="stroke:#000000;stroke-width:1.5;" width="399" x="7" y="28.1992"/><text fill="#000000" font-family="sans-serif" font-size="14" font-weight="bold" lengthAdjust="spacing" textLength="121" x="146" y="43.7344">interfacePackage</text><!--MD5=[426e75666daf533f17226ff4c87e20fd]
class Shape--><rect codeLine="5" fill="#FEFECE" filter="url(#fldzef5ww3clw)" height="60.9551" id="Shape" style="stroke:#A80036;stroke-width:1.5;" width="72" x="146" y="71.1992"/><ellipse cx="163.25" cy="87.1992" fill="#B4A7E5" rx="11" ry="11" style="stroke:#A80036;stroke-width:1.0;"/><path d="M159.6777,83.4644 L159.6777,81.3062 L167.0571,81.3062 L167.0571,83.4644 L164.5918,83.4644 L164.5918,91.541 L167.0571,91.541 L167.0571,93.6992 L159.6777,93.6992 L159.6777,91.541 L162.1431,91.541 L162.1431,83.4644 Z " fill="#000000"/><text fill="#000000" font-family="sans-serif" font-size="12" font-style="italic" lengthAdjust="spacing" textLength="35" x="177.75" y="91.7344">Shape</text><line style="stroke:#A80036;stroke-width:1.5;" x1="147" x2="217" y1="103.1992" y2="103.1992"/><line style="stroke:#A80036;stroke-width:1.5;" x1="147" x2="217" y1="111.1992" y2="111.1992"/><text fill="#000000" font-family="sans-serif" font-size="11" lengthAdjust="spacing" textLength="60" x="152" y="125.834">void draw()</text><!--MD5=[b5313cd49da22b0744b541f414f8445e]
class Rectangle--><rect codeLine="9" fill="#FEFECE" filter="url(#fldzef5ww3clw)" height="60.9551" id="Rectangle" style="stroke:#A80036;stroke-width:1.5;" width="88" x="31" y="248.1992"/><ellipse cx="46" cy="264.1992" fill="#ADD1B2" rx="11" ry="11" style="stroke:#A80036;stroke-width:1.0;"/><path d="M48.4731,270.3423 Q47.8921,270.6411 47.2529,270.7905 Q46.6138,270.9399 45.9082,270.9399 Q43.4014,270.9399 42.0815,269.2881 Q40.7617,267.6362 40.7617,264.5151 Q40.7617,261.3857 42.0815,259.7339 Q43.4014,258.082 45.9082,258.082 Q46.6138,258.082 47.2612,258.2314 Q47.9087,258.3809 48.4731,258.6797 L48.4731,261.4023 Q47.8423,260.8213 47.2488,260.5515 Q46.6553,260.2817 46.0244,260.2817 Q44.6797,260.2817 43.9949,261.3484 Q43.3101,262.415 43.3101,264.5151 Q43.3101,266.6069 43.9949,267.6736 Q44.6797,268.7402 46.0244,268.7402 Q46.6553,268.7402 47.2488,268.4705 Q47.8423,268.2007 48.4731,267.6196 Z " fill="#000000"/><text fill="#000000" font-family="sans-serif" font-size="12" lengthAdjust="spacing" textLength="56" x="60" y="268.7344">Rectangle</text><line style="stroke:#A80036;stroke-width:1.5;" x1="32" x2="118" y1="280.1992" y2="280.1992"/><line style="stroke:#A80036;stroke-width:1.5;" x1="32" x2="118" y1="288.1992" y2="288.1992"/><ellipse cx="42" cy="299.1992" fill="#84BE84" rx="3" ry="3" style="stroke:#038048;stroke-width:1.0;"/><text fill="#000000" font-family="sans-serif" font-size="11" lengthAdjust="spacing" textLength="60" x="51" y="302.834">void draw()</text><!--MD5=[a7f9118cae7621dd25d25149752faef0]
class Circle--><rect codeLine="13" fill="#FEFECE" filter="url(#fldzef5ww3clw)" height="60.9551" id="Circle" style="stroke:#A80036;stroke-width:1.5;" width="86" x="154" y="248.1992"/><ellipse cx="178.9" cy="264.1992" fill="#ADD1B2" rx="11" ry="11" style="stroke:#A80036;stroke-width:1.0;"/><path d="M181.3731,270.3423 Q180.7921,270.6411 180.1529,270.7905 Q179.5138,270.9399 178.8082,270.9399 Q176.3014,270.9399 174.9815,269.2881 Q173.6617,267.6362 173.6617,264.5151 Q173.6617,261.3857 174.9815,259.7339 Q176.3014,258.082 178.8082,258.082 Q179.5138,258.082 180.1612,258.2314 Q180.8087,258.3809 181.3731,258.6797 L181.3731,261.4023 Q180.7423,260.8213 180.1488,260.5515 Q179.5553,260.2817 178.9244,260.2817 Q177.5797,260.2817 176.8949,261.3484 Q176.2101,262.415 176.2101,264.5151 Q176.2101,266.6069 176.8949,267.6736 Q177.5797,268.7402 178.9244,268.7402 Q179.5553,268.7402 180.1488,268.4705 Q180.7423,268.2007 181.3731,267.6196 Z " fill="#000000"/><text fill="#000000" font-family="sans-serif" font-size="12" lengthAdjust="spacing" textLength="32" x="195.1" y="268.7344">Circle</text><line style="stroke:#A80036;stroke-width:1.5;" x1="155" x2="239" y1="280.1992" y2="280.1992"/><line style="stroke:#A80036;stroke-width:1.5;" x1="155" x2="239" y1="288.1992" y2="288.1992"/><ellipse cx="165" cy="299.1992" fill="#84BE84" rx="3" ry="3" style="stroke:#038048;stroke-width:1.0;"/><text fill="#000000" font-family="sans-serif" font-size="11" lengthAdjust="spacing" textLength="60" x="174" y="302.834">void draw()</text><!--MD5=[5655ee3e2a0d028d03fe20f829576392]
class Square--><rect codeLine="17" fill="#FEFECE" filter="url(#fldzef5ww3clw)" height="60.9551" id="Square" style="stroke:#A80036;stroke-width:1.5;" width="86" x="275" y="248.1992"/><ellipse cx="296.3" cy="264.1992" fill="#ADD1B2" rx="11" ry="11" style="stroke:#A80036;stroke-width:1.0;"/><path d="M298.7731,270.3423 Q298.1921,270.6411 297.5529,270.7905 Q296.9138,270.9399 296.2082,270.9399 Q293.7014,270.9399 292.3815,269.2881 Q291.0617,267.6362 291.0617,264.5151 Q291.0617,261.3857 292.3815,259.7339 Q293.7014,258.082 296.2082,258.082 Q296.9138,258.082 297.5612,258.2314 Q298.2087,258.3809 298.7731,258.6797 L298.7731,261.4023 Q298.1423,260.8213 297.5488,260.5515 Q296.9553,260.2817 296.3244,260.2817 Q294.9797,260.2817 294.2949,261.3484 Q293.6101,262.415 293.6101,264.5151 Q293.6101,266.6069 294.2949,267.6736 Q294.9797,268.7402 296.3244,268.7402 Q296.9553,268.7402 297.5488,268.4705 Q298.1423,268.2007 298.7731,267.6196 Z " fill="#000000"/><text fill="#000000" font-family="sans-serif" font-size="12" lengthAdjust="spacing" textLength="40" x="311.7" y="268.7344">Square</text><line style="stroke:#A80036;stroke-width:1.5;" x1="276" x2="360" y1="280.1992" y2="280.1992"/><line style="stroke:#A80036;stroke-width:1.5;" x1="276" x2="360" y1="288.1992" y2="288.1992"/><ellipse cx="286" cy="299.1992" fill="#84BE84" rx="3" ry="3" style="stroke:#038048;stroke-width:1.0;"/><text fill="#000000" font-family="sans-serif" font-size="11" lengthAdjust="spacing" textLength="60" x="295" y="302.834">void draw()</text><!--MD5=[94bd80573d3ba26aa60a9b6fcd997bd0]
class ShapeMaker--><rect codeLine="26" fill="#FEFECE" filter="url(#fldzef5ww3clw)" height="138.6855" id="ShapeMaker" style="stroke:#A80036;stroke-width:1.5;" width="138" x="430" y="209.1992"/><ellipse cx="460.75" cy="225.1992" fill="#ADD1B2" rx="11" ry="11" style="stroke:#A80036;stroke-width:1.0;"/><path d="M463.2231,231.3423 Q462.6421,231.6411 462.0029,231.7905 Q461.3638,231.9399 460.6582,231.9399 Q458.1514,231.9399 456.8315,230.2881 Q455.5117,228.6362 455.5117,225.5151 Q455.5117,222.3857 456.8315,220.7339 Q458.1514,219.082 460.6582,219.082 Q461.3638,219.082 462.0112,219.2314 Q462.6587,219.3809 463.2231,219.6797 L463.2231,222.4023 Q462.5923,221.8213 461.9988,221.5515 Q461.4053,221.2817 460.7744,221.2817 Q459.4297,221.2817 458.7449,222.3484 Q458.0601,223.415 458.0601,225.5151 Q458.0601,227.6069 458.7449,228.6736 Q459.4297,229.7402 460.7744,229.7402 Q461.4053,229.7402 461.9988,229.4705 Q462.5923,229.2007 463.2231,228.6196 Z " fill="#000000"/><text fill="#000000" font-family="sans-serif" font-size="12" lengthAdjust="spacing" textLength="71" x="478.25" y="229.7344">ShapeMaker</text><line style="stroke:#A80036;stroke-width:1.5;" x1="431" x2="567" y1="241.1992" y2="241.1992"/><rect fill="none" height="6" style="stroke:#C82930;stroke-width:1.0;" width="6" x="438" y="249.1992"/><text fill="#000000" font-family="sans-serif" font-size="11" lengthAdjust="spacing" textLength="67" x="450" y="255.834">Shape circle;</text><rect fill="none" height="6" style="stroke:#C82930;stroke-width:1.0;" width="6" x="438" y="262.1543"/><text fill="#000000" font-family="sans-serif" font-size="11" lengthAdjust="spacing" textLength="88" x="450" y="268.7891">Shape rectangle;</text><rect fill="none" height="6" style="stroke:#C82930;stroke-width:1.0;" width="6" x="438" y="275.1094"/><text fill="#000000" font-family="sans-serif" font-size="11" lengthAdjust="spacing" textLength="75" x="450" y="281.7441">Shape square;</text><line style="stroke:#A80036;stroke-width:1.5;" x1="431" x2="567" y1="288.0645" y2="288.0645"/><ellipse cx="441" cy="299.0645" fill="#84BE84" rx="3" ry="3" style="stroke:#038048;stroke-width:1.0;"/><text fill="#000000" font-family="sans-serif" font-size="11" lengthAdjust="spacing" textLength="72" x="450" y="302.6992">ShapeMaker()</text><ellipse cx="441" cy="312.0195" fill="#84BE84" rx="3" ry="3" style="stroke:#038048;stroke-width:1.0;"/><text fill="#000000" font-family="sans-serif" font-size="11" lengthAdjust="spacing" textLength="91" x="450" y="315.6543">void drawCircle()</text><ellipse cx="441" cy="324.9746" fill="#84BE84" rx="3" ry="3" style="stroke:#038048;stroke-width:1.0;"/><text fill="#000000" font-family="sans-serif" font-size="11" lengthAdjust="spacing" textLength="112" x="450" y="328.6094">void drawRectangle()</text><ellipse cx="441" cy="337.9297" fill="#84BE84" rx="3" ry="3" style="stroke:#038048;stroke-width:1.0;"/><text fill="#000000" font-family="sans-serif" font-size="11" lengthAdjust="spacing" textLength="97" x="450" y="341.5645">void drawSquare()</text><!--MD5=[9ab094c90c2ee97074a8a02921cf8b51]
class FacadePatternDemo--><rect codeLine="39" fill="#FEFECE" filter="url(#fldzef5ww3clw)" height="60.9551" id="FacadePatternDemo" style="stroke:#A80036;stroke-width:1.5;" width="148" x="425" y="425.1992"/><ellipse cx="440" cy="441.1992" fill="#ADD1B2" rx="11" ry="11" style="stroke:#A80036;stroke-width:1.0;"/><path d="M442.4731,447.3423 Q441.8921,447.6411 441.2529,447.7905 Q440.6138,447.9399 439.9082,447.9399 Q437.4014,447.9399 436.0815,446.2881 Q434.7617,444.6362 434.7617,441.5151 Q434.7617,438.3857 436.0815,436.7339 Q437.4014,435.082 439.9082,435.082 Q440.6138,435.082 441.2612,435.2314 Q441.9087,435.3809 442.4731,435.6797 L442.4731,438.4023 Q441.8423,437.8213 441.2488,437.5515 Q440.6553,437.2817 440.0244,437.2817 Q438.6797,437.2817 437.9949,438.3484 Q437.3101,439.415 437.3101,441.5151 Q437.3101,443.6069 437.9949,444.6736 Q438.6797,445.7402 440.0244,445.7402 Q440.6553,445.7402 441.2488,445.4705 Q441.8423,445.2007 442.4731,444.6196 Z " fill="#000000"/><text fill="#000000" font-family="sans-serif" font-size="12" lengthAdjust="spacing" textLength="116" x="454" y="445.7344">FacadePatternDemo</text><line style="stroke:#A80036;stroke-width:1.5;" x1="426" x2="572" y1="457.1992" y2="457.1992"/><line style="stroke:#A80036;stroke-width:1.5;" x1="426" x2="572" y1="465.1992" y2="465.1992"/><ellipse cx="436" cy="476.1992" fill="#84BE84" rx="3" ry="3" style="stroke:#038048;stroke-width:1.0;"/><text fill="#000000" font-family="sans-serif" font-size="11" lengthAdjust="spacing" textLength="60" x="445" y="479.834">void main()</text><!--MD5=[793668fe740f4b06a80dd095381d024c]
reverse link Shape to Rectangle--><path codeLine="21" d="M128.46,129.4992 C115.7,138.2692 103.37,149.1792 95,162.1992 C78.5,187.8792 74.47,223.1192 73.96,247.8992 " fill="none" id="Shape-backto-Rectangle" style="stroke:#A80036;stroke-width:1.0;stroke-dasharray:7.0,7.0;"/><polygon fill="none" points="125.1,123.3492,145.81,118.8592,132.42,135.2792,125.1,123.3492" style="stroke:#A80036;stroke-width:1.0;"/><text fill="#000000" font-family="sans-serif" font-size="13" lengthAdjust="spacing" textLength="74" x="96" y="175.7676">implements</text><!--MD5=[d637a7d0c5b779627461b5a6979d5756]
reverse link Shape to Circle--><path codeLine="22" d="M179.31,152.4192 C179.18,155.7292 179.08,159.0092 179,162.1992 C178.81,169.7492 178.32,171.6792 179,179.1992 C181.12,202.5692 186.01,228.6892 190.16,248.1492 " fill="none" id="Shape-backto-Circle" style="stroke:#A80036;stroke-width:1.0;stroke-dasharray:7.0,7.0;"/><polygon fill="none" points="172.32,152.0092,180.21,132.3492,186.3,152.6392,172.32,152.0092" style="stroke:#A80036;stroke-width:1.0;"/><text fill="#000000" font-family="sans-serif" font-size="13" lengthAdjust="spacing" textLength="74" x="180" y="175.7676">implements</text><!--MD5=[d4ca5a4026589bf67f913f07d54add2c]
reverse link Shape to Square--><path codeLine="23" d="M234.37,141.8392 C246.49,151.1792 256.59,159.2992 259,162.1992 C280.57,188.1892 297.12,223.3792 307.12,248.0592 " fill="none" id="Shape-backto-Square" style="stroke:#A80036;stroke-width:1.0;stroke-dasharray:7.0,7.0;"/><polygon fill="none" points="230.02,147.3292,218.34,129.6492,238.5,136.1892,230.02,147.3292" style="stroke:#A80036;stroke-width:1.0;"/><text fill="#000000" font-family="sans-serif" font-size="13" lengthAdjust="spacing" textLength="74" x="273" y="175.7676">implements</text><!--MD5=[13cc24a233ec2802e537d615f63870fd]
reverse link interfacePackage to ShapeMaker--><path codeLine="37" d="M406.1138,116.7628 C406.1768,116.8721 406.2402,116.9818 406.3038,117.0921 C406.4311,117.3127 406.5597,117.5354 406.6894,117.7602 C406.9489,118.2098 407.2133,118.6678 407.4824,119.1341 C408.5588,120.999 409.7109,122.9951 410.9302,125.1077 C413.3688,129.333 416.0763,134.0242 418.985,139.0642 C430.62,159.2242 445.475,184.9642 459.22,208.7792 " fill="none" id="interfacePackage-backto-ShapeMaker" style="stroke:#A80036;stroke-width:1.0;stroke-dasharray:7.0,7.0;"/><polygon fill="#A80036" points="406.1138,116.7628,407.1484,126.5572,408.6132,121.0933,414.0772,122.5581,406.1138,116.7628" style="stroke:#A80036;stroke-width:1.0;"/><text fill="#000000" font-family="sans-serif" font-size="13" lengthAdjust="spacing" textLength="97" x="440" y="175.7676">依赖-装饰 use a</text><!--MD5=[ff618ca9fcd227a9bc1c14501e572a54]
reverse link ShapeMaker to FacadePatternDemo--><path codeLine="43" d="M499,353.3792 C499,378.5792 499,405.3592 499,425.0492 " fill="none" id="ShapeMaker-backto-FacadePatternDemo" style="stroke:#A80036;stroke-width:1.0;stroke-dasharray:7.0,7.0;"/><polygon fill="#A80036" points="499,348.3592,495,357.3592,499,353.3592,503,357.3592,499,348.3592" style="stroke:#A80036;stroke-width:1.0;"/><text fill="#000000" font-family="sans-serif" font-size="13" lengthAdjust="spacing" textLength="97" x="500" y="391.7676">依赖-装饰 use a</text><!--MD5=[8758002e32389b233ce8f07343d4e35f]
@startuml
Title 设计模式-外观模式

package interfacePackage <<Rectangle>>{

    interface Shape {
    void draw()
    }

    class Rectangle {
        + void draw()
    }

    class Circle {
        + void draw()
    }

    class Square {
        + void draw()
    }

    Shape <|.. Rectangle:implements
    Shape <|.. Circle:implements
    Shape <|.. Square:implements
}

class ShapeMaker {
   - Shape circle;
   - Shape rectangle;
   - Shape square;
   + ShapeMaker()
   + void drawCircle()
   + void drawRectangle()
   + void drawSquare()
}


interfacePackage <.. ShapeMaker:依赖-装饰 use a

class FacadePatternDemo{
    + void main()
}

ShapeMaker <.. FacadePatternDemo:依赖-装饰 use a


@enduml

PlantUML version 1.2021.7(Sun May 23 20:40:07 CST 2021)
(GPL source distribution)
Java Runtime: OpenJDK Runtime Environment
JVM: OpenJDK 64-Bit Server VM
Default Encoding: UTF-8
Language: zh
Country: CN
--></g></svg>